<svg width="22" height="26" viewBox="0 0 22 26" fill="none" xmlns="http://www.w3.org/2000/svg">
    <style>
        path {
        fill: black;
        }
        @media (prefers-color-scheme: dark) {
        path { fill: #fff; }
        }
    </style>
    <path d="M20.6953 20.1199C20.4055 20.1197 20.1244 20.2222 19.8989 20.4103C19.6735 20.5983 19.5173 20.8606 19.4565 21.1533L14.6741 20.919C14.6921 20.8264 14.7013 20.7322 14.7013 20.6378C14.6996 20.4657 14.6752 20.2946 14.6287 20.1293L16.3688 19.0936C16.5749 19.3599 16.872 19.5345 17.199 19.5813C17.5259 19.628 17.8578 19.5434 18.1261 19.3448C18.3945 19.1463 18.5788 18.8489 18.6411 18.5141C18.7034 18.1793 18.639 17.8325 18.461 17.5454C18.2831 17.2582 18.0053 17.0525 17.6848 16.9707C17.3644 16.889 17.0257 16.9373 16.7388 17.1058C16.4518 17.2743 16.2384 17.5501 16.1426 17.8764C16.0467 18.2026 16.0757 18.5544 16.2236 18.8592L14.538 19.8645C14.3417 19.4479 13.999 19.1242 13.5797 18.9595C13.1604 18.7948 12.696 18.8014 12.2813 18.9779C11.8665 19.1545 11.5325 19.4877 11.3474 19.9097C11.1622 20.3318 11.1398 20.8109 11.2847 21.2494L8.14932 22.0273C8.12759 21.5868 7.94998 21.1699 7.65021 20.8557L8.21512 20.0473C8.5237 20.1555 8.86068 20.1375 9.15686 19.9971C9.45303 19.8567 9.68591 19.6045 9.80767 19.2923C9.92943 18.9801 9.93083 18.6316 9.81157 18.3183C9.69232 18.0051 9.46146 17.7509 9.16643 17.608C8.87139 17.465 8.53456 17.4442 8.22512 17.5498C7.91568 17.6553 7.65712 17.8793 7.50255 18.1756C7.34798 18.4719 7.30912 18.8181 7.39396 19.1431C7.4788 19.4681 7.6809 19.7472 7.95875 19.9231L7.43922 20.6682C7.07067 20.3855 6.61072 20.2604 6.15513 20.3191L5.61745 17.1486C5.86204 17.0924 6.09215 16.9827 6.29237 16.8271C6.49258 16.6714 6.65828 16.4734 6.77834 16.2462C6.89841 16.019 6.97007 15.768 6.98853 15.5098C7.00698 15.2517 6.97181 14.9925 6.88536 14.7496C6.79892 14.5066 6.66319 14.2856 6.48729 14.1013C6.31138 13.9169 6.09936 13.7736 5.86543 13.6808C5.63151 13.588 5.38108 13.5479 5.13093 13.5632C4.88079 13.5786 4.6367 13.6489 4.41504 13.7696L3.05381 11.0304C3.34193 10.8777 3.58429 10.6468 3.75484 10.3625L4.8892 10.6742C4.87866 10.7361 4.87259 10.7988 4.87105 10.8616C4.87173 11.1902 4.99046 11.5068 5.20422 11.7501C5.41798 11.9934 5.71156 12.1461 6.02809 12.1786C6.26457 12.201 6.50242 12.1548 6.71485 12.0452C6.92727 11.9355 7.10582 11.7667 7.23038 11.5579C7.35494 11.349 7.42055 11.1084 7.41982 10.8631C7.41909 10.6179 7.35205 10.3777 7.22626 10.1696C7.10047 9.96156 6.92092 9.79393 6.70785 9.68561C6.49478 9.5773 6.25665 9.5326 6.02031 9.55655C5.78396 9.5805 5.55879 9.67216 5.37017 9.82118C5.18154 9.97021 5.03696 10.1707 4.95272 10.4L3.88643 10.1095C4.03079 9.7519 4.05944 9.35574 3.9681 8.98L7.11253 7.48264C7.38943 7.85781 7.7968 8.10696 8.24842 8.17736C8.70004 8.24776 9.16046 8.13388 9.53222 7.85982C9.90399 7.58577 10.1579 7.17305 10.2402 6.70903C10.3226 6.24501 10.2269 5.76611 9.97336 5.3737L11.9766 3.34911C12.2208 3.51096 12.4997 3.60833 12.7888 3.63265V4.52544C12.4661 4.56142 12.1691 4.7238 11.9589 4.97917C11.7486 5.23453 11.6411 5.56343 11.6586 5.89816C11.676 6.23289 11.817 6.54798 12.0526 6.77855C12.2882 7.00913 12.6004 7.13765 12.9249 7.13765C13.2495 7.13765 13.5617 7.00913 13.7973 6.77855C14.0328 6.54798 14.1739 6.23289 14.1913 5.89816C14.2088 5.56343 14.1013 5.23453 13.891 4.97917C13.6808 4.7238 13.3837 4.56142 13.0611 4.52544V3.63265C13.3104 3.61476 13.5528 3.54035 13.7712 3.41473L15.9673 6.00404C15.7827 6.25559 15.6647 6.55238 15.6247 6.86527C15.5847 7.17816 15.6241 7.49641 15.7391 7.78881C15.8541 8.08121 16.0407 8.33772 16.2807 8.53317C16.5206 8.72862 16.8056 8.8563 17.1077 8.90368C17.4098 8.95106 17.7186 8.91652 18.0039 8.80344C18.2892 8.69037 18.5411 8.50264 18.7349 8.25868C18.9288 8.01472 19.0579 7.72291 19.1096 7.41186C19.1614 7.10081 19.1339 6.78121 19.03 6.48442L19.7106 6.0884C19.9186 6.35313 20.2169 6.52536 20.5441 6.5696C20.8714 6.61383 21.2026 6.5267 21.4695 6.32615C21.7364 6.12561 21.9186 5.82694 21.9785 5.49173C22.0385 5.15652 21.9717 4.81032 21.7918 4.52451C21.6119 4.2387 21.3328 4.03506 21.0118 3.95558C20.6909 3.8761 20.3526 3.92684 20.0669 4.09734C19.7811 4.26784 19.5695 4.54509 19.4758 4.87194C19.3821 5.1988 19.4134 5.55034 19.5632 5.85407L18.9166 6.23134C18.7866 5.98682 18.6037 5.77653 18.3823 5.61679C18.1609 5.45704 17.9068 5.35214 17.6398 5.31021C17.3727 5.26829 17.0999 5.29046 16.8425 5.37503C16.5852 5.45959 16.3501 5.60427 16.1556 5.79783L14.0071 3.2671C14.2168 3.09351 14.3878 2.87533 14.5085 2.62739L16.3938 2.94842C16.4494 3.29023 16.6343 3.5952 16.9077 3.79625C17.181 3.9973 17.5205 4.07795 17.8514 4.02046C18.1824 3.96298 18.4776 3.77206 18.6723 3.48971C18.8669 3.20737 18.945 2.85672 18.8894 2.51491C18.8514 2.18586 18.694 1.88396 18.4488 1.67023C18.2036 1.4565 17.889 1.34689 17.5686 1.36356C17.2482 1.38023 16.9459 1.52193 16.7227 1.76001C16.4996 1.9981 16.3723 2.31482 16.3666 2.64613L14.6106 2.34385C14.7014 2.03126 14.7091 1.69921 14.6331 1.38245C14.557 1.06569 14.3999 0.775871 14.1783 0.543319C13.9566 0.310766 13.6785 0.144028 13.373 0.0605586C13.0675 -0.0229112 12.746 -0.0200457 12.4419 0.0688539C12.1379 0.157753 11.8626 0.32942 11.6449 0.565887C11.4271 0.802355 11.2749 1.09493 11.2041 1.413C11.1334 1.73106 11.1467 2.06292 11.2427 2.37385C11.3387 2.68478 11.5138 2.96335 11.7498 3.1804L9.79867 5.15578C9.50154 4.79664 9.08103 4.57065 8.62575 4.52544V3.15228C8.9488 3.11621 9.24627 2.95389 9.45718 2.69858C9.66809 2.44327 9.77646 2.11431 9.7601 1.77912C9.74491 1.44571 9.60574 1.13121 9.3716 0.901159C9.13746 0.671107 8.8264 0.543247 8.50324 0.54422C8.17725 0.542926 7.86324 0.671113 7.6262 0.902261C7.38915 1.13341 7.2472 1.44983 7.22971 1.78605C7.21223 2.12228 7.32054 2.45259 7.53225 2.70863C7.74396 2.96468 8.04287 3.12687 8.36712 3.16165V4.52544C8.07044 4.54885 7.78432 4.64945 7.53542 4.81786C7.28653 4.98627 7.08296 5.21702 6.94368 5.4886C6.80439 5.76017 6.73394 6.06374 6.73887 6.37103C6.74379 6.67831 6.82395 6.97931 6.97187 7.24598L3.8955 8.69412C3.78637 8.42107 3.61425 8.17973 3.39412 7.99114L4.58746 5.76971C4.69178 5.79906 4.79924 5.81481 4.90735 5.81658C5.21869 5.81843 5.5199 5.70234 5.75396 5.49028C5.98803 5.27821 6.13872 4.98489 6.17751 4.6658C6.2163 4.34672 6.1405 4.02403 5.96447 3.75877C5.78843 3.49352 5.52436 3.30412 5.22224 3.22641C4.92011 3.1487 4.60088 3.18807 4.32497 3.33707C4.04905 3.48608 3.83559 3.73438 3.72497 4.03499C3.61435 4.33559 3.61426 4.66765 3.7247 4.96833C3.83514 5.269 4.04846 5.51743 4.32429 5.66661L3.16725 7.8318C2.9138 7.6774 2.62696 7.59098 2.33289 7.58044C2.03881 7.56989 1.74686 7.63554 1.48365 7.77141C1.22044 7.90728 0.994352 8.10904 0.825991 8.3583C0.65763 8.60755 0.552357 8.89638 0.519772 9.19843C0.487186 9.50048 0.528324 9.80615 0.639435 10.0876C0.750546 10.369 0.928095 10.6172 1.15589 10.8096C1.38369 11.002 1.65449 11.1324 1.9436 11.189C2.2327 11.2455 2.53092 11.2265 2.81106 11.1335L4.18817 13.9102C3.83762 14.174 3.59493 14.5634 3.50756 15.0022L2.50706 14.6999C2.53252 14.5958 2.54473 14.4886 2.54336 14.3812C2.54368 14.0604 2.42958 13.7507 2.22285 13.5112C2.01612 13.2718 1.73124 13.1194 1.42262 13.0831C1.11381 13.0464 0.802656 13.1273 0.547475 13.3107C0.292295 13.494 0.110599 13.7672 0.0364386 14.079C-0.0382016 14.3921 0.00269284 14.7228 0.151156 15.0065C0.29962 15.2902 0.545021 15.5067 0.83956 15.6138C1.13112 15.7229 1.45123 15.718 1.73957 15.6002C2.02791 15.4823 2.26457 15.2597 2.40497 14.9741L3.47126 15.2928V15.3795C3.46953 15.6838 3.54326 15.9836 3.68543 16.2502C3.8276 16.5168 4.03347 16.7414 4.28345 16.9026L3.60284 17.8258C3.36011 17.619 3.04993 17.5159 2.73595 17.5378C2.42198 17.5597 2.12801 17.7048 1.91436 17.9435C1.70071 18.1821 1.58358 18.4961 1.58701 18.8212C1.59043 19.1462 1.71415 19.4575 1.93278 19.6913C2.15141 19.9251 2.44837 20.0636 2.76273 20.0784C3.07709 20.0932 3.38502 19.9832 3.62334 19.7709C3.86166 19.5586 4.01229 19.2602 4.04434 18.9369C4.07639 18.6135 3.98742 18.2898 3.79568 18.0321L4.54208 17.0409C4.76524 17.1444 5.00758 17.1964 5.25219 17.1932C5.28911 17.1977 5.32643 17.1977 5.36336 17.1932L5.90331 20.373C5.54749 20.4839 5.23406 20.7068 5.00672 21.0105C4.77938 21.3142 4.64947 21.6836 4.6351 22.0672C4.62648 22.4514 4.73577 22.8285 4.94732 23.1446C5.15887 23.4607 5.46184 23.6996 5.81284 23.8271C6.16385 23.9545 6.54489 23.9639 6.90141 23.8541C7.25794 23.7442 7.57166 23.5206 7.79767 23.2154L10.3477 24.387C10.3267 24.4825 10.3145 24.5797 10.3114 24.6776C10.3095 25.001 10.4231 25.3137 10.6305 25.556C10.8379 25.7983 11.1244 25.9532 11.4354 25.991C11.7463 26.0288 12.0599 25.9469 12.316 25.7609C12.5722 25.5749 12.753 25.298 12.8238 24.983C12.8947 24.668 12.8507 24.337 12.7001 24.0535C12.5496 23.7699 12.3032 23.5536 12.0079 23.4459C11.7127 23.3382 11.3894 23.3467 11.0999 23.4697C10.8103 23.5928 10.5748 23.8217 10.4384 24.1128L7.94514 22.9646C8.05621 22.7581 8.12421 22.5298 8.14479 22.2945L11.389 21.4767C11.5107 21.7098 11.6805 21.9124 11.8863 22.0703C12.0922 22.2282 12.3291 22.3375 12.5803 22.3905C12.8315 22.4434 13.0909 22.4388 13.3402 22.3768C13.5895 22.3149 13.8226 22.1972 14.023 22.032L15.2345 23.1146C15.0944 23.421 15.0742 23.7714 15.1782 24.0928C15.2822 24.4142 15.5023 24.6817 15.7926 24.8394C16.0829 24.9972 16.421 25.0331 16.7364 24.9397C17.0517 24.8462 17.3199 24.6306 17.485 24.3378C17.6527 24.0494 17.7071 23.7056 17.6371 23.3771C17.5671 23.0486 17.3781 22.7601 17.1088 22.571C16.8395 22.3818 16.5103 22.3063 16.1887 22.3599C15.8672 22.4135 15.5777 22.5921 15.3797 22.8592L14.2226 21.8352C14.3944 21.642 14.5251 21.4137 14.6061 21.165L19.4248 21.3993C19.4284 21.7457 19.5644 22.0766 19.8033 22.3198C20.0421 22.563 20.3644 22.6988 20.6998 22.6975C21.0331 22.6975 21.3528 22.5607 21.5885 22.3173C21.8242 22.0738 21.9567 21.7436 21.9567 21.3993C21.9567 21.055 21.8242 20.7248 21.5885 20.4814C21.3528 20.2379 21.0331 20.1012 20.6998 20.1012L20.6953 20.1199Z"/>
</svg>
