<svg viewBox="0 0 24 24" fill="none" xmlns="http://www.w3.org/2000/svg">
<path fill-rule="evenodd" clip-rule="evenodd" d="M7.38775 6.53033C7.68065 6.23744 7.68065 5.76256 7.38775 5.46967C7.09486 5.17678 6.61999 5.17678 6.32709 5.46967L0.327092 11.4697C0.180645 11.6161 0.107422 11.8081 0.107422 12C0.107422 12.1017 0.127661 12.1987 0.164331 12.2871C0.200931 12.3755 0.255184 12.4584 0.327092 12.5303L6.32709 18.5303C6.61999 18.8232 7.09486 18.8232 7.38775 18.5303C7.68065 18.2374 7.68065 17.7626 7.38775 17.4697L2.66808 12.75H23.1431C23.5574 12.75 23.8931 12.4142 23.8931 12C23.8931 11.5858 23.5574 11.25 23.1431 11.25H2.66808L7.38775 6.53033Z" fill="#0024CF"/>
</svg>
