<svg viewBox="0 0 24 24" fill="none" xmlns="http://www.w3.org/2000/svg">
<path fill-rule="evenodd" clip-rule="evenodd" d="M16.6132 17.4697C16.3203 17.7626 16.3203 18.2374 16.6132 18.5303C16.9061 18.8232 17.381 18.8232 17.6739 18.5303L23.6739 12.5303C23.8203 12.3839 23.8936 12.1919 23.8936 12C23.8936 11.8983 23.8733 11.8013 23.8366 11.7129C23.8 11.6245 23.7458 11.5416 23.6739 11.4697L17.6739 5.46967C17.381 5.17678 16.9061 5.17678 16.6132 5.46967C16.3203 5.76256 16.3203 6.23744 16.6132 6.53033L21.3329 11.25L0.85784 11.25C0.443627 11.25 0.10784 11.5858 0.10784 12C0.10784 12.4142 0.443627 12.75 0.85784 12.75L21.3329 12.75L16.6132 17.4697Z" fill="#0024CF"/>
</svg>
