<svg width="16" height="16" viewBox="0 0 16 16" fill="none" xmlns="http://www.w3.org/2000/svg">
    <path fill-rule="evenodd" clip-rule="evenodd" d="M4.92484 4.35355C5.1201 4.15829 5.1201 3.84171 4.92484 3.64645C4.72958 3.45118 4.413 3.45118 4.21774 3.64645L0.217935 7.64625L0.217736 7.64645M4.92484 4.35355L1.7784 7.5L4.92484 4.35355ZM1.7784 7.5H15.4284C15.7046 7.5 15.9284 7.72386 15.9284 8C15.9284 8.27614 15.7046 8.5 15.4284 8.5H1.7784L4.92484 11.6464C5.1201 11.8417 5.1201 12.1583 4.92484 12.3536C4.72958 12.5488 4.413 12.5488 4.21774 12.3536L0.217736 8.35355C0.169797 8.30561 0.133628 8.25036 0.109228 8.19139C0.0847817 8.13244 0.0712891 8.06779 0.0712891 8C0.0712891 7.93221 0.0847818 7.86756 0.109228 7.80861C0.133268 7.75051 0.168732 7.69602 0.215621 7.64857" fill="#0024CF"/>
</svg>
