<svg viewBox="0 0 120 120" fill="none" xmlns="http://www.w3.org/2000/svg">
    <circle cx="60" cy="60" r="59.145" fill="white" stroke="#0024CF" stroke-width="1.71"/>
    <path d="M46.1431 78.3436C46.1554 79.0579 46.3632 79.7551 46.744 80.3596C47.1249 80.9641 47.6641 81.4526 48.3031 81.7721C48.9411 82.1327 49.6616 82.3221 50.3945 82.3221C51.1274 82.3221 51.8478 82.1327 52.4859 81.7721L82.1431 63.4293C82.7884 63.1184 83.3328 62.6317 83.7138 62.0252C84.0949 61.4187 84.297 60.717 84.297 60.0007C84.297 59.2844 84.0949 58.5827 83.7138 57.9762C83.3328 57.3697 82.7884 56.883 82.1431 56.5721L52.4859 38.3664C51.8478 38.0059 51.1274 37.8164 50.3945 37.8164C49.6616 37.8164 48.9411 38.0059 48.3031 38.3664C47.6641 38.6859 47.1249 39.1744 46.744 39.7789C46.3632 40.3834 46.1554 41.0807 46.1431 41.795V78.3436Z" fill="#0024CF"/>
</svg>
