<svg width="40" height="40" viewBox="0 0 40 40" fill="none" xmlns="http://www.w3.org/2000/svg">
    <path d="M20 2.5C10.3359 2.5 2.5 10.3359 2.5 20C2.5 29.6641 10.3359 37.5 20 37.5C29.6641 37.5 37.5 29.6641 37.5 20C37.5 10.3359 29.6641 2.5 20 2.5ZM27.5586 14.2852L19.332 25.6914C19.2171 25.8519 19.0655 25.9827 18.8899 26.0729C18.7143 26.1631 18.5197 26.2101 18.3223 26.2101C18.1248 26.2101 17.9303 26.1631 17.7547 26.0729C17.5791 25.9827 17.4275 25.8519 17.3125 25.6914L12.4414 18.9414C12.293 18.7344 12.4414 18.4453 12.6953 18.4453H14.5273C14.9258 18.4453 15.3047 18.6367 15.5391 18.9648L18.3203 22.8242L24.4609 14.3086C24.6953 13.9844 25.0703 13.7891 25.4727 13.7891H27.3047C27.5586 13.7891 27.707 14.0781 27.5586 14.2852Z" fill="#00983A"/>
</svg>
