<svg width="10" height="17" viewBox="0 0 10 17" fill="none" xmlns="http://www.w3.org/2000/svg">
    <path fill-rule="evenodd" clip-rule="evenodd" d="M8.95365 0.718041C9.14891 0.913303 9.14891 1.22989 8.95365 1.42515L1.92508 8.45372C1.92134 8.45746 1.91755 8.46113 1.91369 8.46475C1.90886 8.46929 1.905 8.47478 1.90236 8.48087C1.89972 8.48696 1.89836 8.49353 1.89836 8.50017C1.89836 8.5068 1.89972 8.51337 1.90236 8.51946C1.905 8.52555 1.90886 8.53104 1.91369 8.53558C1.91755 8.5392 1.92134 8.54288 1.92508 8.54661L8.95365 15.5752C9.14891 15.7704 9.14891 16.087 8.95365 16.2823C8.75839 16.4776 8.4418 16.4776 8.24654 16.2823L1.22266 9.25841C1.12131 9.1616 1.04037 9.04542 0.984663 8.91674C0.927735 8.78524 0.898362 8.64347 0.898362 8.50017C0.898362 8.35687 0.927736 8.21509 0.984663 8.08359C1.04037 7.9549 1.12132 7.83872 1.22268 7.74191L8.24654 0.718041C8.44181 0.522779 8.75839 0.522779 8.95365 0.718041Z" fill="#0024CF"/>
</svg>
