<svg width="16" height="17" viewBox="0 0 16 17" fill="none" xmlns="http://www.w3.org/2000/svg">
    <path fill-rule="evenodd" clip-rule="evenodd" d="M4.04635 16.282C3.85109 16.0867 3.85109 15.7701 4.04635 15.5749L11.0749 8.54628C11.0787 8.54254 11.0825 8.53887 11.0863 8.53525C11.0911 8.53071 11.095 8.52522 11.0976 8.51913C11.1003 8.51304 11.1016 8.50647 11.1016 8.49983C11.1016 8.4932 11.1003 8.48663 11.0976 8.48054C11.095 8.47445 11.0911 8.46896 11.0863 8.46442C11.0825 8.4608 11.0787 8.45712 11.0749 8.45339L4.04635 1.42482C3.85109 1.22955 3.85109 0.912971 4.04635 0.71771C4.24161 0.522447 4.55819 0.522447 4.75346 0.71771L11.7773 7.74159C11.8787 7.8384 11.9596 7.95458 12.0153 8.08326C12.0723 8.21476 12.1016 8.35653 12.1016 8.49983C12.1016 8.64313 12.0723 8.78491 12.0153 8.91641C11.9596 9.0451 11.8787 9.16128 11.7773 9.25809L4.75346 16.282C4.55819 16.4772 4.24161 16.4772 4.04635 16.282Z" fill="#0024CF"/>
</svg>
