<svg width="65" height="64" viewBox="0 0 65 64" fill="none" xmlns="http://www.w3.org/2000/svg">
    <circle cx="32.6666" cy="32" r="31.25" stroke="url(#paint0_linear_1890_5446)" stroke-width="1.5"/>
    <path fill-rule="evenodd" clip-rule="evenodd" d="M41.683 24.067C40.0733 22.3257 37.3991 21.531 35.1907 22.1C34.0029 22.406 32.9274 23.1139 32.2504 24.2976C31.6793 25.2963 31.426 26.573 31.5613 28.121C31.177 28.0991 30.6499 28.0309 30.0071 27.8545C28.5216 27.4466 26.3871 26.452 23.9535 24.0598C23.7349 23.8443 23.4593 23.6959 23.1591 23.6321C22.8586 23.5682 22.5462 23.5918 22.2587 23.7C21.9712 23.8082 21.7207 23.9966 21.537 24.2427C21.3675 24.4698 21.2613 24.7374 21.2286 25.018C20.6704 27.3666 20.962 29.8376 22.0529 31.9924C22.953 33.7703 24.3488 35.2373 26.0584 36.2242C25.1709 36.7722 24.2073 37.1905 23.1965 37.4646C23.1764 37.47 23.1565 37.4763 23.1369 37.4834C22.8267 37.596 22.5586 37.8014 22.3692 38.0717C22.1797 38.342 22.0781 38.6641 22.0781 38.9941C22.0781 39.3242 22.1797 39.6463 22.3692 39.9165C22.5552 40.182 22.8171 40.3848 23.1203 40.4987C29.2273 43.0014 34.359 42.3616 37.8382 39.8626C41.2486 37.413 42.9432 33.2629 42.4223 28.9195L44.2454 25.143C44.3576 24.9106 44.3424 24.6369 44.2052 24.4183C44.068 24.1997 43.828 24.067 43.57 24.067H41.683ZM32.41 28.8456L32.5416 29.5839C32.9464 29.5118 33.2176 29.1272 33.1497 28.7217C32.8652 27.0227 33.0983 25.8365 33.5525 25.0423C34.0022 24.2561 34.7149 23.7715 35.5649 23.5526C37.3185 23.1008 39.5557 23.8114 40.7598 25.2905C40.9022 25.4654 41.1158 25.567 41.3414 25.567H42.3751L40.9746 28.4681C40.9104 28.6011 40.8868 28.75 40.907 28.8963C41.4467 32.8194 39.9432 36.5038 36.9631 38.6443C33.9947 40.7764 29.428 41.466 23.6776 39.106C23.668 39.1021 23.6584 39.0984 23.6487 39.0948C23.628 39.0873 23.6101 39.0736 23.5975 39.0556C23.5849 39.0376 23.5781 39.0161 23.5781 38.9941C23.5781 38.9721 23.5849 38.9507 23.5975 38.9326C23.6071 38.919 23.6196 38.9078 23.6341 38.9C25.2166 38.4644 26.6965 37.7179 27.9875 36.7039C28.1968 36.5395 28.3033 36.2765 28.2674 36.0128C28.2314 35.7491 28.0584 35.5242 27.8128 35.4218C25.8967 34.6233 24.3287 33.1669 23.3912 31.3149C22.4536 29.4629 22.208 27.337 22.6987 25.32C22.7086 25.2794 22.7151 25.2381 22.718 25.1964C22.7195 25.176 22.7268 25.1564 22.739 25.14C22.7513 25.1236 22.768 25.111 22.7872 25.1038C22.8063 25.0966 22.8272 25.095 22.8472 25.0993C22.8672 25.1035 22.8856 25.1135 22.9002 25.1278L22.9013 25.129C25.5074 27.6907 27.8641 28.8216 29.61 29.3009C30.4803 29.5399 31.1911 29.6148 31.6959 29.6277C31.9481 29.6342 32.1485 29.6252 32.2913 29.6136C32.3628 29.6078 32.4198 29.6014 32.4617 29.5959C32.4827 29.5932 32.4999 29.5907 32.5132 29.5886L32.5303 29.5858L32.5367 29.5848L32.5393 29.5843L32.5405 29.5841C32.5411 29.584 32.5416 29.5839 32.41 28.8456Z" fill="url(#paint1_linear_1890_5446)"/>
    <defs>
        <linearGradient id="paint0_linear_1890_5446" x1="32.6666" y1="0" x2="32.6666" y2="64" gradientUnits="userSpaceOnUse">
            <stop stop-color="#0024CF"/>
            <stop offset="1" stop-color="#D91C52"/>
        </linearGradient>
        <linearGradient id="paint1_linear_1890_5446" x1="32.6359" y1="21.918" x2="32.6359" y2="42.0865" gradientUnits="userSpaceOnUse">
            <stop stop-color="#0024CF"/>
            <stop offset="1" stop-color="#D91C52"/>
        </linearGradient>
    </defs>
</svg>
