<svg width="65" height="64" viewBox="0 0 65 64" fill="none" xmlns="http://www.w3.org/2000/svg">
    <circle cx="32.3333" cy="32" r="31.25" stroke="url(#paint0_linear_1890_5454)" stroke-width="1.5"/>
    <path fill-rule="evenodd" clip-rule="evenodd" d="M22.3694 31.9994C22.3694 26.4963 26.8306 22.0352 32.3337 22.0352C37.8369 22.0352 42.298 26.4963 42.298 31.9994C42.298 37.5026 37.8369 41.9637 32.3337 41.9637C26.8306 41.9637 22.3694 37.5026 22.3694 31.9994ZM32.3337 20.5352C26.0022 20.5352 20.8694 25.6679 20.8694 31.9994C20.8694 38.331 26.0022 43.4637 32.3337 43.4637C38.6653 43.4637 43.798 38.331 43.798 31.9994C43.798 25.6679 38.6653 20.5352 32.3337 20.5352ZM37.7828 26.5907C37.8032 26.3255 37.6816 26.0693 37.4632 25.9174C37.2447 25.7656 36.9622 25.7408 36.7207 25.8522L25.0268 31.2494C24.7331 31.385 24.5594 31.6935 24.5959 32.0149C24.6324 32.3363 24.8708 32.5982 25.1874 32.6645L28.3605 33.3289L29.1525 37.9011C29.1981 38.1647 29.3807 38.384 29.6317 38.4767C29.8826 38.5693 30.1639 38.5213 30.3699 38.3506L33.0473 36.1326L35.5983 38.7505C35.804 38.9615 36.1141 39.0326 36.3911 38.9321C36.6681 38.8317 36.8607 38.5783 36.8833 38.2846L37.7828 26.5907ZM29.0951 31.9502C29.1429 31.9555 29.1896 31.9654 29.2347 31.9794L30.9728 32.3434L32.5953 31.0455C32.9187 30.7867 33.3907 30.8391 33.6494 31.1626C33.9082 31.486 33.8557 31.958 33.5323 32.2168L32.2924 33.2087L33.5484 34.4976C33.5991 34.5342 33.6461 34.5777 33.6878 34.628C33.7027 34.6461 33.7167 34.6647 33.7297 34.6836L35.5149 36.5156L36.1892 27.7496L27.7143 31.6611L29.0951 31.9502ZM30.4096 36.3699L29.9401 33.6597L30.8163 33.8432L31.997 35.0548L30.4096 36.3699Z" fill="url(#paint1_linear_1890_5454)"/>
    <defs>
        <linearGradient id="paint0_linear_1890_5454" x1="32.3333" y1="0" x2="32.3333" y2="64" gradientUnits="userSpaceOnUse">
            <stop stop-color="#0024CF"/>
            <stop offset="1" stop-color="#D91C52"/>
        </linearGradient>
        <linearGradient id="paint1_linear_1890_5454" x1="32.3337" y1="20.5352" x2="32.3337" y2="43.4637" gradientUnits="userSpaceOnUse">
            <stop stop-color="#0024CF"/>
            <stop offset="1" stop-color="#D91C52"/>
        </linearGradient>
    </defs>
</svg>
