<svg width="64" height="64" viewBox="0 0 64 64" fill="none" xmlns="http://www.w3.org/2000/svg">
    <circle cx="32" cy="32" r="31.25" stroke="url(#paint0_linear_1890_5467)" stroke-width="1.5"/>
    <path fill-rule="evenodd" clip-rule="evenodd" d="M23.8568 19.9865C23.846 19.9863 23.8352 19.9863 23.8244 19.9865C23.0512 20.003 22.3132 20.313 21.76 20.8535C21.2069 21.394 20.8799 22.1246 20.8455 22.8972C20.8448 22.9118 20.8446 22.9265 20.8448 22.9411C20.8559 23.7313 21.1701 24.4869 21.7225 25.052C22.2749 25.617 23.0233 25.9483 23.8129 25.9773C23.8277 25.9778 23.8425 25.9779 23.8573 25.9776C24.653 25.9596 25.4097 25.6294 25.9638 25.0582C26.518 24.4869 26.8252 23.7206 26.819 22.9248C26.8189 22.9174 26.8188 22.91 26.8185 22.9026C26.7896 22.1306 26.467 21.3987 25.9165 20.8567C25.366 20.3147 24.6292 20.0034 23.8568 19.9865ZM22.8083 21.9264C23.0853 21.6557 23.4536 21.4989 23.8403 21.4866C24.2244 21.4991 24.5899 21.6557 24.8641 21.9256C25.1394 22.1967 25.3019 22.5618 25.3191 22.9475C25.3193 23.3454 25.1645 23.7279 24.8872 24.0137C24.6125 24.2968 24.2393 24.4627 23.8457 24.4773C23.4486 24.4571 23.0734 24.2881 22.7951 24.0034C22.5167 23.7187 22.3562 23.3396 22.3451 22.9421C22.3677 22.5579 22.5327 22.1957 22.8083 21.9264ZM22.5847 29.3078C22.5847 29.1036 22.6113 29.0071 22.6247 28.9713L22.6286 28.9701C22.692 28.9498 22.8104 28.9332 23.0394 28.9319C23.1483 28.9313 23.2659 28.9339 23.4026 28.937L23.4092 28.9372H23.4093C23.5408 28.9402 23.6875 28.9435 23.8404 28.9435C23.9937 28.9435 24.1402 28.9401 24.2715 28.9372L24.2776 28.937C24.4139 28.9339 24.5308 28.9313 24.6388 28.9319C24.8644 28.9332 24.9793 28.9496 25.0397 28.9688C25.0534 29.0065 25.079 29.1046 25.079 29.3078V42.1649C25.079 42.3409 25.0599 42.4356 25.047 42.4796C24.9809 42.4946 24.8648 42.5042 24.6508 42.4999C24.5863 42.4986 24.5019 42.4955 24.4071 42.4919L24.407 42.4919C24.2328 42.4855 24.0239 42.4778 23.8404 42.4778C23.6575 42.4778 23.4485 42.4855 23.2738 42.4919H23.2737C23.1781 42.4954 23.0928 42.4986 23.0275 42.4999C22.8053 42.5043 22.6856 42.4941 22.6174 42.4776C22.6045 42.4352 22.5847 42.3416 22.5847 42.1649V29.3078ZM23.8404 27.4435C23.7046 27.4435 23.5723 27.4405 23.4366 27.4374L23.434 27.4373H23.434C23.3024 27.4344 23.1641 27.4312 23.0311 27.432C22.7748 27.4334 22.4646 27.4478 22.1723 27.5411C21.8511 27.6437 21.5429 27.8445 21.3362 28.1991C21.1456 28.5262 21.0847 28.9112 21.0847 29.3078V42.1649C21.0847 42.5644 21.1461 42.955 21.3451 43.2836C21.5626 43.6427 21.8847 43.8319 22.2077 43.9208C22.4995 44.0012 22.8088 44.0045 23.0574 43.9996C23.182 43.9971 23.2881 43.9929 23.3905 43.9888L23.3907 43.9888C23.5343 43.9832 23.6706 43.9778 23.8404 43.9778C24.0105 43.9778 24.1465 43.9832 24.2896 43.9889H24.2897L24.2899 43.9889C24.3917 43.9929 24.497 43.9971 24.6207 43.9996C24.8675 44.0045 25.1759 44.0013 25.4669 43.9202C25.7904 43.83 26.1099 43.6385 26.3242 43.2789C26.5193 42.9513 26.579 42.5624 26.579 42.1649V29.3078C26.579 28.9132 26.5198 28.5299 26.3329 28.2038C26.1295 27.8489 25.8241 27.6459 25.5025 27.542C25.2111 27.4478 24.9017 27.4334 24.6471 27.432C24.5151 27.4312 24.3776 27.4344 24.2466 27.4373L24.2435 27.4374C24.1083 27.4405 23.9763 27.4435 23.8404 27.4435ZM35.1169 29.0115C35.672 28.7637 36.2815 28.6624 36.8869 28.7175C36.9247 28.7209 36.9627 28.7215 37.0006 28.7192C37.6157 28.6816 38.2317 28.7738 38.8088 28.9898C39.3859 29.2058 39.911 29.5409 40.3502 29.9731C40.7893 30.4053 41.1326 30.9251 41.3578 31.4987C41.5829 32.0723 41.6849 32.6868 41.657 33.3024C41.6565 33.3137 41.6563 33.325 41.6563 33.3363V42.1134C41.6563 42.2885 41.6378 42.3841 41.625 42.4295C41.5596 42.4435 41.445 42.4526 41.2352 42.4484C41.1704 42.4471 41.0858 42.444 40.9909 42.4405L40.9906 42.4405C40.8151 42.434 40.6044 42.4263 40.4177 42.4263C40.231 42.4263 40.0203 42.434 39.8448 42.4405L39.8446 42.4405C39.7496 42.444 39.665 42.4471 39.6002 42.4484C39.3905 42.4526 39.2758 42.4435 39.2104 42.4295C39.1976 42.3841 39.1791 42.2885 39.1791 42.1134V35.2861C39.2127 34.8372 39.1517 34.386 38.9999 33.9619C38.8444 33.5271 38.597 33.1309 38.2748 32.8001C37.9525 32.4693 37.5628 32.2118 37.1322 32.045C36.7114 31.882 36.2612 31.8093 35.8107 31.8316C35.3633 31.8246 34.9192 31.9105 34.5065 32.084C34.084 32.2616 33.7041 32.5269 33.3918 32.8623C33.0796 33.1977 32.8422 33.5957 32.6953 34.0298C32.5526 34.4516 32.4985 34.8983 32.5363 35.3417V42.1648C32.5363 42.3406 32.5172 42.4351 32.5044 42.479C32.437 42.4944 32.3188 42.5042 32.1006 42.4998C32.035 42.4985 31.9495 42.4954 31.8537 42.4919C31.6777 42.4854 31.4669 42.4777 31.2806 42.4777C31.0937 42.4777 30.8829 42.4855 30.7074 42.4919C30.6125 42.4954 30.5279 42.4985 30.4631 42.4998C30.2533 42.504 30.1387 42.495 30.0733 42.4809C30.0604 42.4355 30.042 42.34 30.042 42.1648V29.3077C30.042 29.0855 30.0751 28.9899 30.0884 28.9604C30.0982 28.9567 30.1153 28.9513 30.1419 28.946C30.1763 28.9391 30.2882 28.9283 30.4956 28.9243C30.6867 28.9205 30.9152 28.923 31.1548 28.9282C31.3419 28.9324 31.5432 28.9386 31.7338 28.9444L31.7339 28.9444L31.7342 28.9445C31.9272 28.9504 32.1092 28.956 32.2542 28.9588C32.2558 28.9624 32.2574 28.9662 32.259 28.9701C32.2608 28.9745 32.2627 28.9791 32.2646 28.9839C32.3322 29.1562 32.3717 29.4195 32.3651 29.6646C32.3563 29.9915 32.5602 30.2864 32.8692 30.3935C33.1782 30.5006 33.5209 30.3952 33.7163 30.133C34.0795 29.6455 34.5618 29.2593 35.1169 29.0115ZM34.5054 27.6418C35.2775 27.2971 36.1234 27.1518 36.9656 27.2188C37.7719 27.1773 38.5783 27.3018 39.3347 27.585C40.1088 27.8748 40.8133 28.3242 41.4024 28.9041C41.9915 29.4839 42.452 30.1812 42.7541 30.9506C43.054 31.7146 43.1909 32.5328 43.1563 33.3526V42.1134C43.1563 42.5088 43.0983 42.8964 42.9062 43.2235C42.6943 43.5841 42.3763 43.7774 42.0517 43.8684C41.761 43.9499 41.4523 43.953 41.2052 43.9481C41.0824 43.9456 40.9771 43.9415 40.875 43.9375L40.8745 43.9375C40.7294 43.9317 40.5908 43.9263 40.4177 43.9263C40.2447 43.9263 40.106 43.9317 39.9609 43.9375L39.9604 43.9375C39.8583 43.9415 39.753 43.9456 39.6302 43.9481C39.3831 43.953 39.0745 43.9499 38.7837 43.8684C38.4591 43.7774 38.1411 43.5841 37.9293 43.2235C37.7371 42.8964 37.6791 42.5088 37.6791 42.1134V35.2563C37.6791 35.235 37.68 35.2137 37.6819 35.1925C37.7028 34.9468 37.6707 34.6994 37.5876 34.4673C37.5046 34.2351 37.3725 34.0235 37.2004 33.8469C37.0283 33.6703 36.8202 33.5328 36.5903 33.4437C36.3604 33.3546 36.114 33.3161 35.8678 33.3307C35.8467 33.3319 35.8255 33.3323 35.8044 33.3317C35.5586 33.3255 35.3144 33.3715 35.0877 33.4668C34.8611 33.562 34.6573 33.7044 34.4898 33.8843C34.3223 34.0642 34.195 34.2777 34.1162 34.5106C34.0374 34.7434 34.0089 34.9904 34.0328 35.235C34.0351 35.2592 34.0363 35.2834 34.0363 35.3077V42.1648C34.0363 42.5622 33.9766 42.9516 33.7807 43.2796C33.5656 43.6398 33.2449 43.8307 32.9208 43.9205C32.6293 44.0013 32.3197 44.0045 32.0708 43.9995C31.9469 43.9971 31.8407 43.9929 31.7378 43.9889L31.7376 43.9888C31.5922 43.9831 31.4534 43.9777 31.2806 43.9777C31.1075 43.9777 30.9688 43.9832 30.8237 43.9889C30.7215 43.9929 30.616 43.9971 30.4931 43.9995C30.246 44.0045 29.9373 44.0014 29.6466 43.9198C29.322 43.8288 29.0039 43.6355 28.7921 43.2749C28.6 42.9479 28.542 42.5602 28.542 42.1648V29.3077C28.542 28.8601 28.623 28.429 28.8719 28.0796C29.1362 27.7087 29.5072 27.5432 29.8478 27.4751C30.0276 27.4391 30.2608 27.4285 30.4664 27.4245C30.6884 27.4202 30.941 27.4232 31.1878 27.4286C31.4164 27.4336 31.6329 27.4404 31.8249 27.4465L31.825 27.4465L31.8251 27.4465C32.0685 27.4541 32.2725 27.4606 32.412 27.4606C33.0117 27.4606 33.3628 27.8581 33.5508 28.2006C33.8464 27.9808 34.1664 27.7932 34.5054 27.6418Z" fill="url(#paint1_linear_1890_5467)"/>
    <defs>
        <linearGradient id="paint0_linear_1890_5467" x1="32" y1="0" x2="32" y2="64" gradientUnits="userSpaceOnUse">
            <stop stop-color="#0024CF"/>
            <stop offset="1" stop-color="#D91C52"/>
        </linearGradient>
        <linearGradient id="paint1_linear_1890_5467" x1="32.0031" y1="19.9863" x2="32.0031" y2="44.001" gradientUnits="userSpaceOnUse">
            <stop stop-color="#0024CF"/>
            <stop offset="1" stop-color="#D91C52"/>
        </linearGradient>
    </defs>
</svg>
