<svg width="65" height="64" viewBox="0 0 65 64" fill="none" xmlns="http://www.w3.org/2000/svg">
    <circle cx="32.3333" cy="32" r="31.25" stroke="url(#paint0_linear_1890_5489)" stroke-width="1.5"/>
    <path fill-rule="evenodd" clip-rule="evenodd" d="M21.9407 26.8563C21.9407 25.377 23.14 24.1777 24.6193 24.1777H40.0479C41.5272 24.1777 42.7264 25.377 42.7264 26.8563V37.142C42.7264 38.6214 41.5272 39.8206 40.0479 39.8206H24.6193C23.14 39.8206 21.9407 38.6214 21.9407 37.142V26.8563ZM24.6193 22.6777C22.3115 22.6777 20.4407 24.5485 20.4407 26.8563V37.142C20.4407 39.4498 22.3115 41.3206 24.6193 41.3206H40.0479C42.3556 41.3206 44.2264 39.4498 44.2264 37.142V26.8563C44.2264 24.5485 42.3556 22.6777 40.0479 22.6777H24.6193ZM36.1615 32.3849L30.1861 35.8706V28.8993L36.1615 32.3849ZM29.4362 35.9764H30.1147L30.1183 35.9825L29.4362 35.9764ZM28.6861 28.7854V35.9736C28.6846 36.2254 28.7492 36.4731 28.8737 36.692C28.9987 36.9121 29.1798 37.0951 29.3984 37.2227C29.617 37.3502 29.8655 37.4177 30.1186 37.4183C30.3718 37.4188 30.6205 37.3525 30.8397 37.2259L37.014 33.6242L37.0157 33.6233C37.2316 33.4966 37.4106 33.3157 37.535 33.0984C37.6594 32.8812 37.7248 32.6353 37.7248 32.3849C37.7248 32.1346 37.6594 31.8887 37.535 31.6715C37.4106 31.4542 37.2316 31.2733 37.0157 31.1466L30.8534 27.552C30.6397 27.4191 30.3943 27.3454 30.1424 27.3386C29.8845 27.3317 29.6295 27.3953 29.4051 27.5225C29.1806 27.6497 28.995 27.8358 28.8684 28.0606C28.7439 28.2816 28.681 28.5319 28.6861 28.7854ZM30.1858 35.9764H30.1183L30.1218 35.9825L30.1861 35.9831C30.1861 35.9809 30.186 35.9786 30.1858 35.9764Z" fill="url(#paint1_linear_1890_5489)"/>
    <defs>
        <linearGradient id="paint0_linear_1890_5489" x1="32.3333" y1="0" x2="32.3333" y2="64" gradientUnits="userSpaceOnUse">
            <stop stop-color="#0024CF"/>
            <stop offset="1" stop-color="#D91C52"/>
        </linearGradient>
        <linearGradient id="paint1_linear_1890_5489" x1="32.3336" y1="22.6777" x2="32.3336" y2="41.3206" gradientUnits="userSpaceOnUse">
            <stop stop-color="#0024CF"/>
            <stop offset="1" stop-color="#D91C52"/>
        </linearGradient>
    </defs>
</svg>
