<svg width="64" height="64" viewBox="0 0 64 64" fill="none" xmlns="http://www.w3.org/2000/svg">
    <circle cx="32" cy="32" r="31.25" stroke="url(#paint0_linear_1890_5434)" stroke-width="1.5"/>
    <path fill-rule="evenodd" clip-rule="evenodd" d="M23.1161 30.4979C23.6258 28.5104 24.2807 26.7926 24.9081 25.7631L24.9484 25.7508C25.1434 25.6922 25.4797 25.607 26.0049 25.5195C27.0565 25.3442 28.8514 25.1621 31.7628 25.1621C34.6741 25.1621 36.469 25.3442 37.5206 25.5195C38.0458 25.607 38.3821 25.6922 38.5771 25.7508L38.6174 25.7631C39.2448 26.7926 39.8998 28.5104 40.4094 30.4979C40.9274 32.5185 41.2754 34.7398 41.303 36.6648C40.8026 37.2797 39.4446 38.4605 37.2021 39.0163L35.605 37.0199C36.3783 36.7398 37.0294 36.3799 37.4396 35.9698C37.7325 35.6769 37.7324 35.202 37.4395 34.9091C37.1466 34.6162 36.6718 34.6162 36.3789 34.9091C36.0794 35.2087 35.309 35.6129 34.1691 35.883L34.1508 35.8871C33.4376 36.0547 32.6216 36.1596 31.7628 36.1596C30.9039 36.1596 30.0879 36.0547 29.3747 35.8871L29.3674 35.8854C28.2219 35.6152 27.4479 35.2095 27.1475 34.9091C26.8546 34.6162 26.3798 34.6162 26.0869 34.9091C25.794 35.202 25.794 35.6769 26.0868 35.9698C26.4968 36.3798 27.1477 36.7396 27.9207 37.0196L26.3234 39.0163C24.0809 38.4605 22.7229 37.2797 22.2225 36.6648C22.2501 34.7398 22.598 32.5185 23.1161 30.4979ZM29.4998 37.4469L27.2024 40.3188C27.0272 40.5377 26.7446 40.6407 26.4696 40.5857C23.338 39.9593 21.4493 38.2297 20.8466 37.3256C20.7645 37.2024 20.7207 37.0577 20.7207 36.9096C20.7207 34.7726 21.1006 32.3192 21.6631 30.1254C22.2217 27.947 22.9821 25.939 23.7872 24.7312C23.8596 24.6226 23.9591 24.5348 24.0759 24.4764L24.4113 25.1472C24.0759 24.4764 24.0764 24.4762 24.0769 24.4759L24.078 24.4753L24.0803 24.4742L24.0853 24.4718L24.0968 24.4663C24.1052 24.4623 24.1151 24.4578 24.1265 24.4528C24.1493 24.4427 24.1783 24.4306 24.2141 24.4167C24.2857 24.3888 24.385 24.3537 24.5174 24.314C24.7818 24.2347 25.1807 24.1361 25.7583 24.0399C26.9121 23.8476 28.7929 23.6621 31.7628 23.6621C34.7326 23.6621 36.6134 23.8476 37.7672 24.0399C38.3448 24.1361 38.7437 24.2347 39.0081 24.314C39.1405 24.3537 39.2398 24.3888 39.3114 24.4167C39.3472 24.4306 39.3762 24.4427 39.399 24.4528C39.4104 24.4578 39.4203 24.4623 39.4287 24.4663L39.4402 24.4718L39.4452 24.4742L39.4475 24.4753L39.4486 24.4759C39.4491 24.4762 39.4496 24.4764 39.1143 25.1472L39.4496 24.4764C39.5664 24.5348 39.6659 24.6226 39.7383 24.7312C40.5435 25.939 41.3039 27.9471 41.8624 30.1254C42.4249 32.3192 42.8048 34.7727 42.8048 36.9096C42.8048 37.0577 42.7609 37.2024 42.6788 37.3256C42.0761 38.2297 40.1875 39.9593 37.0559 40.5857C36.7809 40.6407 36.4983 40.5377 36.3231 40.3188L34.0258 37.4471C33.3252 37.5807 32.5597 37.6598 31.7632 37.6598C30.9664 37.6598 30.2007 37.5807 29.4998 37.4469ZM29.5996 30.9993C29.5996 31.8277 28.928 32.4993 28.0996 32.4993C27.2712 32.4993 26.5996 31.8277 26.5996 30.9993C26.5996 30.1708 27.2712 29.4993 28.0996 29.4993C28.928 29.4993 29.5996 30.1708 29.5996 30.9993ZM35.5 32.4993C36.3284 32.4993 37 31.8277 37 30.9993C37 30.1708 36.3284 29.4993 35.5 29.4993C34.6716 29.4993 34 30.1708 34 30.9993C34 31.8277 34.6716 32.4993 35.5 32.4993Z" fill="url(#paint1_linear_1890_5434)"/>
    <defs>
        <linearGradient id="paint0_linear_1890_5434" x1="32" y1="0" x2="32" y2="64" gradientUnits="userSpaceOnUse">
            <stop stop-color="#0024CF"/>
            <stop offset="1" stop-color="#D91C52"/>
        </linearGradient>
        <linearGradient id="paint1_linear_1890_5434" x1="31.7627" y1="23.6621" x2="31.7627" y2="40.6003" gradientUnits="userSpaceOnUse">
            <stop stop-color="#0024CF"/>
            <stop offset="1" stop-color="#D91C52"/>
        </linearGradient>
    </defs>
</svg>
