<svg width="18" height="18" viewBox="0 0 18 18" fill="none" xmlns="http://www.w3.org/2000/svg">
    <path fill-rule="evenodd" clip-rule="evenodd" d="M3.43491 3.31772C5.02896 1.72366 7.19097 0.828125 9.44531 0.828125C11.6997 0.828125 13.8617 1.72366 15.4557 3.31772C17.0498 4.91178 17.9453 7.07379 17.9453 9.32813C17.9453 11.5825 17.0498 13.7445 15.4557 15.3385C13.8617 16.9326 11.6997 17.8281 9.44531 17.8281C7.19097 17.8281 5.02896 16.9326 3.43491 15.3385C1.84085 13.7445 0.945312 11.5825 0.945312 9.32813C0.945312 7.07379 1.84085 4.91178 3.43491 3.31772ZM9.44531 1.82812C7.45619 1.82812 5.54853 2.6183 4.14201 4.02482C2.73549 5.43135 1.94531 7.339 1.94531 9.32813C1.94531 11.3172 2.73549 13.2249 4.14201 14.6314C5.54853 16.038 7.45619 16.8281 9.44531 16.8281C11.4344 16.8281 13.3421 16.038 14.7486 14.6314C16.1551 13.2249 16.9453 11.3172 16.9453 9.32813C16.9453 7.339 16.1551 5.43135 14.7486 4.02482C13.3421 2.6183 11.4344 1.82812 9.44531 1.82812ZM9.44531 5.97103C9.72145 5.97103 9.94531 6.19489 9.94531 6.47103V9.12105L13.37 12.5464C13.5652 12.7417 13.5652 13.0583 13.3699 13.2535C13.1746 13.4488 12.858 13.4487 12.6628 13.2534L9.09581 9.68573C9.07968 9.66997 9.06462 9.65312 9.05074 9.63532C9.02817 9.60639 9.00922 9.57556 8.99389 9.54343C8.96283 9.4784 8.9454 9.40562 8.94531 9.32877C8.94531 9.32857 8.94531 9.32837 8.94531 9.32817V9.32787V6.47103C8.94531 6.19489 9.16917 5.97103 9.44531 5.97103Z" fill="#666666"/>
</svg>
