<svg width="24" height="24" viewBox="0 0 24 24" fill="none" xmlns="http://www.w3.org/2000/svg">
<path fill-rule="evenodd" clip-rule="evenodd" d="M4.69984 3.61029C4.40695 3.3174 3.93208 3.3174 3.63918 3.61029C3.34629 3.90319 3.34629 4.37806 3.63918 4.67096L10.988 12.0198L3.59076 19.417C3.29787 19.7099 3.29787 20.1848 3.59076 20.4777C3.88366 20.7706 4.35853 20.7706 4.65142 20.4777L12.0487 13.0804L19.3976 20.4293C19.6905 20.7222 20.1653 20.7222 20.4582 20.4293C20.7511 20.1364 20.7511 19.6616 20.4582 19.3687L13.1093 12.0198L20.4098 4.71929C20.7027 4.4264 20.7027 3.95153 20.4098 3.65863C20.1169 3.36574 19.642 3.36574 19.3491 3.65863L12.0487 10.9591L4.69984 3.61029Z" fill="#0024CF"/>
</svg>
