<svg viewBox="0 0 64 64" fill="none" xmlns="http://www.w3.org/2000/svg">
    <circle cx="32" cy="32" r="31.25" stroke="url(#paint0_linear_642_31935)" stroke-width="1.5"/>
    <path fill-rule="evenodd" clip-rule="evenodd" d="M22.2576 21.5H41.5379C42.1618 21.5019 42.7596 21.7506 43.2008 22.1918C43.6419 22.633 43.8906 23.2308 43.8926 23.8547L43.8926 23.857L43.8926 26.75V40.135L43.8926 40.1373C43.8906 40.7633 43.6411 41.3632 43.1984 41.8059C42.7558 42.2485 42.1559 42.4981 41.5299 42.5L41.5276 42.5H22.1426C21.5458 42.5 20.9735 42.2629 20.5516 41.841C20.1296 41.419 19.8926 40.8467 19.8926 40.25V26.75V23.8627C19.8945 23.2367 20.1441 22.6368 20.5867 22.1941C21.0294 21.7515 21.6292 21.5019 22.2553 21.5L22.2576 21.5ZM42.3926 23.8583V26H21.3926V23.8663C21.3935 23.6369 21.4851 23.4171 21.6474 23.2548C21.8097 23.0925 22.0295 23.001 22.2589 23H41.5342C41.7616 23.001 41.9793 23.0917 42.1401 23.2525C42.3009 23.4132 42.3916 23.631 42.3926 23.8583ZM42.3926 27.5H21.3926V40.25C21.3926 40.4489 21.4716 40.6397 21.6122 40.7803C21.7529 40.921 21.9437 41 22.1426 41H41.5263C41.7557 40.999 41.9755 40.9074 42.1378 40.7452C42.3 40.5829 42.3916 40.3632 42.3926 40.1337V27.5ZM36.9229 30.7197C36.63 30.4268 36.1551 30.4268 35.8622 30.7197C35.5694 31.0126 35.5694 31.4874 35.8622 31.7803L38.3319 34.25L35.8622 36.7197C35.5694 37.0126 35.5694 37.4874 35.8622 37.7803C36.1551 38.0732 36.63 38.0732 36.9229 37.7803L39.9229 34.7803C40.2158 34.4874 40.2158 34.0126 39.9229 33.7197L36.9229 30.7197ZM27.9229 30.7197C28.2158 31.0126 28.2158 31.4874 27.9229 31.7803L25.4532 34.25L27.9229 36.7197C28.2158 37.0126 28.2158 37.4874 27.9229 37.7803C27.63 38.0732 27.1551 38.0732 26.8622 37.7803L23.8622 34.7803C23.5694 34.4874 23.5694 34.0126 23.8622 33.7197L26.8622 30.7197C27.1551 30.4268 27.63 30.4268 27.9229 30.7197ZM34.0636 31.5853C34.2488 31.2148 34.0986 30.7643 33.7282 30.5791C33.3577 30.3939 32.9072 30.544 32.7219 30.9145L29.7219 36.9145C29.5367 37.285 29.6868 37.7355 30.0573 37.9207C30.4278 38.106 30.8783 37.9558 31.0636 37.5853L34.0636 31.5853Z" fill="url(#paint1_linear_642_31935)"/>
    <defs>
        <linearGradient id="paint0_linear_642_31935" x1="32" y1="0" x2="32" y2="64" gradientUnits="userSpaceOnUse">
            <stop stop-color="#0024CF"/>
            <stop offset="1" stop-color="#D91C52"/>
        </linearGradient>
        <linearGradient id="paint1_linear_642_31935" x1="32.0003" y1="20.1072" x2="32.0003" y2="43.8929" gradientUnits="userSpaceOnUse">
            <stop stop-color="#0024CF"/>
            <stop offset="1" stop-color="#D91C52"/>
        </linearGradient>
    </defs>
</svg>
