<svg width="64" height="64" viewBox="0 0 64 64" fill="none" xmlns="http://www.w3.org/2000/svg">
    <circle cx="32" cy="32" r="31.25" stroke="white" stroke-width="1.5"/>
    <path fill-rule="evenodd" clip-rule="evenodd" d="M31.8926 21.5C30.6499 21.5 29.6426 22.5074 29.6426 23.75C29.6426 24.9926 30.6499 26 31.8926 26C33.1352 26 34.1426 24.9926 34.1426 23.75C34.1426 22.5074 33.1352 21.5 31.8926 21.5ZM28.1426 23.75C28.1426 21.6789 29.8215 20 31.8926 20C33.9636 20 35.6426 21.6789 35.6426 23.75C35.6426 25.8211 33.9636 27.5 31.8926 27.5C29.8215 27.5 28.1426 25.8211 28.1426 23.75ZM31.8926 27.5C33.4839 27.5 35.01 28.1321 36.1352 29.2574C37.2604 30.3826 37.8926 31.9087 37.8926 33.5V35.75C37.8926 36.1642 37.5568 36.5 37.1426 36.5H35.5713L34.8889 43.3246C34.8505 43.708 34.5279 44 34.1426 44H29.6426C29.2573 44 28.9346 43.708 28.8963 43.3246L28.2138 36.5H26.6426C26.2284 36.5 25.8926 36.1642 25.8926 35.75V33.5C25.8926 31.9087 26.5247 30.3826 27.6499 29.2574C28.7752 28.1321 30.3013 27.5 31.8926 27.5ZM22.8926 26C22.8926 25.1716 23.5642 24.5 24.3926 24.5C25.221 24.5 25.8926 25.1716 25.8926 26C25.8926 26.8284 25.221 27.5 24.3926 27.5C23.5642 27.5 22.8926 26.8284 22.8926 26ZM24.3926 23C22.7357 23 21.3926 24.3431 21.3926 26C21.3926 27.6569 22.7357 29 24.3926 29C23.1991 29 22.0545 29.4741 21.2106 30.318C20.3667 31.1619 19.8926 32.3065 19.8926 33.5V35.75C19.8926 36.1642 20.2284 36.5 20.6426 36.5H21.4805L22.1484 41.843C22.1953 42.2183 22.5143 42.5 22.8926 42.5H25.8926C26.3068 42.5 26.6426 42.1642 26.6426 41.75C26.6426 41.3358 26.3068 41 25.8926 41H23.5547L22.8868 35.657C22.8399 35.2817 22.5208 35 22.1426 35H21.3926V33.5C21.3926 32.7044 21.7086 31.9413 22.2713 31.3787C22.8339 30.8161 23.5969 30.5 24.3926 30.5C24.8068 30.5 25.1426 30.1642 25.1426 29.75C25.1426 29.3358 24.8068 29 24.3926 29C26.0494 29 27.3926 27.6569 27.3926 26C27.3926 24.3431 26.0494 23 24.3926 23ZM39.3926 24.5C38.5642 24.5 37.8926 25.1716 37.8926 26C37.8926 26.8284 38.5642 27.5 39.3926 27.5C40.221 27.5 40.8926 26.8284 40.8926 26C40.8926 25.1716 40.221 24.5 39.3926 24.5ZM36.3926 26C36.3926 24.3431 37.7357 23 39.3926 23C41.0494 23 42.3926 24.3431 42.3926 26C42.3926 27.6569 41.0494 29 39.3926 29C37.7357 29 36.3926 27.6569 36.3926 26ZM39.3926 29C40.5861 29 41.7306 29.4741 42.5746 30.318C43.4185 31.1619 43.8926 32.3065 43.8926 33.5V35.75C43.8926 36.1642 43.5568 36.5 43.1426 36.5H42.3047L41.6368 41.843C41.5899 42.2183 41.2708 42.5 40.8926 42.5H37.8926C37.4784 42.5 37.1426 42.1642 37.1426 41.75C37.1426 41.3358 37.4784 41 37.8926 41H40.2305L40.8984 35.657C40.9453 35.2817 41.2643 35 41.6426 35H42.3926V33.5C42.3926 32.7043 42.0765 31.9413 41.5139 31.3787C40.9513 30.8161 40.1882 30.5 39.3926 30.5C38.9784 30.5 38.6426 30.1642 38.6426 29.75C38.6426 29.3358 38.9784 29 39.3926 29ZM28.7106 30.318C29.5545 29.4741 30.6991 29 31.8926 29C33.0861 29 34.2306 29.4741 35.0746 30.318C35.9185 31.1619 36.3926 32.3065 36.3926 33.5V35H34.8926C34.5073 35 34.1846 35.292 34.1463 35.6754L33.4638 42.5H30.3213L29.6389 35.6754C29.6005 35.292 29.2779 35 28.8926 35H27.3926V33.5C27.3926 32.3065 27.8667 31.1619 28.7106 30.318Z" fill="white"/>
</svg>
