<svg viewBox="0 0 64 64" fill="none" xmlns="http://www.w3.org/2000/svg">
    <circle cx="32" cy="32" r="31.25" stroke="url(#paint0_linear_655_13569)" stroke-width="1.5"/>
    <path d="M20.75 43.25V23.75L25.25 20.75V43.25" stroke="url(#paint1_linear_655_13569)" stroke-width="1.5" stroke-linecap="round" stroke-linejoin="round"/>
    <path d="M20.75 34.25H25.25" stroke="url(#paint2_linear_655_13569)" stroke-width="1.5" stroke-linecap="round" stroke-linejoin="round"/>
    <path d="M20.75 29.75H26.75" stroke="url(#paint3_linear_655_13569)" stroke-width="1.5" stroke-linecap="round" stroke-linejoin="round"/>
    <path d="M20.75 38.75H29.03" stroke="url(#paint4_linear_655_13569)" stroke-width="1.5" stroke-linecap="round" stroke-linejoin="round"/>
    <path d="M35.75 21.5L34.393 23.2C33.3302 24.5288 32.7508 26.1795 32.75 27.881V41.75H38.75V27.881C38.7492 26.1795 38.1698 24.5288 37.107 23.2L35.75 21.5Z" stroke="url(#paint5_linear_655_13569)" stroke-width="1.5" stroke-linecap="round" stroke-linejoin="round"/>
    <path d="M32.75 41.75L29.335 42.707C29.2207 42.7641 29.0936 42.791 28.966 42.7852C28.8383 42.7794 28.7142 42.7411 28.6055 42.6738C28.4968 42.6066 28.4071 42.5127 28.3449 42.4011C28.2827 42.2895 28.25 42.1638 28.25 42.036V41.708C28.2501 40.5938 28.5605 39.5016 29.1464 38.5539C29.7322 37.6061 30.5704 36.8402 31.567 36.342L32.75 35.75V41.75Z" stroke="url(#paint6_linear_655_13569)" stroke-width="1.5" stroke-linecap="round" stroke-linejoin="round"/>
    <path d="M32.75 41.75L29.335 42.707C29.2207 42.7641 29.0936 42.791 28.966 42.7852C28.8383 42.7794 28.7142 42.7411 28.6055 42.6738C28.4968 42.6066 28.4071 42.5127 28.3449 42.4011C28.2827 42.2895 28.25 42.1638 28.25 42.036V41.708C28.2501 40.5938 28.5605 39.5016 29.1464 38.5539C29.7322 37.6061 30.5704 36.8402 31.567 36.342L32.75 35.75V41.75Z" stroke="url(#paint7_linear_655_13569)" stroke-width="1.5" stroke-linecap="round" stroke-linejoin="round"/>
    <path d="M38.75 41.75L42.165 42.707C42.2793 42.7641 42.4064 42.791 42.534 42.7852C42.6617 42.7794 42.7858 42.7411 42.8945 42.6738C43.0032 42.6066 43.0929 42.5127 43.1551 42.4011C43.2173 42.2895 43.25 42.1638 43.25 42.036V41.708C43.2499 40.5938 42.9395 39.5016 42.3536 38.5539C41.7678 37.6061 40.9296 36.8402 39.933 36.342L38.75 35.75V41.75Z" stroke="url(#paint8_linear_655_13569)" stroke-width="1.5" stroke-linecap="round" stroke-linejoin="round"/>
    <path d="M38.75 41.75L42.165 42.707C42.2793 42.7641 42.4064 42.791 42.534 42.7852C42.6617 42.7794 42.7858 42.7411 42.8945 42.6738C43.0032 42.6066 43.0929 42.5127 43.1551 42.4011C43.2173 42.2895 43.25 42.1638 43.25 42.036V41.708C43.2499 40.5938 42.9395 39.5016 42.3536 38.5539C41.7678 37.6061 40.9296 36.8402 39.933 36.342L38.75 35.75V41.75Z" stroke="url(#paint9_linear_655_13569)" stroke-width="1.5" stroke-linecap="round" stroke-linejoin="round"/>
    <defs>
        <linearGradient id="paint0_linear_655_13569" x1="32" y1="0" x2="32" y2="64" gradientUnits="userSpaceOnUse">
            <stop stop-color="#0024CF"/>
            <stop offset="1" stop-color="#D91C52"/>
        </linearGradient>
        <linearGradient id="paint1_linear_655_13569" x1="23" y1="20.75" x2="23" y2="43.25" gradientUnits="userSpaceOnUse">
            <stop stop-color="#0024CF"/>
            <stop offset="1" stop-color="#D91C52"/>
        </linearGradient>
        <linearGradient id="paint2_linear_655_13569" x1="23" y1="34.25" x2="23" y2="35.25" gradientUnits="userSpaceOnUse">
            <stop stop-color="#0024CF"/>
            <stop offset="1" stop-color="#D91C52"/>
        </linearGradient>
        <linearGradient id="paint3_linear_655_13569" x1="23.75" y1="29.75" x2="23.75" y2="30.75" gradientUnits="userSpaceOnUse">
            <stop stop-color="#0024CF"/>
            <stop offset="1" stop-color="#D91C52"/>
        </linearGradient>
        <linearGradient id="paint4_linear_655_13569" x1="24.89" y1="38.75" x2="24.89" y2="39.75" gradientUnits="userSpaceOnUse">
            <stop stop-color="#0024CF"/>
            <stop offset="1" stop-color="#D91C52"/>
        </linearGradient>
        <linearGradient id="paint5_linear_655_13569" x1="35.75" y1="21.5" x2="35.75" y2="41.75" gradientUnits="userSpaceOnUse">
            <stop stop-color="#0024CF"/>
            <stop offset="1" stop-color="#D91C52"/>
        </linearGradient>
        <linearGradient id="paint6_linear_655_13569" x1="30.5" y1="35.75" x2="30.5" y2="42.786" gradientUnits="userSpaceOnUse">
            <stop stop-color="#0024CF"/>
            <stop offset="1" stop-color="#D91C52"/>
        </linearGradient>
        <linearGradient id="paint7_linear_655_13569" x1="30.5" y1="35.75" x2="30.5" y2="42.786" gradientUnits="userSpaceOnUse">
            <stop stop-color="#0024CF"/>
            <stop offset="1" stop-color="#D91C52"/>
        </linearGradient>
        <linearGradient id="paint8_linear_655_13569" x1="41" y1="35.75" x2="41" y2="42.786" gradientUnits="userSpaceOnUse">
            <stop stop-color="#0024CF"/>
            <stop offset="1" stop-color="#D91C52"/>
        </linearGradient>
        <linearGradient id="paint9_linear_655_13569" x1="41" y1="35.75" x2="41" y2="42.786" gradientUnits="userSpaceOnUse">
            <stop stop-color="#0024CF"/>
            <stop offset="1" stop-color="#D91C52"/>
        </linearGradient>
    </defs>
</svg>
