<svg width="64" height="64" viewBox="0 0 64 64" fill="none" xmlns="http://www.w3.org/2000/svg">
    <circle cx="32" cy="32" r="31.25" stroke="url(#paint0_linear_1487_6297)" stroke-width="1.5"/>
    <g clip-path="url(#clip0_1487_6297)">
        <path d="M32.752 29.75H25.252C24.0585 29.75 22.9139 29.2759 22.07 28.432C21.2261 27.5881 20.752 26.4435 20.752 25.25C20.752 24.0565 21.2261 22.9119 22.07 22.068C22.9139 21.2241 24.0585 20.75 25.252 20.75H37.252C38.2219 20.7498 39.1659 21.063 39.9433 21.6428C40.7208 22.2227 41.2901 23.0382 41.5664 23.9679C41.8428 24.8976 41.8113 25.8917 41.4768 26.8021C41.1422 27.7125 40.5225 28.4904 39.71 29.02" stroke="url(#paint1_linear_1487_6297)" stroke-width="1.5" stroke-linecap="round" stroke-linejoin="round"/>
        <path d="M28.252 38.75H25.252C24.0585 38.75 22.9139 38.2759 22.07 37.432C21.2261 36.5881 20.752 35.4435 20.752 34.25C20.752 33.0566 21.2261 31.912 22.07 31.0681C22.9139 30.2242 24.0585 29.75 25.252 29.75" stroke="url(#paint2_linear_1487_6297)" stroke-width="1.5" stroke-linecap="round" stroke-linejoin="round"/>
        <path d="M30.502 25.25H37.252" stroke="url(#paint3_linear_1487_6297)" stroke-width="1.5" stroke-linecap="round" stroke-linejoin="round"/>
        <path d="M37.252 43.25C40.5657 43.25 43.252 40.5638 43.252 37.25C43.252 33.9363 40.5657 31.25 37.252 31.25C33.9383 31.25 31.252 33.9363 31.252 37.25C31.252 40.5638 33.9383 43.25 37.252 43.25Z" stroke="url(#paint4_linear_1487_6297)" stroke-width="1.5" stroke-linecap="round" stroke-linejoin="round"/>
        <path d="M35.377 36.1249C35.377 35.7541 35.4869 35.3916 35.693 35.0833C35.899 34.7749 36.1918 34.5346 36.5344 34.3927C36.8771 34.2508 37.2541 34.2136 37.6178 34.286C37.9815 34.3583 38.3156 34.5369 38.5778 34.7991C38.84 35.0613 39.0186 35.3954 39.0909 35.7592C39.1633 36.1229 39.1262 36.4999 38.9843 36.8425C38.8423 37.1851 38.602 37.4779 38.2937 37.684C37.9853 37.89 37.6228 37.9999 37.252 37.9999" stroke="url(#paint5_linear_1487_6297)" stroke-width="1.5" stroke-linecap="round" stroke-linejoin="round"/>
        <path d="M25.252 25.625C25.0448 25.625 24.877 25.4571 24.877 25.25C24.877 25.0429 25.0448 24.875 25.252 24.875" stroke="url(#paint6_linear_1487_6297)" stroke-width="1.5"/>
        <path d="M25.252 25.625C25.4591 25.625 25.627 25.4571 25.627 25.25C25.627 25.0429 25.4591 24.875 25.252 24.875" stroke="url(#paint7_linear_1487_6297)" stroke-width="1.5"/>
        <path d="M25.252 34.625C25.0448 34.625 24.877 34.4572 24.877 34.25C24.877 34.0429 25.0448 33.875 25.252 33.875" stroke="url(#paint8_linear_1487_6297)" stroke-width="1.5"/>
        <path d="M25.252 34.625C25.4591 34.625 25.627 34.4572 25.627 34.25C25.627 34.0429 25.4591 33.875 25.252 33.875" stroke="url(#paint9_linear_1487_6297)" stroke-width="1.5"/>
        <path d="M37.252 41C37.0449 41 36.877 40.8322 36.877 40.625C36.877 40.4179 37.0449 40.25 37.252 40.25" stroke="url(#paint10_linear_1487_6297)" stroke-width="1.5"/>
        <path d="M37.252 41C37.4591 41 37.627 40.8322 37.627 40.625C37.627 40.4179 37.4591 40.25 37.252 40.25" stroke="url(#paint11_linear_1487_6297)" stroke-width="1.5"/>
    </g>
    <defs>
        <linearGradient id="paint0_linear_1487_6297" x1="32" y1="0" x2="32" y2="64" gradientUnits="userSpaceOnUse">
            <stop stop-color="#0024CF"/>
            <stop offset="1" stop-color="#D91C52"/>
        </linearGradient>
        <linearGradient id="paint1_linear_1487_6297" x1="31.2524" y1="20.75" x2="31.2524" y2="29.75" gradientUnits="userSpaceOnUse">
            <stop stop-color="#0024CF"/>
            <stop offset="1" stop-color="#D91C52"/>
        </linearGradient>
        <linearGradient id="paint2_linear_1487_6297" x1="24.502" y1="29.75" x2="24.502" y2="38.75" gradientUnits="userSpaceOnUse">
            <stop stop-color="#0024CF"/>
            <stop offset="1" stop-color="#D91C52"/>
        </linearGradient>
        <linearGradient id="paint3_linear_1487_6297" x1="33.877" y1="25.25" x2="33.877" y2="26.25" gradientUnits="userSpaceOnUse">
            <stop stop-color="#0024CF"/>
            <stop offset="1" stop-color="#D91C52"/>
        </linearGradient>
        <linearGradient id="paint4_linear_1487_6297" x1="37.252" y1="31.25" x2="37.252" y2="43.25" gradientUnits="userSpaceOnUse">
            <stop stop-color="#0024CF"/>
            <stop offset="1" stop-color="#D91C52"/>
        </linearGradient>
        <linearGradient id="paint5_linear_1487_6297" x1="37.2519" y1="34.25" x2="37.2519" y2="37.9999" gradientUnits="userSpaceOnUse">
            <stop stop-color="#0024CF"/>
            <stop offset="1" stop-color="#D91C52"/>
        </linearGradient>
        <linearGradient id="paint6_linear_1487_6297" x1="25.0645" y1="24.875" x2="25.0645" y2="25.625" gradientUnits="userSpaceOnUse">
            <stop stop-color="#0024CF"/>
            <stop offset="1" stop-color="#D91C52"/>
        </linearGradient>
        <linearGradient id="paint7_linear_1487_6297" x1="25.4395" y1="24.875" x2="25.4395" y2="25.625" gradientUnits="userSpaceOnUse">
            <stop stop-color="#0024CF"/>
            <stop offset="1" stop-color="#D91C52"/>
        </linearGradient>
        <linearGradient id="paint8_linear_1487_6297" x1="25.0645" y1="33.875" x2="25.0645" y2="34.625" gradientUnits="userSpaceOnUse">
            <stop stop-color="#0024CF"/>
            <stop offset="1" stop-color="#D91C52"/>
        </linearGradient>
        <linearGradient id="paint9_linear_1487_6297" x1="25.4395" y1="33.875" x2="25.4395" y2="34.625" gradientUnits="userSpaceOnUse">
            <stop stop-color="#0024CF"/>
            <stop offset="1" stop-color="#D91C52"/>
        </linearGradient>
        <linearGradient id="paint10_linear_1487_6297" x1="37.0645" y1="40.25" x2="37.0645" y2="41" gradientUnits="userSpaceOnUse">
            <stop stop-color="#0024CF"/>
            <stop offset="1" stop-color="#D91C52"/>
        </linearGradient>
        <linearGradient id="paint11_linear_1487_6297" x1="37.4395" y1="40.25" x2="37.4395" y2="41" gradientUnits="userSpaceOnUse">
            <stop stop-color="#0024CF"/>
            <stop offset="1" stop-color="#D91C52"/>
        </linearGradient>
        <clipPath id="clip0_1487_6297">
            <rect width="24" height="24" fill="white" transform="translate(20 20)"/>
        </clipPath>
    </defs>
</svg>
