<svg width="64" height="64" viewBox="0 0 64 64" fill="none" xmlns="http://www.w3.org/2000/svg">
    <circle cx="32" cy="32" r="31.25" stroke="url(#paint0_linear_642_31935)" stroke-width="1.5"/>
    <path d="M34.8117 45.075C34.8117 45.1656 34.8328 45.2549 34.8733 45.3359C34.9138 45.4169 34.9726 45.4873 35.045 45.5417C35.1174 45.596 35.2016 45.6327 35.2907 45.6489C35.3798 45.6651 35.4714 45.6604 35.5583 45.635C38.5968 44.7579 41.2164 42.8132 42.9353 40.1587C44.6543 37.5041 45.3569 34.3181 44.914 31.1867C44.4711 28.0554 42.9124 25.1892 40.5247 23.1155C38.137 21.0417 35.0809 19.8998 31.9183 19.8998C28.7558 19.8998 25.6996 21.0417 23.3119 23.1155C20.9242 25.1892 19.3656 28.0554 18.9227 31.1867C18.4798 34.3181 19.1824 37.5041 20.9013 40.1587C22.6203 42.8132 25.2399 44.7579 28.2783 45.635C28.3653 45.6604 28.4569 45.6651 28.546 45.6489C28.6351 45.6327 28.7192 45.596 28.7917 45.5417C28.8641 45.4873 28.9229 45.4169 28.9634 45.3359C29.0039 45.2549 29.025 45.1656 29.025 45.075V42.3333C28.2247 42.5751 27.3623 42.502 26.6141 42.129C25.866 41.756 25.2886 41.1113 25 40.3267C24.6739 39.3338 24.132 38.4254 23.4133 37.6667C26.7383 38.4717 26.7967 40.63 29.06 39.615C29.1284 38.8579 29.3807 38.129 29.795 37.4917C27.2283 37.2 24.5217 36.7917 24.5217 32.3583C24.4994 31.2128 24.9169 30.1022 25.6883 29.255C25.3369 28.2584 25.3787 27.1653 25.805 26.1983C25.805 26.1983 26.7733 25.8833 28.99 27.365C30.8987 26.8378 32.9146 26.8378 34.8233 27.365C37.0283 25.8717 37.9967 26.1983 37.9967 26.1983C38.423 27.1653 38.4647 28.2584 38.1133 29.255C38.8858 30.1016 39.3035 31.2125 39.28 32.3583C39.28 36.8033 36.5733 37.2 33.995 37.48C34.5472 38.2761 34.8256 39.2302 34.7883 40.1983L34.8117 45.075Z" stroke="url(#paint0_linear_642_31935)" stroke-width="1.5" stroke-linecap="round" stroke-linejoin="round"/>
    <defs>
        <linearGradient id="paint0_linear_642_31935" x1="32" y1="0" x2="32" y2="64" gradientUnits="userSpaceOnUse">
            <stop stop-color="#0024CF"/>
            <stop offset="1" stop-color="#D91C52"/>
        </linearGradient>
        <linearGradient id="paint1_linear_642_31935" x1="32.0003" y1="20.1072" x2="32.0003" y2="43.8929" gradientUnits="userSpaceOnUse">
            <stop stop-color="#0024CF"/>
            <stop offset="1" stop-color="#D91C52"/>
        </linearGradient>
    </defs>
</svg>
