<svg viewBox="0 0 24 24" fill="none" xmlns="http://www.w3.org/2000/svg">
<path fill-rule="evenodd" clip-rule="evenodd" d="M16.9858 11.25C16.6866 7.83146 15.5126 4.55269 13.5841 1.7271C18.3304 2.45284 22.0198 6.38918 22.3665 11.25H16.9858ZM15.4796 11.25C15.1659 7.93671 13.9633 4.77009 12.0006 2.08484C10.0378 4.77009 8.8352 7.93671 8.52153 11.25H15.4796ZM8.52152 12.75H15.4796C15.1659 16.0633 13.9633 19.23 12.0006 21.9152C10.0378 19.23 8.83518 16.0633 8.52152 12.75ZM7.01532 11.25C7.31448 7.83143 8.48857 4.55262 10.417 1.727C5.67053 2.4525 1.98073 6.38897 1.63407 11.25H7.01532ZM1.63407 12.75H7.01532C7.31446 16.1686 8.48855 19.4474 10.417 22.2731C5.67051 21.5476 1.9807 17.6111 1.63407 12.75ZM16.9858 12.75H22.3665C22.0199 17.6108 18.3304 21.5472 13.5841 22.273C15.5126 19.4474 16.6867 16.1686 16.9858 12.75ZM23.8931 12C23.8931 5.43187 18.5687 0.107328 12.0006 0.107178H12.0003C5.43204 0.107178 0.107422 5.43179 0.107422 12C0.107422 18.5683 5.43204 23.8929 12.0003 23.8929C18.5685 23.8929 23.8931 18.5683 23.8931 12C23.8931 12 23.8931 12 23.8931 12Z" fill="#0024CF"/>
</svg>
