<svg width="64" height="64" viewBox="0 0 64 64" fill="none" xmlns="http://www.w3.org/2000/svg">
    <circle cx="32" cy="32" r="31.25" stroke="url(#paint0_linear_1487_6284)" stroke-width="1.5"/>
    <g>
        <path d="M38 24.14C39.5642 23.8875 41.1456 23.7571 42.73 23.75C42.8664 23.7492 42.9983 23.7991 43.1 23.89C43.1957 23.9854 43.2497 24.1149 43.25 24.25V40C43.2474 40.1318 43.1939 40.2575 43.1007 40.3507C43.0075 40.4439 42.8818 40.4974 42.75 40.5C34.46 40.62 32 43.25 32 43.25V26.48C32 26.48 29.55 23.86 21.27 23.75C21.1336 23.7492 21.0017 23.7991 20.9 23.89C20.8043 23.9854 20.7503 24.1149 20.75 24.25V40C20.7526 40.1318 20.8061 40.2575 20.8993 40.3507C20.9925 40.4439 21.1182 40.4974 21.25 40.5C29.54 40.62 32 43.25 32 43.25" stroke="url(#paint1_linear_1487_6284)" stroke-width="1.5" stroke-linecap="round" stroke-linejoin="round"/>
        <path d="M32 42.7591C32.1562 41.4612 32.7321 40.2498 33.64 39.3091C34.8005 38.0536 36.3253 37.1933 38 36.8491V21.2391C38.0003 21.1581 37.9792 21.0784 37.9388 21.0082C37.8984 20.938 37.8402 20.8796 37.77 20.8391C37.6973 20.7949 37.6159 20.7667 37.5315 20.7564C37.447 20.7461 37.3613 20.7538 37.28 20.7791C35.8781 21.1802 34.617 21.9667 33.64 23.0491C32.7476 23.9925 32.174 25.1923 32 26.4791" stroke="url(#paint2_linear_1487_6284)" stroke-width="1.5" stroke-linecap="round" stroke-linejoin="round"/>
    </g>
    <defs>
        <linearGradient id="paint0_linear_1487_6284" x1="32" y1="0" x2="32" y2="64" gradientUnits="userSpaceOnUse">
            <stop stop-color="#0024CF"/>
            <stop offset="1" stop-color="#D91C52"/>
        </linearGradient>
        <linearGradient id="paint1_linear_1487_6284" x1="32" y1="23.75" x2="32" y2="43.25" gradientUnits="userSpaceOnUse">
            <stop stop-color="#0024CF"/>
            <stop offset="1" stop-color="#D91C52"/>
        </linearGradient>
        <linearGradient id="paint2_linear_1487_6284" x1="35" y1="20.752" x2="35" y2="42.7591" gradientUnits="userSpaceOnUse">
            <stop stop-color="#0024CF"/>
            <stop offset="1" stop-color="#D91C52"/>
        </linearGradient>
    </defs>
</svg>
