<?xml version="1.0" encoding="UTF-8" standalone="no"?>
<!DOCTYPE svg PUBLIC "-//W3C//DTD SVG 1.1//EN" "http://www.w3.org/Graphics/SVG/1.1/DTD/svg11.dtd">
<svg width="100%" height="100%" viewBox="0 0 59 59" version="1.1" xmlns="http://www.w3.org/2000/svg" xmlns:xlink="http://www.w3.org/1999/xlink" xml:space="preserve" xmlns:serif="http://www.serif.com/" style="fill-rule:evenodd;clip-rule:evenodd;stroke-linejoin:round;stroke-miterlimit:2;">
    <path id="fill" d="M56.79,28.68L56.8,28.69C56.8,43.28 44.96,55.63 30.37,56.27C29.94,56.29 29.52,56.29 29.1,56.29C28.89,56.29 28.69,56.28 28.49,56.28C28.25,56.28 28.01,56.27 27.77,56.26C27.57,56.24 27.36,56.23 27.16,56.21C26.92,56.19 26.69,56.17 26.46,56.15C26.25,56.12 26.05,56.1 25.85,56.07C25.62,56.04 25.4,56.01 25.17,55.98C24.97,55.94 24.77,55.91 24.57,55.87C24.35,55.83 24.13,55.8 23.91,55.75C23.71,55.7 23.51,55.66 23.31,55.61C23.1,55.56 22.88,55.52 22.67,55.46C22.47,55.4 22.28,55.35 22.08,55.29C21.87,55.23 21.67,55.17 21.46,55.11C21.26,55.04 21.07,54.98 20.87,54.91L20.27,54.7C20.07,54.63 19.88,54.56 19.69,54.48C19.5,54.4 19.3,54.32 19.11,54.24C18.92,54.16 18.73,54.08 18.54,53.99C18.35,53.91 18.16,53.82 17.98,53.73C17.79,53.64 17.6,53.55 17.42,53.45C17.24,53.35 17.06,53.26 16.88,53.16C16.7,53.06 16.52,52.95 16.34,52.85C16.17,52.75 15.99,52.65 15.82,52.54C15.64,52.43 15.46,52.31 15.29,52.2C15.12,52.09 14.95,51.98 14.79,51.87L14.28,51.51C14.25,51.48 14.22,51.46 14.18,51.43C14.15,51.41 14.13,51.39 14.1,51.37C14.07,51.34 14.03,51.32 14,51.29C13.98,51.28 13.96,51.27 13.94,51.25C7.85,46.68 3.94,39.38 3.94,30.99C3.94,16.4 15.77,4.05 30.4,3.4C30.79,3.37 31.18,3.37 31.57,3.37C37.16,3.37 42.3,5.13 46.47,8.15L46.95,8.51C47.12,8.64 47.29,8.77 47.45,8.9C47.61,9.03 47.76,9.15 47.91,9.28C48.07,9.41 48.23,9.55 48.39,9.69C48.54,9.82 48.68,9.95 48.83,10.09C48.98,10.23 49.13,10.37 49.28,10.52L49.7,10.94C49.85,11.09 50,11.25 50.14,11.4C50.27,11.55 50.4,11.69 50.53,11.84C50.67,12 50.8,12.16 50.94,12.32C51.06,12.47 51.19,12.63 51.31,12.78C51.44,12.95 51.57,13.11 51.7,13.28C51.82,13.44 51.93,13.6 52.05,13.76L52.41,14.27L52.74,14.78C52.86,14.96 52.97,15.13 53.08,15.31C53.19,15.49 53.29,15.66 53.39,15.84C53.49,16.02 53.6,16.2 53.7,16.38C53.8,16.56 53.9,16.75 53.99,16.93C54.08,17.12 54.18,17.3 54.27,17.49C54.36,17.68 54.44,17.87 54.53,18.06C54.61,18.25 54.7,18.44 54.78,18.63C54.87,18.82 54.94,19.02 55.02,19.22C55.09,19.41 55.17,19.6 55.24,19.79C55.31,19.99 55.38,20.19 55.45,20.4C55.51,20.59 55.58,20.78 55.64,20.98C55.7,21.19 55.76,21.41 55.82,21.62C55.87,21.81 55.93,22.01 55.98,22.2C56.04,22.43 56.09,22.65 56.14,22.88C56.18,23.07 56.23,23.26 56.27,23.45C56.32,23.69 56.36,23.92 56.4,24.16C56.43,24.35 56.47,24.54 56.5,24.73C56.54,24.98 56.57,25.23 56.6,25.48C56.62,25.66 56.65,25.84 56.67,26.02C56.69,26.3 56.71,26.59 56.73,26.87C56.74,27.03 56.76,27.18 56.76,27.34C56.78,27.78 56.79,28.23 56.79,28.68ZM15.86,48.48L15.85,48.48C19.57,51.32 24.24,52.99 29.33,52.99C29.67,52.99 30.02,52.99 30.36,52.97C43.13,52.41 53.48,41.61 53.48,28.84C53.48,21.35 49.93,14.85 44.41,10.87C44.37,10.84 44.34,10.82 44.3,10.79C44.27,10.77 44.25,10.75 44.22,10.73C44.19,10.71 44.17,10.7 44.15,10.68C44.1,10.64 44.04,10.61 43.99,10.57C43.84,10.46 43.68,10.35 43.52,10.25C43.38,10.16 43.23,10.07 43.09,9.98C42.93,9.88 42.77,9.79 42.6,9.69C42.45,9.61 42.31,9.52 42.16,9.44L41.65,9.17C41.5,9.09 41.35,9.01 41.2,8.94C41.03,8.85 40.86,8.77 40.68,8.69C40.53,8.62 40.38,8.55 40.22,8.48C40.04,8.4 39.86,8.33 39.68,8.26C39.52,8.19 39.36,8.13 39.2,8.07C39.02,8.01 38.83,7.94 38.65,7.88C38.49,7.83 38.32,7.77 38.16,7.72C37.97,7.66 37.78,7.6 37.59,7.55C37.42,7.5 37.26,7.45 37.09,7.41C36.9,7.36 36.7,7.31 36.51,7.27L36,7.15C35.81,7.11 35.61,7.08 35.41,7.04C35.23,7.01 35.06,6.98 34.89,6.95C34.69,6.92 34.49,6.9 34.29,6.87C34.12,6.85 33.95,6.83 33.77,6.81C33.56,6.79 33.36,6.78 33.15,6.76C32.98,6.75 32.81,6.72 32.63,6.72C32.42,6.7 32.2,6.7 31.99,6.7C31.82,6.69 31.65,6.69 31.47,6.69L31.39,6.69C31.05,6.69 30.7,6.69 30.36,6.71C17.59,7.27 7.24,18.07 7.24,30.84C7.24,31.23 7.25,31.62 7.27,32.01C7.28,32.14 7.3,32.27 7.3,32.4C7.32,32.66 7.33,32.92 7.36,33.17C7.38,33.33 7.4,33.48 7.42,33.63C7.45,33.86 7.48,34.09 7.51,34.31C7.53,34.47 7.56,34.63 7.59,34.79C7.63,35 7.67,35.22 7.71,35.43C7.74,35.59 7.78,35.75 7.82,35.91C7.86,36.11 7.91,36.32 7.96,36.52C8.01,36.68 8.05,36.84 8.1,37C8.16,37.2 8.21,37.4 8.27,37.59C8.32,37.75 8.38,37.91 8.43,38.07C8.49,38.26 8.55,38.45 8.62,38.64C8.67,38.8 8.74,38.95 8.8,39.11C8.87,39.29 8.94,39.48 9.02,39.66C9.09,39.81 9.16,39.97 9.23,40.12C9.31,40.3 9.39,40.48 9.47,40.65C9.54,40.8 9.62,40.95 9.7,41.1L9.97,41.61C10.05,41.76 10.13,41.9 10.22,42.05C10.31,42.21 10.41,42.38 10.51,42.54C10.59,42.68 10.69,42.83 10.78,42.97C10.88,43.13 10.98,43.28 11.09,43.44C11.18,43.58 11.28,43.72 11.38,43.86C11.49,44.02 11.61,44.17 11.72,44.32C11.82,44.45 11.92,44.59 12.03,44.72C12.15,44.87 12.27,45.02 12.39,45.16L12.72,45.55C12.85,45.69 12.97,45.83 13.1,45.97C13.21,46.1 13.33,46.22 13.45,46.34C13.58,46.48 13.72,46.61 13.85,46.74C13.97,46.86 14.1,46.97 14.22,47.09C14.36,47.22 14.5,47.35 14.64,47.47L15.03,47.8C15.17,47.92 15.31,48.04 15.46,48.16C15.59,48.27 15.72,48.38 15.86,48.48ZM42.29,39.86L42.31,39.85C42.94,40.45 42.94,41.47 42.31,42.13C41.99,42.46 41.58,42.63 41.17,42.65L41.06,42.65C40.88,42.64 40.71,42.61 40.54,42.55C40.52,42.54 40.51,42.53 40.5,42.53C40.32,42.46 40.16,42.37 40.02,42.23L28.02,30.75L28.02,20.87C28.02,19.98 28.74,19.23 29.63,19.19L29.7,19.19C30.01,19.19 30.3,19.28 30.54,19.44C30.58,19.47 30.63,19.5 30.67,19.54C30.7,19.57 30.74,19.59 30.77,19.62C30.81,19.66 30.84,19.71 30.88,19.75C30.91,19.79 30.94,19.82 30.96,19.85C31,19.9 31.02,19.96 31.05,20.01C31.07,20.04 31.09,20.07 31.11,20.11C31.13,20.18 31.15,20.24 31.17,20.31C31.18,20.35 31.2,20.38 31.2,20.41C31.22,20.51 31.23,20.62 31.23,20.73L31.23,29.28L42.29,39.86Z" style="fill:white;"/>
    <path id="outline" d="M47.76,6.71L47.73,6.67C54.41,11.58 58.68,19.52 58.68,28.64C58.68,44.23 46,57.46 30.42,58.14C29.99,58.17 29.58,58.17 29.16,58.17C22.95,58.17 17.29,56.18 12.76,52.79C12.7,52.75 12.64,52.71 12.58,52.66C12.51,52.62 12.45,52.58 12.39,52.53C12.33,52.49 12.27,52.44 12.21,52.4C12.15,52.36 12.09,52.32 12.03,52.27C11.97,52.23 11.91,52.19 11.85,52.14C11.79,52.1 11.73,52.06 11.67,52.01C11.61,51.97 11.55,51.93 11.49,51.88C11.43,51.84 11.37,51.8 11.31,51.75C11.25,51.71 11.19,51.67 11.13,51.62C11.07,51.58 11.01,51.54 10.95,51.49C4.27,46.58 0,38.64 0,29.52C0,13.94 12.68,0.71 28.26,0.03C28.69,0 29.1,0 29.52,0C35.73,0 41.39,1.99 45.94,5.41C46,5.45 46.06,5.49 46.12,5.54C46.18,5.58 46.24,5.62 46.3,5.67C46.37,5.71 46.43,5.75 46.49,5.8C46.55,5.84 46.61,5.88 46.67,5.93C46.73,5.97 46.79,6.01 46.85,6.06C46.91,6.1 46.97,6.14 47.03,6.19C47.09,6.23 47.15,6.27 47.21,6.32C47.27,6.36 47.33,6.4 47.39,6.45C47.45,6.49 47.51,6.53 47.57,6.58C47.64,6.62 47.7,6.66 47.76,6.71ZM30.37,56.26L30.33,56.27C44.93,55.63 56.76,43.28 56.76,28.69C56.76,28.24 56.75,27.79 56.73,27.35C56.73,27.19 56.71,27.04 56.7,26.88C56.69,26.6 56.67,26.31 56.64,26.03C56.62,25.85 56.59,25.67 56.57,25.49C56.54,25.24 56.51,24.99 56.47,24.74C56.44,24.55 56.4,24.36 56.37,24.17C56.33,23.93 56.29,23.69 56.24,23.46C56.2,23.27 56.15,23.08 56.11,22.89C56.06,22.66 56.01,22.43 55.95,22.21C55.9,22.01 55.84,21.82 55.79,21.63C55.73,21.42 55.68,21.2 55.61,20.99C55.55,20.8 55.49,20.6 55.42,20.41C55.35,20.21 55.28,20 55.21,19.8C55.14,19.61 55.07,19.42 54.99,19.23C54.91,19.03 54.83,18.83 54.75,18.64C54.67,18.45 54.59,18.26 54.5,18.07C54.42,17.88 54.33,17.69 54.24,17.5C54.15,17.31 54.06,17.12 53.96,16.94C53.86,16.75 53.77,16.57 53.67,16.39C53.57,16.21 53.46,16.03 53.36,15.85C53.26,15.67 53.16,15.49 53.05,15.32C52.94,15.14 52.82,14.96 52.71,14.79L52.38,14.28C52.27,14.11 52.14,13.94 52.02,13.77C51.91,13.61 51.79,13.45 51.67,13.29C51.54,13.12 51.41,12.95 51.28,12.79C51.16,12.64 51.04,12.48 50.91,12.33C50.78,12.17 50.64,12.01 50.5,11.85C50.37,11.7 50.24,11.55 50.11,11.41C49.96,11.25 49.82,11.1 49.67,10.95L49.25,10.53C49.11,10.39 48.95,10.24 48.8,10.1C48.66,9.97 48.51,9.83 48.36,9.7C48.2,9.56 48.04,9.43 47.88,9.29C47.73,9.16 47.57,9.03 47.42,8.91C47.25,8.78 47.09,8.65 46.92,8.52L46.44,8.16C42.28,5.15 37.14,3.38 31.54,3.38C31.15,3.38 30.76,3.39 30.37,3.41C15.77,4.05 3.94,16.4 3.94,30.98C3.94,39.36 7.85,46.67 13.94,51.24C13.96,51.25 13.98,51.26 14,51.28C14.03,51.31 14.07,51.33 14.1,51.36C14.13,51.38 14.15,51.4 14.18,51.42C14.21,51.45 14.24,51.47 14.28,51.5L14.79,51.86C14.96,51.97 15.12,52.08 15.29,52.19C15.47,52.31 15.64,52.42 15.82,52.53C15.99,52.64 16.17,52.74 16.34,52.84C16.52,52.95 16.7,53.05 16.88,53.15C17.06,53.25 17.24,53.35 17.42,53.44C17.61,53.53 17.79,53.63 17.98,53.72C18.17,53.81 18.35,53.89 18.54,53.98C18.73,54.06 18.92,54.15 19.11,54.23C19.3,54.31 19.5,54.39 19.69,54.47C19.88,54.54 20.08,54.62 20.27,54.69L20.87,54.9C21.07,54.97 21.26,55.04 21.46,55.1C21.66,55.16 21.87,55.22 22.08,55.28C22.27,55.34 22.47,55.4 22.67,55.45C22.88,55.5 23.1,55.55 23.31,55.6C23.51,55.65 23.71,55.7 23.91,55.74L24.57,55.86C24.77,55.9 24.97,55.94 25.17,55.97C25.4,56 25.62,56.03 25.85,56.06C26.06,56.09 26.26,56.12 26.46,56.14C26.69,56.17 26.93,56.18 27.16,56.2C27.36,56.22 27.56,56.24 27.77,56.25C28.01,56.26 28.25,56.27 28.49,56.27C28.7,56.28 28.9,56.28 29.1,56.28C29.52,56.28 29.94,56.28 30.37,56.26ZM29.35,52.98L29.34,52.98C24.244,52.978 19.588,51.308 15.87,48.47C15.74,48.36 15.6,48.26 15.47,48.15C15.33,48.03 15.18,47.91 15.04,47.79L14.65,47.46C14.51,47.33 14.37,47.21 14.23,47.08C14.1,46.97 13.98,46.85 13.86,46.73C13.72,46.6 13.59,46.46 13.46,46.33C13.34,46.21 13.23,46.08 13.11,45.96C12.98,45.82 12.85,45.68 12.73,45.54L12.4,45.15C12.27,45 12.16,44.86 12.04,44.71C11.94,44.58 11.83,44.45 11.73,44.31C11.61,44.16 11.5,44 11.39,43.85C11.3,43.71 11.2,43.57 11.1,43.43C11,43.28 10.89,43.12 10.79,42.96C10.7,42.82 10.61,42.68 10.52,42.53C10.42,42.37 10.33,42.21 10.23,42.04C10.15,41.9 10.06,41.75 9.98,41.6L9.71,41.09C9.63,40.94 9.55,40.79 9.48,40.64C9.4,40.46 9.32,40.29 9.24,40.11C9.17,39.96 9.1,39.81 9.03,39.65C8.95,39.47 8.88,39.28 8.81,39.1C8.75,38.94 8.69,38.79 8.63,38.63C8.57,38.44 8.5,38.25 8.44,38.06C8.39,37.9 8.33,37.74 8.28,37.58C8.22,37.38 8.17,37.19 8.11,36.99C8.06,36.83 8.01,36.67 7.97,36.51C7.92,36.31 7.88,36.1 7.83,35.9C7.79,35.74 7.75,35.58 7.72,35.42C7.67,35.21 7.64,34.99 7.6,34.78C7.58,34.62 7.54,34.46 7.52,34.3C7.48,34.07 7.46,33.85 7.43,33.62C7.41,33.46 7.39,33.31 7.37,33.16C7.34,32.9 7.33,32.65 7.31,32.39C7.3,32.26 7.28,32.13 7.28,32C7.26,31.61 7.25,31.22 7.25,30.83C7.25,18.06 17.6,7.26 30.37,6.7C30.72,6.68 31.06,6.68 31.4,6.68L31.48,6.68C31.65,6.68 31.83,6.69 32,6.69C32.22,6.69 32.43,6.7 32.64,6.71C32.81,6.72 32.99,6.74 33.16,6.75C33.37,6.76 33.57,6.78 33.78,6.8C33.95,6.81 34.13,6.84 34.3,6.86C34.5,6.88 34.7,6.91 34.9,6.94C35.08,6.97 35.25,7 35.42,7.03C35.62,7.06 35.81,7.1 36.01,7.14L36.52,7.26C36.72,7.31 36.91,7.35 37.1,7.4C37.27,7.44 37.43,7.49 37.6,7.54C37.79,7.6 37.98,7.65 38.17,7.71C38.34,7.76 38.5,7.81 38.66,7.87C38.84,7.93 39.03,7.99 39.21,8.06C39.37,8.12 39.53,8.19 39.69,8.25C39.87,8.32 40.05,8.39 40.23,8.47C40.38,8.54 40.54,8.61 40.69,8.68C40.86,8.76 41.04,8.85 41.21,8.93C41.36,9.01 41.51,9.08 41.66,9.16L42.17,9.43C42.32,9.51 42.46,9.6 42.61,9.68C42.77,9.77 42.94,9.87 43.1,9.97C43.25,10.06 43.39,10.15 43.53,10.24C43.69,10.35 43.84,10.45 44,10.56C44.05,10.6 44.11,10.63 44.16,10.67C44.19,10.69 44.21,10.7 44.23,10.72C44.26,10.74 44.28,10.76 44.31,10.78C44.35,10.81 44.38,10.83 44.42,10.86C49.93,14.85 53.49,21.34 53.49,28.83C53.49,41.6 43.14,52.4 30.37,52.96C30.023,52.98 29.687,52.98 29.35,52.98ZM9.16,30.85L9.19,30.86C9.19,37.19 11.95,42.75 16.36,46.43C19.5,48.44 23.26,49.61 27.34,49.61C27.65,49.61 27.96,49.6 28.28,49.59C33.16,49.38 37.65,47.52 41.24,44.59L41.11,44.59C40.37,44.59 39.67,44.35 39.09,43.93C39.03,43.89 38.97,43.84 38.91,43.8C38.85,43.76 38.79,43.71 38.73,43.67C38.67,43.63 38.61,43.58 38.55,43.54C38.49,43.5 38.43,43.45 38.37,43.41C38.31,43.37 38.25,43.32 38.19,43.28C38.13,43.24 38.07,43.19 38.01,43.15C37.95,43.11 37.89,43.06 37.83,43.02C37.77,42.98 37.71,42.93 37.65,42.89C37.59,42.85 37.53,42.8 37.47,42.76C37.41,42.72 37.35,42.67 37.29,42.63C37.09,42.51 36.9,42.37 36.73,42.2L24.73,30.72L24.14,30.15L24.14,19.45C24.14,17.55 25.68,15.93 27.58,15.85L27.73,15.85C28.5,15.85 29.2,16.11 29.78,16.54C29.84,16.58 29.9,16.62 29.96,16.67C30.02,16.71 30.08,16.75 30.14,16.8C30.2,16.84 30.26,16.88 30.32,16.93C30.38,16.97 30.44,17.01 30.5,17.06C30.56,17.1 30.62,17.14 30.68,17.19C30.74,17.23 30.8,17.27 30.86,17.32C30.92,17.36 30.98,17.4 31.04,17.45C31.1,17.49 31.16,17.53 31.22,17.58C31.28,17.62 31.34,17.66 31.4,17.71C31.46,17.75 31.52,17.79 31.58,17.84C32.53,18.45 33.17,19.52 33.17,20.74L33.17,28.47L43.63,38.48C44.31,39.13 44.69,40.02 44.69,40.98C44.69,41.03 44.68,41.07 44.68,41.12C47.73,37.3 49.56,32.5 49.56,27.36C49.56,21.88 47.47,16.77 43.68,12.99C43.25,12.56 42.79,12.16 42.33,11.77C39.11,9.72 35.35,8.61 31.39,8.61C31.08,8.61 30.77,8.62 30.45,8.63C18.71,9.15 9.16,19.11 9.16,30.85ZM41.15,42.66L41.13,42.67C41.54,42.65 41.96,42.48 42.27,42.15C42.9,41.49 42.9,40.47 42.27,39.87L31.21,29.29L31.21,20.74C31.21,20.63 31.2,20.52 31.18,20.42C31.17,20.38 31.15,20.35 31.15,20.32C31.13,20.25 31.12,20.18 31.09,20.12C31.07,20.09 31.05,20.06 31.03,20.02C31,19.97 30.97,19.91 30.94,19.86C30.92,19.82 30.89,19.79 30.86,19.76C30.83,19.72 30.79,19.67 30.75,19.63C30.72,19.6 30.68,19.58 30.65,19.55C30.61,19.52 30.57,19.48 30.52,19.45C30.28,19.29 29.99,19.2 29.68,19.2L29.61,19.2C28.72,19.24 28,19.99 28,20.88L28,30.76L40,42.24C40.15,42.37 40.31,42.47 40.48,42.54C40.5,42.55 40.51,42.56 40.52,42.56C40.69,42.63 40.86,42.66 41.04,42.66L41.15,42.66Z"/>
</svg>
