<?xml version="1.0" encoding="UTF-8" standalone="no"?>
<!DOCTYPE svg PUBLIC "-//W3C//DTD SVG 1.1//EN" "http://www.w3.org/Graphics/SVG/1.1/DTD/svg11.dtd">
<svg width="100%" height="100%" viewBox="0 0 48 54" version="1.1" xmlns="http://www.w3.org/2000/svg" xmlns:xlink="http://www.w3.org/1999/xlink" xml:space="preserve" xmlns:serif="http://www.serif.com/" style="fill-rule:evenodd;clip-rule:evenodd;stroke-linejoin:round;stroke-miterlimit:2;">
    <path d="M20.06,53.33C19.57,53.33 19.16,53.18 18.84,52.9C18.8,52.87 18.74,52.84 18.69,52.79C18.64,52.76 18.59,52.72 18.53,52.68C18.48,52.65 18.43,52.61 18.38,52.57C18.33,52.54 18.28,52.5 18.22,52.46C18.17,52.43 18.12,52.39 18.07,52.35C18.02,52.32 17.97,52.28 17.92,52.24C17.87,52.21 17.82,52.17 17.76,52.13C17.71,52.1 17.66,52.06 17.61,52.02C17.56,51.99 17.51,51.95 17.46,51.91C17.41,51.88 17.35,51.84 17.29,51.79C16.86,51.5 16.59,51.05 16.53,50.54L16.53,50.48L16.44,50.48L8.57,50.82C8.06,50.77 7.67,50.67 7.34,50.39C7.29,50.36 7.24,50.32 7.19,50.28C7.14,50.25 7.09,50.21 7.04,50.17C7,50.14 6.94,50.1 6.89,50.06C6.84,50.03 6.79,49.99 6.73,49.95C6.68,49.92 6.63,49.88 6.58,49.84C6.53,49.81 6.48,49.77 6.43,49.73C6.38,49.7 6.33,49.66 6.27,49.62C6.22,49.59 6.17,49.55 6.12,49.51C6.07,49.48 6.02,49.44 5.96,49.4C5.91,49.37 5.85,49.33 5.79,49.28C5.36,48.99 5.09,48.54 5.03,48.03L3.94,38.07L3.53,38.09C3.07,38.11 2.62,37.95 2.28,37.64C2.24,37.61 2.18,37.58 2.13,37.53C2.09,37.5 2.03,37.47 1.97,37.42C1.93,37.39 1.87,37.36 1.82,37.31C1.78,37.28 1.72,37.25 1.67,37.2C1.63,37.17 1.57,37.14 1.51,37.09C1.47,37.06 1.41,37.03 1.36,36.98C1.32,36.95 1.26,36.92 1.2,36.87C1.16,36.84 1.1,36.81 1.05,36.76C1.01,36.73 0.95,36.7 0.9,36.65C0.86,36.62 0.8,36.59 0.74,36.54C0.68,36.51 0.61,36.46 0.54,36.39C0.19,36.06 0,35.59 0,35.12L0,30.47C0,25.79 3.02,21.64 7.3,20.03L7.24,19.99C7.18,19.95 7.14,19.92 7.09,19.88C7.02,19.84 6.98,19.8 6.93,19.76C6.87,19.72 6.82,19.68 6.78,19.65C6.72,19.61 6.67,19.57 6.62,19.54L6.47,19.43C6.41,19.39 6.36,19.36 6.32,19.32C6.26,19.28 6.21,19.24 6.16,19.21C5.97,19.07 5.76,18.9 5.56,18.71C4.29,17.49 3.58,15.83 3.58,14.04C3.58,10.41 6.53,7.33 10.16,7.17C11.71,7.09 13.24,7.58 14.45,8.54L14.74,8.75L14.74,8.73C14.73,4.09 18.46,0.21 23.03,0C24.98,-0.09 26.89,0.52 28.4,1.71L29.17,2.27C29.25,2.32 29.29,2.36 29.34,2.39L29.95,2.83C30.2,3.02 30.46,3.23 30.71,3.46C31.71,4.42 32.43,5.59 32.83,6.9C33.77,6.36 34.83,6.04 35.91,5.99C37.49,5.92 38.97,6.39 40.19,7.35L40.67,7.7C40.73,7.74 40.78,7.77 40.82,7.81L41.59,8.37C41.66,8.42 41.71,8.45 41.76,8.49C41.96,8.63 42.17,8.81 42.38,9C43.65,10.22 44.35,11.87 44.35,13.67C44.35,16.08 43.01,18.3 41.01,19.53C41.46,19.78 41.89,20.07 42.29,20.38L43.53,21.28C43.6,21.33 43.64,21.36 43.68,21.39L43.83,21.5C44.17,21.76 44.48,22.02 44.76,22.28C46.8,24.24 47.93,26.9 47.93,29.78L47.93,34.43C47.93,35.38 47.19,36.15 46.24,36.19L44.13,36.28L42.88,47.8C42.78,48.67 42.08,49.33 41.2,49.37L33.33,49.71C32.82,49.67 32.43,49.56 32.1,49.28C32.06,49.25 32.01,49.22 31.95,49.17C31.9,49.14 31.85,49.11 31.8,49.06C31.76,49.03 31.71,49 31.66,48.96L31.41,51.31C31.32,52.18 30.61,52.85 29.73,52.88L20.07,53.3L20.06,53.33ZM25.1,4.77L24.88,4.77C22.16,4.89 19.96,7.2 19.96,9.91C19.96,11.19 20.45,12.36 21.35,13.22C22.25,14.08 23.45,14.53 24.73,14.47C27.45,14.35 29.65,12.05 29.65,9.33C29.65,8.05 29.16,6.88 28.26,6.02C27.42,5.21 26.3,4.77 25.1,4.77ZM37.9,10.75L37.76,10.75C36,10.83 34.56,12.33 34.56,14.09C34.56,14.91 34.87,15.66 35.45,16.21C36.02,16.75 36.79,17.04 37.62,17C39.38,16.92 40.82,15.43 40.82,13.66C40.82,12.84 40.51,12.09 39.93,11.54C39.39,11.03 38.67,10.74 37.91,10.74L37.9,10.75ZM18.17,33.98C19.15,33.98 19.9,34.66 20,35.55L21.56,49.73L28.05,49.45L29.6,34.98C29.69,34.11 30.4,33.44 31.28,33.41L34.03,33.29L34.03,29.27C34.03,26.81 33.08,24.55 31.35,22.9C29.62,21.25 27.33,20.4 24.88,20.51C19.74,20.73 15.56,25.1 15.56,30.24L15.56,34.1L18.16,33.99L18.17,33.98ZM7.01,34.39C7.99,34.39 8.74,35.07 8.84,35.97L10.08,47.22L14.79,47.01L15.8,37.61L13.9,37.69C13.44,37.72 12.96,37.54 12.6,37.2C12.25,36.87 12.05,36.4 12.05,35.92L12.05,30.21C12.05,28.07 12.58,25.98 13.6,24.08C13.24,24.04 12.88,24.03 12.52,24.04C8.5,24.22 5.24,27.63 5.24,31.64L5.24,34.45L7.02,34.37L7.01,34.39ZM9.7,17.33C9.7,17.33 11.03,18.18 11.86,18.13C13.62,18.05 15.06,16.55 15.06,14.79C15.06,13.97 14.75,13.22 14.17,12.67C13.63,12.16 12.91,11.87 12.15,11.87L12.01,11.87C10.25,11.95 8.81,13.45 8.81,15.21C8.81,16.03 9.12,16.78 9.7,17.33ZM33.81,36.83L34.82,46.14L39.53,45.93L40.78,34.41C40.87,33.54 41.58,32.87 42.46,32.84L44.39,32.76L44.39,29.8C44.39,27.89 43.65,26.13 42.31,24.85C40.97,23.57 39.18,22.91 37.26,22.99C36.84,23.01 36.41,23.07 35.99,23.16C37.03,25 37.58,27.1 37.58,29.28L37.58,34.99C37.58,35.94 36.84,36.71 35.89,36.75L33.82,36.84L33.81,36.83Z" style="fill:rgb(69,137,246);"/>
</svg>
