<?xml version="1.0" encoding="UTF-8" standalone="no"?>
<!DOCTYPE svg PUBLIC "-//W3C//DTD SVG 1.1//EN" "http://www.w3.org/Graphics/SVG/1.1/DTD/svg11.dtd">
<svg width="100%" height="100%" viewBox="0 0 59 58" version="1.1" xmlns="http://www.w3.org/2000/svg" xmlns:xlink="http://www.w3.org/1999/xlink" xml:space="preserve" xmlns:serif="http://www.serif.com/" style="fill-rule:evenodd;clip-rule:evenodd;stroke-linejoin:round;stroke-miterlimit:2;">
    <path d="M31.9,54.1L31.9,31.1L54.8,30.1C55.7,30.1 56.5,29.3 56.5,28.4L56.5,28C56.5,27.9 56.5,27.9 56.4,27.8C56.4,27.8 56.4,27.7 56.3,27.7C56.3,27.7 56.3,27.6 56.2,27.5L55.8,27.1C55.6,26.9 55.3,26.8 54.9,26.8L54.8,26.8L31.9,27.8L31.9,4.7C31.9,4.6 31.9,4.6 31.8,4.5C31.8,4.5 31.8,4.4 31.7,4.4C31.7,4.3 31.6,4.3 31.6,4.2L31.5,4.1C31.5,4 31.4,4 31.4,4L31.2,3.8C31,3.6 30.7,3.5 30.3,3.5L30.2,3.5C29.3,3.5 28.6,4.3 28.6,5.2L28.6,27.9L5.7,28.9C4.8,28.9 4,29.7 4,30.6C4,31.1 4.2,31.5 4.6,31.8L4.7,31.9C4.7,31.9 4.8,31.9 4.8,32C4.9,32 4.9,32 5,32.1L5.7,32.1L28.6,31.1L28.6,54.1C28.6,54.6 28.8,55 29.2,55.3L29.3,55.4C29.3,55.4 29.4,55.4 29.4,55.5C29.4,55.5 29.5,55.5 29.5,55.6L30.1,55.6C31.1,55.7 31.9,55 31.9,54.1Z" style="fill:white;fill-rule:nonzero;"/>
    <path d="M56.8,25.4C56.7,25.4 56.7,25.3 56.6,25.3C56.5,25.3 56.5,25.2 56.4,25.2C56.3,25.2 56.3,25.1 56.2,25.1C56.1,25.1 56.1,25 56,25C55.9,25 55.9,24.9 55.8,24.9C55.7,24.9 55.7,24.8 55.6,24.8C55.5,24.8 55.5,24.7 55.4,24.7C55.3,24.7 55.3,24.6 55.2,24.6C55.1,24.6 55.1,24.5 55,24.5C54.9,24.5 54.9,24.4 54.8,24.4C54.2,24 53.5,23.7 52.7,23.7L52.5,23.7L33.7,24.5L33.7,5.1C33.7,3.8 33,2.7 32.1,2.1C32,2.1 32,2 31.9,2C31.8,2 31.8,1.9 31.7,1.9C31.6,1.9 31.6,1.8 31.5,1.8C31.4,1.8 31.4,1.7 31.3,1.7C31.2,1.7 31.2,1.6 31.1,1.6C31,1.6 31,1.5 30.9,1.5C30.8,1.5 30.8,1.4 30.7,1.4C30.6,1.4 30.6,1.3 30.5,1.3C30.4,1.2 30.2,1.1 30.1,1.1C29.9,0.3 29.1,0 28.3,0L28.1,0C26.1,0.1 24.5,1.8 24.5,3.7L24.5,24.5L3.5,25.4C1.5,25.5 -0.1,27.2 -0.1,29.1C-0.1,30.4 0.6,31.5 1.5,32.1C1.6,32.1 1.6,32.2 1.7,32.2C1.8,32.2 1.8,32.3 1.9,32.3C2,32.3 2,32.4 2.1,32.4C2.2,32.4 2.2,32.5 2.3,32.5C2.4,32.5 2.4,32.6 2.5,32.6C2.6,32.6 2.6,32.7 2.7,32.7C2.8,32.7 2.8,32.8 2.9,32.8C3,32.8 3,32.9 3.1,32.9C3.2,32.9 3.2,33 3.3,33C3.4,33 3.4,33.1 3.5,33.1C4.1,33.5 4.8,33.8 5.6,33.8L5.8,33.8L24.6,33L24.6,52.4C24.6,53.7 25.3,54.8 26.2,55.4C26.3,55.4 26.3,55.5 26.4,55.5C26.5,55.5 26.5,55.6 26.6,55.6C26.7,55.6 26.7,55.7 26.8,55.7C26.9,55.7 26.9,55.8 27,55.8C27.1,55.8 27.1,55.9 27.2,55.9C27.3,55.9 27.3,56 27.4,56C27.5,56 27.5,56.1 27.6,56.1C27.7,56.1 27.7,56.2 27.8,56.2C27.9,56.2 27.9,56.3 28,56.3C28.1,56.3 28.1,56.4 28.2,56.4C28.8,56.8 29.5,57.1 30.3,57.1L30.5,57.1C32.5,57 34.1,55.3 34.1,53.4L34.1,33L55.1,32.1C57.1,32 58.7,30.3 58.7,28.4C58.4,27.1 57.7,26 56.8,25.4ZM30.2,55.8L29.6,55.8C29.6,55.8 29.5,55.8 29.5,55.7C29.5,55.7 29.4,55.7 29.4,55.6L29.3,55.5C28.9,55.2 28.7,54.8 28.7,54.3L28.7,31.3L5.8,32.3L5.1,32.3C5,32.3 5,32.3 4.9,32.2C4.9,32.2 4.8,32.2 4.8,32.1C4.7,32.1 4.7,32 4.7,32C4.3,31.6 4,31.2 4,30.7C4,29.8 4.8,29 5.7,29L28.6,28L28.6,5.2C28.6,4.3 29.3,3.5 30.2,3.5L30.3,3.5C30.6,3.5 30.9,3.6 31.2,3.8L31.3,3.9C31.3,3.9 31.4,3.9 31.4,4L31.6,4.2C31.6,4.3 31.7,4.3 31.7,4.4C31.7,4.4 31.7,4.5 31.8,4.5C31.8,4.6 31.8,4.6 31.9,4.7L31.9,27.8L54.8,26.8L54.9,26.8C55.2,26.8 55.5,26.9 55.8,27.1L55.9,27.2C55.9,27.2 56,27.2 56,27.3L56.2,27.5C56.2,27.5 56.3,27.6 56.3,27.7C56.3,27.7 56.3,27.8 56.4,27.8C56.4,27.9 56.4,27.9 56.5,28L56.5,28.4C56.5,29.3 55.8,30.1 54.8,30.1L31.9,31.1L31.9,54.1C31.8,55 31.1,55.8 30.2,55.8Z" style="fill:rgb(188,252,7);fill-rule:nonzero;"/>
</svg>
