<?xml version="1.0" encoding="UTF-8" standalone="no"?>
<!DOCTYPE svg PUBLIC "-//W3C//DTD SVG 1.1//EN" "http://www.w3.org/Graphics/SVG/1.1/DTD/svg11.dtd">
<svg width="100%" height="100%" viewBox="0 0 66 69" version="1.1" xmlns="http://www.w3.org/2000/svg" xmlns:xlink="http://www.w3.org/1999/xlink" xml:space="preserve" xmlns:serif="http://www.serif.com/" style="fill-rule:evenodd;clip-rule:evenodd;stroke-linejoin:round;stroke-miterlimit:2;">
    <path d="M45.84,41.29L45.82,41.27C45.82,41.27 36.09,56.45 35.95,56.65C35.81,56.85 35.65,57.02 35.48,57.17C35.42,57.22 35.37,57.26 35.31,57.3C35.19,57.39 35.06,57.48 34.92,57.56C34.86,57.6 34.79,57.64 34.72,57.67C34.58,57.73 34.43,57.79 34.28,57.83C34.22,57.85 34.15,57.88 34.09,57.89C33.87,57.94 33.66,57.97 33.44,57.97C33.28,57.97 33.11,57.95 32.94,57.92C32.89,57.91 32.85,57.9 32.8,57.89C32.67,57.86 32.55,57.83 32.43,57.78C32.38,57.76 32.34,57.74 32.29,57.72C32.13,57.65 31.97,57.57 31.82,57.47C31.58,57.3 31.36,57.09 31.18,56.85L21.32,42.34C19.39,39.16 17.55,35.83 16.19,32.71C15.18,30.42 14.38,28.12 14.04,26.04C13.93,25.35 13.87,24.68 13.87,24.04C13.87,23.39 13.91,22.74 13.97,22.09C14.41,17.56 16.41,13.24 19.64,9.86C23.71,5.61 29.11,3.46 34.44,3.46C38.58,3.46 42.67,4.76 46.05,7.39C46.55,7.78 47.04,8.19 47.51,8.64C51.2,12.18 53.28,17.1 53.28,22.33C53.28,23.93 52.89,25.76 52.28,27.68C51.91,28.83 51.46,30.02 50.96,31.21C50.28,32.83 49.48,34.51 48.61,36.21C47.74,37.91 46.8,39.62 45.84,41.29ZM49.34,22.51L49.35,22.51C49.35,17.14 46.66,12.53 42.56,9.86C42.36,9.74 42.15,9.62 41.95,9.5C41.73,9.37 41.51,9.24 41.28,9.12C41.07,9.01 40.86,8.91 40.64,8.81C40.4,8.7 40.17,8.6 39.93,8.5C39.7,8.42 39.48,8.34 39.25,8.26C39.01,8.17 38.76,8.09 38.51,8.02C38.28,7.95 38.05,7.9 37.81,7.84C37.55,7.78 37.29,7.72 37.03,7.67C36.79,7.63 36.54,7.59 36.3,7.56C36.04,7.52 35.77,7.49 35.5,7.47C35.25,7.45 35,7.43 34.75,7.43C34.59,7.43 34.44,7.41 34.28,7.41C34.05,7.41 33.81,7.42 33.58,7.43C24.88,7.81 17.82,15.17 17.82,23.88C17.82,25.59 18.52,28.05 19.82,31.01C20.45,32.46 21.21,33.98 22.04,35.53C22.87,37.08 23.78,38.65 24.72,40.2L33.58,53.34L42.45,39.43C44.32,36.16 46.07,32.83 47.34,29.81C47.82,28.66 48.23,27.58 48.54,26.6C48.75,25.95 48.92,25.33 49.05,24.76C49.18,24.19 49.27,23.67 49.31,23.19C49.33,22.95 49.34,22.72 49.34,22.51ZM41.18,29.13L41.15,29.13C39.35,31.4 36.61,32.92 33.55,33.05C33.31,33.07 33.06,33.05 32.82,33.05C32.66,33.05 32.5,33.04 32.35,33.03L31.84,32.97C31.69,32.95 31.54,32.93 31.39,32.9C31.22,32.87 31.06,32.84 30.9,32.8C30.75,32.77 30.6,32.73 30.46,32.69C30.3,32.65 30.15,32.59 29.99,32.54L29.57,32.39C29.42,32.33 29.27,32.26 29.12,32.19C28.99,32.13 28.86,32.07 28.73,32L28.31,31.76C28.19,31.69 28.06,31.62 27.94,31.54C27.8,31.45 27.67,31.36 27.54,31.26C25.2,29.56 23.69,26.81 23.69,23.63C23.69,18.19 28.1,13.59 33.54,13.35L33.98,13.35C35.93,13.35 37.73,13.92 39.22,14.91C39.24,14.93 39.27,14.94 39.29,14.96C39.32,14.97 39.34,14.99 39.37,15.01C39.41,15.04 39.44,15.06 39.48,15.09C39.51,15.1 39.53,15.12 39.56,15.14C39.67,15.23 39.79,15.31 39.9,15.4C40.03,15.5 40.15,15.61 40.27,15.72C40.38,15.82 40.49,15.91 40.59,16.01C40.71,16.12 40.82,16.24 40.93,16.36C41.03,16.46 41.13,16.56 41.22,16.67C41.32,16.79 41.42,16.93 41.52,17.06C41.6,17.17 41.69,17.28 41.77,17.4C41.87,17.54 41.95,17.69 42.04,17.83C42.12,17.95 42.19,18.07 42.26,18.19C42.34,18.34 42.42,18.49 42.49,18.65C42.55,18.77 42.62,18.89 42.67,19.02C42.74,19.18 42.8,19.35 42.86,19.52C42.91,19.65 42.96,19.77 43,19.9C43.05,20.08 43.09,20.27 43.14,20.45C43.17,20.57 43.2,20.69 43.23,20.82C43.27,21.02 43.3,21.24 43.33,21.45C43.35,21.56 43.37,21.67 43.38,21.78C43.41,22.11 43.43,22.44 43.43,22.77C43.43,25.15 42.59,27.37 41.18,29.13ZM39.49,22.94L39.46,22.91C39.46,20.9 38.46,19.17 36.92,18.17C36.84,18.12 36.77,18.07 36.69,18.03C36.61,17.98 36.52,17.93 36.44,17.89C36.36,17.85 36.28,17.82 36.2,17.78C36.12,17.74 36.03,17.7 35.94,17.66C35.86,17.63 35.78,17.6 35.69,17.57C35.6,17.54 35.5,17.51 35.41,17.48C35.33,17.45 35.24,17.43 35.15,17.41C35.06,17.39 34.96,17.37 34.86,17.35C34.77,17.33 34.68,17.32 34.59,17.31C34.49,17.3 34.39,17.28 34.29,17.28C34.2,17.27 34.1,17.27 34.01,17.27L33.57,17.27C30.31,17.41 27.66,20.18 27.66,23.44C27.66,23.64 27.67,23.83 27.69,24.03C27.7,24.1 27.72,24.16 27.72,24.23C27.74,24.36 27.75,24.49 27.78,24.61C27.8,24.69 27.82,24.76 27.84,24.84C27.86,24.95 27.89,25.06 27.92,25.17C27.94,25.25 27.97,25.32 28,25.4C28.04,25.5 28.07,25.6 28.11,25.7C28.14,25.78 28.18,25.85 28.22,25.93C28.26,26.02 28.3,26.11 28.35,26.2C28.39,26.27 28.44,26.35 28.48,26.42C28.54,26.5 28.58,26.59 28.64,26.67C28.69,26.74 28.75,26.81 28.8,26.88C28.86,26.96 28.92,27.04 28.98,27.11C29.04,27.17 29.1,27.24 29.16,27.3C29.23,27.37 29.29,27.44 29.36,27.51C29.42,27.58 29.48,27.63 29.55,27.69C29.62,27.76 29.7,27.82 29.77,27.88C29.78,27.89 29.8,27.9 29.8,27.9C29.83,27.93 29.86,27.96 29.9,27.98C29.93,27.99 29.95,28.01 29.98,28.03C30.91,28.71 32.06,29.11 33.32,29.11L33.58,29.11C34.6,29.06 35.56,28.76 36.4,28.27C38.24,27.19 39.49,25.18 39.49,22.94ZM13.53,65.03L13.53,65.02C10.94,64.39 8.7,63.57 7.06,62.53C5.5,61.54 4.03,60.06 4.03,57.97C4.03,56.68 4.6,55.56 5.37,54.66C6.14,53.76 7.15,53.01 8.3,52.34C10.6,51.01 13.77,49.88 17.43,48.99C17.61,48.94 17.79,48.92 17.97,48.92C18.37,48.92 18.75,49.05 19.07,49.28C19.1,49.3 19.12,49.32 19.15,49.34C19.29,49.45 19.41,49.58 19.51,49.73C19.53,49.76 19.54,49.79 19.56,49.82C19.66,49.98 19.74,50.15 19.79,50.35C19.82,50.48 19.84,50.61 19.84,50.74C19.86,51.39 19.55,52.02 19.03,52.42C18.82,52.58 18.58,52.71 18.32,52.78C18.28,52.79 18.23,52.81 18.19,52.81C14.71,53.65 11.96,54.67 10.14,55.73C9.46,56.09 8.83,56.57 8.3,57.14C7.97,57.53 7.95,57.73 7.95,57.79C7.95,57.88 8.03,58.4 9.25,59.17C9.53,59.35 9.86,59.53 10.23,59.71C10.6,59.89 11,60.06 11.45,60.23C12.34,60.57 13.39,60.89 14.59,61.18C18.47,62.11 23.64,62.67 29.46,62.67C30.8,62.67 32.16,62.64 33.56,62.58C41.05,62.26 47.76,61.09 52.53,59.52C53.13,59.33 53.68,59.12 54.21,58.92C54.74,58.72 55.22,58.51 55.67,58.3C56.56,57.89 57.3,57.47 57.88,57.05C58.64,56.5 58.96,56.09 59.09,55.84C59.17,55.69 59.18,55.59 59.18,55.56C59.18,55.53 59.18,55.46 59.13,55.36C59.09,55.26 59,55.12 58.83,54.94C58.3,54.41 57.67,53.99 56.98,53.68C55.14,52.78 52.39,52 48.89,51.46C47.82,51.29 47.13,50.29 47.34,49.21C47.54,48.24 48.4,47.54 49.36,47.54C49.46,47.54 49.56,47.54 49.66,47.56C51.5,47.85 53.22,48.2 54.76,48.63C55.53,48.84 56.26,49.07 56.94,49.32C57.62,49.57 58.25,49.84 58.83,50.12C59.41,50.41 59.96,50.72 60.45,51.06C60.94,51.4 61.39,51.78 61.77,52.19C62.53,53.02 63.11,54.11 63.11,55.39C63.11,55.65 63.08,55.9 63.04,56.15C62.74,57.87 61.44,59.23 60.07,60.22C58.44,61.4 56.19,62.42 53.6,63.27C48.39,64.99 41.3,66.19 33.55,66.53C32.26,66.58 30.98,66.61 29.73,66.61L28.42,66.61C28.13,66.6 27.83,66.6 27.53,66.6C26.92,66.59 26.32,66.57 25.72,66.55C25.49,66.55 25.26,66.54 25.04,66.53C24.23,66.49 23.44,66.44 22.66,66.38C22.52,66.37 22.38,66.35 22.23,66.34C21.61,66.29 20.99,66.24 20.38,66.17C20.13,66.14 19.89,66.11 19.64,66.08C19.15,66.02 18.66,65.96 18.18,65.89C17.93,65.86 17.68,65.82 17.43,65.78C16.95,65.7 16.49,65.62 16.03,65.54C15.82,65.51 15.6,65.47 15.4,65.43C14.76,65.31 14.13,65.17 13.53,65.03Z" style="fill:white;"/>
    <path d="M32.48,0.09C37.26,0.09 41.79,1.65 45.44,4.53C45.5,4.57 45.56,4.61 45.62,4.66C45.68,4.7 45.74,4.74 45.8,4.79C45.86,4.83 45.92,4.87 45.98,4.92C46.04,4.96 46.1,5 46.16,5.05C46.22,5.09 46.28,5.13 46.34,5.18C46.4,5.22 46.46,5.26 46.52,5.31C46.58,5.35 46.64,5.39 46.7,5.44C46.76,5.48 46.82,5.52 46.88,5.57C46.94,5.61 47,5.65 47.06,5.7C47.12,5.74 47.18,5.78 47.24,5.83C47.82,6.28 48.38,6.75 48.91,7.26C52.97,11.14 55.3,16.66 55.3,22.39C55.3,24.92 54.49,28.08 52.82,32.04C51.58,34.98 49.82,38.45 47.59,42.33L47.57,42.37L47.54,42.41L46.35,44.27C46.68,44.18 47.02,44.12 47.37,44.12C47.58,44.12 47.78,44.14 47.98,44.17C52.01,44.79 55.29,45.71 57.74,46.91C58.54,47.3 59.24,47.72 59.85,48.17C59.91,48.21 59.97,48.26 60.03,48.3C60.09,48.34 60.15,48.39 60.21,48.43C60.27,48.47 60.33,48.52 60.39,48.56C60.45,48.6 60.51,48.65 60.57,48.69C60.63,48.73 60.69,48.78 60.75,48.82C60.81,48.86 60.87,48.91 60.93,48.95C60.99,48.99 61.05,49.04 61.11,49.08C61.17,49.12 61.23,49.17 61.29,49.21C61.35,49.25 61.41,49.3 61.47,49.34C61.53,49.38 61.59,49.43 61.65,49.47C62.27,49.9 62.8,50.36 63.26,50.85L63.32,50.9C64.54,52.23 65.19,53.78 65.19,55.45C65.19,57.12 64.52,59.6 61.32,61.9C59.58,63.15 57.22,64.27 54.3,65.23C48.75,67.06 41.44,68.25 33.71,68.59C32.24,68.66 30.77,68.69 29.33,68.69C23.19,68.69 17.58,68.12 13.1,67.03C10.16,66.32 7.78,65.4 6.03,64.29C5.78,64.13 5.55,63.97 5.33,63.81C5.27,63.77 5.21,63.72 5.15,63.68C5.08,63.64 5.02,63.59 4.96,63.55C4.9,63.51 4.84,63.46 4.78,63.42C4.72,63.38 4.66,63.33 4.6,63.29C4.54,63.25 4.48,63.2 4.42,63.16C4.36,63.12 4.3,63.07 4.24,63.03C4.18,62.99 4.12,62.94 4.06,62.9C4,62.86 3.94,62.81 3.88,62.77C3.82,62.73 3.76,62.68 3.7,62.64C3.64,62.6 3.58,62.55 3.52,62.51C0.69,60.51 0.07,58.22 0.07,56.6C0.07,54.98 0.7,53.38 1.89,51.99C2.74,50.98 3.87,50.08 5.34,49.23C7.75,47.84 10.99,46.64 14.98,45.67C15.32,45.58 15.67,45.53 16.02,45.53C16.94,45.53 17.8,45.85 18.47,46.4C18.53,46.44 18.59,46.48 18.65,46.53C18.71,46.57 18.77,46.61 18.83,46.66C18.89,46.7 18.95,46.74 19.01,46.79C19.07,46.83 19.13,46.87 19.19,46.92C19.25,46.96 19.31,47 19.37,47.05C19.43,47.09 19.49,47.13 19.55,47.18C19.61,47.22 19.67,47.26 19.73,47.31C19.79,47.35 19.85,47.39 19.91,47.44C19.97,47.48 20.03,47.52 20.09,47.57C20.15,47.61 20.21,47.65 20.27,47.7C21.01,48.22 21.56,49 21.78,49.93C22.28,52 20.99,54.17 18.91,54.75C18.83,54.77 18.76,54.79 18.68,54.81C14.91,55.73 12.69,56.69 11.45,57.37C11.97,57.53 12.51,57.69 13.09,57.83C16.94,58.76 22.06,59.27 27.49,59.27C28.57,59.27 29.66,59.24 30.76,59.2C30.75,59.19 30.73,59.18 30.73,59.18C30.68,59.16 30.65,59.12 30.61,59.09C30.59,59.08 30.56,59.07 30.54,59.05C30.5,59.03 30.47,58.99 30.43,58.96C30.41,58.95 30.38,58.94 30.36,58.92C30.32,58.9 30.29,58.86 30.25,58.83C30.23,58.82 30.2,58.81 30.18,58.79C30.14,58.77 30.11,58.73 30.07,58.7C30.05,58.69 30.02,58.68 30,58.66C29.96,58.64 29.93,58.6 29.89,58.57C29.87,58.56 29.84,58.55 29.82,58.53C29.78,58.51 29.75,58.47 29.71,58.44C29.69,58.43 29.66,58.42 29.64,58.4C29.6,58.38 29.57,58.34 29.53,58.31C29.51,58.3 29.48,58.29 29.46,58.27C29.42,58.25 29.39,58.21 29.35,58.18C29.33,58.17 29.3,58.16 29.28,58.14C29.24,58.12 29.21,58.08 29.17,58.05C29.15,58.04 29.12,58.03 29.1,58.01C29.06,57.99 29.03,57.95 28.99,57.92C28.97,57.91 28.94,57.9 28.92,57.88C28.88,57.86 28.85,57.82 28.81,57.79C28.79,57.78 28.76,57.77 28.74,57.75C28.32,57.46 27.95,57.11 27.64,56.7L27.53,56.55L27.51,56.5L17.72,42.1L17.66,42.02C15.43,38.34 13.66,35.02 12.41,32.16C10.73,28.34 9.92,25.24 9.92,22.68C9.91,16.9 12.16,11.37 16.24,7.11C20.51,2.65 26.43,0.09 32.48,0.09ZM43.27,49.98L43.2,49.95L42.99,49.95L43.02,49.82L42.81,49.82L42.88,49.45L37.65,57.6L37.63,57.65L37.54,57.78C37.29,58.13 37.01,58.44 36.69,58.71C41.67,58.21 46.22,57.32 49.84,56.13C51.61,55.55 52.83,55 53.66,54.54C52.4,54.15 50.74,53.75 48.54,53.41C47.95,53.32 47.41,53.09 46.93,52.76C46.87,52.72 46.81,52.67 46.75,52.63C46.69,52.59 46.63,52.54 46.57,52.5C46.51,52.46 46.45,52.41 46.39,52.37C46.33,52.33 46.27,52.28 46.21,52.24C46.15,52.2 46.09,52.15 46.03,52.11C45.97,52.07 45.91,52.02 45.85,51.98C45.79,51.94 45.73,51.89 45.67,51.85C45.61,51.81 45.55,51.76 45.49,51.72C45.43,51.68 45.37,51.63 45.31,51.59C45.25,51.55 45.19,51.5 45.13,51.46C45.07,51.42 45.01,51.37 44.95,51.33L44.89,51.33L44.89,51.28L44.77,51.19L44.71,51.19L44.71,51.14C44.68,51.11 44.64,51.09 44.61,51.06L44.53,51.06L44.53,51C44.5,50.98 44.45,50.93 44.45,50.93L44.33,50.93L44.35,50.82C44.34,50.81 44.32,50.8 44.32,50.8L44.14,50.8L44.17,50.68L43.96,50.68L43.99,50.54L43.78,50.54L43.81,50.41L43.6,50.41L43.63,50.27L43.42,50.27L43.45,50.13L43.24,50.13L43.27,49.98ZM4.02,57.98L4.02,57.99C4.02,60.07 5.48,61.56 7.05,62.55C8.68,63.59 10.93,64.41 13.52,65.04C14.12,65.18 14.74,65.31 15.39,65.44C15.6,65.48 15.81,65.51 16.02,65.55C16.48,65.64 16.94,65.72 17.42,65.79C17.67,65.83 17.92,65.86 18.17,65.9C18.65,65.97 19.13,66.03 19.63,66.09C19.88,66.12 20.12,66.15 20.37,66.18C20.97,66.24 21.59,66.3 22.22,66.35C22.36,66.36 22.5,66.38 22.65,66.39C23.42,66.45 24.22,66.5 25.03,66.54C25.25,66.55 25.48,66.56 25.71,66.56C26.31,66.58 26.91,66.6 27.52,66.61C27.81,66.62 28.11,66.62 28.41,66.62L29.72,66.62C30.97,66.62 32.24,66.6 33.54,66.54C41.29,66.2 48.38,65 53.59,63.28C56.18,62.43 58.42,61.41 60.06,60.23C61.43,59.24 62.73,57.88 63.03,56.16C63.08,55.91 63.1,55.66 63.1,55.4C63.1,54.11 62.52,53.03 61.76,52.2C61.38,51.79 60.94,51.41 60.44,51.07C59.94,50.73 59.4,50.41 58.82,50.13C58.24,49.84 57.61,49.58 56.93,49.33C56.25,49.08 55.52,48.85 54.75,48.64C53.21,48.21 51.49,47.85 49.65,47.57C49.55,47.55 49.45,47.55 49.35,47.55C48.39,47.55 47.52,48.25 47.33,49.22C47.12,50.3 47.81,51.3 48.88,51.47C52.38,52.01 55.14,52.79 56.97,53.69C57.66,54 58.28,54.42 58.82,54.95C58.99,55.13 59.07,55.27 59.12,55.37C59.17,55.47 59.17,55.54 59.17,55.57C59.17,55.61 59.16,55.7 59.08,55.85C58.95,56.1 58.63,56.51 57.87,57.06C57.29,57.47 56.55,57.89 55.66,58.31C55.21,58.52 54.72,58.73 54.2,58.93C53.68,59.13 53.12,59.33 52.52,59.53C47.74,61.1 41.04,62.26 33.55,62.59C32.15,62.65 30.78,62.68 29.45,62.68C23.63,62.68 18.46,62.12 14.58,61.19C13.38,60.9 12.33,60.58 11.44,60.24C11,60.07 10.58,59.9 10.22,59.72C9.86,59.54 9.53,59.36 9.24,59.18C8.02,58.4 7.94,57.89 7.94,57.8C7.94,57.74 7.96,57.54 8.29,57.15C8.82,56.58 9.44,56.11 10.13,55.74C11.95,54.68 14.7,53.67 18.18,52.82C18.22,52.81 18.27,52.8 18.31,52.79C18.57,52.71 18.81,52.59 19.02,52.43C19.54,52.03 19.85,51.4 19.83,50.75C19.83,50.62 19.81,50.49 19.78,50.36C19.73,50.17 19.65,49.99 19.55,49.83C19.54,49.8 19.52,49.77 19.5,49.74C19.4,49.59 19.28,49.46 19.14,49.35C19.12,49.33 19.09,49.31 19.06,49.29C18.75,49.07 18.37,48.93 17.96,48.93C17.78,48.93 17.6,48.95 17.42,49C13.76,49.88 10.6,51.02 8.29,52.35C7.14,53.02 6.13,53.77 5.36,54.67C4.59,55.58 4.02,56.7 4.02,57.98ZM34.44,3.47C29.113,3.473 23.717,5.623 19.65,9.87C16.42,13.24 14.43,17.57 13.98,22.1C13.91,22.75 13.88,23.4 13.88,24.05C13.88,24.69 13.94,25.36 14.05,26.05C14.39,28.13 15.2,30.43 16.2,32.72C17.57,35.84 19.41,39.18 21.33,42.35C21.33,42.35 31.01,56.64 31.19,56.87C31.37,57.1 31.59,57.31 31.83,57.48C31.98,57.58 32.14,57.66 32.3,57.73C32.34,57.76 32.39,57.77 32.44,57.79C32.56,57.83 32.68,57.87 32.81,57.9C32.86,57.91 32.9,57.93 32.95,57.93C33.11,57.96 33.28,57.98 33.45,57.98C33.67,57.98 33.89,57.95 34.1,57.9C34.17,57.88 34.23,57.86 34.29,57.84C34.44,57.8 34.59,57.75 34.73,57.68C34.8,57.64 34.86,57.61 34.93,57.57C35.06,57.5 35.19,57.41 35.32,57.31C35.38,57.27 35.44,57.23 35.49,57.18L35.51,57.2C35.68,57.04 35.84,56.87 35.98,56.67L45.85,41.3C46.81,39.63 47.75,37.92 48.62,36.22C49.49,34.52 50.29,32.84 50.97,31.22C51.47,30.03 51.92,28.84 52.29,27.69C52.91,25.77 53.29,23.94 53.29,22.34C53.29,17.11 51.22,12.18 47.52,8.65C47.05,8.2 46.56,7.79 46.06,7.4C42.68,4.77 38.59,3.47 34.45,3.47C34.447,3.47 34.443,3.47 34.44,3.47ZM42.55,9.86L42.54,9.86C46.64,12.53 49.33,17.14 49.33,22.51C49.33,22.72 49.32,22.95 49.3,23.19C49.25,23.66 49.17,24.19 49.04,24.76C48.91,25.33 48.74,25.94 48.53,26.6C48.22,27.58 47.82,28.66 47.33,29.81C46.07,32.83 44.32,36.17 42.44,39.43L33.57,53.34L24.71,40.2C23.77,38.65 22.86,37.07 22.03,35.53C21.2,33.99 20.44,32.46 19.81,31.01C18.52,28.05 17.81,25.59 17.81,23.88C17.81,15.18 24.86,7.81 33.57,7.43C33.81,7.41 34.04,7.41 34.27,7.41C34.43,7.41 34.58,7.43 34.74,7.43C34.99,7.44 35.24,7.45 35.49,7.47C35.76,7.49 36.02,7.52 36.29,7.56C36.54,7.59 36.78,7.63 37.02,7.67C37.29,7.72 37.54,7.78 37.8,7.84C38.03,7.9 38.27,7.95 38.5,8.02C38.75,8.09 38.99,8.18 39.24,8.26C39.47,8.33 39.7,8.41 39.92,8.5C40.16,8.6 40.4,8.7 40.63,8.81C40.84,8.91 41.06,9.01 41.27,9.12C41.5,9.24 41.72,9.37 41.94,9.5C42.15,9.61 42.35,9.73 42.55,9.86ZM26.39,39.13L26.34,39.11L31.95,47.42L38.65,36.9C39.74,35 40.7,33.23 41.53,31.58C39.44,33.59 36.66,34.89 33.61,35.02C33.44,35.03 33.26,35.03 33.09,35.03C30.61,35.03 28.35,34.27 26.5,32.98C26.44,32.94 26.38,32.89 26.32,32.85C26.26,32.81 26.2,32.76 26.14,32.72C26.08,32.68 26.02,32.63 25.96,32.59C25.9,32.55 25.84,32.5 25.78,32.46C25.72,32.42 25.66,32.37 25.6,32.33C25.54,32.29 25.48,32.24 25.42,32.2C25.36,32.16 25.3,32.11 25.24,32.07C25.18,32.03 25.12,31.98 25.06,31.94C25,31.9 24.94,31.85 24.88,31.81C24.82,31.77 24.76,31.72 24.7,31.68C22.07,29.92 20.26,27.08 19.81,23.75L19.81,23.89C19.81,24.69 20.04,26.57 21.64,30.22C22.75,32.76 24.35,35.76 26.39,39.13ZM33.57,33.05L33.6,33.05C36.66,32.91 39.39,31.4 41.2,29.13C42.61,27.37 43.45,25.15 43.45,22.77C43.45,22.43 43.43,22.1 43.4,21.78C43.39,21.67 43.36,21.56 43.35,21.45C43.32,21.24 43.29,21.03 43.25,20.82C43.23,20.7 43.19,20.58 43.16,20.45C43.12,20.26 43.08,20.08 43.02,19.9C42.98,19.77 42.93,19.65 42.88,19.52C42.82,19.35 42.76,19.18 42.69,19.02C42.63,18.9 42.57,18.77 42.51,18.65C42.43,18.5 42.36,18.34 42.28,18.19C42.21,18.06 42.13,17.95 42.06,17.83C41.97,17.68 41.88,17.54 41.79,17.4C41.71,17.28 41.62,17.17 41.54,17.06C41.44,16.93 41.35,16.8 41.24,16.67C41.14,16.57 41.05,16.46 40.95,16.36C40.84,16.24 40.73,16.12 40.61,16.01C40.5,15.91 40.4,15.81 40.29,15.72C40.17,15.61 40.05,15.5 39.92,15.4C39.81,15.31 39.7,15.22 39.58,15.14C39.55,15.13 39.53,15.11 39.5,15.09C39.46,15.06 39.43,15.04 39.39,15.01C39.36,15 39.34,14.98 39.31,14.96C39.29,14.94 39.26,14.93 39.24,14.91C37.74,13.92 35.95,13.35 34,13.35L33.56,13.35C28.12,13.59 23.71,18.19 23.71,23.63C23.71,26.81 25.23,29.56 27.56,31.26C27.69,31.35 27.82,31.45 27.96,31.54C28.08,31.62 28.21,31.69 28.33,31.76C28.47,31.84 28.61,31.93 28.75,32C28.88,32.07 29.01,32.13 29.14,32.19C29.29,32.26 29.44,32.33 29.59,32.39L30.01,32.54C30.17,32.59 30.32,32.64 30.48,32.69C30.63,32.73 30.77,32.77 30.92,32.8C31.08,32.83 31.25,32.87 31.41,32.9C31.56,32.93 31.71,32.95 31.86,32.97C32.03,33 32.2,33.02 32.37,33.03C32.53,33.04 32.68,33.05 32.84,33.05C33.08,33.05 33.32,33.06 33.57,33.05ZM36.94,18.19L36.97,18.22C38.5,19.22 39.51,20.95 39.51,22.96C39.51,25.2 38.26,27.21 36.42,28.29C35.58,28.79 34.62,29.09 33.6,29.13L33.34,29.13C32.08,29.13 30.93,28.73 30,28.05C29.97,28.04 29.95,28.02 29.92,28C29.89,27.97 29.86,27.95 29.82,27.92C29.81,27.91 29.79,27.9 29.79,27.9C29.71,27.84 29.64,27.77 29.57,27.71C29.51,27.65 29.44,27.59 29.38,27.53C29.31,27.46 29.24,27.39 29.18,27.32C29.12,27.26 29.06,27.2 29,27.13C28.93,27.05 28.88,26.98 28.82,26.9C28.76,26.83 28.71,26.76 28.66,26.69C28.6,26.61 28.55,26.52 28.5,26.44C28.46,26.37 28.41,26.3 28.37,26.22C28.33,26.13 28.28,26.04 28.24,25.95C28.2,25.87 28.16,25.8 28.13,25.72C28.09,25.62 28.06,25.52 28.02,25.42C28,25.34 27.96,25.27 27.94,25.19C27.91,25.08 27.89,24.97 27.86,24.86C27.84,24.78 27.82,24.71 27.8,24.63C27.77,24.5 27.76,24.38 27.74,24.25C27.73,24.18 27.71,24.12 27.71,24.05C27.69,23.86 27.68,23.66 27.68,23.46C27.68,20.19 30.33,17.43 33.59,17.29L34.03,17.29C34.12,17.29 34.22,17.3 34.31,17.3C34.41,17.3 34.51,17.32 34.61,17.33C34.7,17.34 34.79,17.35 34.88,17.37C34.98,17.39 35.07,17.41 35.17,17.43C35.26,17.45 35.34,17.48 35.43,17.5C35.53,17.53 35.62,17.56 35.71,17.59C35.79,17.62 35.88,17.65 35.96,17.68C36.05,17.72 36.13,17.76 36.22,17.8C36.3,17.83 36.38,17.87 36.46,17.91C36.55,17.95 36.63,18 36.71,18.05C36.79,18.1 36.87,18.14 36.94,18.19ZM29.66,23.45C29.66,24.21 29.88,24.9 30.26,25.48C30.59,25.57 30.93,25.64 31.29,25.64L31.46,25.64C33.67,25.54 35.46,23.67 35.46,21.47C35.46,20.71 35.24,20.02 34.86,19.44C34.53,19.35 34.19,19.28 33.83,19.28L33.66,19.28C31.45,19.38 29.66,21.25 29.66,23.45ZM45.31,21.04L45.35,21.06C45.35,17.1 43.68,13.62 41,11.24C39.05,10.1 36.77,9.44 34.31,9.44C34.11,9.44 33.91,9.45 33.7,9.45C32.57,9.5 31.49,9.7 30.44,10C30.79,9.95 31.14,9.92 31.5,9.9C31.67,9.89 31.85,9.89 32.02,9.89C34.5,9.89 36.76,10.65 38.61,11.94C38.67,11.98 38.73,12.03 38.79,12.07C38.85,12.11 38.91,12.16 38.97,12.2C39.03,12.24 39.09,12.29 39.15,12.33C39.21,12.37 39.27,12.42 39.33,12.46C39.39,12.5 39.45,12.55 39.51,12.59C39.57,12.63 39.63,12.68 39.69,12.72C39.75,12.76 39.81,12.81 39.87,12.85C39.93,12.89 39.99,12.94 40.05,12.98C40.11,13.02 40.17,13.07 40.23,13.11C40.29,13.15 40.35,13.2 40.41,13.24C43.05,15 44.87,17.84 45.31,21.18L45.31,21.04Z"/>
</svg>
