<?xml version="1.0" encoding="UTF-8" standalone="no"?>
<!DOCTYPE svg PUBLIC "-//W3C//DTD SVG 1.1//EN" "http://www.w3.org/Graphics/SVG/1.1/DTD/svg11.dtd">
<svg width="100%" height="100%" viewBox="0 0 72 54" version="1.1" xmlns="http://www.w3.org/2000/svg" xmlns:xlink="http://www.w3.org/1999/xlink" xml:space="preserve" xmlns:serif="http://www.serif.com/" style="fill-rule:evenodd;clip-rule:evenodd;stroke-linecap:round;stroke-linejoin:round;">
    <path d="M65.72,4.99L65.75,5C66.09,5.25 66.41,5.52 66.72,5.81C68.77,7.76 69.94,10.54 69.94,13.43L69.94,39.4C69.94,42.31 68.8,45.1 66.75,47.24C64.7,49.38 61.96,50.63 59.05,50.76L14.55,52.7L14.08,52.7C11.68,52.7 9.35,51.89 7.51,50.44L5.41,48.94C5.08,48.7 4.77,48.44 4.47,48.16C2.42,46.21 1.25,43.43 1.25,40.54L1.25,14.56C1.25,8.56 6.13,3.46 12.13,3.2L56.64,1.25C59.19,1.14 61.68,1.94 63.64,3.47L63.85,3.62C63.92,3.68 63.99,3.72 64.06,3.78C64.13,3.83 64.19,3.88 64.26,3.93C64.33,3.99 64.4,4.04 64.47,4.09L64.68,4.24C64.75,4.28 64.82,4.33 64.88,4.38C64.95,4.43 65.03,4.48 65.1,4.54C65.16,4.59 65.23,4.64 65.3,4.69L65.72,4.99ZM67.65,39.42C67.65,39.418 67.65,39.412 67.65,39.41L67.65,13.44C67.65,11.13 66.76,9 65.13,7.45C63.6,5.99 61.58,5.19 59.42,5.19L59.03,5.19L14.53,7.13C9.72,7.34 5.81,11.42 5.81,16.23L5.81,42.21C5.81,44.52 6.7,46.65 8.33,48.2C9.96,49.75 12.13,50.55 14.43,50.45L58.93,48.51C61.22,48.41 63.47,47.38 65.09,45.68C66.718,43.992 67.647,41.707 67.65,39.42ZM49.47,25.2C49.8,25.4 50.01,25.75 50.02,26.14C50.04,26.53 49.85,26.89 49.53,27.11L30.24,40.29C30.05,40.42 29.82,40.49 29.6,40.49C29.42,40.49 29.24,40.45 29.07,40.36C28.7,40.17 28.47,39.78 28.47,39.36L28.47,14.69C28.47,14.28 28.69,13.9 29.04,13.7C29.39,13.5 29.83,13.5 30.18,13.71L49.47,25.2Z" style="fill:rgb(69,137,246);stroke:rgb(69,137,246);stroke-width:2.49px;"/>
</svg>
