<?xml version="1.0" encoding="UTF-8" standalone="no"?>
<!DOCTYPE svg PUBLIC "-//W3C//DTD SVG 1.1//EN" "http://www.w3.org/Graphics/SVG/1.1/DTD/svg11.dtd">
<svg width="100%" height="100%" viewBox="0 0 57 57" version="1.1" xmlns="http://www.w3.org/2000/svg" xmlns:xlink="http://www.w3.org/1999/xlink" xml:space="preserve" xmlns:serif="http://www.serif.com/" style="fill-rule:evenodd;clip-rule:evenodd;stroke-linejoin:round;stroke-miterlimit:2;">
    <path d="M14.11,1.62L14.12,1.62C14.42,1.8 14.61,2.12 14.61,2.47L14.61,55.46C14.61,56 14.18,56.44 13.65,56.46L3.07,56.92L3.03,56.92C2.77,56.92 2.53,56.82 2.34,56.64C2.32,56.63 2.32,56.61 2.32,56.61C2.26,56.57 2.2,56.55 2.15,56.5C2.14,56.49 2.13,56.47 2.13,56.47C2.08,56.43 2.02,56.41 1.97,56.36C1.96,56.35 1.95,56.33 1.95,56.33C1.9,56.29 1.84,56.27 1.79,56.22C1.78,56.21 1.77,56.19 1.77,56.19C1.72,56.15 1.66,56.13 1.61,56.08C1.6,56.07 1.59,56.05 1.59,56.05C1.53,56.01 1.47,55.99 1.42,55.94C1.41,55.93 1.4,55.91 1.4,55.91C1.34,55.87 1.28,55.85 1.23,55.8C1.22,55.79 1.21,55.77 1.21,55.77C1.16,55.73 1.1,55.71 1.05,55.66C1.04,55.65 1.03,55.63 1.03,55.63C0.97,55.59 0.91,55.57 0.86,55.52C0.85,55.51 0.84,55.49 0.84,55.49C0.79,55.45 0.73,55.43 0.68,55.38C0.67,55.37 0.66,55.35 0.66,55.35C0.6,55.31 0.54,55.29 0.49,55.24C0.48,55.23 0.47,55.21 0.47,55.21C0.42,55.17 0.36,55.15 0.31,55.1C0.11,54.91 0,54.65 0,54.38L0,8.52C0,8.19 0.16,7.89 0.42,7.7L11,0.18C11.31,-0.03 11.71,-0.06 12.04,0.11C12.12,0.16 12.2,0.21 12.27,0.28C12.33,0.32 12.4,0.36 12.45,0.41C12.52,0.45 12.59,0.5 12.64,0.55C12.7,0.59 12.77,0.63 12.82,0.68C12.89,0.72 12.96,0.77 13.01,0.82C13.07,0.86 13.14,0.9 13.19,0.95C13.26,0.99 13.33,1.04 13.38,1.09C13.44,1.13 13.51,1.17 13.56,1.22C13.62,1.26 13.69,1.3 13.74,1.35C13.81,1.39 13.87,1.44 13.93,1.49C13.99,1.53 14.06,1.57 14.11,1.62ZM12.6,54.43L12.6,4.4L4.02,10.5L4.02,54.8L12.6,54.43ZM51.11,38.22L51.07,38.11C54.72,40.79 56.9,45.05 56.9,49.8L56.9,50.57C56.9,51.52 56.42,52.41 55.62,52.94C55.15,53.25 54.61,53.41 54.07,53.41C53.72,53.41 53.37,53.35 53.04,53.21L45.23,51.36L31.39,51.96L23.57,54.49C23.17,54.69 22.74,54.79 22.32,54.79C21.85,54.79 21.39,54.67 20.97,54.43C20.91,54.4 20.87,54.35 20.81,54.31L20.79,54.31C20.73,54.28 20.69,54.23 20.63,54.19L20.61,54.19C20.55,54.15 20.51,54.1 20.45,54.06L20.43,54.06C20.37,54.03 20.33,53.98 20.27,53.94C20.26,53.93 20.24,53.93 20.24,53.93C20.18,53.9 20.14,53.85 20.08,53.81L20.06,53.81C20,53.78 19.96,53.73 19.9,53.69L19.88,53.69C19.82,53.65 19.78,53.6 19.72,53.56L19.7,53.56C19.64,53.53 19.6,53.48 19.54,53.44L19.52,53.44C19.46,53.41 19.42,53.36 19.36,53.32L19.34,53.32C19.28,53.28 19.24,53.23 19.18,53.19L19.16,53.19C19.1,53.16 19.06,53.11 19,53.07L18.98,53.07C18.15,52.6 17.64,51.7 17.64,50.74L17.64,49.97C17.64,44.22 20.83,38.92 25.96,36.13L28.22,34.9L28.22,16.99C28.22,12.78 29.67,8.6 32.29,5.2L35.48,1.06C35.67,0.82 35.96,0.67 36.26,0.67L36.28,0.67C36.57,0.67 36.85,0.81 37.04,1.03C37.11,1.06 37.17,1.12 37.24,1.17C37.37,1.23 37.49,1.32 37.59,1.43C37.66,1.46 37.72,1.52 37.79,1.57C37.86,1.6 37.9,1.65 37.96,1.69C38.09,1.75 38.2,1.83 38.29,1.93C38.37,1.98 38.44,2.02 38.5,2.09C38.63,2.14 38.75,2.23 38.85,2.33C38.94,2.38 39.02,2.43 39.09,2.51L42.28,6.37C44.91,9.56 46.37,13.63 46.37,17.85L46.37,35.17L46.54,35.25C47.53,35.7 48.44,36.25 49.28,36.88C49.34,36.93 49.41,36.97 49.47,37.02C49.53,37.06 49.59,37.1 49.65,37.15C49.71,37.19 49.77,37.24 49.83,37.28C49.89,37.33 49.96,37.37 50.02,37.42C50.07,37.47 50.13,37.51 50.19,37.55C50.25,37.6 50.32,37.64 50.38,37.69C50.44,37.73 50.5,37.78 50.56,37.82C50.62,37.87 50.69,37.91 50.75,37.96C50.81,38 50.87,38.05 50.93,38.09C50.99,38.13 51.05,38.18 51.11,38.22ZM54.94,50.69L54.95,50.69L54.95,49.92C54.94,44.94 52.18,40.58 47.73,38.55L46.36,37.93L46.36,49.69L53.62,51.41C53.68,51.42 53.74,51.44 53.8,51.47C54.03,51.57 54.32,51.54 54.55,51.39C54.79,51.23 54.94,50.96 54.94,50.69ZM30.25,50.36L30.26,50.35L30.26,38.65L28.95,39.36C24.46,41.8 21.67,46.43 21.67,51.44L21.67,52.21C21.67,52.47 21.79,52.69 22,52.81C22.22,52.94 22.5,52.94 22.74,52.81C22.8,52.78 22.85,52.76 22.91,52.74L30.25,50.36ZM32.25,18.47L32.25,50.04L44.36,49.51L44.36,17.85C44.36,14.1 43.07,10.48 40.73,7.65L38.34,4.75L35.91,7.9C33.55,10.95 32.25,14.71 32.25,18.47Z"/>
</svg>
