<?xml version="1.0" encoding="UTF-8" standalone="no"?>
<!DOCTYPE svg PUBLIC "-//W3C//DTD SVG 1.1//EN" "http://www.w3.org/Graphics/SVG/1.1/DTD/svg11.dtd">
<svg width="100%" height="100%" viewBox="0 0 55 54" version="1.1" xmlns="http://www.w3.org/2000/svg" xmlns:xlink="http://www.w3.org/1999/xlink" xml:space="preserve" xmlns:serif="http://www.serif.com/" style="fill-rule:evenodd;clip-rule:evenodd;stroke-linecap:round;stroke-linejoin:round;">
    <path d="M53.27,23.04C52.32,16.33 48.71,10.64 43.6,6.91C43.54,6.87 43.48,6.82 43.42,6.78C43.37,6.74 43.31,6.7 43.26,6.66C43.17,6.59 43.07,6.52 42.97,6.45C42.91,6.4 42.84,6.35 42.77,6.31C42.72,6.27 42.67,6.24 42.62,6.2C42.31,5.97 42,5.74 41.68,5.53C41.66,5.52 41.64,5.51 41.63,5.5C41.59,5.47 41.55,5.44 41.51,5.42C41.44,5.37 41.36,5.33 41.29,5.28C37.07,2.35 31.87,0.74 26.32,0.98C13.76,1.53 2.96,11.38 1.2,23.89C-0.13,33.32 3.95,42.27 11.19,47.39C11.25,47.43 11.3,47.47 11.36,47.51C11.41,47.55 11.46,47.59 11.52,47.62C11.57,47.66 11.62,47.7 11.68,47.73C11.74,47.77 11.79,47.81 11.85,47.85C11.9,47.89 11.95,47.92 12,47.96C12.06,48 12.11,48.04 12.17,48.08C12.22,48.12 12.27,48.15 12.32,48.19C12.37,48.23 12.43,48.27 12.48,48.31C12.53,48.35 12.59,48.39 12.64,48.43C12.69,48.47 12.74,48.51 12.79,48.54C15.22,50.29 18.02,51.61 21.1,52.36C21.25,52.4 21.41,52.42 21.56,52.42C22.43,52.42 23.24,51.83 23.49,50.96C23.54,50.78 23.57,50.6 23.57,50.41L23.57,45.28C23.57,45 23.43,44.74 23.21,44.57C23.19,44.56 23.17,44.56 23.15,44.55C23.12,44.52 23.09,44.48 23.05,44.46C23.03,44.45 23.01,44.45 22.99,44.44C22.96,44.41 22.93,44.37 22.89,44.35C22.87,44.34 22.85,44.34 22.83,44.33C22.8,44.3 22.77,44.26 22.73,44.24C22.71,44.23 22.69,44.23 22.67,44.22C22.64,44.19 22.61,44.15 22.57,44.13C22.55,44.12 22.53,44.12 22.51,44.11C22.48,44.08 22.45,44.04 22.41,44.02C22.39,44.01 22.37,44.01 22.35,44C22.32,43.97 22.29,43.93 22.25,43.91C22.23,43.9 22.21,43.9 22.19,43.89C22.16,43.86 22.13,43.83 22.09,43.8C22.07,43.79 22.05,43.79 22.03,43.78C22,43.75 21.97,43.71 21.93,43.69C21.91,43.68 21.89,43.68 21.87,43.67C21.84,43.64 21.81,43.6 21.77,43.58C21.75,43.57 21.73,43.57 21.71,43.56C21.68,43.53 21.65,43.49 21.61,43.47C21.58,43.45 21.56,43.44 21.53,43.43C21.5,43.41 21.48,43.38 21.45,43.36C21.22,43.2 20.93,43.16 20.66,43.25C19.36,43.7 18.03,43.62 16.89,43.13C16.52,42.7 16.21,42.21 16,41.65C15.66,40.62 15.19,39.64 14.62,38.73C15.7,39.21 16.5,39.77 17.25,40.29C18.9,41.44 20.33,42.44 23.16,41.05C23.43,40.92 23.61,40.65 23.64,40.35C23.76,39.07 24.19,37.81 24.88,36.71C25.04,36.45 25.06,36.13 24.92,35.85C24.84,35.69 24.71,35.57 24.56,35.49C24.51,35.45 24.46,35.41 24.4,35.38C24.35,35.34 24.3,35.3 24.24,35.26C24.19,35.22 24.14,35.18 24.08,35.14C24.03,35.1 23.98,35.06 23.92,35.02C23.87,34.97 23.82,34.94 23.76,34.9C23.71,34.86 23.66,34.82 23.6,34.79C23.55,34.75 23.5,34.71 23.44,34.67C23.39,34.63 23.34,34.59 23.28,34.55C23.23,34.51 23.18,34.47 23.12,34.43C23.07,34.38 23.02,34.35 22.96,34.31C22.82,34.18 22.64,34.1 22.44,34.08C20.5,33.94 18.53,33.8 16.93,33.06C15.83,31.86 15.15,30 15.15,27.04C15.11,25.11 15.81,23.22 17.12,21.73C17.33,21.49 17.39,21.16 17.28,20.87C16.7,19.24 16.77,17.43 17.48,15.78C17.6,15.51 17.68,15.42 17.67,15.41C18.01,15.41 19.13,16.14 20.21,16.84C20.77,17.21 21.42,17.63 22.16,18.09C22.38,18.23 22.64,18.26 22.88,18.18C26.3,17.09 29.91,16.93 33.33,17.72C33.57,17.78 33.83,17.72 34.03,17.58C35.5,16.52 36.63,15.95 37.46,15.64C37.55,16.62 37.43,17.62 37.09,18.58C36.98,18.89 37.06,19.23 37.28,19.46C38.57,20.82 39.26,22.63 39.22,24.57C39.22,32.33 34.57,33.03 30.08,33.72C29.78,33.77 29.53,33.96 29.41,34.24C29.29,34.52 29.33,34.84 29.5,35.08C30.41,36.36 30.88,37.95 30.82,39.6L30.86,48.71C30.86,49.24 31.07,49.73 31.45,50.09C31.55,50.19 31.66,50.27 31.78,50.34C31.83,50.38 31.88,50.42 31.94,50.46C31.99,50.5 32.05,50.54 32.1,50.58C32.15,50.62 32.21,50.66 32.26,50.7C32.31,50.74 32.37,50.78 32.43,50.82C32.48,50.86 32.52,50.9 32.58,50.93C32.63,50.97 32.69,51.02 32.74,51.05C32.79,51.09 32.84,51.13 32.9,51.17C32.95,51.21 33.01,51.25 33.06,51.29C33.11,51.33 33.16,51.37 33.22,51.41C33.27,51.45 33.32,51.49 33.38,51.52C33.73,51.79 34.16,51.92 34.62,51.91C34.81,51.91 34.99,51.87 35.16,51.81C47.23,47.8 55,35.45 53.24,23.09L53.27,23.04ZM34.57,50.13C34.5,50.13 34.46,50.11 34.44,50.08C34.42,50.06 34.39,50.02 34.39,49.95C34.39,49.88 34.35,40.87 34.35,40.87C34.41,39.34 34.08,37.82 33.4,36.48C37.69,35.76 42.74,34.21 42.74,25.83C42.79,23.62 42.05,21.54 40.67,19.89C41.23,17.93 41.09,15.87 40.27,14.04C40.17,13.81 39.97,13.63 39.72,13.56C39.36,13.45 37.39,13.08 33.35,15.9C29.87,15.16 26.23,15.32 22.76,16.36C22.16,15.98 21.64,15.64 21.17,15.34C19.18,14.04 18.18,13.39 17.18,13.7C16.45,13.92 16.09,14.57 15.89,15.05C15.07,16.94 14.94,19.01 15.5,20.93C14.12,22.68 13.38,24.83 13.42,27.01C13.42,35.41 18.46,36.56 22.75,36.94C22.36,37.79 22.1,38.7 21.97,39.62C20.37,40.29 19.66,39.8 18.24,38.81C17,37.94 15.3,36.75 12.38,36.18C12.01,36.1 11.63,36.28 11.45,36.62C11.27,36.96 11.33,37.37 11.6,37.64C12.84,38.9 13.8,40.46 14.37,42.18C15.52,45.25 18.65,46.96 21.84,46.41L21.84,50.49C21.79,50.63 21.65,50.72 21.52,50.69C10.28,47.94 3.04,37.07 4.68,25.4C6.32,13.71 16.41,4.5 28.15,3.99C28.49,3.98 28.83,3.97 29.17,3.97C40.43,3.97 49.96,12.11 51.55,23.29C53.19,34.84 45.93,46.37 34.57,50.14L34.57,50.13Z" style="fill:rgb(69,137,246);fill-rule:nonzero;stroke:rgb(69,137,246);stroke-width:1.91px;"/>
</svg>
