<?xml version="1.0" encoding="UTF-8" standalone="no"?>
<!DOCTYPE svg PUBLIC "-//W3C//DTD SVG 1.1//EN" "http://www.w3.org/Graphics/SVG/1.1/DTD/svg11.dtd">
<svg width="100%" height="100%" viewBox="0 0 57 56" version="1.1" xmlns="http://www.w3.org/2000/svg" xmlns:xlink="http://www.w3.org/1999/xlink" xml:space="preserve" xmlns:serif="http://www.serif.com/" style="fill-rule:evenodd;clip-rule:evenodd;stroke-linejoin:round;stroke-miterlimit:2;">
    <path d="M55.16,25.8C54.82,25.48 54.45,25.18 54.03,24.89C53.97,24.85 53.91,24.8 53.85,24.76C53.79,24.72 53.73,24.67 53.67,24.63C53.61,24.58 53.55,24.54 53.48,24.49C53.42,24.45 53.36,24.4 53.29,24.36C53.23,24.31 53.17,24.27 53.1,24.22C53.04,24.18 52.99,24.14 52.93,24.09C52.87,24.04 52.8,24 52.74,23.95C52.68,23.91 52.62,23.86 52.56,23.82C52.5,23.78 52.44,23.73 52.38,23.69C52.31,23.64 52.25,23.59 52.18,23.55C49.4,21.56 44.79,20.48 39.76,20.69C37,20.81 34.44,21.3 32.23,22.06L32.23,8.92C32.23,7.54 31.61,6.23 30.44,5.11C30.11,4.79 29.73,4.49 29.32,4.21C29.26,4.17 29.21,4.12 29.14,4.08C29.08,4.04 29.02,3.99 28.96,3.95C28.9,3.9 28.84,3.86 28.77,3.81C28.71,3.77 28.65,3.72 28.58,3.67C28.52,3.63 28.46,3.58 28.4,3.54C28.34,3.5 28.28,3.45 28.22,3.41C28.16,3.36 28.09,3.32 28.03,3.27C27.97,3.23 27.91,3.18 27.85,3.14C27.79,3.09 27.73,3.05 27.66,3C27.6,2.96 27.54,2.91 27.48,2.87C24.72,0.89 20.11,-0.19 15.07,0.03C6.62,0.4 0,4.2 0,8.7L0,43.98C0,45.35 0.62,46.67 1.79,47.79C2.11,48.1 2.48,48.39 2.87,48.66C2.93,48.7 2.99,48.75 3.05,48.79C3.11,48.83 3.17,48.88 3.23,48.92C3.29,48.96 3.35,49.01 3.41,49.05C3.47,49.1 3.53,49.14 3.6,49.19C3.66,49.23 3.72,49.28 3.78,49.32C3.84,49.36 3.9,49.41 3.96,49.45C4.02,49.5 4.08,49.54 4.15,49.59C4.21,49.63 4.27,49.68 4.33,49.72C4.39,49.77 4.45,49.81 4.52,49.86C4.58,49.9 4.64,49.95 4.7,49.99C7.24,51.84 11.33,52.91 15.89,52.91C16.31,52.91 16.74,52.91 17.17,52.88C17.7,52.86 18.24,52.81 18.72,52.77C19.05,52.76 19.38,52.71 19.61,52.66C19.96,52.62 20.36,52.58 20.75,52.5L20.76,52.5C20.91,52.5 21.06,52.47 21.27,52.42C23.4,52.01 25.3,51.38 26.9,50.6C27.11,50.77 27.31,50.95 27.54,51.11C27.6,51.15 27.66,51.2 27.72,51.24C27.78,51.29 27.84,51.33 27.91,51.38C27.97,51.42 28.03,51.47 28.09,51.51C28.15,51.56 28.21,51.6 28.28,51.65C28.34,51.69 28.4,51.74 28.46,51.78C28.52,51.83 28.58,51.87 28.65,51.92C28.71,51.96 28.77,52.01 28.83,52.05C28.89,52.1 28.95,52.14 29.02,52.19C29.08,52.23 29.14,52.28 29.21,52.32C29.27,52.36 29.33,52.41 29.39,52.45C31.93,54.3 36.02,55.38 40.58,55.38C41,55.38 41.43,55.38 41.86,55.35C50.31,54.98 56.93,51.17 56.93,46.68L56.93,29.63C56.93,28.26 56.31,26.94 55.14,25.82L55.16,25.8ZM54.95,29.61C54.95,32.55 49.66,35.94 41.79,36.28C36.76,36.51 32.08,35.29 29.89,33.2C29.11,32.46 28.72,31.66 28.72,30.84C28.72,27.89 34.01,24.51 41.88,24.17C42.27,24.15 42.67,24.14 43.06,24.14C47.64,24.14 51.77,25.32 53.78,27.24C54.56,27.99 54.95,28.78 54.95,29.6L54.95,29.61ZM9.85,41.32C9.43,41.21 9.04,41.09 8.66,40.95C8.28,40.81 7.93,40.67 7.58,40.51C7.22,40.35 6.91,40.18 6.65,40.04C5.93,39.61 5.4,39.2 4.99,38.75C4.9,38.66 4.83,38.58 4.71,38.42C4.57,38.26 4.45,38.06 4.32,37.81C4.29,37.74 4.26,37.68 4.24,37.62L4.2,37.51C4.09,37.23 4.03,36.94 4.03,36.62L4.03,31.8C4.46,32.18 4.99,32.56 5.63,32.95C6.44,33.42 7.3,33.79 8.09,34.03C8.51,34.21 8.94,34.32 9.28,34.41C9.64,34.52 9.99,34.61 10.41,34.7L11.32,34.87C12.05,35.01 12.86,35.1 13.88,35.17C14.19,35.21 14.5,35.22 14.83,35.23C15.12,35.24 15.43,35.26 15.7,35.24C16.19,35.24 16.67,35.24 17.18,35.22C17.76,35.19 18.36,35.14 18.87,35.08C18.99,35.08 19.13,35.07 19.28,35.04C19.39,35.04 19.52,35.02 19.66,34.99C20.03,34.95 20.45,34.91 20.8,34.82C23.03,34.44 25.03,33.84 26.72,33.04L26.72,39.62C25.17,40.48 23.19,41.17 21.03,41.57L20.91,41.59C20.4,41.68 19.91,41.76 19.4,41.83L18.67,41.93C18.14,41.98 17.62,42.02 17.09,42.05C16.61,42.07 16.16,42.07 15.65,42.07C15.4,42.07 15.15,42.07 14.86,42.06C14.57,42.06 14.28,42.04 13.97,42.01C13.01,41.94 12.08,41.82 11.07,41.61C10.62,41.54 10.23,41.45 9.84,41.32L9.85,41.32ZM30.25,17.75C30.25,19 29.3,20.33 27.58,21.48C25.95,22.59 23.62,23.47 21.04,23.95L20.83,23.99C20.36,24.07 19.89,24.15 19.4,24.21L18.61,24.31C18.1,24.35 17.6,24.4 17.09,24.42C16.61,24.44 16.16,24.44 15.66,24.44C15.41,24.44 15.16,24.44 14.9,24.43C14.6,24.43 14.3,24.42 13.98,24.38C13.03,24.32 12.1,24.19 11.08,23.98C10.61,23.91 10.24,23.82 9.85,23.69C9.43,23.58 9.04,23.46 8.66,23.32C8.28,23.18 7.93,23.04 7.58,22.88C7.23,22.72 6.93,22.56 6.65,22.42C5.93,21.99 5.4,21.58 4.99,21.13C4.9,21.05 4.83,20.96 4.77,20.88L4.71,20.8C4.58,20.64 4.45,20.45 4.32,20.19C4.29,20.12 4.26,20.05 4.24,19.99L4.2,19.88C4.09,19.6 4.03,19.31 4.03,18.99L4.03,14.18C4.49,14.59 5.03,14.97 5.64,15.33C8.51,16.98 12.72,17.81 17.19,17.62C21.68,17.42 25.88,16.23 28.71,14.34C29.3,13.95 29.81,13.53 30.26,13.1L30.26,17.77L30.25,17.75ZM3.02,27.81L3.02,27.81ZM3.02,18.99L3.02,18.99ZM26.73,30.82C25.06,31.75 22.88,32.47 20.41,32.89C20.11,32.96 19.77,33 19.38,33.04L19.33,33.04L19.24,33.07L19.03,33.07L18.93,33.1L18.72,33.1C18.18,33.17 17.64,33.22 17.11,33.24C16.87,33.25 16.64,33.25 16.4,33.26L15.67,33.26C15.42,33.27 15.17,33.26 14.92,33.25C14.65,33.25 14.39,33.23 14.08,33.2C13.09,33.13 12.36,33.05 11.7,32.92L10.82,32.75C10.5,32.68 10.19,32.61 9.85,32.5C9.52,32.41 9.17,32.32 8.78,32.16C8.04,31.93 7.3,31.61 6.65,31.23C5.93,30.8 5.4,30.39 4.99,29.94C4.9,29.86 4.83,29.77 4.71,29.61C4.57,29.45 4.45,29.25 4.32,29C4.29,28.93 4.26,28.86 4.24,28.8L4.2,28.69C4.09,28.41 4.03,28.12 4.03,27.8L4.03,22.98C4.46,23.37 5.01,23.75 5.7,24.17C6.03,24.34 6.37,24.52 6.75,24.69C7.15,24.87 7.55,25.03 7.97,25.19C8.38,25.34 8.83,25.5 9.32,25.61C9.75,25.75 10.21,25.86 10.73,25.94C11.79,26.16 12.81,26.3 13.81,26.36C14.14,26.4 14.5,26.41 14.84,26.42C15.13,26.43 15.44,26.45 15.71,26.43C16.2,26.43 16.68,26.43 17.19,26.41C17.73,26.39 18.26,26.34 18.79,26.29L19.67,26.18C20.18,26.12 20.67,26.03 21.17,25.95L21.4,25.91C24.3,25.37 26.83,24.4 28.71,23.13C29.3,22.74 29.81,22.32 30.26,21.9L30.26,25.49C28.07,26.97 26.75,28.82 26.74,30.82L26.73,30.82ZM31.25,17.76L31.25,17.76ZM31.25,8.94L31.25,8.94ZM30.25,8.94C30.25,10.19 29.3,11.52 27.59,12.66C25.05,14.35 21.23,15.43 17.09,15.61C12.99,15.78 9.17,15.05 6.63,13.59C5.44,12.9 4.02,11.74 4.02,10.17C4.02,7.23 9.31,3.84 17.18,3.5C17.58,3.48 17.97,3.47 18.36,3.47C22.94,3.47 27.06,4.64 29.07,6.57C29.85,7.32 30.24,8.11 30.24,8.94L30.25,8.94ZM20.84,50.47C20.78,50.48 20.73,50.5 20.6,50.5L20.42,50.52C20.11,50.59 19.76,50.63 19.39,50.67L19.28,50.69C19.08,50.73 18.86,50.76 18.61,50.78C18.11,50.82 17.61,50.87 17.1,50.89C12.07,51.12 7.39,49.9 5.2,47.81C4.42,47.07 4.03,46.27 4.03,45.45L4.03,40.63C4.46,41.02 5,41.4 5.67,41.8C6.02,41.98 6.36,42.17 6.76,42.34C7.16,42.52 7.56,42.68 7.98,42.84C8.37,42.98 8.83,43.14 9.32,43.26C9.75,43.4 10.23,43.52 10.73,43.59C11.78,43.81 12.8,43.95 13.81,44.02C14.13,44.06 14.47,44.07 14.84,44.08C15.13,44.09 15.44,44.1 15.7,44.09C16.19,44.09 16.67,44.09 17.18,44.07C17.74,44.05 18.29,44 18.89,43.94L19.66,43.84C20.2,43.77 20.71,43.68 21.25,43.59L21.39,43.57C23.38,43.2 25.18,42.62 26.73,41.89L26.73,47.9C26.73,48.08 26.74,48.27 26.76,48.45C25.19,49.32 23.17,50.03 20.83,50.47L20.84,50.47ZM54.95,46.67C54.95,49.62 49.66,53 41.79,53.34C36.75,53.56 32.08,52.35 29.89,50.26C29.11,49.52 28.72,48.72 28.72,47.9L28.72,43.06C31.17,45.25 35.6,46.55 40.59,46.55C41.01,46.55 41.44,46.55 41.87,46.52C47.53,46.27 52.36,44.48 54.94,41.97L54.94,46.67L54.95,46.67ZM54.95,37.89C54.9,40.82 49.63,44.18 41.8,44.52C36.76,44.74 32.09,43.53 29.9,41.44C29.12,40.7 28.73,39.9 28.73,39.08L27.73,39.08L28.73,39.04L28.73,34.83C31.18,37.02 35.61,38.32 40.61,38.32C41.03,38.32 41.46,38.32 41.89,38.29C47.55,38.04 52.38,36.25 54.96,33.74L54.96,37.89L54.95,37.89Z" style="fill-rule:nonzero;"/>
</svg>
