<?xml version="1.0" encoding="UTF-8" standalone="no"?>
<!DOCTYPE svg PUBLIC "-//W3C//DTD SVG 1.1//EN" "http://www.w3.org/Graphics/SVG/1.1/DTD/svg11.dtd">
<svg width="100%" height="100%" viewBox="0 0 57 57" version="1.1" xmlns="http://www.w3.org/2000/svg" xmlns:xlink="http://www.w3.org/1999/xlink" xml:space="preserve" xmlns:serif="http://www.serif.com/" style="fill-rule:evenodd;clip-rule:evenodd;stroke-linejoin:round;stroke-miterlimit:2;">
    <path d="M52.59,30.37L52.57,30.37C55.13,33.06 56.55,36.58 56.55,40.4C56.55,48.71 49.79,55.77 41.48,56.13C41.26,56.14 41.03,56.14 40.81,56.14C37.47,56.14 34.37,55.04 31.9,53.14C31.84,53.1 31.78,53.06 31.72,53.01C31.65,52.96 31.59,52.92 31.53,52.87C31.48,52.82 31.42,52.78 31.36,52.74C31.3,52.69 31.23,52.65 31.17,52.6C31.11,52.56 31.05,52.52 30.99,52.47C30.92,52.42 30.86,52.38 30.8,52.33C30.74,52.28 30.68,52.24 30.62,52.2C30.56,52.15 30.49,52.11 30.43,52.06C28.44,50.57 26.85,48.57 25.85,46.2L13.27,46.75C13.09,46.76 12.92,46.76 12.75,46.76C10.2,46.76 7.79,45.93 5.84,44.39C5.78,44.34 5.71,44.3 5.65,44.25C5.59,44.21 5.53,44.17 5.47,44.12C5.41,44.08 5.35,44.04 5.29,43.99C5.23,43.94 5.16,43.9 5.1,43.85C5.05,43.81 4.99,43.77 4.93,43.73C4.87,43.68 4.8,43.64 4.74,43.59C4.68,43.55 4.62,43.51 4.56,43.46C4.5,43.41 4.43,43.37 4.37,43.32C4.04,43.06 3.71,42.8 3.4,42.5C1.2,40.4 -0.01,37.53 -0.01,34.43C-0.01,29.85 2.68,25.78 6.56,23.75C6.32,23.59 6.08,23.42 5.85,23.24C5.79,23.19 5.72,23.15 5.66,23.1C5.6,23.06 5.54,23.02 5.48,22.97C5.42,22.93 5.36,22.89 5.3,22.84C5.24,22.79 5.17,22.75 5.11,22.7C5.05,22.66 4.99,22.62 4.94,22.58C4.88,22.53 4.81,22.49 4.75,22.44C4.69,22.4 4.63,22.36 4.57,22.31C4.51,22.26 4.44,22.22 4.38,22.17C4.05,21.91 3.72,21.65 3.41,21.35C1.21,19.25 0,16.38 0,13.28C0,6.92 5.18,1.52 11.54,1.24L39.86,0.1C40.16,0.08 40.5,0.09 40.81,0.1C41.05,0.08 41.34,0.12 41.6,0.16C43.36,0.34 45.03,0.93 46.47,1.87C46.73,2.03 46.99,2.23 47.24,2.42C47.3,2.46 47.36,2.5 47.42,2.55L47.43,2.55C47.48,2.6 47.54,2.64 47.6,2.68C47.66,2.73 47.72,2.76 47.78,2.81L47.79,2.81C47.84,2.86 47.9,2.9 47.96,2.94C48.02,2.98 48.08,3.02 48.14,3.07C48.2,3.12 48.26,3.16 48.32,3.2C48.37,3.25 48.43,3.29 48.49,3.33C48.55,3.37 48.61,3.41 48.67,3.46C48.72,3.51 48.78,3.55 48.84,3.59C49.13,3.81 49.41,4.06 49.67,4.31C50.51,5.1 51.21,6.04 51.77,7.1C51.9,7.32 52.01,7.58 52.11,7.82C52.23,8.04 52.31,8.24 52.36,8.45C52.43,8.62 52.48,8.79 52.54,8.96L52.58,9.07C52.76,9.69 52.88,10.23 52.95,10.74C53,10.96 53.03,11.21 53.03,11.47C53.08,11.79 53.08,12.1 53.08,12.38C53.08,12.93 53.03,13.51 52.95,14.12C52.9,14.49 52.82,14.87 52.71,15.25C52.65,15.54 52.54,15.88 52.44,16.2C52.37,16.41 52.28,16.62 52.19,16.84C51.88,17.56 51.59,18.14 51.27,18.66L51.27,18.72L51.06,18.99C50.98,19.09 50.9,19.21 50.82,19.32C50.72,19.46 50.63,19.6 50.52,19.74L50.37,19.9C50.17,20.16 49.97,20.39 49.77,20.6L49.65,20.73C49.37,21.02 49.14,21.24 48.88,21.46C48.52,21.78 48.2,22.04 47.85,22.28C47.43,22.57 46.98,22.83 46.53,23.07C46.74,23.22 46.96,23.37 47.18,23.54C47.24,23.58 47.3,23.62 47.36,23.67L47.37,23.67C47.42,23.72 47.48,23.76 47.54,23.8C47.6,23.84 47.66,23.88 47.72,23.93L47.73,23.93C47.78,23.98 47.84,24.02 47.9,24.06C47.96,24.1 48.02,24.14 48.08,24.19C48.14,24.24 48.2,24.28 48.26,24.32C48.31,24.37 48.37,24.41 48.43,24.45C48.5,24.49 48.56,24.53 48.62,24.58C48.67,24.63 48.73,24.67 48.79,24.71C49.08,24.92 49.36,25.17 49.62,25.42C50.47,26.21 51.17,27.15 51.73,28.21C51.86,28.43 51.97,28.69 52.07,28.93C52.19,29.15 52.27,29.35 52.32,29.56C52.39,29.73 52.44,29.9 52.5,30.07L52.54,30.18C52.56,30.24 52.57,30.3 52.59,30.37ZM41.41,54.12C48.67,53.8 54.57,47.64 54.57,40.39C54.57,36.9 53.21,33.68 50.75,31.32C48.42,29.09 45.37,27.88 42.09,27.88C41.89,27.88 41.7,27.89 41.5,27.89C34.24,28.21 28.34,34.37 28.34,41.62C28.34,42.71 28.48,43.81 28.76,44.88C30.22,50.58 35.44,54.38 41.41,54.12ZM41.42,47.07C41.91,47.05 42.41,47.22 42.77,47.57C43.12,47.92 43.33,48.4 43.33,48.9C43.33,49.94 42.53,50.78 41.51,50.83L41.42,50.83C41.06,50.83 40.72,50.73 40.42,50.54C40.32,50.48 40.23,50.4 40.14,50.32C39.77,49.97 39.57,49.49 39.57,48.98C39.57,47.97 40.4,47.11 41.42,47.07ZM41.41,32.96L41.39,32.97C42.83,32.89 44.21,33.41 45.24,34.4C46.27,35.39 46.84,36.73 46.84,38.18C46.84,41.14 44.44,43.65 41.48,43.78L41.4,41.78C43.3,41.7 44.85,40.08 44.85,38.18C44.85,37.28 44.5,36.45 43.87,35.84C43.24,35.23 42.41,34.93 41.49,34.96C39.59,35.04 38.04,36.66 38.04,38.56L36.04,38.56C36.05,35.6 38.45,33.09 41.41,32.96ZM6.43,21.1L6.44,21.11C8.239,22.823 10.625,23.7 13.18,23.6L41.4,22.37C43.26,22.29 45.08,21.67 46.66,20.58C46.94,20.39 47.21,20.17 47.52,19.9C47.73,19.72 47.92,19.54 48.09,19.37L48.28,19.17C48.44,19.01 48.6,18.81 48.77,18.6L48.92,18.44C48.99,18.35 49.06,18.25 49.13,18.15C49.16,18.11 49.22,18.02 49.22,18.02L49.22,17.94L49.44,17.69C49.73,17.23 50,16.71 50.26,16.1C50.37,15.85 50.44,15.69 50.49,15.53C50.57,15.27 50.66,14.99 50.72,14.71C50.82,14.37 50.88,14.08 50.92,13.8C50.99,13.28 51.03,12.79 51.03,12.33C51.03,12.09 51.03,11.86 51,11.69L50.98,11.51C50.98,11.35 50.97,11.21 50.93,11.03C50.86,10.56 50.76,10.11 50.62,9.62L50.59,9.54C50.54,9.4 50.49,9.25 50.43,9.11L50.35,8.84C50.35,8.84 50.34,8.8 50.29,8.72L50.23,8.59C50.16,8.41 50.09,8.23 49.98,8.05C49.49,7.12 48.92,6.36 48.24,5.72C48.03,5.52 47.8,5.32 47.57,5.14C47.35,4.97 47.14,4.81 46.92,4.67C45.75,3.91 44.38,3.43 42.97,3.28C42.71,3.24 42.54,3.21 42.36,3.22C42.13,3.21 41.93,3.21 41.74,3.21L41.5,3.21L13.28,4.44C7.97,4.68 3.65,9.18 3.65,14.49C3.65,17.035 4.636,19.381 6.43,21.1ZM13.28,15.89L13.28,15.9L13.2,15.9C12.72,15.9 12.25,15.71 11.91,15.38C11.56,15.03 11.35,14.55 11.35,14.06C11.35,13.02 12.16,12.17 13.2,12.13C13.7,12.11 14.18,12.28 14.54,12.63C14.91,12.98 15.11,13.46 15.11,13.98C15.11,15.01 14.3,15.85 13.28,15.89ZM13.18,44.76C13.182,44.76 13.188,44.76 13.19,44.76L26.56,44.18C26.41,43.33 26.33,42.48 26.33,41.63C26.33,33.32 33.09,26.26 41.4,25.9C44.08,25.79 46.63,26.37 48.88,27.56C48.68,27.32 48.47,27.08 48.24,26.87C48.03,26.67 47.8,26.47 47.57,26.29C47.35,26.12 47.14,25.96 46.92,25.82C45.75,25.06 44.38,24.58 42.97,24.43C42.71,24.39 42.54,24.36 42.36,24.37C42.13,24.36 41.93,24.36 41.74,24.36L41.69,24.36C41.62,24.37 41.56,24.38 41.49,24.38L13.27,25.61L13.11,25.61C7.88,25.93 3.65,30.39 3.65,35.64C3.65,38.19 4.64,40.54 6.44,42.26C8.238,43.978 10.624,44.858 13.18,44.76ZM13.2,33.29L13.2,33.3C13.7,33.28 14.18,33.46 14.54,33.8C14.91,34.15 15.11,34.63 15.11,35.15C15.11,36.18 14.3,37.02 13.28,37.06L13.2,37.06C12.72,37.06 12.25,36.87 11.91,36.54C11.56,36.19 11.35,35.71 11.35,35.22C11.35,34.18 12.16,33.33 13.2,33.29Z"/>
</svg>
