<?xml version="1.0" encoding="UTF-8" standalone="no"?>
<!DOCTYPE svg PUBLIC "-//W3C//DTD SVG 1.1//EN" "http://www.w3.org/Graphics/SVG/1.1/DTD/svg11.dtd">
<svg width="100%" height="100%" viewBox="0 0 61 54" version="1.1" xmlns="http://www.w3.org/2000/svg" xmlns:xlink="http://www.w3.org/1999/xlink" xml:space="preserve" xmlns:serif="http://www.serif.com/" style="fill-rule:evenodd;clip-rule:evenodd;stroke-linejoin:round;stroke-miterlimit:2;">
    <path d="M7.94,53.59C6.71,53.59 5.53,53.22 4.52,52.52C4.49,52.5 4.44,52.46 4.38,52.42C4.32,52.38 4.26,52.34 4.2,52.29C4.14,52.25 4.08,52.21 4.02,52.16C3.96,52.12 3.9,52.08 3.85,52.03C3.79,51.99 3.73,51.95 3.67,51.9C3.61,51.86 3.55,51.82 3.49,51.77C3.43,51.73 3.37,51.69 3.32,51.64C3.26,51.6 3.2,51.56 3.14,51.51C3.09,51.48 3.03,51.43 2.97,51.38C2.92,51.35 2.86,51.3 2.8,51.26C2.45,51.04 2.13,50.79 1.85,50.52C0.66,49.38 0.01,47.84 0.01,46.17L0.01,8.37C0,5.01 2.74,2.15 6.1,2.01L51.89,0C53.19,-0.07 54.45,0.3 55.54,1.04C55.56,1.05 55.63,1.1 55.69,1.15C55.74,1.18 55.8,1.23 55.86,1.28C55.91,1.31 55.97,1.36 56.03,1.4C56.09,1.44 56.15,1.48 56.21,1.53C56.27,1.57 56.33,1.61 56.39,1.66C56.44,1.7 56.51,1.74 56.57,1.79C56.62,1.83 56.68,1.87 56.75,1.92C56.8,1.95 56.86,2 56.93,2.05C56.98,2.09 57.05,2.13 57.11,2.18C57.16,2.21 57.22,2.26 57.28,2.31C57.64,2.54 57.98,2.79 58.27,3.08C59.46,4.22 60.11,5.76 60.11,7.43L60.11,45.23C60.11,48.59 57.37,51.45 54.01,51.6L8.22,53.6L7.94,53.6L7.94,53.59ZM5.97,17.62L5.97,47.58C5.97,48.14 6.18,48.65 6.57,49.02C6.96,49.39 7.48,49.58 8.04,49.56L53.83,47.56C55.07,47.51 56.07,46.46 56.07,45.22L56.07,15.43L5.97,17.62ZM42.09,41.89C41.57,41.89 41.07,41.69 40.69,41.33C40.3,40.96 40.08,40.46 40.07,39.92C40.06,39.38 40.26,38.87 40.63,38.48L46.56,32.29L40.69,26.68C40.3,26.31 40.08,25.81 40.07,25.27C40.06,24.73 40.26,24.22 40.63,23.83C41,23.44 41.5,23.22 42.04,23.21C42.58,23.19 43.09,23.4 43.48,23.77L50.81,30.78C51.2,31.15 51.42,31.65 51.43,32.19C51.44,32.72 51.24,33.25 50.87,33.63L43.54,41.28C43.16,41.67 42.63,41.9 42.08,41.9L42.09,41.89ZM20.02,42.85C19.5,42.85 19,42.65 18.63,42.29L11.3,35.28C10.91,34.91 10.69,34.4 10.68,33.87C10.67,33.33 10.87,32.82 11.24,32.43L18.57,24.78C18.94,24.39 19.44,24.17 19.98,24.16C20.52,24.16 21.03,24.35 21.42,24.72C22.22,25.49 22.25,26.76 21.48,27.57L15.55,33.76L21.42,39.37C22.22,40.14 22.25,41.42 21.48,42.22C21.1,42.62 20.57,42.84 20.02,42.84L20.02,42.85ZM27.42,42.53C27.12,42.53 26.81,42.46 26.54,42.32C25.54,41.83 25.13,40.62 25.61,39.63L32.91,24.66C33.15,24.18 33.56,23.81 34.07,23.64C34.58,23.47 35.13,23.5 35.61,23.74C36.61,24.23 37.02,25.44 36.53,26.43L29.23,41.4C28.89,42.1 28.2,42.53 27.42,42.53ZM54.11,5.44L54,5.44L8.22,7.44C6.98,7.49 5.98,8.54 5.98,9.78L5.98,13.58L56.08,11.39L56.08,7.42C56.08,6.86 55.87,6.35 55.48,5.98C55.11,5.63 54.64,5.44 54.11,5.44Z" style="fill:rgb(69,137,246);"/>
</svg>
