<?xml version="1.0" encoding="UTF-8" standalone="no"?>
<!DOCTYPE svg PUBLIC "-//W3C//DTD SVG 1.1//EN" "http://www.w3.org/Graphics/SVG/1.1/DTD/svg11.dtd">
<svg width="100%" height="100%" viewBox="0 0 57 58" version="1.1" xmlns="http://www.w3.org/2000/svg" xmlns:xlink="http://www.w3.org/1999/xlink" xml:space="preserve" xmlns:serif="http://www.serif.com/" style="fill-rule:evenodd;clip-rule:evenodd;stroke-linejoin:round;stroke-miterlimit:2;">
    <path d="M56.07,18.95L51.55,14.63L53.4,9.5L53.48,9.71L54.31,6.98C54.63,5.94 54.34,4.84 53.58,4.1C53.49,4.02 53.4,3.94 53.31,3.87C53.22,3.8 53.31,3.87 53.31,3.87C53.29,3.85 53.26,3.85 53.24,3.83C53.2,3.8 53.17,3.77 53.13,3.74C53.09,3.71 53.13,3.74 53.13,3.74C53.08,3.71 53.03,3.69 52.98,3.66C52.91,3.6 52.84,3.53 52.76,3.48C52.68,3.43 52.76,3.48 52.76,3.48C52.74,3.46 52.71,3.46 52.69,3.44C52.65,3.41 52.62,3.38 52.58,3.35C52.54,3.32 52.58,3.35 52.58,3.35C52.56,3.33 52.53,3.32 52.51,3.31C52.47,3.28 52.44,3.25 52.4,3.22C52.36,3.19 52.4,3.22 52.4,3.22C52.35,3.19 52.3,3.17 52.25,3.14C52.15,3.05 52.04,2.96 51.93,2.89C51.9,2.87 51.88,2.84 51.85,2.82C51.82,2.8 51.85,2.82 51.85,2.82C51.83,2.8 51.8,2.8 51.78,2.78C51.74,2.75 51.71,2.71 51.67,2.69C51.63,2.67 51.67,2.69 51.67,2.69C51.65,2.67 51.62,2.66 51.6,2.65C51.56,2.62 51.53,2.59 51.49,2.56C51.45,2.53 51.49,2.56 51.49,2.56C51.47,2.54 51.44,2.54 51.42,2.52C51.38,2.49 51.35,2.46 51.31,2.43C51.27,2.4 51.31,2.43 51.31,2.43C50.56,1.88 49.58,1.74 48.63,2.07L41.48,4.99L38.67,2.31C38.54,2.17 38.39,2.06 38.24,1.96C38.18,1.91 38.12,1.87 38.05,1.82C37.99,1.77 37.93,1.73 37.87,1.69C37.81,1.64 37.75,1.6 37.69,1.56C37.63,1.51 37.57,1.47 37.51,1.43C37.45,1.38 37.39,1.34 37.33,1.3C37.27,1.25 37.21,1.21 37.15,1.17C37.09,1.12 37.03,1.08 36.96,1.03C36.9,0.98 36.84,0.94 36.78,0.9C36.72,0.85 36.66,0.81 36.6,0.77C36.54,0.72 36.48,0.68 36.42,0.64C35.63,0 34.53,-0.14 33.57,0.31C32.53,0.8 31.88,1.89 31.95,2.96L32.01,10.89L24.68,14.09C23.58,14.6 22.89,15.75 22.97,16.94C23.03,17.79 23.46,18.52 24.11,18.99C24.17,19.04 24.23,19.08 24.3,19.13C24.41,19.22 24.53,19.31 24.65,19.39L24.66,19.39C24.72,19.44 24.78,19.48 24.84,19.52C24.9,19.57 24.96,19.61 25.03,19.66C25.09,19.71 25.15,19.75 25.21,19.79C25.27,19.84 25.33,19.88 25.39,19.92C25.45,19.97 25.51,20.01 25.57,20.05C25.63,20.1 25.69,20.14 25.76,20.19C25.82,20.24 25.88,20.28 25.94,20.32C26.27,20.6 26.67,20.81 27.12,20.91L31.68,21.99L0.28,54.69C-0.1,55.09 -0.09,55.72 0.31,56.1C0.36,56.15 0.42,56.17 0.48,56.21C0.48,56.21 0.49,56.23 0.5,56.24C0.55,56.29 0.61,56.31 0.66,56.35C0.66,56.35 0.67,56.37 0.68,56.38C0.73,56.43 0.79,56.45 0.84,56.49C0.84,56.49 0.85,56.51 0.86,56.52C0.91,56.57 0.97,56.59 1.03,56.63C1.03,56.63 1.04,56.65 1.05,56.66C1.1,56.71 1.16,56.73 1.21,56.77C1.21,56.77 1.22,56.79 1.23,56.8C1.28,56.85 1.34,56.87 1.39,56.91C1.39,56.91 1.4,56.93 1.41,56.94C1.46,56.99 1.52,57.01 1.58,57.05C1.58,57.05 1.59,57.07 1.6,57.08C1.65,57.13 1.71,57.15 1.76,57.19C1.76,57.19 1.77,57.21 1.78,57.22C1.83,57.27 1.89,57.29 1.94,57.33C1.94,57.33 1.95,57.35 1.96,57.36C2.01,57.41 2.07,57.43 2.13,57.47C2.13,57.47 2.14,57.49 2.15,57.5C2.2,57.55 2.26,57.57 2.31,57.61C2.31,57.61 2.32,57.63 2.33,57.64C2.52,57.83 2.77,57.92 3.02,57.92C3.28,57.92 3.55,57.82 3.74,57.61L34.65,25.35L35.93,29.84C36.1,30.49 36.5,31.02 37.02,31.38C37.08,31.43 37.14,31.47 37.2,31.51C37.26,31.56 37.32,31.6 37.38,31.64C37.44,31.69 37.5,31.73 37.57,31.78C37.63,31.83 37.69,31.87 37.75,31.91C37.81,31.96 37.87,32 37.93,32.04C37.99,32.09 38.05,32.13 38.11,32.17C38.17,32.22 38.23,32.26 38.3,32.3C38.36,32.35 38.42,32.39 38.48,32.43C38.54,32.48 38.6,32.52 38.66,32.56C38.72,32.61 38.78,32.65 38.85,32.7C39.31,33.08 39.9,33.31 40.54,33.32L40.61,33.32C41.79,33.32 42.87,32.59 43.33,31.47L46.19,24.04L54.07,23.76C55.17,23.76 56.26,23.08 56.7,22.02C57.15,20.94 56.87,19.71 56.05,18.99L56.07,18.95ZM54.88,21.21C54.75,21.52 54.46,21.72 54.09,21.72L54.08,21.72L44.83,22.05L41.5,30.7C41.35,31.06 41.02,31.28 40.62,31.29C40.27,31.29 39.99,31.06 39.9,30.72L37.19,21.22L27.55,18.94C27.22,18.86 26.99,18.59 26.96,18.24C26.93,17.86 27.16,17.5 27.49,17.34L36,13.62L35.92,4.32C35.9,4 36.09,3.69 36.4,3.54C36.5,3.49 36.61,3.47 36.72,3.47C36.91,3.47 37.09,3.54 37.24,3.69L42.7,8.91L51.35,5.38C51.66,5.27 51.99,5.33 52.21,5.55C52.42,5.75 52.5,6.05 52.43,6.34L49.25,15.17L54.74,20.42C54.95,20.61 55.02,20.92 54.9,21.21L54.88,21.21Z" style="fill-rule:nonzero;"/>
</svg>
