<?xml version="1.0" encoding="UTF-8" standalone="no"?>
<!DOCTYPE svg PUBLIC "-//W3C//DTD SVG 1.1//EN" "http://www.w3.org/Graphics/SVG/1.1/DTD/svg11.dtd">
<svg width="100%" height="100%" viewBox="0 0 59 59" version="1.1" xmlns="http://www.w3.org/2000/svg" xmlns:xlink="http://www.w3.org/1999/xlink" xml:space="preserve" xmlns:serif="http://www.serif.com/" style="fill-rule:evenodd;clip-rule:evenodd;stroke-linejoin:round;stroke-miterlimit:2;">
    <path d="M56.87,28.77L56.85,28.77C56.85,43.36 45.01,55.71 30.42,56.35C29.99,56.37 29.57,56.37 29.15,56.37C28.95,56.37 28.75,56.36 28.55,56.36C28.31,56.36 28.07,56.35 27.83,56.34C27.63,56.33 27.43,56.32 27.23,56.3C27,56.28 26.76,56.26 26.53,56.24C26.33,56.22 26.13,56.2 25.93,56.17C25.71,56.14 25.48,56.12 25.25,56.08C25.05,56.04 24.85,56.01 24.65,55.97C24.43,55.93 24.21,55.9 23.99,55.85C23.79,55.8 23.59,55.76 23.39,55.71C23.18,55.66 22.96,55.62 22.75,55.56C22.55,55.5 22.36,55.45 22.16,55.39C21.95,55.33 21.75,55.27 21.54,55.21C21.34,55.14 21.15,55.08 20.95,55.01L20.35,54.8C20.15,54.73 19.96,54.66 19.77,54.58C19.58,54.5 19.38,54.42 19.19,54.34C19,54.26 18.81,54.18 18.62,54.09C18.43,54.01 18.25,53.92 18.06,53.83C17.88,53.74 17.69,53.65 17.51,53.55C17.33,53.45 17.15,53.36 16.97,53.26C16.79,53.16 16.61,53.05 16.43,52.95C16.26,52.85 16.08,52.75 15.91,52.64C15.73,52.54 15.55,52.42 15.38,52.31C15.21,52.2 15.05,52.08 14.88,51.97L14.37,51.61C14.34,51.58 14.3,51.56 14.27,51.53C14.24,51.51 14.22,51.49 14.19,51.47C14.15,51.44 14.12,51.42 14.08,51.39C14.06,51.38 14.04,51.36 14.02,51.35C7.93,46.78 4.02,39.48 4.02,31.09C4.02,16.49 15.86,4.15 30.45,3.51C30.84,3.48 31.23,3.48 31.62,3.48C37.21,3.48 42.35,5.24 46.52,8.26C46.68,8.37 46.84,8.49 47,8.61C47.17,8.74 47.34,8.87 47.5,9C47.66,9.13 47.81,9.25 47.96,9.38C48.12,9.51 48.28,9.65 48.44,9.79C48.59,9.92 48.74,10.06 48.88,10.19C49.04,10.33 49.19,10.47 49.34,10.62L49.76,11.04C49.91,11.19 50.06,11.35 50.2,11.5C50.34,11.65 50.47,11.79 50.6,11.94C50.73,12.1 50.87,12.26 51.01,12.42C51.13,12.57 51.26,12.73 51.38,12.88C51.51,13.05 51.64,13.21 51.77,13.38C51.89,13.54 52,13.7 52.12,13.86C52.25,14.03 52.37,14.21 52.49,14.38C52.6,14.54 52.71,14.71 52.82,14.88C52.94,15.06 53.05,15.23 53.16,15.41C53.27,15.58 53.37,15.75 53.47,15.93C53.57,16.12 53.68,16.3 53.78,16.48C53.88,16.66 53.98,16.84 54.07,17.02C54.16,17.21 54.26,17.39 54.35,17.58C54.44,17.77 54.52,17.96 54.61,18.15C54.69,18.34 54.78,18.53 54.86,18.72C54.95,18.91 55.02,19.11 55.1,19.31C55.17,19.5 55.25,19.69 55.32,19.88C55.39,20.08 55.46,20.28 55.53,20.49C55.59,20.68 55.66,20.87 55.72,21.07C55.78,21.28 55.84,21.5 55.9,21.71C55.95,21.9 56.01,22.1 56.06,22.29C56.12,22.52 56.17,22.74 56.22,22.97C56.26,23.16 56.31,23.35 56.35,23.54C56.4,23.78 56.44,24.01 56.48,24.25C56.51,24.44 56.55,24.63 56.58,24.82C56.62,25.07 56.65,25.32 56.68,25.57C56.7,25.75 56.73,25.93 56.75,26.11C56.77,26.39 56.79,26.68 56.81,26.96C56.82,27.12 56.84,27.27 56.84,27.43C56.86,27.87 56.87,28.32 56.87,28.77ZM15.95,48.56L15.94,48.54C19.65,51.38 24.32,53.05 29.41,53.05C29.75,53.05 30.1,53.05 30.44,53.03C43.21,52.47 53.56,41.67 53.56,28.9C53.56,21.41 50.01,14.91 44.49,10.93C44.45,10.9 44.42,10.88 44.38,10.85C44.35,10.83 44.33,10.81 44.3,10.79C44.27,10.77 44.25,10.76 44.23,10.74C44.18,10.7 44.12,10.67 44.07,10.63C43.92,10.52 43.76,10.41 43.6,10.31C43.45,10.22 43.31,10.13 43.17,10.04C43.01,9.94 42.85,9.85 42.68,9.75C42.53,9.67 42.39,9.58 42.24,9.5L41.73,9.23C41.58,9.15 41.43,9.07 41.28,9C41.1,8.91 40.93,8.83 40.75,8.75C40.6,8.68 40.45,8.61 40.29,8.54C40.11,8.46 39.93,8.39 39.75,8.32L39.27,8.14C39.09,8.08 38.91,8.01 38.72,7.95C38.55,7.9 38.39,7.84 38.23,7.79C38.04,7.73 37.85,7.67 37.66,7.62C37.5,7.57 37.34,7.52 37.17,7.48C36.98,7.43 36.79,7.39 36.59,7.34C36.42,7.3 36.26,7.26 36.09,7.23C35.9,7.19 35.7,7.16 35.5,7.12L34.99,7.03C34.79,7 34.58,6.98 34.38,6.95C34.21,6.93 34.03,6.91 33.86,6.89C33.65,6.87 33.45,6.86 33.24,6.84C33.07,6.83 32.9,6.8 32.72,6.8C32.51,6.78 32.29,6.78 32.08,6.78C31.91,6.77 31.74,6.77 31.56,6.77L31.48,6.77C31.14,6.77 30.79,6.77 30.45,6.79C17.68,7.35 7.33,18.15 7.33,30.92C7.33,31.31 7.34,31.7 7.36,32.09C7.37,32.22 7.39,32.35 7.39,32.48C7.41,32.74 7.42,33 7.45,33.25C7.47,33.41 7.49,33.56 7.51,33.71C7.54,33.94 7.57,34.17 7.6,34.39C7.62,34.55 7.65,34.71 7.68,34.87C7.72,35.08 7.76,35.3 7.8,35.51C7.83,35.67 7.87,35.83 7.91,35.99C7.95,36.19 8,36.4 8.05,36.6C8.1,36.76 8.14,36.92 8.19,37.08C8.25,37.28 8.3,37.48 8.36,37.67C8.41,37.83 8.47,37.99 8.52,38.15C8.58,38.34 8.64,38.53 8.71,38.72C8.76,38.88 8.83,39.03 8.89,39.19C8.96,39.37 9.03,39.56 9.11,39.74C9.18,39.89 9.25,40.05 9.32,40.2C9.4,40.38 9.48,40.56 9.56,40.73C9.63,40.88 9.71,41.03 9.79,41.18L10.06,41.69C10.14,41.84 10.22,41.98 10.31,42.13C10.41,42.29 10.5,42.46 10.6,42.62C10.69,42.76 10.79,42.91 10.88,43.05C10.98,43.21 11.08,43.36 11.19,43.52L11.49,43.94C11.6,44.1 11.71,44.25 11.82,44.4C11.92,44.53 12.02,44.67 12.13,44.8C12.24,44.95 12.36,45.1 12.48,45.24C12.59,45.37 12.71,45.5 12.82,45.63C12.94,45.77 13.06,45.91 13.19,46.05C13.3,46.17 13.42,46.3 13.54,46.42L13.94,46.82C14.06,46.94 14.19,47.05 14.31,47.17C14.44,47.3 14.58,47.43 14.72,47.55C14.85,47.67 14.98,47.78 15.11,47.89C15.25,48.01 15.39,48.12 15.54,48.24C15.68,48.35 15.81,48.46 15.95,48.56ZM44.96,18.92L44.97,18.92L27.71,41.51C27.45,41.86 27.14,42.17 26.79,42.42C26.58,42.57 26.36,42.69 26.14,42.8C26.07,42.84 26,42.86 25.93,42.89C25.78,42.95 25.62,43.01 25.46,43.05C25.37,43.07 25.29,43.09 25.21,43.11C25.05,43.15 24.89,43.17 24.73,43.18C24.65,43.19 24.58,43.2 24.5,43.2C24.39,43.2 24.29,43.18 24.19,43.18C24.01,43.17 23.82,43.16 23.64,43.12C23.54,43.1 23.44,43.07 23.34,43.04C23.17,42.99 23,42.93 22.84,42.86C22.74,42.82 22.65,42.78 22.56,42.73C22.39,42.64 22.23,42.53 22.08,42.41L21.96,42.32C21.94,42.31 21.92,42.3 21.9,42.28C21.89,42.27 21.88,42.27 21.88,42.27C21.66,42.08 21.45,41.86 21.28,41.61L15.89,34.2C15.38,33.48 15.56,32.47 16.28,31.91C16.59,31.67 16.96,31.55 17.32,31.55C17.65,31.55 17.98,31.66 18.25,31.86L18.34,31.92C18.42,32 18.51,32.08 18.58,32.18L23.98,39.6L24,39.63C24.04,39.69 24.09,39.74 24.15,39.78C24.26,39.86 24.39,39.9 24.52,39.9C24.73,39.9 24.93,39.8 25.07,39.62L25.09,39.59L42.36,16.99C42.71,16.57 43.2,16.35 43.7,16.35C44.02,16.35 44.34,16.44 44.61,16.63C44.7,16.69 44.79,16.76 44.86,16.84C45.01,17 45.12,17.18 45.19,17.38C45.37,17.87 45.3,18.45 44.96,18.92Z" style="fill:white;"/>
    <path d="M47.89,6.73L47.86,6.69C54.56,11.62 58.84,19.58 58.84,28.73C58.84,44.36 46.13,57.63 30.5,58.31C30.08,58.34 29.66,58.34 29.24,58.34C23.01,58.34 17.33,56.35 12.79,52.95C12.73,52.91 12.67,52.87 12.61,52.82C12.55,52.78 12.49,52.74 12.43,52.69C12.37,52.65 12.31,52.61 12.25,52.56C12.19,52.52 12.13,52.48 12.07,52.43C12.01,52.39 11.95,52.35 11.89,52.3C11.83,52.26 11.77,52.22 11.71,52.17C11.65,52.13 11.59,52.09 11.53,52.04C11.47,52 11.41,51.96 11.35,51.91C11.29,51.87 11.23,51.83 11.17,51.78C11.11,51.74 11.05,51.7 10.99,51.65C4.28,46.72 0,38.76 0,29.61C0,13.98 12.71,0.71 28.34,0.03C28.76,0 29.18,0 29.6,0C35.83,0 41.51,1.99 46.06,5.42C46.13,5.47 46.19,5.51 46.25,5.56C46.31,5.6 46.37,5.64 46.43,5.69C46.49,5.73 46.55,5.77 46.61,5.82C46.67,5.86 46.73,5.9 46.79,5.95C46.86,5.99 46.92,6.03 46.98,6.08C47.04,6.12 47.1,6.16 47.16,6.21C47.22,6.25 47.28,6.29 47.34,6.34C47.4,6.38 47.46,6.42 47.52,6.47C47.58,6.51 47.64,6.55 47.7,6.6C47.77,6.64 47.83,6.68 47.89,6.73ZM30.45,56.35L30.44,56.34C45.04,55.7 56.87,43.35 56.87,28.76C56.87,28.31 56.86,27.86 56.84,27.42C56.84,27.26 56.82,27.11 56.81,26.95C56.8,26.66 56.78,26.38 56.75,26.1C56.73,25.92 56.7,25.74 56.68,25.56C56.65,25.31 56.62,25.06 56.58,24.81C56.55,24.62 56.51,24.43 56.48,24.24C56.44,24 56.4,23.76 56.35,23.53C56.31,23.34 56.26,23.15 56.22,22.96C56.17,22.73 56.12,22.5 56.06,22.28C56.01,22.08 55.95,21.89 55.9,21.7C55.84,21.49 55.79,21.27 55.72,21.06C55.66,20.87 55.6,20.67 55.53,20.48C55.46,20.28 55.39,20.07 55.32,19.87C55.25,19.68 55.18,19.49 55.1,19.3C55.02,19.1 54.94,18.9 54.86,18.71C54.78,18.52 54.7,18.33 54.61,18.14C54.53,17.95 54.44,17.76 54.35,17.57C54.26,17.38 54.17,17.2 54.07,17.01C53.97,16.83 53.88,16.65 53.78,16.47C53.68,16.28 53.58,16.1 53.47,15.92C53.37,15.75 53.27,15.57 53.16,15.4C53.05,15.22 52.93,15.05 52.82,14.87C52.71,14.7 52.6,14.54 52.49,14.37C52.37,14.19 52.24,14.02 52.12,13.85C52.01,13.69 51.89,13.53 51.77,13.37C51.64,13.2 51.51,13.04 51.38,12.87C51.26,12.71 51.14,12.56 51.01,12.41C50.88,12.25 50.74,12.09 50.6,11.93C50.46,11.78 50.33,11.63 50.2,11.49C50.05,11.33 49.91,11.18 49.76,11.03L49.34,10.61C49.19,10.47 49.03,10.32 48.88,10.18C48.73,10.04 48.59,9.91 48.44,9.78C48.28,9.64 48.12,9.51 47.96,9.37C47.81,9.24 47.65,9.11 47.5,8.99C47.33,8.86 47.17,8.73 47,8.6C46.84,8.48 46.68,8.37 46.52,8.25C42.36,5.24 37.22,3.47 31.62,3.47C31.23,3.47 30.84,3.48 30.45,3.5C15.85,4.13 4.02,16.48 4.05,31.09C4.05,39.47 7.96,46.77 14.05,51.35C14.07,51.36 14.09,51.38 14.11,51.39C14.15,51.42 14.18,51.44 14.22,51.47C14.25,51.49 14.27,51.51 14.3,51.53C14.33,51.56 14.36,51.58 14.4,51.61L14.91,51.97C15.07,52.09 15.24,52.2 15.41,52.31C15.59,52.42 15.76,52.53 15.94,52.64C16.11,52.74 16.28,52.85 16.46,52.95C16.64,53.06 16.82,53.16 17,53.26C17.18,53.36 17.36,53.46 17.54,53.55C17.72,53.64 17.9,53.74 18.09,53.83C18.27,53.92 18.46,54 18.65,54.09C18.84,54.17 19.03,54.26 19.22,54.34C19.41,54.42 19.6,54.5 19.8,54.58C20,54.65 20.19,54.73 20.38,54.8L20.98,55.01C21.18,55.08 21.37,55.15 21.57,55.21C21.77,55.27 21.98,55.33 22.19,55.39C22.38,55.45 22.58,55.51 22.78,55.56C22.99,55.61 23.21,55.66 23.42,55.71C23.62,55.76 23.82,55.81 24.02,55.85L24.68,55.97C24.88,56.01 25.08,56.05 25.28,56.08C25.5,56.11 25.73,56.14 25.96,56.17C26.16,56.19 26.36,56.22 26.56,56.24C26.79,56.27 27.03,56.28 27.26,56.3C27.46,56.31 27.66,56.33 27.86,56.34C28.1,56.35 28.34,56.36 28.58,56.36C28.78,56.37 28.98,56.37 29.18,56.37C29.6,56.37 30.02,56.37 30.45,56.35ZM29.42,53.07L29.43,53.09C24.34,53.09 19.68,51.42 15.96,48.58C15.82,48.47 15.68,48.37 15.55,48.26C15.41,48.15 15.26,48.03 15.12,47.91C14.99,47.79 14.86,47.68 14.73,47.57C14.59,47.44 14.46,47.32 14.32,47.19C14.2,47.08 14.07,46.96 13.95,46.84C13.81,46.71 13.68,46.57 13.55,46.44C13.43,46.32 13.32,46.2 13.2,46.07C13.08,45.93 12.95,45.79 12.83,45.65C12.71,45.52 12.6,45.39 12.49,45.26C12.37,45.11 12.26,44.97 12.14,44.82C12.04,44.69 11.93,44.56 11.83,44.42C11.72,44.27 11.61,44.11 11.5,43.96L11.2,43.54C11.1,43.39 10.99,43.23 10.89,43.07C10.79,42.93 10.7,42.79 10.61,42.64C10.51,42.48 10.42,42.32 10.32,42.15C10.24,42.01 10.15,41.86 10.07,41.71L9.8,41.2C9.72,41.05 9.64,40.9 9.57,40.75C9.49,40.57 9.41,40.4 9.33,40.22C9.26,40.07 9.19,39.92 9.12,39.76C9.04,39.58 8.97,39.39 8.9,39.21C8.84,39.05 8.78,38.9 8.72,38.74C8.66,38.55 8.59,38.36 8.53,38.17C8.48,38.01 8.42,37.85 8.37,37.69C8.31,37.49 8.26,37.3 8.2,37.1C8.15,36.94 8.1,36.78 8.06,36.62C8.01,36.42 7.97,36.21 7.92,36.01C7.88,35.85 7.84,35.69 7.81,35.53C7.76,35.32 7.73,35.1 7.69,34.89C7.67,34.73 7.63,34.57 7.61,34.41C7.57,34.18 7.55,33.96 7.52,33.73C7.5,33.57 7.48,33.42 7.46,33.27C7.43,33.01 7.42,32.76 7.4,32.5C7.39,32.37 7.37,32.24 7.37,32.11C7.35,31.72 7.34,31.33 7.34,30.94C7.34,18.17 17.69,7.37 30.46,6.81C30.81,6.79 31.15,6.79 31.49,6.79L31.57,6.79C31.74,6.79 31.92,6.8 32.09,6.8C32.31,6.8 32.52,6.81 32.73,6.82C32.9,6.83 33.08,6.85 33.25,6.86C33.46,6.87 33.66,6.89 33.87,6.91C34.04,6.92 34.22,6.95 34.39,6.97C34.6,6.99 34.8,7.02 35,7.05L35.51,7.14C35.7,7.17 35.9,7.21 36.1,7.25C36.27,7.28 36.43,7.32 36.6,7.36C36.79,7.4 36.99,7.45 37.18,7.5C37.34,7.55 37.51,7.59 37.67,7.64C37.86,7.7 38.05,7.75 38.24,7.81C38.41,7.86 38.57,7.92 38.73,7.97C38.91,8.03 39.1,8.09 39.28,8.16C39.44,8.21 39.6,8.28 39.76,8.34C39.94,8.41 40.12,8.48 40.3,8.56C40.45,8.63 40.61,8.7 40.76,8.77C40.94,8.85 41.12,8.94 41.29,9.02C41.44,9.1 41.59,9.17 41.74,9.25L42.25,9.52C42.4,9.6 42.54,9.69 42.69,9.77C42.85,9.86 43.02,9.96 43.18,10.06C43.33,10.15 43.47,10.24 43.61,10.33C43.76,10.44 43.92,10.54 44.08,10.65C44.13,10.69 44.19,10.72 44.24,10.76C44.27,10.78 44.29,10.79 44.31,10.81C44.34,10.83 44.36,10.85 44.39,10.87C44.43,10.9 44.46,10.92 44.5,10.95C50.01,14.94 53.57,21.43 53.57,28.92C53.57,41.69 43.22,52.49 30.45,53.05C30.1,53.07 29.76,53.07 29.42,53.07ZM44.96,18.92L44.95,18.92C45.29,18.45 45.36,17.87 45.18,17.38C45.11,17.18 45,17 44.85,16.84C44.77,16.77 44.69,16.69 44.6,16.63C44.33,16.44 44.01,16.35 43.69,16.35C43.19,16.35 42.69,16.57 42.35,16.99L25.08,39.59L25.06,39.62C24.93,39.8 24.72,39.9 24.51,39.9C24.38,39.9 24.25,39.86 24.14,39.78C24.08,39.74 24.03,39.69 23.99,39.63L23.97,39.6L18.57,32.18C18.5,32.08 18.42,31.99 18.33,31.92L18.24,31.86C17.97,31.66 17.64,31.55 17.31,31.55C16.95,31.55 16.58,31.67 16.27,31.91C15.55,32.47 15.37,33.48 15.88,34.2L21.27,41.61C21.45,41.86 21.65,42.08 21.87,42.27C21.88,42.28 21.89,42.28 21.89,42.28C21.91,42.29 21.93,42.31 21.95,42.32L22.07,42.41C22.23,42.53 22.38,42.64 22.55,42.73C22.64,42.78 22.74,42.82 22.83,42.86C22.99,42.93 23.16,42.99 23.33,43.04C23.43,43.07 23.53,43.1 23.63,43.12C23.81,43.15 23.99,43.18 24.18,43.18C24.29,43.19 24.39,43.2 24.49,43.2C24.57,43.2 24.64,43.18 24.72,43.18C24.88,43.16 25.04,43.14 25.2,43.11C25.29,43.09 25.37,43.07 25.45,43.05C25.61,43.01 25.76,42.95 25.92,42.89L26.13,42.8C26.35,42.69 26.57,42.57 26.78,42.42C27.13,42.17 27.44,41.86 27.7,41.51L44.96,18.92ZM9.33,30.93L9.3,30.88C9.3,37.18 12.05,42.71 16.44,46.38C19.57,48.39 23.3,49.55 27.37,49.55C27.68,49.55 28,49.54 28.31,49.53C40.01,49.02 49.52,39.09 49.52,27.4C49.52,24.31 48.85,21.35 47.6,18.68L46.52,20.09L29.27,42.66C28.89,43.17 28.43,43.63 27.91,44C26.86,44.76 25.6,45.16 24.35,45.16C23.1,45.16 21.91,44.76 20.94,44.06C20.88,44.02 20.82,43.97 20.76,43.93C20.7,43.89 20.64,43.84 20.58,43.8C20.52,43.76 20.46,43.71 20.4,43.67C20.34,43.63 20.28,43.58 20.22,43.54C20.16,43.5 20.1,43.45 20.04,43.41C19.98,43.37 19.92,43.32 19.86,43.28C19.8,43.24 19.74,43.19 19.68,43.15C19.62,43.11 19.56,43.06 19.5,43.02C19.44,42.98 19.38,42.93 19.32,42.89C19.26,42.85 19.2,42.8 19.14,42.76C18.55,42.38 18.04,41.89 17.64,41.31L12.24,33.88C11.11,32.28 11.47,30.08 13.05,28.86C13.7,28.36 14.5,28.09 15.31,28.09C16.18,28.09 16.99,28.39 17.64,28.95C17.7,28.99 17.76,29.03 17.82,29.08C17.88,29.12 17.94,29.16 18,29.21C18.06,29.25 18.12,29.29 18.18,29.34C18.24,29.38 18.3,29.42 18.36,29.47C18.42,29.51 18.48,29.55 18.54,29.6C18.6,29.64 18.66,29.68 18.72,29.73C18.78,29.77 18.84,29.81 18.9,29.86C18.96,29.9 19.02,29.94 19.08,29.99C19.14,30.03 19.2,30.07 19.26,30.12C19.32,30.16 19.38,30.2 19.44,30.25C19.71,30.46 19.97,30.69 20.18,30.97L23,34.85L38.73,14.27L38.77,14.23C39.49,13.35 40.54,12.85 41.66,12.85C42.41,12.85 43.12,13.07 43.72,13.49C43.76,13.52 43.79,13.55 43.83,13.58C43.86,13.6 43.88,13.61 43.91,13.63C43.95,13.66 43.98,13.69 44.02,13.72C44.05,13.74 44.07,13.75 44.1,13.77C44.14,13.8 44.17,13.83 44.21,13.86C44.24,13.88 44.27,13.89 44.29,13.91C44.33,13.94 44.36,13.97 44.4,14C44.43,14.02 44.46,14.03 44.48,14.05C44.52,14.08 44.55,14.11 44.59,14.14C44.62,14.16 44.65,14.17 44.67,14.19C44.7,14.21 44.72,14.24 44.75,14.26C44.42,13.87 44.07,13.49 43.71,13.13C43.28,12.7 42.83,12.3 42.37,11.92C39.17,9.89 35.42,8.78 31.48,8.78C31.17,8.78 30.85,8.79 30.54,8.8C18.84,9.31 9.33,19.24 9.33,30.93Z"/>
</svg>
