<?xml version="1.0" encoding="UTF-8" standalone="no"?>
<!DOCTYPE svg PUBLIC "-//W3C//DTD SVG 1.1//EN" "http://www.w3.org/Graphics/SVG/1.1/DTD/svg11.dtd">
<svg width="100%" height="100%" viewBox="0 0 40 70" version="1.1" xmlns="http://www.w3.org/2000/svg" xmlns:xlink="http://www.w3.org/1999/xlink" xml:space="preserve" xmlns:serif="http://www.serif.com/" style="fill-rule:evenodd;clip-rule:evenodd;stroke-linejoin:round;stroke-miterlimit:2;">
    <path d="M37.1,34C37.1,32.8 36.6,31.8 35.8,31L7.5,3.9C7.4,3.9 7.4,3.8 7.3,3.8C7.3,3.8 7.2,3.8 7.2,3.7C6.9,3.5 6.6,3.4 6.2,3.4C5.6,3.4 5.1,3.6 4.7,4.1C3.9,4.9 3.9,6.1 4.6,6.9L33,34L33.1,34.1C33.1,34.2 33.1,34.2 33,34.3L4.6,63.9C3.8,64.7 3.8,66 4.6,66.7C4.7,66.7 4.7,66.8 4.8,66.8C4.9,66.8 4.9,66.9 5,66.9C5,66.9 5.1,66.9 5.1,67C5.2,67 5.3,67.1 5.3,67.1L5.5,67.1C5.6,67.1 5.6,67.1 5.7,67.2L6.5,67.2C6.6,67.2 6.7,67.1 6.7,67.1C6.8,67.1 6.8,67.1 6.9,67C7,67 7.1,66.9 7.1,66.9C7.1,66.9 7.2,66.9 7.2,66.8C7.3,66.7 7.4,66.6 7.5,66.5L35.8,37C36.6,36.3 37.1,35.2 37.1,34Z" style="fill:white;fill-rule:nonzero;"/>
    <path d="M37.1,29.5L8.8,2.5C8.6,2.3 8.4,2.1 8.2,2C8.2,2 8.1,1.9 8,1.9L7.9,1.8C7.8,1.8 7.8,1.7 7.7,1.7C7.6,1.7 7.6,1.5 7.5,1.5C7.4,1.5 7.4,1.4 7.3,1.4C7.2,1.4 7.2,1.3 7.1,1.2L7,1.1L6.8,1C6.7,1 6.7,0.9 6.6,0.9C6.5,0.9 6.5,0.8 6.4,0.8C5.8,0.3 5,0 4.2,0C3.1,0 2,0.5 1.2,1.3C-0.3,2.9 -0.3,5.3 1.1,6.9L28.2,32.8L1.1,61.1C0.4,61.9 0,62.9 0,63.9C0,64.9 0.4,66 1.2,66.7C1.4,66.9 1.6,67 1.8,67.2C1.9,67.2 1.9,67.3 2,67.3C2.1,67.3 2.1,67.4 2.2,67.4C2.3,67.4 2.3,67.5 2.4,67.5C2.5,67.5 2.5,67.6 2.6,67.6C2.7,67.6 2.7,67.7 2.8,67.7C2.9,67.7 2.9,67.8 3,67.8C3.1,67.8 3.1,67.9 3.2,67.9C3.3,67.9 3.3,68 3.4,68C3.5,68 3.5,68.1 3.6,68.1C3.7,68.1 3.7,68.2 3.8,68.2C4.5,68.7 5.2,68.9 6.1,68.9C7.2,68.9 8.3,68.4 9.1,67.6L37.4,38.1C38.6,36.9 39.3,35.3 39.3,33.6C39.3,31.9 38.3,30.6 37.1,29.5ZM7.1,66.9C7.1,66.9 7,66.9 7,67C6.9,67.1 6.8,67.1 6.8,67.1C6.7,67.1 6.7,67.1 6.6,67.2C6.5,67.2 6.4,67.3 6.4,67.3L5.6,67.3C5.5,67.3 5.5,67.3 5.4,67.2L5.2,67.2C5.1,67.2 5,67.1 5,67.1C5,67 5,67 4.9,67C4.8,67 4.8,66.9 4.7,66.9C4.6,66.9 4.6,66.8 4.5,66.8C3.7,66 3.7,64.8 4.5,64L32.8,34.4C32.8,34.4 32.9,34.3 32.9,34.2C32.9,34.1 32.9,34.1 32.8,34.1L4.6,6.9C3.9,6.1 3.9,4.9 4.7,4.1C5.1,3.7 5.7,3.4 6.2,3.4C6.5,3.4 6.9,3.5 7.2,3.7C7.2,3.7 7.3,3.7 7.3,3.8C7.4,3.8 7.4,3.9 7.5,3.9L35.7,31C36.5,31.8 37,32.8 37,34C37,35.2 36.5,36.3 35.7,37.1L7.4,66.7C7.3,66.8 7.2,66.8 7.1,66.9Z" style="fill:rgb(188,252,7);fill-rule:nonzero;"/>
</svg>
