<?xml version="1.0" encoding="UTF-8" standalone="no"?>
<!DOCTYPE svg PUBLIC "-//W3C//DTD SVG 1.1//EN" "http://www.w3.org/Graphics/SVG/1.1/DTD/svg11.dtd">
<svg width="100%" height="100%" viewBox="0 0 51 66" version="1.1" xmlns="http://www.w3.org/2000/svg" xmlns:xlink="http://www.w3.org/1999/xlink" xml:space="preserve" xmlns:serif="http://www.serif.com/" style="fill-rule:evenodd;clip-rule:evenodd;stroke-linejoin:round;stroke-miterlimit:2;">
    <path d="M28.2,31.3C28.2,32.3 27.4,33.2 25.9,32.9L25.2,32.9C25.1,32.9 25.1,32.8 25,32.8C25,32.7 24.9,32.7 24.9,32.7L24.8,32.6C24.4,32.3 24.1,31.8 24.1,31.2L24.1,9.7L18,16.1L17.7,16.4C17.7,16.5 17.6,16.5 17.6,16.5C17.5,16.5 17.5,16.6 17.4,16.6L17.3,16.6C17.2,16.7 17.2,16.7 17.1,16.7L16.2,16.7C16.1,16.7 16.1,16.6 16,16.6L15.9,16.6C15.9,16.6 15.9,16.5 15.8,16.5L15.7,16.4C15,15.7 15,14.6 15.7,13.8L25,4.1C25.4,3.7 25.9,3.5 26.4,3.5C26.7,3.5 27,3.6 27.3,3.8C27.4,3.8 27.5,3.9 27.6,4L36.9,12.7C37.6,13.4 37.6,14.5 36.9,15.3L36.6,15.6C36.6,15.7 36.5,15.7 36.5,15.7C36.5,15.7 36.4,15.8 36.3,15.8C36.3,15.9 36.2,15.9 36.2,15.9C36.1,16 36.1,16 36,16L34.9,16C34.8,16 34.8,15.9 34.7,15.9C34.7,15.8 34.6,15.8 34.6,15.8C34.5,15.8 34.4,15.7 34.4,15.7L34.3,15.6L28.2,9.7L28.2,31.3ZM15.2,24.4C15.2,25.4 14.3,26.3 13.2,26.3L9.5,26.5C9,26.5 8.6,26.7 8.2,27.1C7.9,27.4 7.7,27.9 7.7,28.4L7.7,58.7C7.7,58.7 7.8,58.8 7.8,58.9L8.2,59.3C8.2,59.4 8.2,59.5 8.3,59.5L8.4,59.6C8.7,59.8 9.1,60 9.5,60L9.6,60L43.1,57.9C44.2,57.9 45,57 45,56L45,26.3C45,25.7 44.7,25.1 44.2,24.8L44.1,24.8C44,24.8 44,24.7 43.9,24.7L43,24.7L39.3,24.9L38.5,24.9C38.4,24.9 38.4,24.8 38.3,24.8C38.3,24.7 38.2,24.7 38.2,24.7L38.1,24.6C37.7,24.3 37.4,23.8 37.4,23.2C37.4,22.2 38.3,21.3 39.3,21.3L43,21.1L43.2,21.1C44.3,21.1 45.4,21.4 46.2,22C46.2,22.1 46.3,22.1 46.3,22.1C46.5,22.3 46.8,22.5 47,22.7L47.1,22.8C47.3,23 47.5,23.2 47.7,23.5L47.7,23.6C47.9,23.8 48.1,24.1 48.2,24.4L48.2,24.5C48.3,24.9 48.4,25.2 48.5,25.5C48.6,25.9 48.6,26.2 48.6,26.6L48.6,56.4C48.6,59.5 46.1,62.1 43,62.2L9.5,63.6L9.2,63.6C8.9,63.6 8.6,63.6 8.3,63.5L8.2,63.5L7.3,63.2L7.2,63.2C6.9,63.1 6.6,63 6.4,62.8C6.4,62.7 6.3,62.7 6.3,62.7C4.9,61.7 4,60.1 4,58.3L4,28.6C4,25.5 6.5,22.9 9.7,22.9L13.4,22.7L13.5,22.7C13.9,22.7 14.2,22.8 14.5,23C14.5,23 14.5,23.1 14.6,23.1L14.9,23.4C14.9,23.5 15,23.5 15,23.6L15.1,23.7C15.2,23.8 15.2,23.8 15.2,23.9L15.2,24.4Z" style="fill:white;"/>
    <path d="M12.9,16.9C12.7,16.8 12.5,16.6 12.4,16.5C10.8,15 10.8,12.6 12.3,11L21.5,1.2C22.3,0.4 23.3,0 24.4,0C25.2,0 26,0.3 26.6,0.8C26.7,0.8 26.7,0.9 26.8,0.9C26.9,0.9 26.9,1 27,1C27,1 26.9,1.3 27,1.3C27.1,1.3 27.1,1.4 27.2,1.4C27.3,1.4 27.3,1.5 27.4,1.5C27.5,1.5 27.5,1.6 27.6,1.6C27.7,1.6 27.7,1.7 27.8,1.7C27.9,1.7 27.9,1.8 28,1.8C28.1,1.8 28.1,1.9 28.2,1.9C28.3,1.9 28.3,2 28.4,2C28.6,2.2 28.8,2.3 29,2.5L38.6,11.1C40.2,12.6 40.2,15 38.7,16.6C38,17.4 37,17.8 35.9,17.8C35.1,17.8 34.3,17.6 33.7,17.1C33.6,17.1 33.6,17 33.5,17C33.4,17 33.4,16.9 33.3,16.9C33.2,16.9 33.2,16.8 33.1,16.8C33,16.8 33,16.7 32.9,16.7C32.8,16.7 32.8,16.6 32.7,16.6C32.6,16.6 32.6,16.5 32.5,16.5C32.4,16.5 32.4,16.4 32.3,16.4C32.2,16.4 32.2,16.3 32.1,16.3C32,16.3 32,16.2 31.9,16.2C31.8,16.2 31.8,16.1 31.7,16.1C31.5,15.9 31.3,15.8 31.1,15.6L30.4,14.9L30.4,30.7C30.4,32.7 28.7,34.5 26.6,34.6L26.4,34.6C25.6,34.6 24.8,34.4 24.2,33.9C24.1,33.9 24.1,33.8 24,33.8C23.9,33.8 23.9,33.7 23.8,33.7C23.7,33.7 23.7,33.6 23.6,33.6C23.5,33.6 23.5,33.5 23.4,33.5C23.3,33.5 23.3,33.4 23.2,33.4C23.1,33.4 23.1,33.3 23,33.3C22.9,33.3 22.9,33.2 22.8,33.2C22.7,33.2 22.7,33.1 22.6,33.1C22.5,33.1 22.5,33 22.4,33C22.3,33 22.3,32.9 22.2,32.9C21.2,32.2 20.5,31 20.5,29.7L20.5,16.7L19.9,17.4C19.2,18.2 18.2,18.6 17.1,18.6C16.3,18.6 15.5,18.4 14.9,17.9C14.8,17.9 14.8,17.8 14.7,17.8C14.6,17.8 14.6,17.7 14.5,17.7C14.4,17.7 14.4,17.6 14.3,17.6C14.2,17.6 14.2,17.5 14.1,17.5C14,17.5 14,17.4 13.9,17.4C13.8,17.4 13.8,17.3 13.7,17.3C13.6,17.3 13.6,17.2 13.5,17.2C13.4,17.2 13.4,17.1 13.3,17.1C13.2,17.1 13.2,17 13.1,17C13,17 13,16.9 12.9,16.9ZM26.3,33.2C27.4,33.2 28.2,32.3 28.2,31.2L28.2,9.7L34.3,15.6L34.4,15.7C34.5,15.7 34.6,15.8 34.6,15.8C34.6,15.9 34.7,15.9 34.7,15.9C34.8,15.9 34.8,16 34.9,16L36,16C36,16 36.1,16 36.2,16.1C36.2,16 36.3,16 36.3,16C36.3,16 36.4,15.9 36.5,15.9C36.5,15.8 36.6,15.8 36.6,15.8L36.9,15.5C37.6,14.8 37.6,13.6 36.9,12.9L27.6,4C27.5,3.9 27.4,3.9 27.3,3.8C27.1,3.6 26.7,3.5 26.4,3.5C25.9,3.5 25.4,3.7 25,4.1L16.1,14C15.4,14.7 15.4,15.9 16.1,16.6L16.2,16.7C16.2,16.7 16.2,16.8 16.3,16.8L16.4,16.8C16.5,16.8 16.5,16.9 16.6,16.9L17.5,16.9C17.6,16.8 17.6,16.8 17.7,16.8L17.8,16.8C17.9,16.8 17.9,16.7 18,16.7C18,16.6 18.1,16.6 18.1,16.6L18.4,16.3L24.5,9.9L24.5,31.5C24.5,32.1 24.8,32.6 25.2,32.9L25.3,33C25.3,33.1 25.4,33.1 25.4,33.1C25.5,33.1 25.5,33.2 25.6,33.2L26.3,33.2ZM47.4,20.5C49.4,21.9 50.6,24.1 50.8,26.7L50.8,56.1C50.8,60.2 47.4,63.7 43.3,63.9L9.8,65.4L9.5,65.4C7.9,65.4 6.4,64.8 5.2,64C5.1,64 5.1,63.9 5,63.9C4.9,63.9 4.9,63.8 4.8,63.8C4.7,63.8 4.7,63.7 4.6,63.7C4.5,63.7 4.5,63.6 4.4,63.6C4.3,63.6 4.3,63.5 4.2,63.5C4.1,63.5 4.1,63.4 4,63.4C3.9,63.4 3.9,63.3 3.8,63.3C3.7,63.3 3.7,63.2 3.6,63.2C3.5,63.2 3.5,63.1 3.4,63.1C3.3,63.1 3.3,63 3.2,63C1.3,61.7 0,59.5 0,56.9L0,27.2C0,23 3.4,19.5 7.4,19.7L11.1,19.5L11.3,19.5C12.1,19.5 12.9,19.7 13.5,20.2C13.6,20.2 13.6,20.3 13.7,20.3C13.8,20.3 13.8,20.4 13.9,20.4C14,20.4 14,20.5 14.1,20.5C14.2,20.5 14.2,20.6 14.3,20.6C14.4,20.6 14.4,20.7 14.5,20.7C14.6,20.7 14.6,20.8 14.7,20.8C14.8,20.8 14.8,20.9 14.9,20.9C15,20.9 15,21 15.1,21C15.2,21 15.2,21.1 15.3,21.1C15.4,21.1 15.4,21.2 15.5,21.2C16.5,21.9 17.2,23.1 17.2,24.4C17.2,26.4 15.5,28.2 13.4,28.3L9.7,28.5L9.7,56.4L40.9,55L40.9,27L39.4,27.1L39.2,27.1C38.4,27.1 37.6,26.9 37,26.4C36.9,26.4 36.9,26.3 36.8,26.3C36.7,26.3 36.7,26.2 36.6,26.2C36.5,26.2 36.5,26.1 36.4,26.1C36.3,26.1 36.3,26 36.2,26C36.1,26 36.1,25.9 36,25.9C35.9,25.9 35.9,25.8 35.8,25.8C35.7,25.8 35.7,25.7 35.6,25.7C35.5,25.7 35.5,25.6 35.4,25.6C35.3,25.6 35.3,25.5 35.2,25.5C35.1,25.5 35.1,25.4 35,25.4C34,24.7 33.3,23.5 33.3,22.2C33.3,20.2 35,18.4 37.1,18.3L40.8,18.1L41.1,18.1C42.7,18.1 44.2,18.6 45.4,19.5C45.5,19.5 45.5,19.6 45.6,19.6C45.7,19.6 45.7,19.7 45.8,19.7C45.9,19.7 45.9,19.8 46,19.8C46.1,19.8 46.1,19.9 46.2,19.9C46.3,19.9 46.3,20 46.4,20C46.5,20 46.5,20.1 46.6,20.1C46.7,20.1 46.7,20.2 46.8,20.2C46.9,20.2 46.9,20.3 47,20.3C47.1,20.3 47.1,20.4 47.2,20.4C47.3,20.4 47.3,20.5 47.4,20.5ZM13.3,26.3C14.4,26.3 15.2,25.4 15.2,24.3L15.2,23.8C15.2,23.7 15.1,23.7 15.1,23.6L15,23.5C15,23.4 14.9,23.4 14.9,23.3L14.8,23.2C14.8,23.2 14.8,23.1 14.7,23.1L14.6,23C14.6,23 14.6,22.9 14.5,22.9C14.2,22.7 13.9,22.6 13.5,22.6L13.4,22.6L9.7,22.8C6.6,22.9 4.1,25.5 4.1,28.6L4.1,58.4C4.1,60.3 5,61.8 6.4,62.8C6.4,62.9 6.5,62.9 6.5,62.9C6.7,63 7,63.2 7.3,63.3L7.4,63.3L8.3,63.6L8.4,63.6C8.7,63.7 9,63.7 9.3,63.7L9.6,63.7L43,62.6C46.1,62.5 48.6,59.9 48.6,56.8L48.6,27.1C48.6,26.7 48.6,26.3 48.5,26C48.4,25.6 48.3,25.3 48.2,25L48.2,24.9C48,24.6 47.9,24.4 47.7,24.1L47.7,24C47.5,23.8 47.3,23.5 47.1,23.3L47,23.2C46.8,23 46.5,22.8 46.3,22.6C46.3,22.5 46.2,22.5 46.2,22.5C45.3,21.9 44.3,21.6 43.2,21.6L43,21.6L39.3,21.8C38.2,21.8 37.4,22.7 37.4,23.7C37.4,24.3 37.7,24.8 38.1,25.1L38.2,25.2C38.2,25.3 38.3,25.3 38.3,25.3C38.4,25.4 38.4,25.4 38.5,25.4L39.3,25.4L43,25.2L43.9,25.2C44,25.2 44,25.3 44.1,25.3L44.2,25.3C44.7,25.6 45,26.2 45,26.8L45,56.6C45,57.6 44.1,58.5 43.1,58.5L9.6,60L9.5,60C9.1,60 8.7,59.8 8.4,59.5L8.3,59.4C8.3,59.3 8.2,59.2 8.2,59.2L8.1,59.1C8.1,59 8,59 8,58.9C7.9,58.9 7.9,58.8 7.9,58.8C7.8,58.8 7.8,58.7 7.8,58.6L7.8,28.4C7.8,28 8,27.5 8.3,27.1C8.6,26.7 9.1,26.5 9.6,26.5L13.3,26.3Z" style="fill:rgb(188,252,7);"/>
</svg>
