<?xml version="1.0" encoding="UTF-8" standalone="no"?>
<!DOCTYPE svg PUBLIC "-//W3C//DTD SVG 1.1//EN" "http://www.w3.org/Graphics/SVG/1.1/DTD/svg11.dtd">
<svg width="100%" height="100%" viewBox="0 0 57 54" version="1.1" xmlns="http://www.w3.org/2000/svg" xmlns:xlink="http://www.w3.org/1999/xlink" xml:space="preserve" xmlns:serif="http://www.serif.com/" style="fill-rule:evenodd;clip-rule:evenodd;stroke-linecap:round;stroke-linejoin:round;">
    <path d="M15.31,18.81L15.38,18.86C15.43,18.89 15.49,18.91 15.53,18.95C15.71,19.12 15.81,19.35 15.81,19.6L15.81,51.14C15.81,51.62 15.43,52.02 14.95,52.04L3.95,52.52L3.91,52.52C3.68,52.52 3.46,52.43 3.29,52.27C3.27,52.27 3.27,52.25 3.27,52.25C3.22,52.21 3.16,52.19 3.12,52.15C3.1,52.14 3.1,52.12 3.1,52.12C3.05,52.08 2.99,52.06 2.95,52.02C2.93,52.02 2.93,52 2.93,52C2.88,51.97 2.82,51.94 2.78,51.9C2.76,51.89 2.76,51.87 2.76,51.87C2.71,51.83 2.65,51.81 2.61,51.77C2.59,51.77 2.59,51.75 2.59,51.75C2.54,51.71 2.48,51.69 2.44,51.65C2.42,51.65 2.42,51.63 2.42,51.63C2.37,51.59 2.31,51.57 2.27,51.53C2.25,51.52 2.25,51.5 2.25,51.5C2.2,51.46 2.14,51.44 2.1,51.4C2.08,51.4 2.08,51.38 2.08,51.38C2.03,51.35 1.97,51.32 1.93,51.28C1.91,51.27 1.91,51.25 1.91,51.25C1.86,51.21 1.8,51.19 1.76,51.15C1.74,51.15 1.74,51.13 1.74,51.13C1.69,51.09 1.63,51.07 1.59,51.03C1.57,51.02 1.57,51 1.57,51C1.52,50.96 1.46,50.94 1.42,50.9C1.24,50.73 1.14,50.5 1.14,50.25L1.14,18.71C1.14,18.23 1.52,17.83 2,17.81L13,17.33C13.24,17.32 13.48,17.41 13.66,17.58C13.67,17.59 13.68,17.61 13.68,17.61C13.73,17.64 13.79,17.66 13.83,17.7C13.84,17.71 13.85,17.73 13.85,17.73C13.89,17.76 13.95,17.78 13.99,17.82C14,17.83 14.01,17.85 14.01,17.85C14.05,17.88 14.11,17.9 14.15,17.94C14.16,17.95 14.17,17.97 14.17,17.97C14.21,18 14.27,18.02 14.31,18.06C14.32,18.07 14.33,18.09 14.33,18.09C14.38,18.12 14.44,18.14 14.48,18.18C14.49,18.19 14.5,18.21 14.5,18.21C14.54,18.24 14.6,18.26 14.64,18.3C14.65,18.31 14.66,18.33 14.66,18.33C14.7,18.36 14.76,18.38 14.8,18.42C14.81,18.43 14.82,18.45 14.82,18.45C14.86,18.48 14.92,18.5 14.96,18.54C14.97,18.55 14.98,18.57 14.98,18.57C15.02,18.6 15.08,18.62 15.12,18.66C15.13,18.67 15.14,18.69 15.14,18.69C15.19,18.72 15.25,18.74 15.29,18.78C15.3,18.79 15.31,18.81 15.31,18.81ZM13.93,50.23L13.93,20.5L4.73,20.9L4.73,50.63L13.93,50.23ZM13.97,4.07L13.96,4.08C15.13,5.21 15.8,6.72 15.87,8.36C15.9,8.45 15.92,8.54 15.92,8.64C15.92,12.24 13,15.29 9.4,15.45L9.11,15.45C7.66,15.45 6.29,14.97 5.18,14.09C5.13,14.05 5.07,14.01 5.02,13.97C4.96,13.93 4.9,13.89 4.85,13.85C4.8,13.81 4.74,13.77 4.69,13.73C4.64,13.69 4.58,13.65 4.53,13.61C4.47,13.57 4.41,13.53 4.36,13.49C4.31,13.45 4.25,13.41 4.2,13.37C4.14,13.33 4.08,13.29 4.03,13.25C3.98,13.21 3.92,13.17 3.87,13.13C3.81,13.09 3.75,13.05 3.7,13.01C3.64,12.97 3.58,12.93 3.53,12.89C3.32,12.73 3.11,12.56 2.92,12.38C1.68,11.18 0.99,9.56 0.99,7.8C0.99,4.21 3.92,1.15 7.5,0.99C9.04,0.92 10.51,1.41 11.68,2.34C11.73,2.38 11.79,2.42 11.84,2.46C11.9,2.5 11.96,2.54 12.01,2.58C12.06,2.62 12.12,2.66 12.17,2.7C12.23,2.74 12.29,2.78 12.35,2.83C12.4,2.87 12.46,2.91 12.51,2.95C12.57,2.99 12.63,3.03 12.68,3.07C12.73,3.11 12.79,3.15 12.84,3.19C12.89,3.22 12.95,3.26 13,3.3C13.06,3.34 13.12,3.38 13.18,3.43C13.24,3.47 13.29,3.5 13.34,3.54C13.56,3.7 13.77,3.88 13.97,4.07ZM9.33,13.64L9.33,13.63C11.89,13.51 13.98,11.41 14.12,8.88C14.09,8.8 14.08,8.71 14.08,8.62C14.08,7.37 13.59,6.21 12.71,5.36C11.87,4.55 10.76,4.11 9.57,4.11L9.4,4.11C6.76,4.23 4.61,6.48 4.61,9.12C4.61,10.39 5.1,11.55 5.99,12.4C6.88,13.26 8.06,13.69 9.33,13.64ZM51.21,20.47L51.3,20.51C54.16,23.25 55.67,27.65 55.67,33.25L55.67,49.39C55.67,49.87 55.29,50.27 54.81,50.29L42.65,50.82C42.41,50.83 42.17,50.74 41.99,50.57C41.98,50.56 41.97,50.54 41.97,50.54C41.92,50.51 41.86,50.49 41.82,50.45C41.81,50.44 41.8,50.42 41.8,50.42C41.75,50.39 41.69,50.37 41.65,50.33C41.64,50.32 41.63,50.3 41.63,50.3C41.58,50.27 41.52,50.25 41.48,50.21C41.47,50.2 41.46,50.18 41.46,50.18C41.41,50.15 41.35,50.13 41.31,50.09C41.3,50.08 41.29,50.06 41.29,50.06C41.24,50.03 41.18,50.01 41.14,49.97C41.13,49.96 41.12,49.94 41.12,49.94C41.07,49.91 41.01,49.89 40.97,49.85C40.96,49.84 40.95,49.82 40.95,49.82C40.9,49.79 40.84,49.77 40.8,49.73C40.79,49.72 40.78,49.7 40.78,49.7C40.73,49.67 40.67,49.65 40.63,49.61C40.62,49.6 40.61,49.58 40.61,49.58C40.56,49.55 40.5,49.53 40.46,49.49C40.45,49.48 40.44,49.46 40.44,49.46C40.39,49.43 40.33,49.41 40.29,49.37C40.28,49.36 40.27,49.34 40.27,49.34C40.22,49.31 40.16,49.29 40.12,49.25C39.94,49.08 39.84,48.85 39.84,48.6L39.84,32.19C39.85,31.37 39.59,30.6 39.13,29.96C38.75,29.84 38.35,29.76 37.94,29.76C37.88,29.78 37.82,29.79 37.76,29.79C35.57,29.89 33.78,31.75 33.78,33.95L33.78,50.36C33.78,50.84 33.4,51.24 32.92,51.26L21.35,51.77L21.31,51.77C21.08,51.77 20.86,51.68 20.69,51.52C20.67,51.52 20.67,51.5 20.67,51.5C20.62,51.46 20.56,51.44 20.52,51.4C20.5,51.39 20.5,51.37 20.5,51.37C20.45,51.33 20.39,51.31 20.35,51.27C20.33,51.27 20.33,51.25 20.33,51.25C20.28,51.22 20.22,51.19 20.18,51.15C20.16,51.14 20.16,51.12 20.16,51.12C20.11,51.08 20.05,51.06 20.01,51.02C19.99,51.02 19.99,51 19.99,51C19.94,50.96 19.88,50.94 19.84,50.9C19.82,50.9 19.82,50.88 19.82,50.88C19.77,50.84 19.71,50.82 19.67,50.78C19.65,50.77 19.65,50.75 19.65,50.75C19.6,50.71 19.54,50.69 19.5,50.65C19.48,50.65 19.48,50.63 19.48,50.63C19.43,50.6 19.37,50.57 19.33,50.53C19.31,50.52 19.31,50.5 19.31,50.5C19.26,50.46 19.2,50.44 19.16,50.4C19.14,50.4 19.14,50.38 19.14,50.38C19.09,50.34 19.03,50.32 18.99,50.28C18.97,50.27 18.97,50.25 18.97,50.25C18.92,50.21 18.86,50.19 18.82,50.15C18.64,49.98 18.54,49.75 18.54,49.5L18.54,17.96C18.54,17.48 18.92,17.08 19.4,17.06L30.97,16.55C31.21,16.54 31.45,16.63 31.63,16.8C31.64,16.81 31.65,16.83 31.65,16.83C31.69,16.86 31.75,16.88 31.79,16.92C31.8,16.93 31.81,16.95 31.81,16.95C31.86,16.98 31.92,17 31.96,17.04C31.97,17.05 31.98,17.07 31.98,17.07C32.03,17.1 32.09,17.12 32.13,17.16C32.14,17.17 32.15,17.19 32.15,17.19C32.2,17.22 32.26,17.24 32.3,17.28C32.31,17.29 32.32,17.31 32.32,17.31C32.37,17.34 32.43,17.36 32.47,17.4C32.48,17.41 32.49,17.43 32.49,17.43C32.53,17.46 32.59,17.48 32.63,17.52C32.64,17.53 32.65,17.55 32.65,17.55C32.69,17.58 32.75,17.6 32.79,17.64C32.8,17.65 32.81,17.67 32.81,17.67C32.86,17.7 32.92,17.72 32.96,17.76C32.97,17.77 32.98,17.79 32.98,17.79C33.03,17.82 33.09,17.84 33.13,17.88C33.14,17.89 33.15,17.91 33.15,17.91C33.19,17.94 33.25,17.96 33.29,18C33.3,18.01 33.31,18.03 33.31,18.03C33.35,18.06 33.41,18.08 33.45,18.12C33.47,18.14 33.48,18.17 33.5,18.19C35.7,16.97 38.14,16.24 40.64,16.1C43.71,15.97 46.42,16.77 48.55,18.43C48.61,18.47 48.67,18.51 48.72,18.55C48.77,18.59 48.83,18.63 48.88,18.67C48.94,18.71 49,18.75 49.05,18.79C49.1,18.83 49.16,18.87 49.21,18.91C49.27,18.95 49.33,18.99 49.38,19.03C49.44,19.07 49.5,19.11 49.55,19.15C49.6,19.19 49.66,19.23 49.71,19.27C49.77,19.31 49.83,19.35 49.88,19.39C49.93,19.43 49.99,19.47 50.04,19.51C50.1,19.55 50.16,19.59 50.21,19.63C50.56,19.89 50.89,20.17 51.21,20.47ZM53.76,48.49L53.76,33.21C53.76,28.11 52.44,24.16 49.95,21.77C48.07,19.97 45.51,19.09 42.54,19.22C39.21,19.41 35.96,20.77 33.41,23.04C33.14,23.28 32.76,23.33 32.44,23.19C32.12,23.05 31.91,22.73 31.91,22.37L31.91,19.71L22.14,20.14L22.14,49.87L31.91,49.44L31.91,33.89C31.91,30.82 34.35,28.2 37.4,27.95C37.47,27.93 37.54,27.91 37.62,27.91C39.14,27.84 40.64,28.4 41.72,29.44C42.8,30.47 43.41,31.95 43.41,33.47L43.41,48.94L53.76,48.49Z" style="fill:rgb(69,137,246);stroke:rgb(69,137,246);stroke-width:1.98px;"/>
</svg>
