<?xml version="1.0" encoding="UTF-8" standalone="no"?>
<!DOCTYPE svg PUBLIC "-//W3C//DTD SVG 1.1//EN" "http://www.w3.org/Graphics/SVG/1.1/DTD/svg11.dtd">
<svg width="100%" height="100%" viewBox="0 0 54 54" version="1.1" xmlns="http://www.w3.org/2000/svg" xmlns:xlink="http://www.w3.org/1999/xlink" xml:space="preserve" xmlns:serif="http://www.serif.com/" style="fill-rule:evenodd;clip-rule:evenodd;stroke-linejoin:round;stroke-miterlimit:2;">
    <path d="M50.96,53.37C50.28,53.37 49.62,53.13 49.11,52.69C49.07,52.67 49.01,52.62 48.95,52.57C48.92,52.56 48.85,52.51 48.79,52.45C48.76,52.44 48.7,52.39 48.64,52.34C48.6,52.32 48.54,52.27 48.48,52.22C48.45,52.2 48.38,52.16 48.33,52.11C48.29,52.09 48.23,52.05 48.18,52C48.13,51.97 48.07,51.93 48.02,51.88C47.98,51.86 47.92,51.82 47.86,51.76C47.83,51.75 47.76,51.7 47.7,51.64C47.67,51.63 47.61,51.58 47.55,51.53C47.51,51.51 47.45,51.46 47.39,51.41L39.25,44.52L38.4,46.51C37.96,47.55 36.95,48.25 35.83,48.29L5.8,49.6C4.95,49.65 4.12,49.4 3.4,48.89C3.39,48.89 3.32,48.84 3.26,48.79C3.22,48.76 3.16,48.72 3.1,48.67C3.07,48.65 3,48.6 2.94,48.55C2.91,48.53 2.85,48.48 2.79,48.44C2.75,48.41 2.69,48.37 2.64,48.33C2.6,48.3 2.54,48.26 2.48,48.22C2.43,48.19 2.37,48.14 2.31,48.09C2.28,48.07 2.22,48.02 2.15,47.98C2.12,47.96 2.06,47.92 2,47.87C1.96,47.84 1.9,47.8 1.84,47.76C1.62,47.62 1.4,47.45 1.2,47.27C0.43,46.54 0.01,45.54 0.01,44.47L0.01,5.99C0,3.85 1.74,2.03 3.88,1.94L48.11,0C48.96,-0.05 49.8,0.2 50.51,0.71C50.53,0.71 50.59,0.76 50.64,0.81C50.68,0.84 50.74,0.88 50.8,0.93C50.84,0.96 50.9,1 50.96,1.05C51,1.08 51.07,1.12 51.13,1.17C51.16,1.19 51.22,1.23 51.28,1.28C51.32,1.3 51.38,1.35 51.43,1.39C51.48,1.43 51.54,1.47 51.6,1.51C51.63,1.53 51.69,1.57 51.74,1.62C51.79,1.65 51.85,1.7 51.91,1.74C51.94,1.76 52.01,1.81 52.07,1.86C52.28,1.99 52.5,2.16 52.69,2.34C53.45,3.07 53.88,4.07 53.88,5.14L53.88,50.45C53.88,52 52.62,53.31 51.08,53.38L50.96,53.38L50.96,53.37ZM39.04,40.32C39.72,40.32 40.37,40.56 40.89,41L50.29,48.96L50.29,5.13C50.29,5.05 50.27,4.98 50.22,4.94C50.16,4.88 50.08,4.87 50.02,4.87L5.78,6.8C5.55,6.81 5.35,7.02 5.35,7.25L5.35,45.75C5.35,45.83 5.37,45.9 5.42,45.94C5.49,46 5.58,46.01 5.64,46.01L35.24,44.72L36.35,42.11C36.47,41.83 36.63,41.57 36.83,41.34C37.39,40.7 38.19,40.33 39.04,40.33L39.04,40.32ZM16.82,37.67C15.64,37.67 14.52,37.22 13.69,36.41C11.31,34.09 8.64,30.49 9.43,26.52C10.55,22.14 12.09,17.9 14.02,13.86C14.85,12.05 16.68,10.81 18.67,10.72L36.79,9.93C38.85,9.84 40.73,10.97 41.6,12.81C43.52,16.66 45.06,20.76 46.16,24.97C46.16,25 46.18,25.06 46.19,25.08C46.99,28.94 44.34,32.74 41.98,35.24C41.69,35.54 41.37,35.81 41.02,36.02C39.94,36.69 38.68,36.89 37.47,36.59C36.3,36.3 35.32,35.57 34.71,34.54L32.77,31.22C32.68,31.07 32.53,30.99 32.35,31L23.44,31.39C23.21,31.39 22.99,31.54 22.87,31.76L20.93,35.25C20.24,36.49 18.99,37.38 17.6,37.62C17.35,37.66 17.09,37.69 16.82,37.69L16.82,37.67ZM37.02,13.52L18.83,14.31C18.17,14.34 17.57,14.76 17.29,15.37C15.45,19.22 13.99,23.23 12.95,27.31C12.47,29.73 14.79,32.43 16.21,33.82C16.41,34.01 16.7,34.09 16.99,34.04C17.32,33.98 17.62,33.76 17.79,33.47L19.73,29.99C20.45,28.69 21.82,27.84 23.3,27.78L32.19,27.39C33.71,27.32 35.13,28.09 35.89,29.39L37.83,32.71C37.94,32.9 38.12,33.03 38.35,33.09C38.62,33.15 38.89,33.11 39.14,32.95C39.22,32.9 39.3,32.83 39.37,32.76C41.87,30.11 43.04,27.64 42.67,25.8C41.64,21.88 40.19,18.02 38.37,14.38C38.12,13.85 37.61,13.53 37.02,13.53L37.02,13.52ZM21.83,23.36C21.1,23.36 20.4,23.08 19.87,22.57C19.31,22.03 19,21.31 19,20.52C19,18.97 20.26,17.66 21.8,17.59L21.92,17.59C22.67,17.59 23.36,17.87 23.89,18.38C24.45,18.92 24.76,19.64 24.76,20.43C24.76,21.98 23.5,23.29 21.96,23.36L21.83,23.36ZM33.7,22.84C32.96,22.84 32.27,22.56 31.74,22.06C31.18,21.52 30.87,20.79 30.87,20.01C30.87,18.46 32.13,17.15 33.67,17.08C34.46,17.05 35.2,17.33 35.76,17.86C36.32,18.4 36.63,19.13 36.63,19.91C36.63,21.46 35.37,22.77 33.83,22.84L33.7,22.84Z" style="fill:rgb(69,137,246);"/>
</svg>
