<?xml version="1.0" encoding="UTF-8" standalone="no"?>
<!DOCTYPE svg PUBLIC "-//W3C//DTD SVG 1.1//EN" "http://www.w3.org/Graphics/SVG/1.1/DTD/svg11.dtd">
<svg width="100%" height="100%" viewBox="0 0 59 36" version="1.1" xmlns="http://www.w3.org/2000/svg" xmlns:xlink="http://www.w3.org/1999/xlink" xml:space="preserve" xmlns:serif="http://www.serif.com/" style="fill-rule:evenodd;clip-rule:evenodd;stroke-linejoin:round;stroke-miterlimit:2;">
    <path d="M20,30.4L9.7,20.4L54.8,18.4C55.7,18.4 56.5,17.6 56.5,16.7L56.5,16.3C56.5,16.2 56.5,16.2 56.4,16.1C56.4,16.1 56.4,16 56.3,16C56.3,15.9 56.3,15.9 56.2,15.8L55.8,15.4C55.6,15.2 55.3,15.1 54.9,15.1L54.8,15.1L9.7,17.1L20,6.3C20.4,5.9 20.6,5.2 20.5,4.7C20.4,4.1 19.9,3.7 19.3,3.6L19,3.6C18.5,3.6 18,3.8 17.7,4.2L4.5,17.8C4.2,18.1 4,18.6 4,19C4,19.4 4.2,19.9 4.5,20.1L17.7,32.7C17.8,32.8 18,32.9 18.2,33L18.3,33C18.5,33.1 18.6,33.1 18.8,33.1L19.2,33.1C19.3,33.1 19.3,33.1 19.4,33L19.5,33C19.6,33 19.6,32.9 19.7,32.9C19.7,32.9 19.8,32.9 19.8,32.8C19.9,32.7 20,32.6 20.1,32.6C20.6,32 20.6,31 20,30.4Z" style="fill:white;fill-rule:nonzero;"/>
    <path d="M56.8,13.7C56.7,13.6 56.5,13.5 56.4,13.5C56.3,13.4 56.1,13.3 56,13.3C55.9,13.2 55.9,13.2 55.8,13.2C55.8,13 55.7,13 55.7,13C55.6,12.9 55.4,12.8 55.3,12.8C55.2,12.7 55,12.6 54.9,12.6C54.3,12.2 53.6,11.9 52.8,11.9L52.6,11.9L16.1,13.5L21.5,7.9C22.4,7 22.8,5.6 22.5,4.4C22.3,3.5 21.7,2.8 21,2.3C21,2.1 20.9,2 20.9,2C20.8,2 20.8,1.9 20.7,1.9C20.6,1.9 20.6,1.8 20.5,1.8C20.4,1.8 20.4,1.7 20.3,1.7C20.2,1.7 20.2,1.6 20.1,1.6C20,1.6 20,1.5 19.9,1.5C19.8,1.5 19.8,1.4 19.7,1.4C19.6,1.4 19.6,1.3 19.5,1.3C19.4,1.3 19.4,1.2 19.3,1.2C19.2,1.1 19.2,1.1 19.1,1.1C18.7,0.8 18.2,0.5 17.6,0.4C17.4,0.4 17.1,0.3 16.8,0.3C15.8,0.3 14.8,0.7 14.1,1.5L1,15C0.3,15.7 0,16.6 0,17.6C0,18.6 0.4,19.5 1.1,20.2L14.3,32.8C14.5,33 14.6,33.1 14.8,33.2C14.9,33.2 14.9,33.3 15,33.3C15.1,33.3 15.1,33.4 15.2,33.4C15.3,33.4 15.3,33.5 15.4,33.5C15.5,33.5 15.5,33.6 15.6,33.6C15.7,33.6 15.7,33.7 15.8,33.7C15.9,33.7 15.9,34 16,34C16.1,34 16.1,34.1 16.2,34.1C16.3,34.1 16.3,34.2 16.4,34.2C16.5,34.2 16.5,34.3 16.6,34.3C16.7,34.3 16.7,34.4 16.8,34.4C17.4,34.8 18.1,35 18.8,35C19.8,35 20.9,34.5 21.6,33.8C22.9,32.4 22.9,30.2 21.5,28.8L14.5,22.1L54.9,20.3C56.9,20.2 58.5,18.5 58.5,16.6C58.4,15.4 57.7,14.3 56.8,13.7ZM19.8,32.9C19.8,32.9 19.7,32.9 19.7,33C19.6,33 19.6,33.1 19.5,33.1L19.4,33.1C19.3,33.1 19.3,33.1 19.2,33.2L18.8,33.2C18.6,33.2 18.5,33.2 18.3,33.1L18.2,33.1C18,33 17.9,32.9 17.7,32.8L4.5,20.2C4.2,19.9 4,19.5 4,19C4,18.5 4.2,18.1 4.5,17.8L17.7,4C18,3.7 18.5,3.5 19,3.5L19.3,3.5C19.9,3.6 20.3,4.1 20.5,4.6C20.6,5.2 20.5,5.8 20,6.2L9.7,17.1L54.8,15.1L54.9,15.1C55.2,15.1 55.5,15.2 55.8,15.4L56.2,15.8C56.2,15.9 56.3,15.9 56.3,16C56.3,16 56.3,16.1 56.4,16.1C56.4,16.2 56.4,16.2 56.5,16.3L56.5,16.7C56.5,17.6 55.8,18.4 54.8,18.4L9.7,20.4L20,30.4C20.6,31 20.6,32 20,32.6C20,32.7 19.9,32.8 19.8,32.9Z" style="fill:rgb(188,252,7);fill-rule:nonzero;"/>
</svg>
