<?xml version="1.0" encoding="UTF-8" standalone="no"?>
<!DOCTYPE svg PUBLIC "-//W3C//DTD SVG 1.1//EN" "http://www.w3.org/Graphics/SVG/1.1/DTD/svg11.dtd">
<svg width="100%" height="100%" viewBox="0 0 40 70" version="1.1" xmlns="http://www.w3.org/2000/svg" xmlns:xlink="http://www.w3.org/1999/xlink" xml:space="preserve" xmlns:serif="http://www.serif.com/" style="fill-rule:evenodd;clip-rule:evenodd;stroke-linejoin:round;stroke-miterlimit:2;">
    <path d="M36.5,63.9L8.2,36.8C8.1,36.7 8.1,36.6 8.2,36.5L36.5,6.8C37.3,6 37.3,4.7 36.5,4C36.4,3.9 36.3,3.8 36.2,3.8C35.9,3.6 35.5,3.5 35.2,3.5C34.7,3.5 34.1,3.7 33.7,4.1L5.3,33.7C4.5,34.5 4,35.7 4,36.8C4,38 4.5,39 5.3,39.8L33.6,66.9C33.6,67 33.7,67 33.8,67.1L33.9,67.2C33.9,67.2 34,67.2 34,67.3C34.1,67.4 34.2,67.4 34.3,67.4L34.4,67.4C34.6,67.4 34.7,67.5 34.9,67.5C35.1,67.5 35.3,67.5 35.5,67.4C35.7,67.3 35.9,67.3 36,67.2C36.2,67.1 36.3,67 36.5,66.8C37.3,65.8 37.3,64.6 36.5,63.9Z" style="fill:white;fill-rule:nonzero;"/>
    <path d="M37.8,62.4L10.8,36.5L37.9,8.2C38.6,7.4 39.1,6.4 39.1,5.4C39.1,4.4 38.7,3.3 37.9,2.6C37.7,2.4 37.5,2.3 37.3,2.1C37.2,2.1 37.2,2 37.1,2C37,2 37,1.9 36.9,1.9C36.8,1.9 36.8,1.8 36.7,1.8C36.6,1.8 36.6,1.7 36.5,1.7C36.4,1.7 36.4,1.6 36.3,1.6C36.2,1.6 36.2,1.5 36.1,1.5C36,1.5 36,1.2 36,1.1C36,1 35.9,1.1 35.8,1C35.7,1 35.7,0.9 35.6,0.9C35.5,0.9 35.5,0.8 35.4,0.8C34.8,0.3 34,0 33.2,0C32.1,0 31,0.5 30.2,1.3L1.9,30.8C0.7,32 0,33.6 0,35.3C0,37 0.7,38.6 2,39.8L30.2,66.8C30.4,67 30.6,67.2 30.9,67.3C31,67.3 31,67.4 31.1,67.4C31.2,67.4 31.2,67.5 31.3,67.5C31.4,67.5 31.4,67.6 31.5,67.6C31.6,67.7 31.6,67.7 31.7,67.7C31.8,67.7 31.8,67.8 31.9,67.8C32,67.8 32,67.9 32.1,67.9C32.2,68 32.2,68 32.3,68C32.4,68 32.4,68.1 32.5,68.1C32.6,68.1 32.6,68.2 32.7,68.2C32.8,68.2 32.8,68.3 32.9,68.3C33.6,68.8 34.4,69.1 35.2,69.1C35.6,69.1 36,69 36.4,68.9C37.1,68.7 37.8,68.3 38.3,67.7C39,66.9 39.4,65.8 39.3,64.7C39,64 38.6,63 37.8,62.4ZM36.1,67.1C35.9,67.2 35.8,67.3 35.6,67.3C35.4,67.4 35.2,67.4 35,67.4C34.8,67.4 34.7,67.4 34.5,67.3L34.4,67.3C34.3,67.3 34.2,67.2 34.1,67.2C34.1,67.2 34,67.2 34,67.1C34,67.1 33.8,66.9 33.7,66.8L5.3,39.8C4.5,39 4,37.9 4,36.8C4,35.6 4.5,34.5 5.3,33.7L33.6,4.1C34,3.7 34.6,3.4 35.1,3.4C35.5,3.4 35.8,3.5 36.1,3.7C36.2,3.8 36.3,3.9 36.4,3.9C37.2,4.7 37.2,5.9 36.4,6.7L8.2,36.4C8.1,36.5 8.1,36.6 8.2,36.7L36.5,63.8C37.3,64.5 37.4,65.8 36.6,66.6C36.5,66.9 36.3,67 36.1,67.1Z" style="fill:rgb(188,252,7);fill-rule:nonzero;"/>
</svg>
