<?xml version="1.0" encoding="UTF-8" standalone="no"?>
<!DOCTYPE svg PUBLIC "-//W3C//DTD SVG 1.1//EN" "http://www.w3.org/Graphics/SVG/1.1/DTD/svg11.dtd">
<svg width="100%" height="100%" viewBox="0 0 64 64" version="1.1" xmlns="http://www.w3.org/2000/svg" xmlns:xlink="http://www.w3.org/1999/xlink" xml:space="preserve" xmlns:serif="http://www.serif.com/" style="fill-rule:evenodd;clip-rule:evenodd;stroke-linejoin:round;stroke-miterlimit:2;">
    <path id="fill" d="M62,31.2C62,23.4 59,16.3 53.6,11.1C48.5,6.2 41.7,3.5 34.4,3.5L33.1,3.5C17,4.2 4,17.8 4,33.8C4,41.6 7,48.7 12.4,53.9C17.8,59.1 25.1,61.8 32.9,61.5C49,60.8 62,47.2 62,31.2ZM45.1,31.1C45.6,32 45.2,33.2 44.2,33.7L29.2,43.7C28.5,44.1 27.7,44.1 27.1,43.8C26.4,43.5 26,42.8 26,42.1L26,23.6C26,22.9 26.4,22.2 27.1,21.8C27.8,21.4 28.6,21.4 29.2,21.7L44.2,30.3C44.6,30.4 44.9,30.7 45.1,31.1Z" style="fill:white;fill-rule:nonzero;"/>
    <path id="outline" d="M54.9,9.6C60.8,15.2 64,22.9 64,31.2C64,48.2 50.1,62.7 33.2,63.1L31.8,63.1C25.4,63.1 19.4,61.2 14.4,57.6C14.3,57.6 14.3,57.5 14.2,57.5C14.1,57.5 14.1,57.4 14,57.4C13.9,57.4 13.9,57.3 13.8,57.3C13.7,57.3 13.7,57.2 13.6,57.2C13.5,57.2 13.5,57.1 13.4,57.1C13.3,57.1 13.3,57 13.2,57C13.1,57 13.1,56.9 13,56.9C12.9,56.9 12.9,56.8 12.8,56.8C12.7,56.8 12.7,56.7 12.6,56.7C12.5,56.7 12.5,56.6 12.4,56.6C11.3,55.7 10.2,54.8 9.1,53.8C3.2,48.3 0,40.6 0,32.3C0,15.3 13.9,0.8 30.9,0C37.8,-0.3 44.2,1.6 49.4,5.6L49.6,5.8C49.7,5.8 49.7,5.9 49.8,5.9C49.9,5.9 49.9,6 50,6C50.1,6 50.1,6 50.2,6.1C50.3,6.1 50.3,6.2 50.4,6.2C50.5,6.2 50.5,6.2 50.6,6.3C50.7,6.3 50.7,6.4 50.8,6.4C50.9,6.4 50.9,6.4 51,6.5C51.1,6.5 51.1,6.6 51.2,6.6C51.3,6.6 51.3,6.7 51.4,6.7C52.6,7.6 53.8,8.5 54.9,9.6ZM33,61.5C49,60.8 62,47.2 62,31.2C62,23.4 59,16.3 53.5,11.1C48.3,6.2 41.6,3.5 34.3,3.5L33,3.5C17,4.2 4,17.8 4,33.8C4,41.5 7,48.7 12.5,53.9C18,59.2 25.2,61.8 33,61.5ZM44.2,30.2C44.6,30.4 44.9,30.7 45.1,31C45.6,31.9 45.2,33.1 44.2,33.6L29.2,43.6C28.6,44 27.8,44 27.1,43.7C26.4,43.4 26,42.7 26,42L26,23.5C26,22.7 26.4,22.1 27.1,21.7C27.7,21.3 28.5,21.3 29.2,21.6L44.2,30.2Z" style="fill:rgb(188,252,7);"/>
</svg>
