<?xml version="1.0" encoding="UTF-8" standalone="no"?>
<!DOCTYPE svg PUBLIC "-//W3C//DTD SVG 1.1//EN" "http://www.w3.org/Graphics/SVG/1.1/DTD/svg11.dtd">
<svg width="100%" height="100%" viewBox="0 0 57 57" version="1.1" xmlns="http://www.w3.org/2000/svg" xmlns:xlink="http://www.w3.org/1999/xlink" xml:space="preserve" xmlns:serif="http://www.serif.com/" style="fill-rule:evenodd;clip-rule:evenodd;stroke-linejoin:round;stroke-miterlimit:2;">
    <path d="M55.71,42.63L55.65,42.67C56.89,43.96 57.13,45.92 56.21,47.54C55.31,49.15 53.51,50.01 51.73,49.69L48.27,49.04C47.6,48.92 46.88,49.38 46.66,50.08L45.6,53.53C45.12,55.26 43.51,56.54 41.7,56.62L41.52,56.62C40.6,56.62 39.74,56.31 39.06,55.77C38.99,55.73 38.93,55.69 38.87,55.64C38.8,55.59 38.74,55.55 38.68,55.5C38.62,55.46 38.56,55.42 38.5,55.37C38.43,55.32 38.37,55.28 38.31,55.23C38.25,55.19 38.19,55.15 38.13,55.1C38.07,55.06 38.01,55.02 37.95,54.97C37.89,54.93 37.83,54.89 37.77,54.84C37.71,54.8 37.65,54.76 37.59,54.71C36.86,54.21 36.3,53.47 36.05,52.57L35.12,49.62L35.11,49.62L31.67,50.57C30.34,50.93 28.95,50.59 27.95,49.75C27.89,49.71 27.83,49.67 27.77,49.62C27.71,49.58 27.65,49.54 27.59,49.49C27.53,49.45 27.47,49.41 27.41,49.36C27.35,49.31 27.28,49.27 27.22,49.22C27.16,49.17 27.1,49.14 27.04,49.09C26.97,49.05 26.91,49.01 26.85,48.96C26.78,48.91 26.72,48.87 26.66,48.82C26.6,48.78 26.54,48.74 26.48,48.69C26.08,48.39 25.73,48.02 25.46,47.57C25.18,47.09 25.02,46.58 24.95,46.06L18.9,52.61L18.97,52.2L18.72,52.47L18.79,52.07L18.54,52.34L18.61,51.93L18.36,52.2L18.43,51.8L18.18,52.07L18.25,51.66L18,51.93L18.07,51.52L17.82,51.79L17.89,51.39L17.64,51.66L17.71,51.25L17.46,51.52L17.53,51.11L17.28,51.38L17.35,50.97L17.1,51.24L18.97,39.93L9.93,40.32L9.57,40.32C7.79,40.32 6.11,39.74 4.75,38.66C4.69,38.62 4.63,38.58 4.57,38.53C4.51,38.48 4.45,38.45 4.39,38.4C4.33,38.35 4.26,38.31 4.2,38.26C4.14,38.21 4.07,38.17 4.01,38.12C3.95,38.08 3.89,38.04 3.83,37.99C3.77,37.95 3.71,37.91 3.65,37.86C3.59,37.81 3.52,37.77 3.46,37.72C3.4,37.68 3.34,37.64 3.28,37.59C3.22,37.55 3.16,37.51 3.1,37.46C2.85,37.27 2.6,37.07 2.37,36.85C0.84,35.39 0,33.39 0,31.23L0,10.06C0,5.65 3.59,1.89 8.01,1.7L46.82,0C48.73,-0.07 50.52,0.5 51.96,1.63C52.03,1.68 52.1,1.72 52.16,1.77C52.22,1.82 52.29,1.86 52.35,1.91C52.41,1.95 52.47,1.99 52.53,2.04C52.59,2.08 52.65,2.12 52.71,2.17C52.77,2.21 52.83,2.25 52.89,2.3C52.96,2.35 53.02,2.39 53.08,2.44C53.14,2.49 53.21,2.53 53.27,2.58C53.33,2.62 53.39,2.66 53.45,2.71C53.52,2.76 53.58,2.8 53.64,2.85C53.9,3.04 54.15,3.24 54.39,3.47C55.92,4.94 56.76,6.93 56.76,9.09L56.76,32.02C56.98,33.17 56.67,34.42 55.86,35.4L55.77,35.81L55.71,35.58L53.39,38.26C52.91,38.81 52.9,39.63 53.36,40.12L55.71,42.63ZM22.01,46.3L28.28,39.51L23.1,39.74L22.01,46.3ZM9.85,38.31L9.86,38.33L28.45,37.52L27.73,36.76C26.5,35.5 26.26,33.49 27.16,31.89C28.07,30.28 29.87,29.41 31.65,29.74L35.11,30.39C35.8,30.51 36.52,30.06 36.72,29.37L37.76,25.91C38.28,24.2 39.88,22.96 41.64,22.88C43.43,22.81 45.07,23.94 45.6,25.64L46.72,28.98C46.93,29.63 47.6,29.98 48.27,29.81L51.72,28.86C51.97,28.79 52.22,28.75 52.47,28.73L52.7,28.73C52.87,28.72 53.04,28.72 53.21,28.74C53.3,28.75 53.39,28.77 53.48,28.78C53.63,28.8 53.77,28.83 53.92,28.87C54.01,28.89 54.1,28.92 54.19,28.95C54.33,29 54.47,29.06 54.6,29.13C54.65,29.15 54.71,29.17 54.77,29.2L54.77,9.1C54.77,7.5 54.14,6.01 53.01,4.93C51.94,3.91 50.53,3.35 49.02,3.35L48.75,3.35L9.94,5.04C6.58,5.18 3.84,8.04 3.84,11.4L3.84,32.56C3.84,34.17 4.46,35.66 5.59,36.74C6.72,37.82 8.25,38.38 9.85,38.31ZM54.53,46.52L54.48,46.51C54.96,45.67 54.85,44.66 54.21,44L51.85,41.48C50.67,40.25 50.66,38.25 51.83,36.93L54.18,34.22C54.76,33.58 54.93,32.74 54.64,31.99C54.59,31.83 54.55,31.74 54.5,31.65C54.04,30.87 53.12,30.51 52.19,30.76L48.74,31.71C47.05,32.16 45.3,31.22 44.77,29.58L43.64,26.23C43.37,25.35 42.57,24.82 41.67,24.85C40.74,24.89 39.9,25.55 39.62,26.46L38.59,29.91C38.09,31.58 36.42,32.63 34.71,32.33L31.24,31.68C30.32,31.51 29.34,31.99 28.86,32.84C28.38,33.68 28.49,34.69 29.13,35.35L31.51,37.89C32.71,39.08 32.72,41.09 31.51,42.42L29.18,45.12C28.52,45.86 28.4,46.91 28.86,47.69C29.33,48.48 30.25,48.84 31.17,48.59L34.63,47.64C34.92,47.57 35.21,47.53 35.5,47.53C36.92,47.53 38.19,48.41 38.61,49.79L39.67,53.15C39.93,54.06 40.74,54.62 41.66,54.58C42.62,54.53 43.47,53.85 43.73,52.92L44.8,49.44C45.33,47.77 46.99,46.73 48.68,47.03L52.15,47.68C53.08,47.85 54.04,47.38 54.53,46.52ZM45.82,37.82L45.81,37.82C45.93,38.09 46.01,38.36 46.07,38.64C46.13,38.94 46.16,39.24 46.16,39.54C46.16,42.01 44.15,44.11 41.68,44.22L41.48,44.22C40.34,44.22 39.27,43.79 38.45,43.01C37.59,42.18 37.11,41.06 37.11,39.84C37.11,39.54 37.14,39.24 37.2,38.94C37.26,38.65 37.35,38.36 37.48,38.07C37.52,37.91 37.62,37.71 37.75,37.53C37.91,37.21 38.13,36.91 38.42,36.61C38.65,36.37 38.87,36.19 39.1,36.03C39.31,35.86 39.58,35.73 39.83,35.61C40.11,35.48 40.39,35.37 40.69,35.3C40.99,35.23 41.29,35.18 41.59,35.17C41.9,35.16 42.2,35.18 42.5,35.22C42.8,35.26 43.09,35.34 43.38,35.46C43.62,35.55 43.92,35.67 44.2,35.87C44.37,35.97 44.59,36.14 44.83,36.37C45.12,36.65 45.35,36.94 45.52,37.25C45.64,37.42 45.74,37.61 45.82,37.82ZM41.6,42.22C43.02,42.16 44.17,40.96 44.17,39.54C44.17,39.38 44.15,39.21 44.12,39.04C44.09,38.9 44.05,38.76 43.98,38.61L43.79,38.26C43.72,38.11 43.61,37.97 43.45,37.82C43.32,37.7 43.22,37.62 43.12,37.56C42.95,37.45 42.8,37.39 42.64,37.32C42.49,37.26 42.35,37.22 42.2,37.2C42.07,37.18 41.93,37.17 41.8,37.17L41.69,37.17C41.52,37.17 41.35,37.2 41.18,37.24C41.02,37.28 40.87,37.33 40.72,37.41C40.54,37.49 40.39,37.57 40.29,37.65C40.12,37.77 40.01,37.87 39.88,38C39.71,38.17 39.59,38.33 39.51,38.5L39.4,38.67C39.39,38.69 39.37,38.73 39.35,38.78C39.25,39.03 39.2,39.18 39.17,39.33C39.14,39.5 39.12,39.67 39.12,39.84C39.12,40.51 39.38,41.12 39.84,41.57C40.3,42.02 40.94,42.26 41.6,42.22Z"/>
</svg>
