<?xml version="1.0" encoding="UTF-8" standalone="no"?>
<!DOCTYPE svg PUBLIC "-//W3C//DTD SVG 1.1//EN" "http://www.w3.org/Graphics/SVG/1.1/DTD/svg11.dtd">
<svg width="100%" height="100%" viewBox="0 0 59 11" version="1.1" xmlns="http://www.w3.org/2000/svg" xmlns:xlink="http://www.w3.org/1999/xlink" xml:space="preserve" xmlns:serif="http://www.serif.com/" style="fill-rule:evenodd;clip-rule:evenodd;stroke-linejoin:round;stroke-miterlimit:2;">
    <path d="M56.4,5.1L56.4,4.7C56.4,4.6 56.4,4.6 56.3,4.5C56.3,4.5 56.3,4.4 56.2,4.4C56.2,4.3 56.2,4.3 56.1,4.2L56,4.1C56,4 56,4 55.9,3.9L55.7,3.7C55.5,3.5 55.2,3.4 54.8,3.4L54.7,3.4L5.7,5.6C4.8,5.7 4,6.4 4,7.3C4,7.8 4.2,8.2 4.6,8.5L4.7,8.6C4.7,8.6 4.8,8.6 4.8,8.7C4.9,8.7 4.9,8.8 5,8.8L5.7,8.8L54.8,6.7C55.7,6.7 56.4,5.9 56.4,5.1Z" style="fill:white;fill-rule:nonzero;"/>
    <path d="M56.8,2C56.7,2 56.7,1.9 56.6,1.9C56.5,1.9 56.5,1.8 56.4,1.8C56.3,1.8 56.3,1.7 56.2,1.7C56.1,1.7 56.1,1.6 56,1.6C55.9,1.6 55.9,1.5 55.8,1.5C55.7,1.5 55.7,1.4 55.6,1.4C55.5,1.4 55.5,1.3 55.4,1.3C55.3,1.3 55.3,1.2 55.2,1.2C55.1,1.1 55.1,1.1 55,1.1C55.1,0.8 55,0.8 55,0.8C54.4,0.3 53.6,0 52.8,0L52.6,0L3.6,2.2C1.6,2.2 0,3.9 0,5.9C0,7.2 0.7,8.3 1.6,8.9C1.7,8.9 1.8,9 1.8,9C1.9,9.1 2.1,9.2 2.2,9.2C2.3,9.3 2.5,9.4 2.6,9.4C2.7,9.5 2.9,9.6 3,9.6C3,9.8 3,9.9 3.1,9.9C3.1,10 3.2,10 3.3,10C3.4,10.1 3.4,10.1 3.5,10.1C4.1,10.5 4.8,10.8 5.6,10.8L5.8,10.8L54.9,8.7C56.9,8.6 58.5,6.9 58.5,5C58.4,3.8 57.7,2.7 56.8,2ZM54.8,6.8L5.7,8.9L5,8.9C5,8.8 4.9,8.8 4.9,8.8C4.9,8.8 4.8,8.8 4.8,8.7C4.7,8.7 4.7,8.6 4.7,8.6C4.3,8.3 4,7.9 4,7.4C4,6.5 4.7,5.7 5.7,5.7L54.8,3.6L54.9,3.6C55.2,3.6 55.5,3.7 55.8,3.9L55.9,4C55.9,4 56,4 56,4.1C56,4 56.1,4.2 56.1,4.2C56.1,4.3 56.2,4.3 56.2,4.4C56.2,4.4 56.2,4.5 56.3,4.5C56.3,4.6 56.3,4.6 56.4,4.7L56.4,5.1C56.4,6 55.7,6.8 54.8,6.8Z" style="fill:rgb(255,45,46);fill-rule:nonzero;"/>
</svg>
