<?xml version="1.0" encoding="UTF-8" standalone="no"?>
<!DOCTYPE svg PUBLIC "-//W3C//DTD SVG 1.1//EN" "http://www.w3.org/Graphics/SVG/1.1/DTD/svg11.dtd">
<svg width="100%" height="100%" viewBox="0 0 61 38" version="1.1" xmlns="http://www.w3.org/2000/svg" xmlns:xlink="http://www.w3.org/1999/xlink" xml:space="preserve" xmlns:serif="http://www.serif.com/" style="fill-rule:evenodd;clip-rule:evenodd;stroke-linejoin:round;stroke-miterlimit:2;">
    <path d="M59.08,1.6C58.82,1.27 58.47,1.01 58.07,0.87C57.67,0.35 57.04,0 56.33,0L56.23,0L39.79,0.72C38.6,0.77 37.66,1.75 37.66,2.94L37.66,4.51C37.66,5.47 38.28,6.28 39.13,6.58C39.39,6.91 39.74,7.17 40.14,7.31C40.54,7.83 41.17,8.18 41.88,8.18L41.98,8.18L46.66,7.97L34.85,20.3C34.73,20.42 34.58,20.49 34.42,20.53L28.62,14.98C28.26,14.63 27.86,14.34 27.43,14.09C27.12,13.81 26.78,13.56 26.42,13.36C25.28,12.34 23.8,11.77 22.22,11.77L21.93,11.77C20.19,11.85 18.57,12.59 17.37,13.86L0.62,31.35C0.21,31.78 -0.01,32.34 0,32.94C0.01,33.53 0.25,34.08 0.68,34.49L1.79,35.55C2,35.75 2.25,35.91 2.51,36.01L2.8,36.29C3.01,36.49 3.26,36.65 3.52,36.75L3.81,37.03C4.22,37.42 4.76,37.64 5.33,37.64C5.93,37.64 6.52,37.39 6.93,36.95L23.69,19.46C23.75,19.4 23.83,19.36 23.91,19.33L29.77,24.94C30.13,25.28 30.53,25.57 30.95,25.82C31.26,26.1 31.6,26.35 31.96,26.55C33.12,27.58 34.61,28.15 36.18,28.15C36.52,28.15 36.86,28.12 37.2,28.07C38.66,27.85 40.03,27.09 41.19,25.89L52.52,14.06L52.52,18.75C52.52,19.71 53.14,20.52 53.99,20.82C54.25,21.15 54.6,21.41 55,21.55C55.4,22.07 56.03,22.42 56.74,22.42L56.84,22.42L58.41,22.35C59.6,22.3 60.54,21.32 60.54,20.13L60.54,3.67C60.54,2.71 59.92,1.9 59.07,1.6L59.08,1.6ZM58.55,20.12C58.55,20.24 58.45,20.34 58.34,20.34L56.77,20.41C56.66,20.41 56.57,20.32 56.57,20.21L56.57,7.48C56.57,7.35 56.47,7.28 56.36,7.28C56.3,7.28 56.25,7.3 56.2,7.35L39.76,24.5C38.99,25.31 38,25.92 36.91,26.09C36.67,26.13 36.43,26.14 36.19,26.14C35.06,26.14 33.99,25.72 33.18,24.95L25.83,17.91C25.38,17.48 24.77,17.27 24.15,17.27C23.45,17.27 22.75,17.54 22.25,18.06L5.5,35.56C5.5,35.56 5.4,35.63 5.34,35.63C5.29,35.63 5.24,35.61 5.2,35.57L4.09,34.51C4.01,34.43 4.01,34.29 4.09,34.21L20.85,16.72C21.7,15.82 22.84,15.3 24.05,15.25L24.25,15.25C25.38,15.25 26.44,15.67 27.25,16.44L34.46,23.33C34.96,23.81 35.61,24.05 36.28,24.05C37.02,24.05 37.77,23.75 38.34,23.16L54.78,5.99C54.91,5.85 54.82,5.63 54.64,5.63L54.63,5.63L41.9,6.19C41.79,6.19 41.7,6.1 41.7,5.99L41.7,4.42C41.7,4.3 41.8,4.2 41.91,4.2L58.35,3.48C58.46,3.48 58.55,3.57 58.55,3.68L58.55,20.13L58.55,20.12Z" style="fill-rule:nonzero;"/>
</svg>
