<?xml version="1.0" encoding="UTF-8" standalone="no"?>
<!DOCTYPE svg PUBLIC "-//W3C//DTD SVG 1.1//EN" "http://www.w3.org/Graphics/SVG/1.1/DTD/svg11.dtd">
<svg width="100%" height="100%" viewBox="0 0 54 54" version="1.1" xmlns="http://www.w3.org/2000/svg" xmlns:xlink="http://www.w3.org/1999/xlink" xml:space="preserve" xmlns:serif="http://www.serif.com/" style="fill-rule:evenodd;clip-rule:evenodd;stroke-linejoin:round;stroke-miterlimit:2;">
    <path d="M42.654,6.483L43.19,5.72C44.23,6.45 45.23,7.26 46.15,8.15C51.08,12.87 53.79,19.3 53.79,26.26C53.79,40.57 42.15,52.72 27.84,53.34C27.45,53.36 27.06,53.36 26.68,53.36C21.34,53.36 16.27,51.74 12.03,48.69L10.51,47.59C9.46,46.85 8.51,46.06 7.64,45.22C2.71,40.51 0,34.07 0,27.11C0,12.8 11.64,0.65 25.95,0.03C31.65,-0.23 37.07,1.34 41.61,4.57L43.14,5.68L42.654,6.483ZM28.84,4.86C28.51,4.86 28.17,4.86 27.84,4.88C15.43,5.42 5.33,15.96 5.33,28.37C5.33,34.34 7.65,39.85 11.86,43.88C16.08,47.92 21.7,50 27.68,49.74C40.09,49.2 50.19,38.66 50.19,26.25C50.19,20.28 47.87,14.77 43.66,10.73C39.7,6.94 34.44,4.85 28.85,4.85L28.84,4.86ZM27.1,46.79C22.994,46.788 19.128,45.248 16.21,42.45C13.1,39.48 11.39,35.43 11.39,31.04C11.39,30.05 12.2,29.24 13.19,29.24C14.18,29.24 14.99,30.05 14.99,31.04C14.99,34.43 16.31,37.56 18.7,39.85C21.1,42.14 24.28,43.33 27.68,43.17C34.76,42.86 40.52,36.85 40.52,29.77C40.52,28.78 41.33,27.97 42.32,27.97C43.31,27.97 44.12,28.78 44.12,29.77C44.12,38.75 36.81,46.38 27.83,46.77C27.593,46.78 27.347,46.79 27.11,46.79L27.1,46.79ZM18.13,24.63C15.34,24.63 12.85,22.87 11.93,20.26C11.77,19.81 11.8,19.32 12,18.88C12.21,18.45 12.57,18.12 13.02,17.96C13.47,17.8 13.96,17.83 14.39,18.03C14.82,18.23 15.15,18.6 15.31,19.05C15.75,20.28 16.91,21.07 18.26,21.02C19.65,20.96 20.9,20.01 21.36,18.66C21.68,17.73 22.71,17.23 23.64,17.54C24.58,17.86 25.09,18.89 24.76,19.83C23.82,22.57 21.27,24.5 18.41,24.62L18.11,24.62L18.13,24.63ZM36.97,23.8C34.18,23.8 31.69,22.04 30.77,19.43C30.61,18.98 30.64,18.49 30.84,18.05C31.05,17.62 31.41,17.29 31.86,17.13C32.31,16.97 32.8,16.99 33.23,17.2C33.67,17.41 33.99,17.77 34.15,18.23C34.58,19.46 35.75,20.24 37.11,20.19C38.5,20.13 39.74,19.18 40.21,17.83C40.53,16.9 41.55,16.39 42.49,16.71C43.43,17.04 43.94,18.06 43.61,19C42.67,21.74 40.12,23.67 37.26,23.79L36.96,23.79L36.97,23.8Z" style="fill:rgb(69,137,246);"/>
</svg>
