<?xml version="1.0" encoding="UTF-8" standalone="no"?>
<!DOCTYPE svg PUBLIC "-//W3C//DTD SVG 1.1//EN" "http://www.w3.org/Graphics/SVG/1.1/DTD/svg11.dtd">
<svg width="100%" height="100%" viewBox="0 0 66 54" version="1.1" xmlns="http://www.w3.org/2000/svg" xmlns:xlink="http://www.w3.org/1999/xlink" xml:space="preserve" xmlns:serif="http://www.serif.com/" style="fill-rule:evenodd;clip-rule:evenodd;stroke-linecap:round;stroke-linejoin:round;">
    <path d="M63.53,11.67C63.47,11.62 63.41,11.57 63.34,11.53C63.28,11.48 63.22,11.43 63.15,11.39C63.09,11.34 63.03,11.29 62.96,11.25C62.9,11.2 62.84,11.15 62.77,11.11C62.71,11.06 62.65,11.01 62.58,10.97C62.52,10.92 62.46,10.87 62.39,10.83C62.33,10.78 62.27,10.73 62.2,10.69C62.14,10.64 62.08,10.59 62.01,10.55C61.95,10.5 61.89,10.45 61.82,10.41C61.76,10.36 61.7,10.31 61.63,10.27C61.53,10.18 61.43,10.1 61.3,10.06L59.21,9.25L61.37,4.44C61.54,4.06 61.47,3.6 61.18,3.3C61.1,3.21 61.01,3.15 60.91,3.1C60.85,3.05 60.79,3 60.72,2.96C60.66,2.91 60.59,2.86 60.52,2.82C60.46,2.77 60.4,2.72 60.33,2.68C60.27,2.63 60.21,2.58 60.14,2.54C60.08,2.49 60.02,2.44 59.95,2.4C59.89,2.35 59.83,2.3 59.76,2.26C59.7,2.21 59.64,2.16 59.57,2.12C59.51,2.07 59.45,2.02 59.38,1.98C59.32,1.93 59.26,1.88 59.19,1.84C59.13,1.79 59.07,1.74 59,1.7C58.71,1.45 58.31,1.37 57.95,1.5L51.8,3.81C51.8,3.81 51.72,3.75 51.69,3.73C51.56,3.64 51.44,3.54 51.31,3.45C49.12,1.88 46.47,1.06 43.68,1.16C36.63,1.48 30.88,7.49 30.86,14.54L30.86,16.33C25.73,17.39 20.78,16.27 15.72,12.86C13.79,11.33 11.83,9.47 9.84,7.26C9.76,7.17 9.66,7.1 9.56,7.05C9.5,7 9.44,6.95 9.37,6.91C9.31,6.86 9.25,6.81 9.18,6.77C9.12,6.72 9.06,6.67 8.99,6.63C8.93,6.58 8.87,6.53 8.8,6.49C8.74,6.44 8.68,6.39 8.61,6.35C8.55,6.3 8.49,6.25 8.42,6.21C8.36,6.16 8.3,6.11 8.23,6.07C8.17,6.02 8.11,5.97 8.04,5.93C7.98,5.88 7.92,5.83 7.85,5.79C7.79,5.74 7.73,5.69 7.66,5.65C7.4,5.41 7.03,5.32 6.69,5.42C6.31,5.53 6.02,5.84 5.95,6.24C4.82,12.32 5.58,17.16 8.22,20.68L2.39,20.05C2.08,20.02 1.76,20.13 1.53,20.35C1.31,20.58 1.2,20.89 1.24,21.21C1.69,24.92 3.68,28.05 6.54,30C6.6,30.04 6.66,30.09 6.73,30.14C6.8,30.19 6.86,30.24 6.93,30.28C6.99,30.32 7.05,30.37 7.12,30.42C7.19,30.47 7.25,30.52 7.31,30.56C7.37,30.61 7.44,30.65 7.5,30.7C7.56,30.75 7.63,30.79 7.69,30.84C7.76,30.89 7.82,30.94 7.89,30.98C7.95,31.02 8.01,31.07 8.08,31.12C8.15,31.17 8.21,31.22 8.27,31.26C8.33,31.31 8.4,31.35 8.46,31.4C8.65,31.53 8.84,31.66 9.03,31.78L5.82,33.09C5.55,33.2 5.34,33.42 5.23,33.69C5.13,33.96 5.15,34.27 5.28,34.53C6.2,36.32 7.35,37.61 8.7,38.55C8.77,38.6 8.83,38.65 8.9,38.69C8.96,38.74 9.02,38.78 9.09,38.83C9.15,38.88 9.22,38.93 9.28,38.97C9.34,39.02 9.41,39.06 9.47,39.11C9.53,39.16 9.6,39.2 9.66,39.25C9.73,39.3 9.79,39.35 9.86,39.39C9.92,39.43 9.98,39.48 10.05,39.53C10.12,39.58 10.18,39.63 10.25,39.67C10.31,39.72 10.37,39.76 10.44,39.81C10.5,39.86 10.57,39.9 10.63,39.95C11.91,40.88 13.37,41.47 14.98,41.86C11.01,43.84 6.69,44.92 2.25,45.01C1.75,45.02 1.33,45.38 1.24,45.87C1.16,46.3 1.37,46.71 1.73,46.94C1.79,47 1.85,47.04 1.92,47.08C1.98,47.14 2.04,47.18 2.11,47.22C2.17,47.28 2.23,47.32 2.3,47.36C2.36,47.42 2.42,47.46 2.49,47.5C2.55,47.56 2.61,47.6 2.68,47.64C2.74,47.7 2.8,47.74 2.87,47.78C2.93,47.84 2.99,47.88 3.06,47.92C3.12,47.98 3.18,48.02 3.25,48.06C3.31,48.12 3.37,48.16 3.44,48.2C3.5,48.26 3.56,48.3 3.63,48.34C3.73,48.44 3.84,48.52 3.97,48.57C10.77,51.3 17.39,52.65 23.58,52.65C31.02,52.65 37.84,50.69 43.61,46.78C52.85,40.52 58.6,29.88 58.6,19.01L58.6,17.35L63.71,13.43C64.01,13.2 64.16,12.83 64.11,12.45C64.06,12.13 63.86,11.86 63.59,11.7L63.53,11.67ZM56.87,15.98C56.61,16.18 56.46,16.48 56.46,16.81L56.46,18.99C56.46,29.03 50.94,39.25 42.39,45.03C35.9,49.42 25.01,53.29 9.04,48.17C13.91,47.34 18.54,45.38 22.66,42.39C23.02,42.13 23.18,41.67 23.05,41.24C22.92,40.81 22.53,40.52 22.09,40.5C16.5,40.31 12.27,39.86 9.77,36.09L15.88,33.6C16.34,33.41 16.61,32.93 16.51,32.44C16.41,31.95 16,31.6 15.5,31.59C10.7,31.52 6.73,28.32 5.6,23.81L12.85,24.6C13.31,24.65 13.74,24.4 13.92,23.97C14.1,23.54 13.99,23.06 13.63,22.76C10.36,19.99 9.07,15.89 9.72,10.26C17.91,18.69 25.94,21.79 34.22,19.72C34.69,19.6 35.01,19.19 35.01,18.71L35.01,16.09C35.02,10.14 39.88,5.07 45.82,4.8C48.49,4.71 51.03,5.62 52.97,7.34C53.26,7.6 53.67,7.67 54.03,7.54L58.4,5.9L56.54,10.04C56.42,10.3 56.42,10.6 56.53,10.87C56.64,11.14 56.85,11.34 57.12,11.45L60.9,12.9L56.86,16L56.87,15.98Z" style="fill:rgb(69,137,246);fill-rule:nonzero;stroke:rgb(69,137,246);stroke-width:2.3px;"/>
</svg>
