<?xml version="1.0" encoding="UTF-8" standalone="no"?>
<!DOCTYPE svg PUBLIC "-//W3C//DTD SVG 1.1//EN" "http://www.w3.org/Graphics/SVG/1.1/DTD/svg11.dtd">
<svg width="100%" height="100%" viewBox="0 0 57 57" version="1.1" xmlns="http://www.w3.org/2000/svg" xmlns:xlink="http://www.w3.org/1999/xlink" xml:space="preserve" xmlns:serif="http://www.serif.com/" style="fill-rule:evenodd;clip-rule:evenodd;stroke-linejoin:round;stroke-miterlimit:2;">
    <path d="M56.32,8.59C56.32,8.59 56.27,8.54 56.24,8.51C56.03,8.33 55.78,8.19 55.51,8.1C55.45,8.01 55.39,7.93 55.31,7.85C55.28,7.82 55.26,7.8 55.23,7.77C55.02,7.59 54.76,7.45 54.49,7.36C54.43,7.27 54.37,7.19 54.29,7.11C54.27,7.08 54.24,7.06 54.21,7.03C53.79,6.67 53.22,6.49 52.64,6.5C49.95,6.63 47.25,6.92 44.59,7.35L44.59,3.56C44.59,2.84 44.2,2.16 43.54,1.77C43.42,1.7 43.29,1.65 43.16,1.61C42.99,1.39 42.8,1.19 42.55,1.04C42.42,0.96 42.28,0.91 42.14,0.86C41.97,0.64 41.78,0.45 41.53,0.3C40.93,-0.03 40.21,-0.09 39.58,0.13C36.09,1.28 32.98,3.36 30.59,6.12C28.71,8.18 27.43,10.63 26.79,13.26C24.06,11.5 16.97,8.26 2.19,8.71C1.63,8.74 1.09,8.96 0.64,9.38C0.23,9.8 0.01,10.36 0.01,10.93L0.01,47.97C0.01,48.56 0.24,49.11 0.66,49.51C0.89,49.73 1.15,49.88 1.44,49.98C1.51,50.07 1.58,50.16 1.66,50.24C1.89,50.46 2.16,50.61 2.45,50.71C2.52,50.8 2.59,50.9 2.68,50.98C3.1,51.38 3.68,51.58 4.24,51.56C18.56,51.13 25.32,54.31 27.71,55.83C27.74,55.86 27.76,55.87 27.76,55.88C27.77,55.9 27.8,55.9 27.81,55.92C27.87,55.98 27.95,56.03 28.02,56.07C28.05,56.09 28.08,56.11 28.11,56.12L28.14,56.12C28.56,56.42 28.76,56.61 28.77,56.62C28.78,56.63 28.8,56.64 28.82,56.65C28.88,56.71 28.96,56.75 29.03,56.79C29.06,56.81 29.09,56.83 29.12,56.84C29.16,56.86 29.21,56.86 29.26,56.87C29.33,56.89 29.41,56.91 29.48,56.91C29.61,56.91 29.73,56.89 29.86,56.84C29.86,56.84 29.87,56.84 29.88,56.83C29.88,56.83 29.89,56.83 29.9,56.82C30.01,56.77 30.1,56.7 30.19,56.62C30.2,56.61 30.22,56.6 30.23,56.59C30.29,56.53 36.11,50.43 54.82,49.34C55.97,49.29 56.91,48.33 56.95,47.11L56.95,10.1C56.95,9.56 56.72,9.01 56.33,8.58L56.32,8.59ZM30.49,16.57C30.88,13.74 32.12,11.1 34.1,8.92C36.27,6.41 39.08,4.54 42.24,3.5C42.35,3.46 42.47,3.47 42.54,3.5C42.58,3.52 42.59,3.55 42.59,3.56L42.59,39.51C38.74,40.63 35.3,42.81 32.6,45.83C31.78,46.71 31.07,47.68 30.48,48.71L30.48,16.57L30.49,16.57ZM6.78,49.54C5.93,49.54 5.06,49.55 4.15,49.58C4.12,49.58 4.08,49.58 4.05,49.55C4.03,49.53 4.02,49.5 4.02,49.45L4.02,12.41C4.02,12.41 4.02,12.31 4.06,12.28C4.12,12.22 4.2,12.19 4.27,12.19C20.64,11.68 27.1,15.9 28.48,16.97L28.48,53.98C25.72,52.3 19.3,49.55 6.78,49.55L6.78,49.54ZM54.7,47.37C40.83,48.18 33.74,51.63 30.67,53.7C30.73,53.4 30.8,53.1 30.89,52.81C30.89,52.79 30.91,52.76 30.91,52.74C31,52.44 31.09,52.15 31.2,51.85C31.24,51.75 31.28,51.65 31.32,51.55C31.4,51.34 31.49,51.12 31.59,50.91C31.64,50.8 31.7,50.68 31.75,50.57C31.85,50.38 31.94,50.18 32.05,49.99C32.11,49.88 32.18,49.76 32.24,49.65C32.35,49.46 32.47,49.28 32.58,49.09C32.65,48.99 32.72,48.88 32.79,48.78C32.92,48.59 33.06,48.4 33.21,48.21C33.28,48.12 33.34,48.04 33.4,47.95C33.61,47.68 33.84,47.42 34.07,47.17C36.68,44.24 40.06,42.19 43.82,41.24C44.26,41.13 44.58,40.73 44.58,40.27L44.58,11.2C47.93,10.56 51.35,10.15 54.75,9.98C54.79,9.98 54.85,9.99 54.89,10.01C54.92,10.05 54.93,10.09 54.93,10.1L54.93,47.11C54.93,47.26 54.81,47.37 54.7,47.37Z" style="fill-rule:nonzero;"/>
</svg>
