<?xml version="1.0" encoding="UTF-8" standalone="no"?>
<!DOCTYPE svg PUBLIC "-//W3C//DTD SVG 1.1//EN" "http://www.w3.org/Graphics/SVG/1.1/DTD/svg11.dtd">
<svg width="100%" height="100%" viewBox="0 0 59 45" version="1.1" xmlns="http://www.w3.org/2000/svg" xmlns:xlink="http://www.w3.org/1999/xlink" xml:space="preserve" xmlns:serif="http://www.serif.com/" style="fill-rule:evenodd;clip-rule:evenodd;stroke-linejoin:round;stroke-miterlimit:2;">
    <path d="M7.3,40.7L7.3,33.2C7.3,29.6 8.7,26.2 11.2,23.5C13.7,20.8 17.1,19.3 20.7,19.1L50.7,17.8L42.2,26.7C41.6,27.4 41.6,28.4 42.2,29C42.4,29.1 42.5,29.2 42.7,29.3C42.9,29.4 43.1,29.4 43.2,29.4L43.5,29.4C43.6,29.4 43.6,29.4 43.7,29.3L43.8,29.3C43.9,29.3 43.9,29.2 44,29.2L44.1,29.2C44.2,29.1 44.3,29.1 44.4,29L55.7,17.2C56,16.9 56.2,16.4 56.2,16C56.2,15.6 56,15.1 55.7,14.8L44.6,3.9C44.5,3.8 44.4,3.7 44.3,3.7C44.1,3.6 43.8,3.5 43.5,3.5C43.3,3.5 43.2,3.5 43,3.6C42.4,3.8 42,4.3 41.8,4.8C41.7,5.2 41.8,5.7 42,6C42.1,6.1 42.2,6.2 42.3,6.3L50.8,14.4L20.8,15.7C16.4,15.9 12.1,17.8 8.9,21.1C5.8,24.5 4,28.8 4,33.3L4,40.8C4,41.3 4.2,41.7 4.6,42L4.7,42.1C4.7,42.1 4.8,42.1 4.8,42.2C4.9,42.2 4.9,42.2 5,42.3L5.7,42.3C6.6,42.4 7.3,41.6 7.3,40.7Z" style="fill:white;fill-rule:nonzero;"/>
    <path d="M57.2,13.3L46,2.5C45.8,2.3 45.6,2.2 45.4,2C45.3,2 45.3,1.9 45.2,1.9C45.1,1.9 45.1,1.8 45,1.8C44.9,1.8 44.9,1.7 44.8,1.7C44.7,1.7 44.7,1.6 44.6,1.6C44.5,1.6 44.5,1.5 44.4,1.5C44.3,1.5 44.3,1.4 44.2,1.4C44.1,1.4 44.1,1.3 44,1.3C43.9,1.3 44,1 43.9,1C43.8,1 43.8,0.9 43.7,0.9C43.6,0.9 43.6,0.8 43.5,0.8C43,0.3 42.3,0 41.5,0C41.1,0 40.8,0 40.4,0.2C39.2,0.6 38.2,1.6 37.9,2.8C37.6,4.1 38,5.5 38.9,6.4L44,11.3L18.7,12.4C13.7,12.6 9,14.8 5.5,18.4C1.9,22 0,26.8 0,31.8L0,39.3C0,40.6 0.7,41.7 1.6,42.3C1.7,42.3 1.7,42.4 1.8,42.4C1.9,42.4 1.9,42.5 2,42.5C2.1,42.5 2.1,42.6 2.2,42.6C2.3,42.6 2.3,42.7 2.4,42.7C2.5,42.7 2.5,42.8 2.6,42.8C2.7,42.8 2.7,42.9 2.8,42.9C2.9,42.9 2.9,43 3,43C3.1,43 3.1,43.1 3.2,43.1C3.3,43.1 3.3,43.2 3.4,43.2C3.5,43.2 3.5,43.3 3.6,43.3C4.2,43.7 4.9,44 5.7,44L5.9,44C7.9,43.9 9.5,42.2 9.5,40.3L9.5,32.8C9.5,29.8 10.7,26.8 12.9,24.5C15.1,22.3 18,20.9 21.1,20.8L42.5,19.9L39,23.5C37.7,25 37.7,27.2 39.2,28.6C39.4,28.8 39.6,28.9 39.8,29C39.9,29 39.9,29.1 40,29.1C40.1,29.1 40.1,29.2 40.2,29.2C40.3,29.2 40.3,29.3 40.4,29.3C40.5,29.3 40.5,29.4 40.6,29.4C40.7,29.4 40.7,29.5 40.8,29.5C40.9,29.5 40.9,29.6 41,29.6C41.1,29.6 41.1,29.7 41.2,29.7C41.3,29.7 41.3,29.8 41.4,29.8C41.5,29.8 41.5,29.9 41.6,29.9C41.7,29.9 41.7,30 41.8,30C42.4,30.4 43.1,30.7 43.9,30.7C44.9,30.7 45.8,30.3 46.5,29.6L57.8,17.8C58.5,17.1 58.9,16.2 58.9,15.2C58.3,14.8 57.9,13.9 57.2,13.3ZM5.7,42.4L5,42.4C4.9,42.4 4.9,42.4 4.8,42.3C4.8,42.3 4.7,42.3 4.7,42.2C4.6,42.2 4.6,42.1 4.6,42.1C4.2,41.8 4,41.3 4,40.8L4,33.3C4,28.9 5.8,24.5 8.9,21.2C12,17.9 16.3,16 20.8,15.8L50.8,14.5L42.3,6.4C42.2,6.3 42.1,6.2 42,6C41.8,5.6 41.7,5.2 41.8,4.8C42,4.2 42.4,3.8 43,3.6C43.2,3.6 43.3,3.5 43.5,3.5C43.8,3.5 44.1,3.6 44.3,3.7C44.4,3.8 44.5,3.8 44.6,3.9L55.9,14.7C56.2,15 56.4,15.4 56.4,15.9C56.4,16.4 56.2,16.8 55.9,17.1L44.6,28.9C44.5,29 44.4,29 44.3,29.1L44.2,29.1C44.1,29.1 44.1,29.2 44,29.2L43.9,29.2C43.8,29.2 43.8,29.2 43.7,29.3L43.4,29.3C43.2,29.3 43,29.3 42.9,29.2C42.7,29.1 42.6,29 42.4,28.9C41.8,28.3 41.7,27.3 42.4,26.6L50.9,17.7L20.9,19C17.3,19.2 13.9,20.7 11.4,23.4C8.9,26.1 7.5,29.5 7.5,33.1L7.5,40.6C7.4,41.6 6.6,42.4 5.7,42.4Z" style="fill:rgb(188,252,7);fill-rule:nonzero;"/>
</svg>
