<?xml version="1.0" encoding="UTF-8" standalone="no"?>
<!DOCTYPE svg PUBLIC "-//W3C//DTD SVG 1.1//EN" "http://www.w3.org/Graphics/SVG/1.1/DTD/svg11.dtd">
<svg width="100%" height="100%" viewBox="0 0 64 54" version="1.1" xmlns="http://www.w3.org/2000/svg" xmlns:xlink="http://www.w3.org/1999/xlink" xml:space="preserve" xmlns:serif="http://www.serif.com/" style="fill-rule:evenodd;clip-rule:evenodd;stroke-linecap:round;stroke-linejoin:round;">
    <path d="M2.23,26.83C2.29,26.88 2.35,26.93 2.42,26.97C2.48,27.02 2.54,27.07 2.61,27.11C2.67,27.16 2.73,27.21 2.8,27.25C2.86,27.3 2.92,27.35 2.99,27.39C3.05,27.44 3.11,27.49 3.18,27.53C3.24,27.58 3.3,27.63 3.37,27.67C3.43,27.72 3.49,27.77 3.56,27.81C3.68,27.92 3.82,28.01 3.99,28.05L18.07,31.47L20.69,50.25C20.73,50.57 20.93,50.84 21.2,50.99C21.26,51.04 21.32,51.09 21.39,51.13C21.45,51.18 21.51,51.23 21.58,51.27C21.64,51.32 21.7,51.37 21.77,51.41C21.83,51.46 21.89,51.51 21.96,51.55C22.02,51.6 22.08,51.65 22.15,51.69C22.21,51.74 22.27,51.79 22.34,51.83C22.4,51.88 22.46,51.93 22.53,51.97C22.59,52.02 22.65,52.07 22.72,52.1C22.78,52.15 22.84,52.2 22.91,52.24C22.97,52.29 23.03,52.34 23.1,52.38C23.18,52.46 23.27,52.52 23.38,52.57C23.51,52.63 23.65,52.66 23.8,52.66C24,52.66 24.2,52.6 24.37,52.48L38.61,42.85L48.4,50.79C48.4,50.79 48.44,50.81 48.46,50.82L48.59,50.92C48.59,50.92 48.63,50.94 48.65,50.96L48.77,51.06C48.77,51.06 48.81,51.08 48.83,51.1L48.95,51.2C48.95,51.2 48.99,51.22 49.01,51.24L49.13,51.34C49.13,51.34 49.17,51.36 49.2,51.38L49.32,51.48C49.32,51.48 49.36,51.5 49.38,51.51L49.51,51.61C49.51,51.61 49.55,51.63 49.57,51.65L49.69,51.75C49.69,51.75 49.73,51.77 49.75,51.79L49.87,51.89C49.87,51.89 49.91,51.91 49.93,51.93L50.05,52.03C50.05,52.03 50.09,52.05 50.11,52.07L50.23,52.17C50.23,52.17 50.27,52.19 50.29,52.21L50.41,52.31C50.59,52.46 50.82,52.54 51.05,52.54C51.16,52.54 51.27,52.52 51.38,52.49C51.71,52.38 51.96,52.1 52.05,51.76L62.71,6.48C62.91,5.63 62.76,4.76 62.3,4.03C62.06,3.65 61.74,3.35 61.37,3.11C61.31,3.06 61.25,3.02 61.18,2.97C61.12,2.92 61.06,2.88 60.99,2.83C60.93,2.78 60.87,2.73 60.8,2.69C60.74,2.64 60.68,2.6 60.61,2.55C60.55,2.5 60.49,2.46 60.42,2.41C60.36,2.36 60.3,2.32 60.23,2.27C60.17,2.22 60.11,2.17 60.04,2.13C59.98,2.08 59.92,2.04 59.85,1.99C59.79,1.94 59.73,1.9 59.66,1.85C59.6,1.8 59.54,1.75 59.47,1.71C59.1,1.43 58.68,1.23 58.2,1.14C57.57,1.02 56.92,1.09 56.32,1.34L1.75,24.58C1.34,24.75 1.09,25.17 1.13,25.61C1.16,25.96 1.37,26.26 1.67,26.42C1.73,26.47 1.79,26.52 1.86,26.56C1.92,26.61 1.98,26.66 2.05,26.7C2.11,26.75 2.17,26.8 2.24,26.84L2.23,26.83ZM24.55,49.82L22.12,32.43L27.66,33.77L37.03,41.37L24.54,49.81L24.55,49.82ZM60.72,6.02L50.47,49.63L29.85,32.9L44.01,23.18C44.48,22.86 44.59,22.22 44.27,21.76C43.95,21.29 43.31,21.17 42.85,21.5L27.94,31.74L7.47,26.78L59.21,4.77C59.43,4.68 59.67,4.65 59.9,4.69C60.18,4.74 60.43,4.91 60.58,5.14C60.74,5.39 60.79,5.7 60.72,6.01L60.72,6.02Z" style="fill:rgb(69,137,246);fill-rule:nonzero;stroke:rgb(69,137,246);stroke-width:2.25px;"/>
</svg>
