<?xml version="1.0" encoding="UTF-8" standalone="no"?>
<!DOCTYPE svg PUBLIC "-//W3C//DTD SVG 1.1//EN" "http://www.w3.org/Graphics/SVG/1.1/DTD/svg11.dtd">
<svg width="100%" height="100%" viewBox="0 0 24 24" version="1.1" xmlns="http://www.w3.org/2000/svg" xmlns:xlink="http://www.w3.org/1999/xlink" xml:space="preserve" xmlns:serif="http://www.serif.com/" style="fill-rule:evenodd;clip-rule:evenodd;stroke-linejoin:round;stroke-miterlimit:2;">
    <path d="M0,17.44L23.83,17.44L23.83,23.83L21.26,23.83L21.26,23.85L4.86,23.85C4.69,23.85 4.52,23.84 4.35,23.83L0,23.83L0,17.44ZM23.83,8.84L23.83,15.23L0,15.23L0,8.84L23.83,8.84ZM23.5,0L23.83,0L23.83,6.39L0,6.39L0,0L15.59,0C17.04,0 18.22,1.18 18.22,2.63L18.22,2.76C18.22,3.5 18.83,4.1 19.57,4.08C20.29,4.06 20.85,3.42 20.85,2.7L20.85,2.66C20.85,1.19 22.03,0 23.5,0Z" style="fill:rgb(188,252,7);"/>
</svg>
