<?xml version="1.0" encoding="UTF-8" standalone="no"?>
<!DOCTYPE svg PUBLIC "-//W3C//DTD SVG 1.1//EN" "http://www.w3.org/Graphics/SVG/1.1/DTD/svg11.dtd">
<svg width="100%" height="100%" viewBox="0 0 59 36" version="1.1" xmlns="http://www.w3.org/2000/svg" xmlns:xlink="http://www.w3.org/1999/xlink" xml:space="preserve" xmlns:serif="http://www.serif.com/" style="fill-rule:evenodd;clip-rule:evenodd;stroke-linejoin:round;stroke-miterlimit:2;">
    <path d="M56.3,18.3C56.5,17.7 56.4,17 55.9,16.5L42.7,3.9C42.4,3.6 42,3.5 41.7,3.5C41.2,3.5 40.8,3.7 40.5,4C39.9,4.7 39.8,5.7 40.5,6.3L50.9,16.2L5.8,18.2C4.8,18.3 4,19 4,19.9C4,20.4 4.2,20.8 4.6,21.1L4.7,21.2C4.7,21.2 4.8,21.2 4.8,21.3C4.9,21.3 4.9,21.3 5,21.4L5.7,21.4L50.5,19.4L50.8,19.4L40.4,30.4C40,30.8 39.8,31.5 39.9,32C40.1,32.6 40.5,33 41.1,33.1L42,33.1C42.1,33.1 42.2,33 42.2,33C42.2,33 42.3,33 42.3,32.9C42.4,32.8 42.5,32.7 42.6,32.6L55.8,18.8C56.1,18.7 56.2,18.5 56.3,18.3Z" style="fill:white;fill-rule:nonzero;"/>
    <path d="M57.3,15.1L44.1,2.4C43.9,2.2 43.8,2.1 43.6,2C43.5,2 43.5,1.9 43.4,1.9C43.3,1.9 43.3,1.8 43.2,1.8C43.1,1.8 43,1.6 43,1.6C43,1.6 42.9,1.5 42.8,1.5C42.7,1.5 42.7,1.4 42.6,1.4C42.5,1.4 42.5,1.3 42.4,1.3C42.3,1.3 42.3,1.2 42.2,1.2C42.1,1.2 42.1,1 42.1,0.9C42,0.9 42,0.8 41.9,0.8C41.8,0.8 41.8,0.7 41.7,0.7C41.1,0.3 40.4,0.1 39.7,0.1C38.7,0.1 37.7,0.5 37,1.2C35.6,2.6 35.6,4.9 37,6.3L44,13L3.6,14.7C1.6,14.8 0,16.5 0,18.4C0,19.7 0.7,20.8 1.6,21.4C1.7,21.4 1.7,21.5 1.8,21.5C1.9,21.5 1.9,21.6 2,21.6C2.1,21.6 2.1,21.7 2.2,21.7C2.3,21.7 2.3,21.8 2.4,21.8C2.5,21.8 2.5,21.9 2.6,21.9C2.7,21.9 2.7,22 2.8,22C2.9,22 2.9,22.1 3,22.1C3.1,22.1 3.1,22.2 3.2,22.2C3.3,22.2 3.3,22.3 3.4,22.3C3.5,22.3 3.5,22.4 3.6,22.4C4.2,22.8 4.9,23.1 5.7,23.1L5.9,23.1L42.4,21.5L37,27.1C36.1,28 35.7,29.4 36,30.6C36.2,31.5 36.8,32.2 37.5,32.7C37.6,32.7 37.6,32.8 37.7,32.8C37.8,32.8 37.8,32.9 37.9,32.9C38,32.9 38,33 38.1,33C38.2,33 38.2,33.1 38.3,33.1C38.4,33.1 38.4,33.2 38.5,33.2C38.6,33.2 38.6,33.3 38.7,33.3C38.8,33.3 38.8,33.4 38.9,33.4C39,33.4 39,33.5 39.1,33.5C39.2,33.5 39.2,33.6 39.3,33.6C39.4,33.6 39.4,33.7 39.5,33.7C39.9,34 40.4,34.3 41,34.4C41.2,34.4 41.5,34.5 41.8,34.5C42.8,34.5 43.8,34.1 44.5,33.3L57.7,19.5C58.4,18.8 58.7,17.9 58.7,16.9C58.3,16.6 57.9,15.7 57.3,15.1ZM42.4,32.9C42.4,32.9 42.3,32.9 42.3,33C42.2,33 42.1,33.1 42.1,33.1L41.2,33.1C40.6,33 40.2,32.5 40,32C39.8,31.4 40,30.8 40.5,30.4L50.9,19.5L50.6,19.5L5.8,21.5L5.1,21.5C5,21.5 5,21.5 4.9,21.4C4.9,21.4 4.8,21.4 4.8,21.3C4.7,21.3 4.7,21.2 4.7,21.2C4.2,20.8 4,20.4 4,19.9C4,19 4.7,18.2 5.7,18.2L50.8,16.2L40.4,6.3C39.8,5.7 39.8,4.7 40.4,4C40.7,3.6 41.2,3.5 41.6,3.5C42,3.5 42.4,3.6 42.6,3.9L55.8,16.5C56.3,17 56.4,17.7 56.2,18.3C56.1,18.5 56,18.7 55.8,18.9L42.7,32.6C42.6,32.7 42.5,32.8 42.4,32.9Z" style="fill:rgb(188,252,7);fill-rule:nonzero;"/>
</svg>
