<svg width="24" height="24" viewBox="0 0 24 24" fill="none" xmlns="http://www.w3.org/2000/svg">
<path fill-rule="evenodd" clip-rule="evenodd" d="M1.60742 10.1486C1.60742 5.43131 5.43155 1.60718 10.1489 1.60718C14.8662 1.60718 18.6903 5.43131 18.6903 10.1486C18.6903 12.4746 17.7605 14.5835 16.2523 16.1238C16.2288 16.1423 16.2062 16.1624 16.1845 16.184C16.1628 16.2057 16.1428 16.2284 16.1243 16.2519C14.584 17.7602 12.475 18.69 10.1489 18.69C5.43155 18.69 1.60742 14.8659 1.60742 10.1486ZM16.6993 17.7595C14.9409 19.2743 12.6518 20.19 10.1489 20.19C4.60312 20.19 0.107422 15.6943 0.107422 10.1486C0.107422 4.60288 4.60312 0.107178 10.1489 0.107178C15.6946 0.107178 20.1903 4.60288 20.1903 10.1486C20.1903 12.6515 19.2746 14.9404 17.7599 16.6988L23.6737 22.6126C23.9666 22.9055 23.9666 23.3804 23.6737 23.6733C23.3809 23.9662 22.906 23.9662 22.6131 23.6733L16.6993 17.7595Z" fill="#0024CF"/>
</svg>
