<svg viewBox="0 0 177 48" fill="none" xmlns="http://www.w3.org/2000/svg">
    <g clip-path="url(#clip0_1605_3678)">
        <path d="M61.1749 39.286C51.9101 39.286 46.1025 32.7763 46.1025 24.0346C46.1025 15.3775 51.9612 8.7832 61.226 8.7832C68.7026 8.7832 73.0625 12.6214 74.8848 18.3534H69.8948C68.3109 14.8026 65.7392 12.9934 61.209 12.9934C54.8905 12.9934 51.1096 17.8968 51.1096 24.0515C51.1096 30.2062 54.8905 35.1096 61.209 35.1096C66.0628 35.1096 68.6856 32.9623 69.8948 29.7497H74.8848C73.5053 35.2111 68.6175 39.286 61.1749 39.286Z" fill="black"/>
        <path d="M95.9862 38.7616H91.0813C90.928 37.8147 90.8599 36.8678 90.8769 35.921V35.2954H90.8429C90.0935 37.2398 88.152 39.3027 84.0305 39.3027C79.2107 39.3027 76.4688 36.3268 76.4688 32.9451C76.4688 26.7566 83.775 26.5875 86.8576 26.0972C89.6848 25.6406 90.8429 25.2348 90.8429 23.4595C90.8429 21.6841 89.3101 20.5343 86.6873 20.5343C84.3541 20.5343 82.7021 21.8193 82.5829 23.9498H77.8823C78.0867 20.4498 80.8798 16.8145 86.6022 16.8145C93.7381 16.8145 95.5775 21.0585 95.5775 25.6407V33.8412C95.5775 35.4644 95.6456 37.6456 95.9862 38.7616ZM90.9621 26.7059C90.4682 27.9909 89.259 28.9716 85.7336 29.5972C82.7872 30.1383 81.2544 30.9499 81.2544 32.8605C81.2544 34.5514 82.7532 35.7857 85.2397 35.7857C88.186 35.7857 90.9791 33.6891 90.9791 28.9378V26.7059H90.9621Z" fill="black"/>
        <path d="M106.528 20.4843C104.655 20.4843 103.037 21.6002 103.037 23.122C103.037 25.1848 105.524 25.7597 109.134 26.5882C112.915 27.4167 115.657 29.1921 115.657 32.6076C115.657 36.8516 111.536 39.3371 106.801 39.3371C102.39 39.3371 98.2514 37.3589 97.7405 32.2356H102.509C102.918 34.5859 104.383 35.6511 106.869 35.6511C108.913 35.6511 110.82 34.8226 110.82 32.8443C110.82 30.7477 108.708 30.4095 105.251 29.581C101.811 28.8032 98.3536 27.1969 98.3536 23.308C98.3536 19.419 102.169 16.832 106.58 16.832C111.229 16.832 114.72 19.1823 115.214 23.7983H110.667C110.36 21.4818 108.487 20.4843 106.528 20.4843Z" fill="black"/>
        <path d="M139.807 28.0248C139.807 34.6698 135.736 39.3703 130.048 39.3703C126.352 39.3703 123.934 37.4259 123.065 34.8727H123.031V46.9622H118.092V17.4401H123.082V21.3122C123.866 18.9957 126.369 16.8652 130.065 16.8652C135.736 16.8652 139.807 21.4305 139.807 28.0248ZM134.953 28.0248C134.953 23.9837 132.62 20.7711 128.856 20.7711C125.16 20.7711 122.878 23.6117 122.708 27.5683V28.0248C122.708 32.235 124.666 35.4138 128.856 35.4138C132.705 35.4138 134.953 32.1505 134.953 28.0248Z" fill="black"/>
        <path d="M162.407 29.3944H145.87C146.211 33.2664 148.697 35.4983 152.052 35.4983C154.505 35.4983 156.531 34.5853 157.332 32.4548H162.1C160.806 36.7834 157.11 39.3365 152.052 39.3365C145.615 39.3365 141.203 34.7543 141.203 28.0417C141.203 21.5658 145.768 16.8652 152.052 16.8652C159.358 16.8652 162.356 22.4788 162.39 28.4982V29.3944H162.407ZM157.638 25.9281C157.298 22.5803 155.356 20.5682 152.035 20.5682C148.714 20.5682 146.466 22.6648 145.972 25.9281H157.638Z" fill="black"/>
        <path d="M169.798 28.6506V38.7618H164.979V17.4403H169.713V21.9717H169.798C170.633 19.0804 172.711 17.1867 176.117 17.0176V21.8027C172.046 21.8534 169.798 24.4404 169.798 28.6506Z" fill="black"/>
        <path d="M38.6772 36.3271C37.5531 36.3271 36.5994 37.1049 36.361 38.187L27.4197 37.7643C27.4538 37.5953 27.4708 37.4262 27.4708 37.2571C27.4708 36.9527 27.4197 36.6484 27.3345 36.344L30.5875 34.4841C31.3879 35.4648 32.8355 35.6677 33.8744 34.9237C34.9133 34.1798 35.1858 32.7594 34.4875 31.6942C33.7893 30.629 32.3757 30.2908 31.2687 30.9164C30.1617 31.542 29.7359 32.9285 30.315 34.0614L27.1642 35.8706C26.4149 34.2981 24.5585 33.588 22.9406 34.2474C21.3226 34.9068 20.5051 36.716 21.0842 38.3561L15.2255 39.7595C15.1915 38.9648 14.8509 38.2209 14.2888 37.646L15.3448 36.1919C16.5369 36.5977 17.8483 36.0059 18.3252 34.8392C18.802 33.6725 18.2741 32.3367 17.133 31.8126C15.9919 31.2715 14.6124 31.728 14.0163 32.8271C13.4203 33.9261 13.7949 35.3126 14.8679 35.972L13.8971 37.3078C13.2159 36.8006 12.3473 36.5807 11.4958 36.6822L10.4909 30.9841C11.7512 30.7135 12.722 29.7328 12.9945 28.4985C13.267 27.2473 12.7901 25.9623 11.7683 25.2014C10.7464 24.4236 9.36689 24.3221 8.24285 24.9139L5.70524 19.9936C6.25023 19.7231 6.69303 19.3003 7.01662 18.7931L9.12846 19.3511C9.11143 19.4694 9.0944 19.5709 9.0944 19.6892C9.0944 20.9066 10.0311 21.9381 11.2573 22.0564C12.4836 22.1748 13.6076 21.3463 13.829 20.1289C14.0504 18.9114 13.3181 17.7448 12.1259 17.4235C10.9337 17.0853 9.69048 17.7109 9.24768 18.8607L7.25505 18.3366C7.52755 17.694 7.57864 16.9839 7.40833 16.3076L13.284 13.6191C14.374 14.9718 16.3496 15.2592 17.7802 14.2447C19.2108 13.2302 19.5855 11.2857 18.6317 9.83162L22.3785 6.19631C22.8384 6.48376 23.3663 6.66975 23.8943 6.70357V8.30986C22.651 8.44513 21.7143 9.52727 21.7825 10.7785C21.8506 12.0297 22.8895 13.0104 24.1498 13.0104C25.41 13.0104 26.4489 12.0297 26.5171 10.7785C26.5852 9.52727 25.6655 8.44513 24.4052 8.30986V6.70357C24.8821 6.66975 25.3249 6.53448 25.7336 6.31467L29.8381 10.9645C28.8844 12.2157 28.9525 13.9573 29.9914 15.124C31.0473 16.2906 32.7845 16.5612 34.1469 15.7496C35.5094 14.938 36.0885 13.2979 35.5605 11.8268L36.8378 11.1167C37.6553 12.0635 39.0689 12.2326 40.0737 11.4717C41.0785 10.7278 41.317 9.32437 40.6187 8.29296C39.9204 7.26154 38.5239 6.94028 37.4509 7.5828C36.378 8.22532 35.9863 9.578 36.5653 10.694L35.3561 11.3703C34.8622 10.4741 33.9766 9.86544 32.9718 9.71326C31.967 9.56109 30.9281 9.88235 30.1957 10.5925L26.1764 6.04414C26.5682 5.73978 26.8917 5.33398 27.1131 4.89436L30.6385 5.46925C30.911 6.68666 32.1032 7.48135 33.3294 7.26154C34.5727 7.05864 35.4242 5.92578 35.288 4.69146C35.1518 3.45715 34.0618 2.52718 32.8185 2.59482C31.5582 2.66245 30.5875 3.67696 30.5704 4.92818L27.3005 4.38711C27.7603 2.83154 27.011 1.17451 25.5293 0.481265C24.0476 -0.21198 22.2934 0.295272 21.3907 1.64795C20.4881 3.00062 20.7265 4.80982 21.9528 5.89196L18.3081 9.42582C17.7461 8.7833 16.9457 8.3775 16.0941 8.30986V5.84124C17.3374 5.70597 18.2741 4.62383 18.206 3.37261C18.1378 2.12138 17.116 1.1576 15.8557 1.1576C14.5954 1.1576 13.5565 2.13829 13.4884 3.38951C13.4203 4.64074 14.3399 5.72288 15.6002 5.85814V8.30986C14.4762 8.39441 13.4714 9.05384 12.9434 10.0345C12.4154 11.0321 12.4325 12.2157 12.9945 13.1964L7.27209 15.8003C7.06771 15.31 6.74413 14.8872 6.33538 14.5491L8.56644 10.5587C8.77081 10.6094 8.95815 10.6432 9.16252 10.6432C10.3717 10.6432 11.3765 9.74708 11.5298 8.56349C11.6831 7.3799 10.8997 6.28085 9.74157 5.99341C8.56644 5.70597 7.37427 6.33158 6.9485 7.44754C6.52272 8.56349 7.01662 9.81472 8.07254 10.3727L5.90961 14.2616C4.59823 13.4838 2.94622 13.7037 1.87327 14.7858C0.817356 15.8679 0.630015 17.508 1.43047 18.7931C2.23092 20.0781 3.79777 20.653 5.2454 20.1965L7.81708 25.1845C7.1699 25.6579 6.71006 26.3681 6.55679 27.1458L4.68338 26.6048C4.73447 26.4188 4.75151 26.2159 4.75151 26.0299C4.75151 24.8294 3.84887 23.8318 2.6567 23.6965C1.46453 23.5613 0.35752 24.3221 0.0679941 25.4888C-0.221532 26.6555 0.425644 27.8391 1.56672 28.2449C2.69076 28.6507 3.95105 28.1604 4.49604 27.0951L6.48866 27.67C6.48866 27.7207 6.48866 27.7715 6.48866 27.8222C6.48866 28.9381 7.05068 29.9696 8.00442 30.5613L6.7271 32.2184C5.79039 31.3899 4.35979 31.4406 3.47418 32.3367C2.58857 33.2329 2.55451 34.6363 3.40606 35.5662C4.25761 36.4962 5.67118 36.5977 6.65897 35.803C7.64677 35.0083 7.81708 33.6049 7.08475 32.5904L8.46425 30.7981C8.873 30.9841 9.33283 31.0686 9.79267 31.0686C9.86079 31.0686 9.92891 31.0686 9.99704 31.0517L11.0189 36.7836C9.65642 37.1894 8.70269 38.4238 8.65159 39.8272C8.61753 41.2475 9.50314 42.5156 10.8486 42.989C12.194 43.4625 13.6928 43.0229 14.5613 41.89L19.33 44.0035C19.2959 44.1726 19.2619 44.3586 19.2619 44.5277C19.2619 45.7282 20.1645 46.7427 21.3737 46.878C22.5829 47.0132 23.6899 46.2355 23.9624 45.0688C24.2349 43.9021 23.5707 42.7185 22.4296 42.3127C21.2886 41.9069 20.0283 42.4311 19.5003 43.5132L14.8509 41.4504C15.0552 41.0784 15.1915 40.6726 15.2255 40.2499L21.2886 38.7788C21.7484 39.6243 22.5659 40.2161 23.5196 40.419C24.4733 40.605 25.4611 40.3682 26.2105 39.7764L28.4756 41.7209C27.9477 42.8707 28.4075 44.2234 29.5315 44.7982C30.6556 45.39 32.0351 45.0011 32.6823 43.919C33.3294 42.8369 33.0229 41.4504 31.984 40.7402C30.9281 40.0301 29.5145 40.2668 28.7481 41.2644L26.5852 39.4214C26.9088 39.0832 27.1472 38.6605 27.3005 38.2209L36.3099 38.6605C36.3269 39.9624 37.3828 40.9938 38.6942 40.9938C40.0056 40.9938 41.0615 39.9286 41.0445 38.6436C41.0445 37.3754 39.9885 36.3271 38.6772 36.3271Z" fill="black"/>
    </g>
    <defs>
        <clipPath id="clip0_1605_3678">
            <rect width="176.117" height="48" fill="white"/>
        </clipPath>
    </defs>
</svg>
