<?xml version="1.0" encoding="UTF-8" standalone="no"?>
<!DOCTYPE svg PUBLIC "-//W3C//DTD SVG 1.1//EN" "http://www.w3.org/Graphics/SVG/1.1/DTD/svg11.dtd">
<svg width="100%" height="100%" viewBox="0 0 93 86" version="1.1" xmlns="http://www.w3.org/2000/svg" xmlns:xlink="http://www.w3.org/1999/xlink" xml:space="preserve" xmlns:serif="http://www.serif.com/" style="fill-rule:evenodd;clip-rule:evenodd;stroke-linejoin:round;stroke-miterlimit:2;">
    <g id="token">
        <g transform="matrix(1,0,0,1,-33.6,0)">
            <path d="M96.63,40.5C96.02,39.46 95.18,38.65 94.12,38.05C93.06,37.46 91.87,37.16 90.55,37.16L71.68,37.16C69.05,37.16 66.93,39.29 66.93,41.91L66.93,85.22L73.8,85.22L73.8,67.58C73.8,66.54 74.6,65.62 75.65,65.6C76.72,65.57 77.59,66.43 77.59,67.49L77.59,67.67C77.59,69.76 79.29,71.46 81.38,71.46L90.55,71.46C90.79,71.46 91.03,71.45 91.27,71.43L93.45,71.43C95.72,71.43 97.56,69.59 97.56,67.32L97.56,44C97.56,42.68 97.25,41.5 96.64,40.46M90.69,63.2C90.69,63.6 90.54,63.93 90.25,64.21C89.99,64.45 89.64,64.58 89.28,64.58L75.2,64.58C74.9,64.58 74.45,64.42 74.23,64.21C73.94,63.94 73.79,63.6 73.79,63.2L73.79,45.4C73.79,45.1 73.95,44.65 74.16,44.43C74.43,44.14 74.77,43.99 75.17,43.99L89.28,43.99C89.58,43.99 90.03,44.15 90.25,44.36C90.54,44.63 90.69,44.97 90.69,45.37L90.69,63.2Z" style="fill:rgb(244,244,244);fill-rule:nonzero;"/>
        </g>
        <path d="M6.87,26.08L6.87,8.32C6.87,7.9 7.03,7.48 7.34,7.2C7.59,6.98 7.89,6.86 8.24,6.86L30.59,6.86L30.59,0L30.27,0C28.16,0 26.45,1.71 26.45,3.82L26.45,3.89C26.45,4.93 25.65,5.85 24.6,5.87C23.53,5.9 22.66,5.04 22.66,3.98L22.66,3.8C22.66,1.71 20.96,0.01 18.87,0.01L7,0.01C5.66,0.01 4.46,0.31 3.4,0.91C2.34,1.51 1.51,2.35 0.9,3.41C0.3,4.47 -0,5.67 -0,7.01L-0,27.32C-0,28.66 0.3,29.86 0.9,30.92C1.5,31.98 2.34,32.81 3.4,33.42C4.46,34.02 5.66,34.33 7,34.33L30.59,34.33L30.59,27.46L8.32,27.46C7.9,27.46 7.48,27.3 7.2,26.99C6.98,26.74 6.86,26.44 6.86,26.09" style="fill:rgb(244,244,244);fill-rule:nonzero;"/>
        <g transform="matrix(1,0,0,1,-33.6,0)">
            <path d="M67,27.468C69.754,27.465 75.096,27.46 76.64,27.46L89.29,27.46C89.64,27.46 89.94,27.34 90.19,27.12C90.5,26.84 90.66,26.42 90.66,26L90.66,21.96C90.66,21.61 90.54,21.31 90.32,21.06C90.04,20.75 89.62,20.59 89.2,20.59L73.95,20.59C72.61,20.59 71.41,20.28 70.35,19.68C69.29,19.07 68.45,18.24 67.85,17.18C67.397,16.393 67.115,15.535 67,14.605L67,6.013C67.117,5.068 67.403,4.2 67.85,3.41C68.46,2.35 69.29,1.51 70.35,0.91C71.41,0.31 72.61,0.01 73.95,0.01L85.82,0.01C87.91,0.01 89.61,1.71 89.61,3.8L89.61,3.98C89.6,5.04 90.48,5.9 91.55,5.87C92.6,5.85 93.4,4.93 93.4,3.89L93.4,3.82C93.4,1.71 95.11,0 97.22,0L97.54,0L97.54,6.87L75.2,6.87L75.19,6.86C74.84,6.86 74.54,6.98 74.29,7.2C73.98,7.48 73.82,7.9 73.82,8.32L73.82,12.36C73.82,12.71 73.94,13.01 74.16,13.26C74.44,13.57 74.86,13.73 75.28,13.73L90.54,13.73C91.88,13.73 93.08,14.03 94.14,14.63C95.2,15.24 96.04,16.07 96.64,17.13C97.24,18.19 97.54,19.38 97.54,20.7L97.54,27.3C97.54,28.64 97.24,29.84 96.64,30.9C96.03,31.96 95.2,32.8 94.14,33.4C93.08,34.01 91.88,34.31 90.54,34.31L67,34.31L67,27.468Z" style="fill:rgb(244,244,244);"/>
        </g>
        <g transform="matrix(1,0,0,1,-65.8734,0)">
            <path d="M132.673,68.673C132.678,68.619 132.68,68.565 132.68,68.51L132.68,68.44C132.68,66.38 134.32,64.7 136.36,64.63L137.67,64.63C138.07,64.63 138.41,64.48 138.68,64.19C138.89,63.97 139.05,63.52 139.05,63.22L139.05,45.42C139.05,45.02 138.9,44.68 138.61,44.41C138.39,44.2 137.94,44.04 137.64,44.04L133.87,44.04L133.87,37.17L142.12,37.17C144.21,37.17 145.91,38.87 145.91,40.96L145.91,41.14C145.9,42.2 146.78,43.06 147.85,43.03C148.89,43.01 149.69,42.09 149.69,41.05L149.69,40.98C149.69,38.87 151.4,37.16 153.51,37.16L158.11,37.16L158.11,44.03L147.32,44.03C147.01,44.03 146.57,44.19 146.35,44.4C146.06,44.68 145.91,45.01 145.91,45.41L145.91,63.24C145.91,63.64 146.06,63.98 146.35,64.25L146.37,64.26C146.62,64.51 146.97,64.63 147.33,64.63L151.45,64.63L151.45,71.5L132.673,71.5L132.673,68.673Z" style="fill:rgb(244,244,244);"/>
        </g>
    </g>
</svg>
