<?xml version="1.0" encoding="UTF-8" standalone="no"?><!DOCTYPE svg PUBLIC "-//W3C//DTD SVG 1.1//EN" "http://www.w3.org/Graphics/SVG/1.1/DTD/svg11.dtd"><svg width="100%" height="100%" viewBox="0 0 159 86" version="1.1" xmlns="http://www.w3.org/2000/svg" xmlns:xlink="http://www.w3.org/1999/xlink" xml:space="preserve" xmlns:serif="http://www.serif.com/" style="fill-rule:evenodd;clip-rule:evenodd;stroke-linejoin:round;stroke-miterlimit:2;"><path d="M96.63,40.5C96.02,39.46 95.18,38.65 94.12,38.05C93.06,37.46 91.87,37.16 90.55,37.16L71.68,37.16C69.05,37.16 66.93,39.29 66.93,41.91L66.93,85.22L73.8,85.22L73.8,67.58C73.8,66.54 74.6,65.62 75.65,65.6C76.72,65.57 77.59,66.43 77.59,67.49L77.59,67.67C77.59,69.76 79.29,71.46 81.38,71.46L90.55,71.46C90.79,71.46 91.03,71.45 91.27,71.43L93.45,71.43C95.72,71.43 97.56,69.59 97.56,67.32L97.56,44C97.56,42.68 97.25,41.5 96.64,40.46M90.69,63.2C90.69,63.6 90.54,63.93 90.25,64.21C89.99,64.45 89.64,64.58 89.28,64.58L75.2,64.58C74.9,64.58 74.45,64.42 74.23,64.21C73.94,63.94 73.79,63.6 73.79,63.2L73.79,45.4C73.79,45.1 73.95,44.65 74.16,44.43C74.43,44.14 74.77,43.99 75.17,43.99L89.28,43.99C89.58,43.99 90.03,44.15 90.25,44.36C90.54,44.63 90.69,44.97 90.69,45.37L90.69,63.2Z" style="fill:rgb(244,244,244);fill-rule:nonzero;"/><path d="M146.35,64.25C146.06,63.98 145.91,63.64 145.91,63.24L145.91,45.41C145.91,45.01 146.06,44.68 146.35,44.4C146.57,44.19 147.01,44.03 147.32,44.03L158.11,44.03L158.11,37.16L153.51,37.16C151.4,37.16 149.69,38.87 149.69,40.98L149.69,41.05C149.69,42.09 148.89,43.01 147.85,43.03C146.78,43.06 145.9,42.2 145.91,41.14L145.91,40.96C145.91,38.87 144.21,37.17 142.12,37.17L133.87,37.17L133.87,44.04L137.64,44.04C137.94,44.04 138.39,44.2 138.61,44.41C138.9,44.68 139.05,45.02 139.05,45.42L139.05,63.22C139.05,63.52 138.89,63.97 138.68,64.19C138.41,64.48 138.07,64.63 137.67,64.63L136.36,64.63C134.32,64.7 132.68,66.38 132.68,68.44L132.68,68.51C132.68,69.55 131.88,70.47 130.84,70.49C129.77,70.52 128.9,69.66 128.9,68.6L128.9,68.42C128.9,66.37 127.28,64.71 125.25,64.64L108.65,64.64C108.29,64.64 107.97,64.51 107.69,64.24C107.41,63.97 107.27,63.65 107.27,63.27L107.27,59.15C107.27,58.79 107.41,58.47 107.69,58.19C107.97,57.91 108.29,57.77 108.65,57.77L130.94,57.77L130.94,44.2C130.94,42.86 130.64,41.66 130.05,40.6C129.46,39.54 128.63,38.71 127.57,38.1C126.51,37.5 125.3,37.2 123.93,37.2L107.4,37.2C106.08,37.2 104.89,37.5 103.83,38.1C102.77,38.7 101.93,39.54 101.32,40.6C100.71,41.66 100.4,42.86 100.4,44.2L100.4,67.36C100.4,69.63 102.24,71.47 104.51,71.47L106.7,71.47C106.93,71.49 107.17,71.5 107.41,71.5L151.45,71.5L151.45,64.63L147.33,64.63C146.97,64.63 146.62,64.51 146.37,64.26M107.29,45.42C107.29,45.04 107.43,44.72 107.71,44.45C107.99,44.18 108.31,44.05 108.67,44.05L122.72,44.05C123.12,44.05 123.45,44.18 123.71,44.45C123.97,44.72 124.1,45.04 124.1,45.42L124.1,49.54C124.1,49.92 123.97,50.24 123.71,50.51C123.45,50.78 123.12,50.91 122.72,50.91L108.67,50.91C108.31,50.91 107.99,50.77 107.71,50.49C107.43,50.21 107.29,49.89 107.29,49.53L107.29,45.41L107.29,45.42Z" style="fill:rgb(244,244,244);fill-rule:nonzero;"/><path d="M75.2,6.87L97.54,6.87L97.54,0L97.22,0C95.11,0 93.4,1.71 93.4,3.82L93.4,3.89C93.4,4.93 92.6,5.85 91.55,5.87C90.48,5.9 89.6,5.04 89.61,3.98L89.61,3.8C89.61,1.71 87.91,0.01 85.82,0.01L73.95,0.01C72.61,0.01 71.41,0.31 70.35,0.91C69.29,1.51 68.46,2.35 67.85,3.41C67.25,4.47 66.94,5.67 66.94,7.01L66.94,13.61C66.94,14.93 67.24,16.12 67.85,17.18C68.45,18.24 69.29,19.07 70.35,19.68C71.41,20.28 72.61,20.59 73.95,20.59L89.2,20.59C89.62,20.59 90.04,20.75 90.32,21.06C90.54,21.31 90.66,21.61 90.66,21.96L90.66,26C90.66,26.42 90.5,26.84 90.19,27.12C89.94,27.34 89.64,27.46 89.29,27.46L76.64,27.46C74.53,27.46 72.82,29.17 72.82,31.28L72.82,31.35C72.82,32.39 72.02,33.31 70.97,33.33C69.9,33.36 69.03,32.5 69.03,31.44L69.03,31.26C69.03,29.17 67.33,27.47 65.24,27.47L65.33,27.47C64.8,27.42 64.38,27.09 64.08,26.48L64.08,7C64.08,5.66 63.78,4.46 63.17,3.4C62.57,2.34 61.73,1.51 60.67,0.9C59.61,0.3 58.41,-0 57.07,-0L33.43,-0L33.43,6.87L55.75,6.87C56.17,6.87 56.59,7.03 56.87,7.34C57.09,7.59 57.21,7.89 57.21,8.24L57.21,12.28C57.21,12.7 57.05,13.12 56.74,13.4C56.49,13.62 56.19,13.74 55.84,13.74L40.45,13.74C39.11,13.74 37.91,14.04 36.85,14.64C35.79,15.24 34.96,16.08 34.35,17.14C33.75,18.2 33.44,19.39 33.44,20.71L33.44,27.31C33.44,28.65 33.74,29.85 34.35,30.91C34.95,31.97 35.79,32.8 36.85,33.41C37.91,34.01 39.11,34.32 40.45,34.32L49.65,34.32C51.76,34.32 53.47,32.61 53.47,30.5L53.47,30.43C53.47,29.39 54.27,28.47 55.32,28.45C56.39,28.42 57.27,29.28 57.26,30.34L57.26,30.52C57.26,32.61 58.96,34.31 61.05,34.31L90.54,34.31C91.88,34.31 93.08,34.01 94.14,33.4C95.2,32.8 96.03,31.96 96.64,30.9C97.24,29.84 97.54,28.64 97.54,27.3L97.54,20.7C97.54,19.38 97.24,18.19 96.64,17.13C96.04,16.07 95.2,15.24 94.14,14.63C93.08,14.03 91.88,13.73 90.54,13.73L75.28,13.73C74.86,13.73 74.44,13.57 74.16,13.26C73.94,13.01 73.82,12.71 73.82,12.36L73.82,8.32C73.82,7.9 73.98,7.48 74.29,7.2C74.54,6.98 74.84,6.86 75.19,6.86M57.21,26.06C57.21,26.41 57.1,26.71 56.87,26.96C56.59,27.28 56.17,27.43 55.75,27.43L41.75,27.43C41.33,27.43 40.91,27.27 40.63,26.96C40.41,26.71 40.29,26.41 40.29,26.06L40.29,22.02C40.29,21.6 40.45,21.18 40.76,20.9C41.01,20.68 41.31,20.56 41.66,20.56L55.74,20.56C56.16,20.56 56.58,20.72 56.86,21.03C57.08,21.28 57.2,21.58 57.2,21.93L57.2,26.05L57.21,26.06Z" style="fill:rgb(244,244,244);fill-rule:nonzero;"/><path d="M6.87,26.08L6.87,8.32C6.87,7.9 7.03,7.48 7.34,7.2C7.59,6.98 7.89,6.86 8.24,6.86L30.59,6.86L30.59,0L30.27,0C28.16,0 26.45,1.71 26.45,3.82L26.45,3.89C26.45,4.93 25.65,5.85 24.6,5.87C23.53,5.9 22.66,5.04 22.66,3.98L22.66,3.8C22.66,1.71 20.96,0.01 18.87,0.01L7,0.01C5.66,0.01 4.46,0.31 3.4,0.91C2.34,1.51 1.51,2.35 0.9,3.41C0.3,4.47 -0,5.67 -0,7.01L-0,27.32C-0,28.66 0.3,29.86 0.9,30.92C1.5,31.98 2.34,32.81 3.4,33.42C4.46,34.02 5.66,34.33 7,34.33L30.59,34.33L30.59,27.46L8.32,27.46C7.9,27.46 7.48,27.3 7.2,26.99C6.98,26.74 6.86,26.44 6.86,26.09" style="fill:rgb(244,244,244);fill-rule:nonzero;"/></svg>