<svg width="64" height="64" viewBox="0 0 64 64" fill="none" xmlns="http://www.w3.org/2000/svg">
    <circle cx="32" cy="32" r="31.25" stroke="url(#paint0_linear_1481_5654)" stroke-width="1.5"/>
    <g clip-path="url(#clip0_1481_5654)">
        <path d="M42.1502 22.8506L40.8912 26.2896L43.0122 28.4116C43.1232 28.5144 43.1998 28.649 43.2314 28.7969C43.2631 28.9449 43.2483 29.099 43.1891 29.2382C43.13 29.3775 43.0293 29.4951 42.9008 29.5749C42.7723 29.6548 42.6223 29.6931 42.4712 29.6846L38.8182 29.6556L37.4992 33.0186C37.4365 33.1706 37.3276 33.2991 37.188 33.386C37.0483 33.4728 36.8849 33.5136 36.7208 33.5025C36.5567 33.4915 36.4002 33.4292 36.2734 33.3244C36.1466 33.2196 36.056 33.0777 36.0142 32.9186L34.9312 29.0706L31.0792 27.9916C30.9202 27.9495 30.7785 27.8587 30.6738 27.7319C30.5692 27.605 30.507 27.4485 30.4959 27.2845C30.4849 27.1204 30.5256 26.957 30.6123 26.8173C30.699 26.6775 30.8273 26.5685 30.9792 26.5056L34.3422 25.1826L34.3132 21.5296C34.3034 21.3779 34.3409 21.2269 34.4205 21.0974C34.5002 20.968 34.6181 20.8664 34.7579 20.8068C34.8977 20.7472 35.0526 20.7325 35.2012 20.7647C35.3497 20.7969 35.4846 20.8744 35.5872 20.9866L37.7092 23.1076L41.1502 21.8506C41.2892 21.8078 41.4373 21.8037 41.5784 21.8387C41.7196 21.8738 41.8485 21.9466 41.9513 22.0495C42.0542 22.1523 42.127 22.2812 42.1621 22.4224C42.1971 22.5635 42.193 22.7116 42.1502 22.8506Z" stroke="url(#paint1_linear_1481_5654)" stroke-width="1.5" stroke-linecap="round" stroke-linejoin="round"/>
        <path d="M34.932 29.0703L20.75 43.2503" stroke="url(#paint2_linear_1481_5654)" stroke-width="1.5" stroke-linecap="round" stroke-linejoin="round"/>
    </g>
    <defs>
        <linearGradient id="paint0_linear_1481_5654" x1="32" y1="0" x2="32" y2="64" gradientUnits="userSpaceOnUse">
            <stop stop-color="#0024CF"/>
            <stop offset="1" stop-color="#D91C52"/>
        </linearGradient>
        <linearGradient id="paint1_linear_1481_5654" x1="36.8709" y1="20.748" x2="36.8709" y2="33.5043" gradientUnits="userSpaceOnUse">
            <stop stop-color="#0024CF"/>
            <stop offset="1" stop-color="#D91C52"/>
        </linearGradient>
        <linearGradient id="paint2_linear_1481_5654" x1="27.841" y1="29.0703" x2="27.841" y2="43.2503" gradientUnits="userSpaceOnUse">
            <stop stop-color="#0024CF"/>
            <stop offset="1" stop-color="#D91C52"/>
        </linearGradient>
        <clipPath id="clip0_1481_5654">
            <rect width="24" height="24" fill="white" transform="translate(20 20)"/>
        </clipPath>
    </defs>
</svg>
