<svg width="16" height="16" viewBox="0 0 16 16" fill="none" xmlns="http://www.w3.org/2000/svg">
    <path fill-rule="evenodd" clip-rule="evenodd" d="M8 3.5C7.17157 3.5 6.5 4.17157 6.5 5C6.5 5.82843 7.17157 6.5 8 6.5C8.82843 6.5 9.5 5.82843 9.5 5C9.5 4.17157 8.82843 3.5 8 3.5ZM5.5 5C5.5 3.61929 6.61929 2.5 8 2.5C9.38071 2.5 10.5 3.61929 10.5 5C10.5 6.38071 9.38071 7.5 8 7.5C6.61929 7.5 5.5 6.38071 5.5 5Z" fill="#666666"/>
    <path fill-rule="evenodd" clip-rule="evenodd" d="M8 1C6.93913 1 5.92172 1.42143 5.17157 2.17157C4.42143 2.92172 4 3.93913 4 5C4 5.43516 4.17858 6.06646 4.50766 6.83238C4.83046 7.58367 5.27392 8.41068 5.75074 9.21841C6.57869 10.6209 7.49017 11.9368 8 12.6504C8.50983 11.9368 9.42131 10.6209 10.2493 9.21841C10.7261 8.41068 11.1695 7.58367 11.4923 6.83238C11.8214 6.06646 12 5.43516 12 5C12 3.93913 11.5786 2.92172 10.8284 2.17157C10.0783 1.42143 9.06087 1 8 1ZM4.46447 1.46447C5.40215 0.526784 6.67392 0 8 0C9.32608 0 10.5979 0.526784 11.5355 1.46447C12.4732 2.40215 13 3.67392 13 5C13 5.6485 12.7509 6.43629 12.4111 7.22714C12.065 8.03262 11.5984 8.90007 11.1104 9.72676C10.1338 11.3811 9.04891 12.9101 8.60729 13.5184L8.60585 13.5204C8.53606 13.6155 8.44485 13.6929 8.33959 13.7462C8.23434 13.7996 8.118 13.8274 8 13.8274C7.882 13.8274 7.76566 13.7996 7.66041 13.7462C7.55515 13.6929 7.46394 13.6155 7.39415 13.5204L7.39271 13.5184C6.95109 12.9101 5.86618 11.3811 4.88959 9.72676C4.40158 8.90007 3.93496 8.03262 3.58888 7.22714C3.24908 6.43629 3 5.6485 3 5C3 3.67392 3.52678 2.40215 4.46447 1.46447Z" fill="#666666"/>
    <path fill-rule="evenodd" clip-rule="evenodd" d="M11.4955 11.7584C11.5492 11.4876 11.8122 11.3114 12.0831 11.3651C13.0178 11.5502 13.8247 11.803 14.4115 12.1162C14.7046 12.2727 14.9657 12.4563 15.159 12.6739C15.355 12.8945 15.5 13.1732 15.5 13.4996C15.5 14.0294 15.1283 14.4233 14.7299 14.6924C14.3141 14.9733 13.7453 15.2066 13.0874 15.3946C11.7646 15.7725 9.96621 15.9996 8 15.9996C6.03379 15.9996 4.23538 15.7725 2.91264 15.3946C2.25466 15.2066 1.68587 14.9733 1.27009 14.6924C0.871724 14.4233 0.5 14.0294 0.5 13.4996C0.5 13.1739 0.644293 12.8958 0.839622 12.6753C1.03217 12.458 1.29228 12.2746 1.58418 12.1183C2.16851 11.8053 2.97197 11.5527 3.90225 11.3672C4.17307 11.3132 4.43637 11.489 4.49035 11.7598C4.54434 12.0306 4.36856 12.2939 4.09775 12.3479C3.21536 12.5238 2.51883 12.7521 2.05632 12.9998C1.8248 13.1238 1.67479 13.2407 1.58807 13.3385C1.50412 13.4333 1.5 13.4852 1.5 13.4996C1.5 13.522 1.51994 13.6544 1.82991 13.8638C2.12246 14.0614 2.57867 14.2591 3.18736 14.4331C4.39795 14.7789 6.09954 14.9996 8 14.9996C9.90046 14.9996 11.6021 14.7789 12.8126 14.4331C13.4213 14.2591 13.8775 14.0614 14.1701 13.8638C14.4801 13.6544 14.5 13.522 14.5 13.4996C14.5 13.4853 14.4959 13.4332 14.4114 13.3381C14.3241 13.2398 14.1732 13.1226 13.9405 12.9984C13.4756 12.7502 12.7756 12.5216 11.8889 12.346C11.618 12.2924 11.4419 12.0293 11.4955 11.7584Z" fill="#666666"/>
</svg>
