<svg viewBox="0 0 39 46" fill="none" xmlns="http://www.w3.org/2000/svg">
    <path d="M0.143066 41.3428C0.155377 42.0571 0.363234 42.7544 0.744048 43.3589C1.12486 43.9634 1.66407 44.4519 2.30307 44.7714C2.94115 45.1319 3.6616 45.3214 4.3945 45.3214C5.12739 45.3214 5.84784 45.1319 6.48592 44.7714L36.1431 26.4285C36.7884 26.1177 37.3328 25.631 37.7138 25.0245C38.0949 24.418 38.297 23.7162 38.297 23C38.297 22.2837 38.0949 21.582 37.7138 20.9754C37.3328 20.3689 36.7884 19.8823 36.1431 19.5714L6.48592 1.36567C5.84784 1.00514 5.12739 0.815674 4.3945 0.815674C3.6616 0.815674 2.94115 1.00514 2.30307 1.36567C1.66407 1.68518 1.12486 2.17371 0.744048 2.77818C0.363234 3.38265 0.155377 4.07993 0.143066 4.79425V41.3428Z" fill="#0024CF"/>
</svg>
