<svg width="64" height="64" viewBox="0 0 64 65" fill="none" xmlns="http://www.w3.org/2000/svg">
    <circle cx="32" cy="32.916" r="31.25" stroke="url(#paint0_linear_2027_8238)" stroke-width="1.5"/>
    <path fill-rule="evenodd" clip-rule="evenodd" d="M21.5 32.916C21.5 27.117 26.201 22.416 32 22.416C37.799 22.416 42.5 27.117 42.5 32.916C42.5 38.715 37.799 43.416 32 43.416C26.201 43.416 21.5 38.715 21.5 32.916ZM32 20.916C25.3726 20.916 20 26.2886 20 32.916C20 39.5434 25.3726 44.916 32 44.916C38.6274 44.916 44 39.5434 44 32.916C44 26.2886 38.6274 20.916 32 20.916ZM26 34.416C26 34.0018 25.6642 33.666 25.25 33.666C24.8358 33.666 24.5 34.0018 24.5 34.416C24.5 36.4051 25.2902 38.3128 26.6967 39.7193C28.1032 41.1258 30.0109 41.916 32 41.916C33.9891 41.916 35.8968 41.1258 37.3033 39.7193C38.7098 38.3128 39.5 36.4051 39.5 34.416C39.5 34.0018 39.1642 33.666 38.75 33.666C38.3358 33.666 38 34.0018 38 34.416C38 36.0073 37.3679 37.5334 36.2426 38.6587C35.1174 39.7839 33.5913 40.416 32 40.416C30.4087 40.416 28.8826 39.7839 27.7574 38.6587C26.6321 37.5334 26 36.0073 26 34.416ZM34.0004 28.4588C34.3909 28.3208 34.8194 28.5256 34.9574 28.9161C35.0607 29.2087 35.2522 29.462 35.5055 29.6411C35.7588 29.8203 36.0615 29.9165 36.3717 29.9165C36.682 29.9165 36.9846 29.8203 37.2379 29.6411C37.4912 29.462 37.6827 29.2087 37.786 28.9161C37.924 28.5256 38.3525 28.3208 38.743 28.4588C39.1336 28.5968 39.3383 29.0252 39.2004 29.4158C38.9937 30.0009 38.6106 30.5075 38.104 30.8658C37.5975 31.2241 36.9922 31.4165 36.3717 31.4165C35.7512 31.4165 35.146 31.2241 34.6394 30.8658C34.1328 30.5075 33.7497 30.0009 33.543 29.4158C33.4051 29.0252 33.6098 28.5968 34.0004 28.4588ZM26.2142 28.9161C26.0762 28.5256 25.6478 28.3208 25.2572 28.4588C24.8667 28.5968 24.6619 29.0252 24.7999 29.4158C25.0066 30.0009 25.3896 30.5075 25.8962 30.8658C26.4028 31.2241 27.008 31.4165 27.6285 31.4165C28.249 31.4165 28.8543 31.2241 29.3609 30.8658C29.8675 30.5075 30.2505 30.0009 30.4572 29.4158C30.5952 29.0252 30.3904 28.5968 29.9999 28.4588C29.6093 28.3208 29.1809 28.5256 29.0429 28.9161C28.9395 29.2087 28.748 29.462 28.4947 29.6411C28.2414 29.8203 27.9388 29.9165 27.6285 29.9165C27.3183 29.9165 27.0157 29.8203 26.7624 29.6411C26.5091 29.462 26.3176 29.2087 26.2142 28.9161Z" fill="url(#paint1_linear_2027_8238)"/>
    <defs>
        <linearGradient id="paint0_linear_2027_8238" x1="32" y1="0.916016" x2="32" y2="64.916" gradientUnits="userSpaceOnUse">
            <stop stop-color="#0024CF"/>
            <stop offset="1" stop-color="#D91C52"/>
        </linearGradient>
        <linearGradient id="paint1_linear_2027_8238" x1="32" y1="20.916" x2="32" y2="44.916" gradientUnits="userSpaceOnUse">
            <stop stop-color="#0024CF"/>
            <stop offset="1" stop-color="#D91C52"/>
        </linearGradient>
    </defs>
</svg>
