<svg viewBox="0 0 48 48" fill="none" xmlns="http://www.w3.org/2000/svg">
<path d="M24 46.5C36.4264 46.5 46.5 36.4264 46.5 24C46.5 11.5736 36.4264 1.5 24 1.5C11.5736 1.5 1.5 11.5736 1.5 24C1.5 36.4264 11.5736 46.5 24 46.5Z" stroke="black" stroke-width="1.5" stroke-linecap="round" stroke-linejoin="round"/>
<path d="M30.0099 35.486L34.8759 15C34.9179 14.8232 34.9109 14.6383 34.8557 14.4652C34.8006 14.2921 34.6993 14.1372 34.5627 14.0173C34.4262 13.8975 34.2596 13.817 34.0808 13.7847C33.9019 13.7524 33.7177 13.7694 33.5479 13.834L8.54785 23.366L19.4999 26.5L30.0099 35.486Z" stroke="black" stroke-width="1.5" stroke-linecap="round" stroke-linejoin="round"/>
<path d="M16.188 25.552L17.5 35L24.364 30.66" stroke="black" stroke-width="1.5" stroke-linecap="round" stroke-linejoin="round"/>
<path d="M19.5 26.5L26.5 22" stroke="black" stroke-width="1.5" stroke-linecap="round" stroke-linejoin="round"/>
</svg>
