<svg viewBox="0 0 48 48" fill="none" xmlns="http://www.w3.org/2000/svg">
<path d="M46.5 14.88C46.5 13.0553 45.7751 11.3054 44.4849 10.0151C43.1946 8.72485 41.4447 8 39.62 8H8.38C7.47651 8 6.58186 8.17796 5.74714 8.52371C4.91242 8.86946 4.15397 9.37624 3.51511 10.0151C2.22485 11.3054 1.5 13.0553 1.5 14.88V33.12C1.5 34.9447 2.22485 36.6946 3.51511 37.9849C4.15397 38.6238 4.91242 39.1305 5.74714 39.4763C6.58186 39.822 7.47651 40 8.38 40H39.62C41.4447 40 43.1946 39.2751 44.4849 37.9849C45.7751 36.6946 46.5 34.9447 46.5 33.12V14.88ZM19 31.88V14.56L32.54 23.22L19 31.88Z" stroke="black" stroke-width="1.5" stroke-linecap="round" stroke-linejoin="round"/>
</svg>
