<svg viewBox="0 0 48 48" fill="none" xmlns="http://www.w3.org/2000/svg">
<path d="M46.5 45.5C46.4999 45.6934 46.4438 45.8826 46.3384 46.0448C46.2329 46.2069 46.0828 46.335 45.906 46.4135C45.7293 46.492 45.5336 46.5176 45.3426 46.4872C45.1516 46.4567 44.9736 46.3716 44.83 46.242L35.03 37.518C34.9122 37.4119 34.7709 37.3354 34.6177 37.2947C34.4645 37.254 34.3038 37.2503 34.1489 37.2839C33.994 37.3175 33.8493 37.3874 33.7267 37.4879C33.6042 37.5885 33.5073 37.7167 33.444 37.862L32.26 40.588C32.1821 40.7666 32.0537 40.9185 31.8906 41.0251C31.7275 41.1317 31.5368 41.1883 31.342 41.188H3.5C2.96957 41.188 2.46086 40.9773 2.08579 40.6022C1.71071 40.2271 1.5 39.7184 1.5 39.188V3.5C1.5 2.96957 1.71071 2.46086 2.08579 2.08579C2.46086 1.71071 2.96957 1.5 3.5 1.5H44.5C45.0304 1.5 45.5391 1.71071 45.9142 2.08579C46.2893 2.46086 46.5 2.96957 46.5 3.5V45.5Z" stroke="black" stroke-width="1.5" stroke-linecap="round" stroke-linejoin="round"/>
<path d="M18.5 17.5C19.0523 17.5 19.5 17.0523 19.5 16.5C19.5 15.9477 19.0523 15.5 18.5 15.5C17.9477 15.5 17.5 15.9477 17.5 16.5C17.5 17.0523 17.9477 17.5 18.5 17.5Z" stroke="black" stroke-width="1.5" stroke-linecap="round" stroke-linejoin="round"/>
<path d="M39.3999 22C38.404 18.1507 37.0237 14.4113 35.2799 10.838C35.0249 10.289 34.6184 9.82439 34.1081 9.49875C33.5979 9.17312 33.0052 9.00008 32.3999 9H15.5999C14.9947 9.00008 14.402 9.17312 13.8917 9.49875C13.3815 9.82439 12.9749 10.289 12.7199 10.838C10.9762 14.4113 9.59589 18.1507 8.59995 22C8.01195 24.936 10.1839 27.872 12.0759 29.8C12.3559 30.0843 12.6978 30.3 13.075 30.4301C13.4521 30.5603 13.8543 30.6014 14.25 30.5503C14.6457 30.4992 15.0242 30.3571 15.3559 30.1354C15.6876 29.9136 15.9635 29.6181 16.1619 29.272L17.9619 26.118C18.1544 25.7797 18.4332 25.4986 18.7698 25.3032C19.1064 25.1079 19.4888 25.0053 19.8779 25.006H28.1219C28.5111 25.0053 28.8935 25.1079 29.2301 25.3032C29.5667 25.4986 29.8455 25.7797 30.0379 26.118L31.8379 29.272C32.0364 29.6181 32.3123 29.9136 32.644 30.1354C32.9757 30.3571 33.3542 30.4992 33.7499 30.5503C34.1456 30.6014 34.5477 30.5603 34.9249 30.4301C35.3021 30.3 35.644 30.0843 35.9239 29.8C37.8179 27.872 39.9999 24.936 39.3999 22Z" stroke="black" stroke-width="1.5" stroke-linecap="round" stroke-linejoin="round"/>
<path d="M29.5 17.5C30.0523 17.5 30.5 17.0523 30.5 16.5C30.5 15.9477 30.0523 15.5 29.5 15.5C28.9477 15.5 28.5 15.9477 28.5 16.5C28.5 17.0523 28.9477 17.5 29.5 17.5Z" stroke="black" stroke-width="1.5" stroke-linecap="round" stroke-linejoin="round"/>
</svg>
