<svg viewBox="0 0 48 48" fill="none" xmlns="http://www.w3.org/2000/svg">
<path d="M28.8199 44.6999C28.8199 44.8551 28.8561 45.0082 28.9255 45.1471C28.9949 45.286 29.0957 45.4067 29.2199 45.4999C29.3441 45.593 29.4883 45.656 29.641 45.6838C29.7938 45.7115 29.9509 45.7034 30.0999 45.6599C35.3087 44.1563 39.7995 40.8226 42.7462 36.2719C45.6929 31.7211 46.8974 26.2595 46.1382 20.8914C45.3789 15.5234 42.707 10.61 38.6138 7.055C34.5205 3.50001 29.2814 1.54248 23.8599 1.54248C18.4385 1.54248 13.1993 3.50001 9.10608 7.055C5.01288 10.61 2.34092 15.5234 1.58166 20.8914C0.822398 26.2595 2.0269 31.7211 4.97363 36.2719C7.92035 40.8226 12.4111 44.1563 17.6199 45.6599C17.769 45.7034 17.9261 45.7115 18.0788 45.6838C18.2315 45.656 18.3757 45.593 18.4999 45.4999C18.6241 45.4067 18.7249 45.286 18.7943 45.1471C18.8638 45.0082 18.8999 44.8551 18.8999 44.6999V39.9999C17.528 40.4144 16.0496 40.2891 14.767 39.6497C13.4844 39.0102 12.4946 37.905 11.9999 36.5599C11.4408 34.8578 10.5119 33.3006 9.27992 31.9999C14.9799 33.3799 15.0799 37.0799 18.9599 35.3399C19.0772 34.042 19.5097 32.7925 20.2199 31.6999C15.8199 31.1999 11.1799 30.4999 11.1799 22.8999C11.1417 20.936 11.8575 19.0322 13.1799 17.5799C12.5775 15.8714 12.6491 13.9975 13.3799 12.3399C13.3799 12.3399 15.0399 11.7999 18.8399 14.3399C22.112 13.4361 25.5678 13.4361 28.8399 14.3399C32.6199 11.7799 34.2799 12.3399 34.2799 12.3399C35.0108 13.9975 35.0823 15.8714 34.4799 17.5799C35.8041 19.0311 36.5201 20.9357 36.4799 22.8999C36.4799 30.5199 31.8399 31.1999 27.4199 31.6799C28.3665 33.0447 28.8438 34.6802 28.7799 36.3399L28.8199 44.6999Z" stroke="black" stroke-width="1.5" stroke-linecap="round" stroke-linejoin="round"/>
</svg>
