<svg viewBox="0 0 48 48" fill="none" xmlns="http://www.w3.org/2000/svg">
<path d="M46.3602 13.4201L42.1602 11.6201L44.3602 6.82012L39.2402 8.52012C37.6094 6.99998 35.4694 6.14401 33.2402 6.12012C30.8548 6.1254 28.5687 7.07531 26.882 8.76199C25.1953 10.4487 24.2454 12.7348 24.2402 15.1201V17.1201C17.1602 18.5801 10.9802 14.7201 5.24016 8.12012C4.24016 13.4535 5.24016 17.4535 8.24016 20.1201L1.66016 19.1201C1.91437 21.2385 2.90484 23.2002 4.45851 24.6625C6.01219 26.1248 8.03027 26.9946 10.1602 27.1201L4.66016 29.1201C6.66016 33.1201 10.3002 33.7401 15.1602 34.1201C11.1878 36.8295 6.4673 38.2281 1.66016 38.1201C27.1802 49.4601 42.1602 32.8001 42.1602 18.1201V16.4601L46.3602 13.4201Z" stroke="black" stroke-width="1.5" stroke-linecap="round" stroke-linejoin="round"/>
</svg>
