<svg viewBox="0 0 48 48" fill="none" xmlns="http://www.w3.org/2000/svg">
<path d="M11.34 45.26H1.62002V17.4H11.34V45.26ZM31.52 26.48C30.3849 26.48 29.2963 26.9309 28.4936 27.7336C27.6909 28.5363 27.24 29.6249 27.24 30.76V45.26H17.02V17.4H27.24V20.58C29.6354 18.5521 32.6618 17.4208 35.8 17.38C42.14 17.38 46.54 22.08 46.54 31V45.26H35.8V30.76C35.8027 30.1963 35.6939 29.6376 35.48 29.116C35.2661 28.5944 34.9512 28.1202 34.5535 27.7207C34.1558 27.3211 33.6831 27.0041 33.1625 26.7877C32.642 26.5714 32.0838 26.46 31.52 26.46V26.48ZM11.52 7.76001C11.52 8.74892 11.2268 9.71562 10.6774 10.5379C10.128 11.3601 9.34707 12.001 8.43344 12.3794C7.51981 12.7578 6.51448 12.8569 5.54457 12.6639C4.57467 12.471 3.68375 11.9948 2.98449 11.2955C2.28523 10.5963 1.80902 9.70537 1.6161 8.73546C1.42317 7.76556 1.52219 6.76022 1.90062 5.84659C2.27906 4.93296 2.91992 4.15207 3.74217 3.60266C4.56442 3.05325 5.53112 2.76001 6.52002 2.76001C7.83916 2.77056 9.10068 3.302 10.0297 4.23854C10.9588 5.17508 11.4801 6.44083 11.48 7.76001H11.52Z" stroke="black" stroke-width="1.5" stroke-linecap="round" stroke-linejoin="round"/>
</svg>
