<svg width="48" height="48" viewBox="-2 -2 52 52" fill="none" xmlns="http://www.w3.org/2000/svg">
    <path d="M24 -1.04907e-06C37.2548 -4.69686e-07 48 10.7452 48 24C48 37.2548 37.2548 48 24 48C10.7452 48 -1.62846e-06 37.2548 -1.04907e-06 24C-4.69686e-07 10.7452 10.7452 -1.62846e-06 24 -1.04907e-06Z" />
    <path fill-rule="evenodd" clip-rule="evenodd" d="M18.5766 15.7414C18.5658 15.7412 18.555 15.7412 18.5442 15.7414C17.9653 15.7538 17.4128 15.9858 16.9986 16.3905C16.5844 16.7952 16.3396 17.3422 16.3139 17.9207C16.3132 17.9353 16.313 17.9499 16.3132 17.9646C16.3215 18.5554 16.5564 19.1205 16.9695 19.5431C17.3826 19.9656 17.9422 20.2133 18.5328 20.235C18.5475 20.2355 18.5623 20.2356 18.5771 20.2353C19.1732 20.2219 19.7401 19.9745 20.1553 19.5465C20.5704 19.1186 20.8006 18.5445 20.7959 17.9482C20.7959 17.9408 20.7957 17.9334 20.7954 17.9261C20.7738 17.3477 20.5321 16.7994 20.1197 16.3933C19.7072 15.9872 19.1553 15.754 18.5766 15.7414ZM18.0469 17.4634C18.1849 17.3286 18.3677 17.2497 18.5601 17.2416C18.7504 17.2497 18.9312 17.3282 19.0673 17.4622C19.2045 17.5973 19.286 17.7789 19.296 17.971C19.2947 18.1693 19.2169 18.3595 19.0787 18.502C18.943 18.6419 18.7595 18.7249 18.5654 18.7349C18.3676 18.7221 18.1811 18.6367 18.0421 18.4945C17.9031 18.3523 17.8219 18.1638 17.8136 17.9656C17.8275 17.7756 17.9103 17.5969 18.0469 17.4634ZM17.9731 30.7509L17.9731 22.2058C17.9898 22.2053 18.0079 22.2051 18.0276 22.205C18.096 22.2046 18.1708 22.2062 18.2627 22.2083L18.268 22.2084L18.2682 22.2084C18.3553 22.2104 18.4555 22.2126 18.5603 22.2126C18.6653 22.2126 18.7654 22.2104 18.8525 22.2084L18.8574 22.2083C18.949 22.2062 19.0232 22.2046 19.0911 22.205C19.1071 22.205 19.122 22.2052 19.136 22.2055L19.136 30.7508L19.1055 30.7503C19.051 30.7492 18.9954 30.7471 18.93 30.7446L18.8646 30.7421C18.7737 30.7388 18.6701 30.7355 18.5603 30.7355C18.4504 30.7355 18.3467 30.7388 18.2555 30.7421L18.1906 30.7446C18.1246 30.7471 18.0685 30.7492 18.0133 30.7503L17.9731 30.7509ZM18.5603 20.7126C18.473 20.7126 18.3876 20.7107 18.2967 20.7087L18.2933 20.7086C18.2067 20.7066 18.1115 20.7045 18.0193 20.705C17.8439 20.7059 17.6051 20.7152 17.3721 20.7896C17.1102 20.8732 16.8492 21.0413 16.6748 21.3405C16.5165 21.6121 16.4731 21.9189 16.4731 22.2055L16.4731 30.7769C16.4731 31.065 16.5166 31.3778 16.6828 31.6522C16.8676 31.9572 17.142 32.116 17.4054 32.1886C17.6376 32.2525 17.8752 32.2533 18.0432 32.25C18.1371 32.2481 18.2096 32.2452 18.2773 32.2424L18.2775 32.2424C18.3674 32.2388 18.4488 32.2355 18.5603 32.2355C18.6718 32.2355 18.753 32.2388 18.8426 32.2424C18.91 32.2452 18.9821 32.2481 19.0754 32.25C19.2421 32.2533 19.4796 32.2526 19.7117 32.1879C19.9763 32.1142 20.2488 31.9531 20.4308 31.6475C20.5938 31.374 20.636 31.063 20.636 30.7769L20.636 22.2055C20.636 21.9209 20.5939 21.6158 20.4388 21.3452C20.2671 21.0457 20.0082 20.8754 19.7452 20.7904C19.5123 20.7152 19.2737 20.7059 19.0994 20.705C19.0079 20.7045 18.9132 20.7066 18.827 20.7086L18.8233 20.7087C18.7327 20.7107 18.6475 20.7126 18.5603 20.7126ZM26.1798 22.2363C26.5108 22.0885 26.8742 22.0281 27.2353 22.061C27.2731 22.0644 27.3111 22.065 27.349 22.0626C27.724 22.0397 28.0996 22.0959 28.4515 22.2277C28.8034 22.3594 29.1236 22.5637 29.3914 22.8272C29.6592 23.0908 29.8685 23.4077 30.0058 23.7575C30.1431 24.1072 30.2052 24.4819 30.1882 24.8573C30.1877 24.8686 30.1875 24.8799 30.1875 24.8912L30.1875 30.7164L30.1618 30.716C30.1072 30.7149 30.0516 30.7128 29.9861 30.7103L29.9192 30.7078C29.8274 30.7044 29.7229 30.7012 29.6118 30.7012C29.5006 30.7012 29.3961 30.7044 29.3043 30.7078L29.2374 30.7103C29.1719 30.7128 29.1163 30.7149 29.0618 30.716L29.036 30.7164L29.036 26.2001C29.0595 25.8691 29.0138 25.5367 28.902 25.2241C28.7862 24.9004 28.6021 24.6055 28.3622 24.3593C28.1223 24.1131 27.8322 23.9214 27.5117 23.7972C27.201 23.6769 26.8688 23.6227 26.5362 23.638C26.2061 23.6339 25.8786 23.6978 25.5741 23.8258C25.2598 23.958 24.9771 24.1553 24.7449 24.4049C24.5126 24.6544 24.336 24.9505 24.2267 25.2734C24.1217 25.5838 24.0812 25.9122 24.1075 26.2385L24.1075 30.7508L24.072 30.7503C24.0169 30.7492 23.9607 30.747 23.8947 30.7445L23.8281 30.7421C23.7361 30.7387 23.6314 30.7355 23.5203 30.7355C23.4092 30.7355 23.3047 30.7387 23.2129 30.7421L23.146 30.7446L23.1458 30.7446C23.0804 30.7471 23.0248 30.7492 22.9703 30.7503L22.9446 30.7507L22.9446 22.2055L22.9446 22.2013C22.9618 22.2007 22.9809 22.2002 23.0019 22.1998C23.1241 22.1974 23.2724 22.1989 23.431 22.2024C23.5491 22.205 23.6805 22.2091 23.8068 22.2129L23.8069 22.2129L23.9785 22.2181L23.9811 22.235C23.9913 22.3032 23.9952 22.3739 23.9935 22.4366C23.9846 22.7635 24.1886 23.0584 24.4975 23.1655C24.8065 23.2726 25.1492 23.1672 25.3446 22.905C25.5612 22.6143 25.8488 22.3841 26.1798 22.2363ZM23.935 22.0618C23.935 22.0618 23.9355 22.0625 23.9362 22.0639L23.935 22.0618ZM25.5683 20.8666C26.1162 20.622 26.7161 20.5176 27.3138 20.5624C27.8801 20.5354 28.4461 20.624 28.9774 20.8229C29.5263 21.0284 30.0259 21.347 30.4436 21.7582C30.8613 22.1694 31.1879 22.6638 31.402 23.2094C31.614 23.7495 31.7112 24.3277 31.6875 24.9073L31.6875 30.7426C31.6875 31.0266 31.6466 31.3363 31.4863 31.6093C31.3062 31.9158 31.0346 32.0787 30.7686 32.1533C30.5364 32.2184 30.2985 32.219 30.1318 32.2157C30.0392 32.2138 29.967 32.2109 29.8993 32.2082C29.8082 32.2045 29.7252 32.2012 29.6118 32.2012C29.4983 32.2012 29.4153 32.2045 29.3242 32.2082C29.2565 32.2109 29.1843 32.2138 29.0918 32.2157C28.9251 32.219 28.6871 32.2184 28.4549 32.1533C28.1889 32.0787 27.9173 31.9158 27.7372 31.6093C27.5769 31.3363 27.536 31.0266 27.536 30.7426L27.536 26.1712C27.536 26.1499 27.537 26.1286 27.5388 26.1074C27.5497 25.9793 27.533 25.8504 27.4897 25.7294C27.4464 25.6084 27.3775 25.4981 27.2878 25.4061C27.1982 25.314 27.0897 25.2423 26.9699 25.1959C26.85 25.1495 26.7216 25.1294 26.5933 25.137C26.5722 25.1383 26.551 25.1386 26.5299 25.1381C26.4014 25.1348 26.2738 25.1589 26.1553 25.2087C26.0369 25.2584 25.9304 25.3328 25.8428 25.4269C25.7553 25.5209 25.6887 25.6325 25.6475 25.7542C25.6064 25.8759 25.5915 26.0049 25.6039 26.1328C25.6063 26.157 25.6075 26.1812 25.6075 26.2055L25.6075 30.7769C25.6075 31.0628 25.5653 31.3744 25.4017 31.6483C25.2189 31.9543 24.9454 32.1149 24.6806 32.1882C24.4484 32.2526 24.2102 32.2533 24.0422 32.25C23.9491 32.2481 23.8764 32.2452 23.8084 32.2425L23.8082 32.2425L23.8081 32.2425C23.7168 32.2388 23.6337 32.2355 23.5203 32.2355C23.4069 32.2355 23.3239 32.2388 23.2328 32.2425C23.1651 32.2452 23.0929 32.2481 23.0003 32.25C22.8336 32.2533 22.5957 32.2527 22.3635 32.1876C22.0975 32.113 21.8258 31.95 21.6458 31.6436C21.4855 31.3706 21.4446 31.0609 21.4446 30.7769L21.4446 22.2055C21.4446 21.8807 21.5027 21.5339 21.7109 21.2417C21.9346 20.9278 22.247 20.7924 22.5161 20.7386C22.6603 20.7098 22.8359 20.7027 22.9727 20.7001C23.1258 20.6971 23.2982 20.6991 23.464 20.7028C23.6237 20.7063 23.7702 20.7109 23.8979 20.715L23.898 20.715L23.898 20.715C24.0553 20.72 24.1842 20.724 24.2746 20.724C24.6618 20.724 24.9255 20.9115 25.0983 21.1195C25.248 21.0241 25.4051 20.9394 25.5683 20.8666Z" fill="white"/>
    <path d="M0.999999 24C1 11.2974 11.2975 0.999998 24 0.999999L24 -1C10.1929 -1 -1 10.1929 -1 24L0.999999 24ZM24 47C11.2974 47 0.999998 36.7025 0.999999 24L-1 24C-1 37.8071 10.1929 49 24 49L24 47ZM47 24C47 36.7025 36.7025 47 24 47L24 49C37.8071 49 49 37.8071 49 24L47 24ZM49 24C49 10.1929 37.8071 -1 24 -1L24 0.999999C36.7025 1 47 11.2975 47 24L49 24Z" fill="white"/>
</svg>
