<svg width="16" height="17" viewBox="0 0 16 17" fill="none" xmlns="http://www.w3.org/2000/svg">
    <path fill-rule="evenodd" clip-rule="evenodd" d="M3 2.49738C3 2.22123 3.22386 1.99738 3.5 1.99738H14.5C14.7761 1.99738 15 2.22123 15 2.49738V13.4974C15 13.7735 14.7761 13.9974 14.5 13.9974H3.5C3.22386 13.9974 3 13.7735 3 13.4974V2.49738ZM3.5 0.997375C2.67157 0.997375 2 1.66895 2 2.49738V13.4974C2 14.3258 2.67157 14.9974 3.5 14.9974H14.5C15.3284 14.9974 16 14.3258 16 13.4974V2.49738C16 1.66895 15.3284 0.997375 14.5 0.997375H3.5ZM1 3.49738C1 3.22123 0.776142 2.99738 0.5 2.99738C0.223858 2.99738 0 3.22123 0 3.49738V15.4974C0 15.8952 0.158036 16.2767 0.43934 16.558C0.720644 16.8393 1.10217 16.9974 1.5 16.9974H13.5C13.7761 16.9974 14 16.7735 14 16.4974C14 16.2212 13.7761 15.9974 13.5 15.9974H1.5C1.36739 15.9974 1.24022 15.9447 1.14645 15.8509C1.05268 15.7572 1 15.63 1 15.4974V3.49738ZM9.5 3.99738C9.77614 3.99738 10 4.22123 10 4.49738V6.99738H12.5C12.7761 6.99738 13 7.22123 13 7.49738C13 7.77352 12.7761 7.99738 12.5 7.99738H10V10.4974C10 10.7735 9.77614 10.9974 9.5 10.9974C9.22386 10.9974 9 10.7735 9 10.4974V7.99738H6.5C6.22386 7.99738 6 7.77352 6 7.49738C6 7.22123 6.22386 6.99738 6.5 6.99738H9V4.49738C9 4.22123 9.22386 3.99738 9.5 3.99738Z" fill="#0024CF"/>
</svg>
