<svg viewBox="0 0 27 27" fill="none" xmlns="http://www.w3.org/2000/svg">
<path fill-rule="evenodd" clip-rule="evenodd" d="M4.51857 4.47731C6.90966 2.08622 10.1527 0.74292 13.5342 0.74292C16.9157 0.74292 20.1587 2.08622 22.5498 4.47731C24.9409 6.8684 26.2842 10.1114 26.2842 13.4929C26.2842 16.8744 24.9409 20.1174 22.5498 22.5085C20.1587 24.8996 16.9157 26.2429 13.5342 26.2429C10.1527 26.2429 6.90966 24.8996 4.51857 22.5085C2.12748 20.1174 0.78418 16.8744 0.78418 13.4929C0.78418 10.1114 2.12748 6.8684 4.51857 4.47731ZM13.5342 2.24292C10.5505 2.24292 7.68901 3.42818 5.57923 5.53797C3.46944 7.64775 2.28418 10.5092 2.28418 13.4929C2.28418 16.4766 3.46944 19.3381 5.57923 21.4479C7.68901 23.5577 10.5505 24.7429 13.5342 24.7429C16.5179 24.7429 19.3793 23.5577 21.4891 21.4479C23.5989 19.3381 24.7842 16.4766 24.7842 13.4929C24.7842 10.5092 23.5989 7.64775 21.4891 5.53797C19.3793 3.42818 16.5179 2.24292 13.5342 2.24292ZM13.5342 8.45728C13.9484 8.45728 14.2842 8.79306 14.2842 9.20728V13.1823L19.4211 18.3204C19.714 18.6133 19.7139 19.0882 19.421 19.381C19.1281 19.6739 18.6532 19.6738 18.3604 19.3809L13.0099 14.0293C12.9858 14.0057 12.9632 13.9805 12.9424 13.9538C12.9084 13.9103 12.8799 13.8639 12.8569 13.8155C12.8106 13.7184 12.7845 13.6098 12.7842 13.4952C12.7842 13.4944 12.7842 13.4937 12.7842 13.493V13.4923V9.20728C12.7842 8.79306 13.12 8.45728 13.5342 8.45728Z" fill="#0024CF"/>
</svg>
