<?xml version="1.0" encoding="UTF-8" standalone="no"?>
<!DOCTYPE svg PUBLIC "-//W3C//DTD SVG 1.1//EN" "http://www.w3.org/Graphics/SVG/1.1/DTD/svg11.dtd">
<svg width="100%" height="100%" viewBox="0 0 64 64" version="1.1" xmlns="http://www.w3.org/2000/svg" xmlns:xlink="http://www.w3.org/1999/xlink" xml:space="preserve" xmlns:serif="http://www.serif.com/" style="fill-rule:evenodd;clip-rule:evenodd;stroke-linejoin:round;stroke-miterlimit:2;">
    <g transform="matrix(2.6907,0,0,2.6907,-54.1027,-54.1024)">
        <path d="M36.986,31.25C36.687,27.831 35.513,24.553 33.584,21.727C38.33,22.453 42.02,26.389 42.367,31.25L36.986,31.25ZM35.48,31.25C35.166,27.937 33.963,24.77 32.001,22.085C30.038,24.77 28.835,27.937 28.522,31.25L35.48,31.25ZM28.522,32.75L35.48,32.75C35.166,36.063 33.963,39.23 32.001,41.915C30.038,39.23 28.835,36.063 28.522,32.75ZM27.015,31.25C27.315,27.831 28.489,24.553 30.417,21.727C25.671,22.453 21.981,26.389 21.634,31.25L27.015,31.25ZM21.634,32.75L27.015,32.75C27.315,36.169 28.489,39.447 30.417,42.273C25.671,41.548 21.981,37.611 21.634,32.75ZM36.986,32.75L42.367,32.75C42.02,37.611 38.33,41.547 33.584,42.273C35.513,39.447 36.687,36.169 36.986,32.75ZM43.893,32C43.893,25.432 38.569,20.107 32.001,20.107L32,20.107C25.432,20.107 20.107,25.432 20.107,32C20.107,38.568 25.432,43.893 32,43.893C38.569,43.893 43.893,38.568 43.893,32Z"/>
    </g>
</svg>
