<svg viewBox="0 0 64 64" fill="none" xmlns="http://www.w3.org/2000/svg">
    <circle cx="32" cy="32" r="31.25" stroke="url(#paint0_linear_642_31935)" stroke-width="1.5"/>
    <path fill-rule="evenodd" clip-rule="evenodd" d="M36.9858 31.25C36.6866 27.8315 35.5126 24.5527 33.5841 21.7271C38.3304 22.4528 42.0198 26.3892 42.3665 31.25H36.9858ZM35.4796 31.25C35.1659 27.9367 33.9633 24.7701 32.0006 22.0848C30.0378 24.7701 28.8352 27.9367 28.5215 31.25H35.4796ZM28.5215 32.75H35.4796C35.1659 36.0633 33.9633 39.23 32.0006 41.9152C30.0378 39.23 28.8352 36.0633 28.5215 32.75ZM27.0153 31.25C27.3145 27.8314 28.4886 24.5526 30.417 21.727C25.6705 22.4525 21.9807 26.389 21.6341 31.25H27.0153ZM21.6341 32.75H27.0153C27.3145 36.1686 28.4886 39.4474 30.417 42.2731C25.6705 41.5476 21.9807 37.6111 21.6341 32.75ZM36.9858 32.75H42.3665C42.0199 37.6108 38.3304 41.5472 33.5841 42.273C35.5126 39.4474 36.6867 36.1686 36.9858 32.75ZM43.8931 32C43.8931 25.4319 38.5687 20.1073 32.0006 20.1072H32.0003C25.432 20.1072 20.1074 25.4318 20.1074 32C20.1074 38.5683 25.432 43.8929 32.0003 43.8929C38.5685 43.8929 43.8931 38.5683 43.8931 32C43.8931 32 43.8931 32 43.8931 32Z" fill="url(#paint1_linear_642_31935)"/>
    <defs>
        <linearGradient id="paint0_linear_642_31935" x1="32" y1="0" x2="32" y2="64" gradientUnits="userSpaceOnUse">
            <stop stop-color="#0024CF"/>
            <stop offset="1" stop-color="#D91C52"/>
        </linearGradient>
        <linearGradient id="paint1_linear_642_31935" x1="32.0003" y1="20.1072" x2="32.0003" y2="43.8929" gradientUnits="userSpaceOnUse">
            <stop stop-color="#0024CF"/>
            <stop offset="1" stop-color="#D91C52"/>
        </linearGradient>
    </defs>
</svg>
